<svg width="120" height="120" viewBox="0 0 120 120" fill="none" xmlns="http://www.w3.org/2000/svg">
<path opacity="0.5" fill-rule="evenodd" clip-rule="evenodd" d="M27.5922 110.72C27.5922 110.72 -1.41481 97.1632 0.0539524 72.5145C1.59615 46.6334 13.4148 53.6273 27.5922 20.1359C41.7696 -13.3555 104.7 -2.91163 103.476 35.5414C102.252 73.8817 125.506 75.5956 118.775 99.628C112.959 120.39 64.922 127.358 27.5922 110.72Z" fill="#E3E829"/>
<path opacity="0.5" fill-rule="evenodd" clip-rule="evenodd" d="M103.169 32.0625C103.169 32.0625 120.863 40.332 119.967 55.3677C119.026 71.1552 111.817 66.8889 103.169 87.3187C94.5205 107.748 56.1333 101.378 56.8799 77.9213C57.6265 54.5337 43.4412 53.4883 47.5475 38.8285C51.095 26.1635 80.3976 21.9134 103.169 32.0625Z" fill="#E3E829"/>
<circle cx="58.1649" cy="110.618" r="1.83673" stroke="#B8AC08"/>
<circle cx="110.815" cy="51.8425" r="3.06122" stroke="#B8AC08"/>
<ellipse cx="11.6336" cy="78.782" rx="1.83673" ry="1.83673" stroke="#B8AC08"/>
<path d="M49.8755 10.4955L54.9971 11.8679L51.2479 15.6171L49.8755 10.4955Z" stroke="#B8AC08"/>
<path d="M88.5035 49.2048H84.9265C83.1026 46.1404 80.5184 43.5991 77.4243 41.827V31.5046H74.2588C71.3638 31.4376 68.4994 32.1088 65.9354 33.4549C63.3713 34.801 61.192 36.7777 59.6025 39.1989H45.611C41.9918 39.2037 38.4398 40.1767 35.3231 42.017C34.5403 40.8972 33.4979 39.9838 32.285 39.3552C31.0721 38.7265 29.725 38.4013 28.359 38.4073C27.5194 38.4073 26.7143 38.7409 26.1206 39.3347C25.527 39.9286 25.1935 40.734 25.1935 41.5737C25.1935 42.4135 25.527 43.2189 26.1206 43.8127C26.7143 44.4065 27.5194 44.7401 28.359 44.7401C28.7741 44.7359 29.1814 44.8537 29.5303 45.0788C29.8792 45.304 30.1543 45.6266 30.3216 46.0067C28.3968 48.1662 26.955 50.7117 26.0925 53.4733C25.2301 56.2348 24.9668 59.1487 25.3204 62.0201C25.674 64.8915 26.6362 67.6544 28.1429 70.1241C29.6495 72.5937 31.6657 74.7132 34.0569 76.3409V82.1671C34.0983 83.8666 34.8046 85.4819 36.0239 86.6661C37.2433 87.8503 38.8784 88.5087 40.5778 88.4999H46.9088C48.6113 88.5089 50.2499 87.8515 51.4743 86.6682C52.6987 85.4848 53.4119 83.8694 53.4614 82.1671V80.1089H56.6269V82.1671C56.6765 83.8694 57.3897 85.4848 58.6141 86.6682C59.8385 87.8515 61.477 88.5089 63.1795 88.4999H69.5105C71.213 88.5089 72.8516 87.8515 74.076 86.6682C75.3004 85.4848 76.0135 83.8694 76.0631 82.1671V78.0508C79.7565 76.3188 82.8445 73.5168 84.9265 70.0081H88.5035C90.2025 69.9666 91.8175 69.2602 93.0013 68.0405C94.1851 66.8208 94.8433 65.1852 94.8345 63.4853V55.7276C94.8433 54.0276 94.1851 52.3921 93.0013 51.1724C91.8175 49.9527 90.2025 49.2462 88.5035 49.2048ZM88.5035 63.5169H80.8747L80.02 65.3851C79.212 67.0928 78.066 68.6188 76.6513 69.8706C75.2367 71.1224 73.5827 72.074 71.7897 72.6679L69.5738 73.3961V82.1671H63.1795V73.6178H46.9721V82.1671H40.6411V72.6679L38.9634 71.7496C36.2756 70.2601 34.1571 67.9216 32.9392 65.0997C31.7214 62.2778 31.4729 59.1317 32.2326 56.1535C32.9923 53.1753 34.7174 50.533 37.138 48.6398C39.5586 46.7466 42.5383 45.7093 45.611 45.6901H63.686L64.509 43.6319C65.1065 42.3429 65.9855 41.2043 67.0811 40.3001C68.1768 39.3959 69.4613 38.7491 70.84 38.4073V45.975L72.771 46.83C75.9462 48.1401 78.5271 50.5752 80.02 53.6694L80.8747 55.5693H88.5035V63.5169ZM58.8744 57.7541H58.178V55.6326H60.9637C61.459 55.6326 61.934 55.4358 62.2843 55.0854C62.6345 54.7351 62.8313 54.2599 62.8313 53.7644C62.8313 53.2689 62.6345 52.7938 62.2843 52.4434C61.934 52.0931 61.459 51.8962 60.9637 51.8962H58.178V50.503C58.1186 50.0454 57.8947 49.625 57.5481 49.3205C57.2015 49.0159 56.7559 48.8479 56.2945 48.8479C55.8332 48.8479 55.3876 49.0159 55.041 49.3205C54.6944 49.625 54.4705 50.0454 54.4111 50.503V51.9912H53.683C52.9945 51.8784 52.2897 51.9167 51.6175 52.1034C50.9452 52.2902 50.3216 52.6209 49.7899 53.0727C49.2582 53.5246 48.8311 54.0867 48.5381 54.72C48.2452 55.3534 48.0935 56.043 48.0935 56.7408C48.0935 57.4387 48.2452 58.1282 48.5381 58.7616C48.8311 59.395 49.2582 59.9571 49.7899 60.4089C50.3216 60.8607 50.9452 61.1915 51.6175 61.3783C52.2897 61.565 52.9945 61.6033 53.683 61.4904H54.3794V63.6119H50.7707C50.2754 63.6119 49.8004 63.8088 49.4501 64.1591C49.0999 64.5095 48.9031 64.9846 48.9031 65.4801C48.9031 65.9756 49.0999 66.4508 49.4501 66.8011C49.8004 67.1515 50.2754 67.3483 50.7707 67.3483H54.4111V68.8365C54.4705 69.2941 54.6944 69.7145 55.041 70.0191C55.3876 70.3236 55.8332 70.4916 56.2945 70.4916C56.7559 70.4916 57.2015 70.3236 57.5481 70.0191C57.8947 69.7145 58.1186 69.2941 58.178 68.8365V67.3483H58.8744C60.0007 67.1637 61.0246 66.5847 61.7635 65.7147C62.5024 64.8447 62.908 63.7403 62.908 62.5987C62.908 61.4571 62.5024 60.3527 61.7635 59.4827C61.0246 58.6127 60.0007 58.0337 58.8744 57.8491V57.7541ZM54.4111 57.7541H53.683C53.4332 57.7107 53.2067 57.5806 53.0434 57.3865C52.8802 57.1925 52.7906 56.947 52.7906 56.6933C52.7906 56.4397 52.8802 56.1942 53.0434 56.0002C53.2067 55.8061 53.4332 55.6759 53.683 55.6326H54.3794L54.4111 57.7541ZM58.8744 63.6119H58.178V61.4904H58.8744C59.1243 61.5338 59.3508 61.664 59.514 61.858C59.6773 62.0521 59.7668 62.2976 59.7668 62.5512C59.7668 62.8048 59.6773 63.0503 59.514 63.2444C59.3508 63.4384 59.1243 63.5686 58.8744 63.6119Z" fill="#292730"/>
</svg>
