<svg width="120" height="120" viewBox="0 0 120 120" fill="none" xmlns="http://www.w3.org/2000/svg">
<g clip-path="url(#clip0)">
<path fill-rule="evenodd" clip-rule="evenodd" d="M112.536 71.8075C109.848 74.9275 106.632 79.1515 103.176 87.3115C94.5357 107.736 56.1357 101.376 56.8797 77.9035C57.6237 54.5275 43.4397 53.4715 47.5437 38.8075C51.0957 26.1595 80.3997 21.9115 103.176 32.0635C103.176 32.0635 103.272 32.1115 103.416 32.1835C100.992 -3.50447 41.3517 -12.3605 27.5997 20.1355C13.4157 53.6155 1.60773 46.6315 0.0477337 72.5035C-1.41627 97.1516 27.5997 110.712 27.5997 110.712C64.9197 127.344 112.968 120.384 118.776 99.6236C122.304 87.0715 117.624 80.5915 112.536 71.8075Z" fill="#FEFA6C"/>
<path fill-rule="evenodd" clip-rule="evenodd" d="M103.464 35.5436C102.888 53.8316 107.88 63.7916 112.512 71.8076C116.544 67.1036 119.376 64.8476 119.952 55.3676C120.792 41.3756 105.528 33.2396 103.392 32.1836C103.488 33.2876 103.512 34.3916 103.464 35.5436Z" fill="#FEFA6C"/>
<path d="M58.152 112.944C56.856 112.944 55.824 111.888 55.824 110.616C55.824 109.344 56.88 108.288 58.152 108.288C59.448 108.288 60.48 109.344 60.48 110.616C60.48 111.888 59.448 112.944 58.152 112.944ZM58.152 109.272C57.408 109.272 56.808 109.872 56.808 110.616C56.808 111.36 57.408 111.96 58.152 111.96C58.896 111.96 59.496 111.36 59.496 110.616C59.496 109.872 58.896 109.272 58.152 109.272Z" fill="#B8AC08"/>
<path d="M110.808 55.3921C108.84 55.3921 107.256 53.7841 107.256 51.8401C107.256 49.8721 108.864 48.2881 110.808 48.2881C112.776 48.2881 114.36 49.8961 114.36 51.8401C114.384 53.8081 112.776 55.3921 110.808 55.3921ZM110.808 49.2721C109.392 49.2721 108.24 50.4241 108.24 51.8401C108.24 53.2561 109.392 54.4081 110.808 54.4081C112.224 54.4081 113.376 53.2561 113.376 51.8401C113.376 50.4241 112.224 49.2721 110.808 49.2721Z" fill="#B8AC08"/>
<path d="M11.64 81.1199C10.344 81.1199 9.31201 80.0639 9.31201 78.7919C9.31201 77.5199 10.368 76.4639 11.64 76.4639C12.936 76.4639 13.968 77.5199 13.968 78.7919C13.968 80.0639 12.912 81.1199 11.64 81.1199ZM11.64 77.4479C10.896 77.4479 10.296 78.0479 10.296 78.7919C10.296 79.5359 10.896 80.1359 11.64 80.1359C12.384 80.1359 12.984 79.5359 12.984 78.7919C12.96 78.0479 12.36 77.4479 11.64 77.4479Z" fill="#B8AC08"/>
<path d="M51 16.584L49.176 9.79199L55.968 11.616L51 16.584ZM50.592 11.208L51.528 14.664L54.048 12.144L50.592 11.208Z" fill="#B8AC08"/>
<path fill-rule="evenodd" clip-rule="evenodd" d="M103.464 35.5438C103.512 34.3918 103.488 33.2878 103.416 32.1838C103.248 32.1118 103.176 32.0638 103.176 32.0638C80.4001 21.9118 51.0961 26.1598 47.5441 38.8318C43.4401 53.4958 57.6241 54.5278 56.8801 77.9278C56.1361 101.376 94.5121 107.76 103.176 87.3358C106.632 79.1758 109.848 74.9518 112.536 71.8318C107.88 63.7918 102.888 53.8318 103.464 35.5438Z" fill="#F5F548"/>
</g>
<path d="M87.0021 49.7729H83.6134C81.8855 46.8698 79.4373 44.4623 76.506 42.7835V33.0043H73.5071C70.7645 32.9409 68.0509 33.5768 65.6218 34.852C63.1927 36.1273 61.128 37.9999 59.6222 40.2937H46.3671C42.9384 40.2983 39.5733 41.22 36.6206 42.9635C35.8791 41.9026 34.8915 41.0373 33.7424 40.4417C32.5934 39.8462 31.3172 39.538 30.0231 39.5438C29.2277 39.5438 28.4649 39.8598 27.9025 40.4224C27.3401 40.985 27.0242 41.748 27.0242 42.5435C27.0242 43.3391 27.3401 44.1021 27.9025 44.6647C28.4649 45.2273 29.2277 45.5433 30.0231 45.5433C30.4164 45.5393 30.8022 45.6509 31.1327 45.8642C31.4632 46.0775 31.7239 46.3831 31.8824 46.7432C30.0589 48.789 28.693 51.2006 27.8759 53.8168C27.0588 56.433 26.8094 59.1935 27.1444 61.9138C27.4794 64.6341 28.391 67.2516 29.8183 69.5912C31.2456 71.9309 33.1558 73.9388 35.4211 75.4809V81.0004C35.4603 82.6104 36.1294 84.1408 37.2846 85.2626C38.4398 86.3845 39.9888 87.0082 41.5988 86.9999H47.5966C49.2095 87.0084 50.7618 86.3856 51.9218 85.2646C53.0817 84.1435 53.7574 82.6131 53.8043 81.0004V79.0506H56.8032V81.0004C56.8502 82.6131 57.5258 84.1435 58.6858 85.2646C59.8457 86.3856 61.398 87.0084 63.0109 86.9999H69.0087C70.6216 87.0084 72.1739 86.3856 73.3339 85.2646C74.4939 84.1435 75.1695 82.6131 75.2165 81.0004V77.1007C78.7155 75.4599 81.6409 72.8054 83.6134 69.4813H87.0021C88.6117 69.4421 90.1416 68.7728 91.2631 67.6173C92.3847 66.4618 93.0082 64.9123 92.9999 63.3018V55.9524C93.0082 54.342 92.3847 52.7925 91.2631 51.637C90.1416 50.4815 88.6117 49.8122 87.0021 49.7729ZM87.0021 63.3318H79.7748L78.9651 65.1017C78.1996 66.7195 77.1139 68.1652 75.7737 69.3511C74.4335 70.537 72.8666 71.4386 71.1679 72.0011L69.0687 72.6911V81.0004H63.0109V72.9011H47.6566V81.0004H41.6588V72.0011L40.0694 71.1312C37.523 69.7201 35.516 67.5046 34.3623 64.8313C33.2085 62.1579 32.9731 59.1774 33.6928 56.356C34.4125 53.5345 36.0468 51.0313 38.34 49.2377C40.6333 47.4441 43.4561 46.4614 46.3671 46.4432H63.4908L64.2705 44.4934C64.8365 43.2722 65.6692 42.1936 66.7072 41.337C67.7452 40.4804 68.9621 39.8676 70.2683 39.5438V46.7132L72.0976 47.5231C75.1057 48.7643 77.5508 51.0712 78.9651 54.0026L79.7748 55.8025H87.0021V63.3318ZM58.9324 57.8723H58.2727V55.8625H60.9117C61.381 55.8625 61.831 55.676 62.1628 55.3441C62.4946 55.0122 62.6811 54.562 62.6811 54.0926C62.6811 53.6232 62.4946 53.173 62.1628 52.8411C61.831 52.5092 61.381 52.3227 60.9117 52.3227H58.2727V51.0028C58.2164 50.5693 58.0042 50.1711 57.6759 49.8825C57.3475 49.594 56.9254 49.4349 56.4883 49.4349C56.0513 49.4349 55.6291 49.594 55.3008 49.8825C54.9724 50.1711 54.7603 50.5693 54.704 51.0028V52.4127H54.0142C53.362 52.3058 52.6943 52.3421 52.0574 52.519C51.4206 52.6959 50.8298 53.0093 50.3261 53.4373C49.8223 53.8654 49.4177 54.3979 49.1402 54.9979C48.8626 55.598 48.7189 56.2512 48.7189 56.9124C48.7189 57.5735 48.8626 58.2268 49.1402 58.8268C49.4177 59.4269 49.8223 59.9594 50.3261 60.3874C50.8298 60.8154 51.4206 61.1288 52.0574 61.3057C52.6943 61.4826 53.362 61.5189 54.0142 61.412H54.674V63.4218H51.2553C50.786 63.4218 50.336 63.6083 50.0041 63.9402C49.6723 64.2721 49.4859 64.7223 49.4859 65.1917C49.4859 65.6611 49.6723 66.1113 50.0041 66.4432C50.336 66.7751 50.786 66.9615 51.2553 66.9615H54.704V68.3714C54.7603 68.805 54.9724 69.2032 55.3008 69.4917C55.6291 69.7803 56.0513 69.9394 56.4883 69.9394C56.9254 69.9394 57.3475 69.7803 57.6759 69.4917C58.0042 69.2032 58.2164 68.805 58.2727 68.3714V66.9615H58.9324C59.9994 66.7867 60.9695 66.2382 61.6695 65.4139C62.3694 64.5897 62.7537 63.5434 62.7537 62.4619C62.7537 61.3804 62.3694 60.3341 61.6695 59.5099C60.9695 58.6857 59.9994 58.1371 58.9324 57.9623V57.8723ZM54.704 57.8723H54.0142C53.7776 57.8312 53.563 57.7079 53.4083 57.5241C53.2536 57.3402 53.1688 57.1077 53.1688 56.8674C53.1688 56.6271 53.2536 56.3945 53.4083 56.2107C53.563 56.0268 53.7776 55.9035 54.0142 55.8625H54.674L54.704 57.8723ZM58.9324 63.4218H58.2727V61.412H58.9324C59.1691 61.4531 59.3837 61.5764 59.5384 61.7602C59.693 61.9441 59.7778 62.1766 59.7778 62.4169C59.7778 62.6572 59.693 62.8898 59.5384 63.0736C59.3837 63.2575 59.1691 63.3808 58.9324 63.4218Z" fill="#292730"/>
<defs>
<clipPath id="clip0">
<rect width="120" height="120" fill="white"/>
</clipPath>
</defs>
</svg>
