<svg width="120" height="120" viewBox="0 0 120 120" fill="none" xmlns="http://www.w3.org/2000/svg">
<g clip-path="url(#clip0)">
<path d="M103.4 32.1992C105.5 33.2992 120.8 41.3992 120 55.3992C119.4 64.8992 116.6 67.0992 112.6 71.7992C108 63.7992 103 53.7992 103.6 35.4992C103.5 34.3992 103.5 33.2992 103.4 32.1992Z" fill="#B8F5F6"/>
<path d="M112.5 71.8011C109.8 74.9011 106.6 79.2011 103.1 87.3011C94.3997 107.701 56.0997 101.401 56.7997 77.9011C57.5997 54.5011 43.3997 53.5011 47.4997 38.8011C50.9997 26.1011 80.3997 21.9011 103.1 32.0011C103.1 32.0011 103.2 32.0011 103.3 32.1011C103.4 33.2011 103.4 34.3011 103.4 35.5011C102.9 53.8011 107.9 63.8011 112.5 71.8011Z" fill="#8AE9EE"/>
<path d="M27.6002 20.1011C41.4002 -12.3989 101 -3.49889 103.4 32.1011C103.2 32.0011 103.2 32.0011 103.2 32.0011C80.4002 21.9011 51.1002 26.1011 47.6002 38.8011C43.5002 53.5011 57.7002 54.5011 56.9002 77.9011C56.1002 101.401 94.5002 107.701 103.2 87.3011C106.7 79.2011 109.9 74.9011 112.6 71.8011C117.7 80.6011 122.4 87.0011 118.8 99.6011C113 120.401 64.9002 127.301 27.6002 110.701C27.6002 110.701 -1.39981 97.1011 0.100191 72.5011C1.60019 46.6011 13.4002 53.6011 27.6002 20.1011Z" fill="#B8F5F6"/>
<path d="M58.2004 112.401C59.1945 112.401 60.0004 111.595 60.0004 110.601C60.0004 109.607 59.1945 108.801 58.2004 108.801C57.2063 108.801 56.4004 109.607 56.4004 110.601C56.4004 111.595 57.2063 112.401 58.2004 112.401Z" stroke="#00AEC7"/>
<path d="M110.8 54.8992C112.512 54.8992 113.9 53.5113 113.9 51.7992C113.9 50.0871 112.512 48.6992 110.8 48.6992C109.088 48.6992 107.7 50.0871 107.7 51.7992C107.7 53.5113 109.088 54.8992 110.8 54.8992Z" stroke="#00AEC7"/>
<path d="M11.5998 80.6C12.5939 80.6 13.3998 79.7941 13.3998 78.8C13.3998 77.8059 12.5939 77 11.5998 77C10.6057 77 9.7998 77.8059 9.7998 78.8C9.7998 79.7941 10.6057 80.6 11.5998 80.6Z" stroke="#00AEC7"/>
<path d="M49.9004 10.5L55.0004 11.9L51.3004 15.6L49.9004 10.5Z" stroke="#00AEC7"/>
<path d="M87.0021 49.7729H83.6134C81.8855 46.8698 79.4373 44.4623 76.506 42.7835V33.0043H73.5071C70.7645 32.9409 68.0509 33.5768 65.6218 34.852C63.1927 36.1273 61.128 37.9999 59.6222 40.2937H46.3671C42.9384 40.2983 39.5733 41.22 36.6206 42.9635C35.8791 41.9026 34.8915 41.0373 33.7424 40.4417C32.5934 39.8462 31.3172 39.538 30.0231 39.5438C29.2277 39.5438 28.4649 39.8598 27.9025 40.4224C27.3401 40.985 27.0242 41.748 27.0242 42.5435C27.0242 43.3391 27.3401 44.1021 27.9025 44.6647C28.4649 45.2273 29.2277 45.5433 30.0231 45.5433C30.4164 45.5393 30.8022 45.6509 31.1327 45.8642C31.4632 46.0775 31.7239 46.3831 31.8824 46.7432C30.0589 48.789 28.693 51.2006 27.8759 53.8168C27.0588 56.433 26.8094 59.1935 27.1444 61.9138C27.4794 64.6341 28.391 67.2516 29.8183 69.5912C31.2456 71.9309 33.1558 73.9388 35.4211 75.4809V81.0004C35.4603 82.6104 36.1294 84.1408 37.2846 85.2626C38.4398 86.3845 39.9888 87.0082 41.5988 86.9999H47.5966C49.2095 87.0084 50.7618 86.3856 51.9218 85.2646C53.0817 84.1435 53.7574 82.6131 53.8043 81.0004V79.0506H56.8032V81.0004C56.8502 82.6131 57.5258 84.1435 58.6858 85.2646C59.8457 86.3856 61.398 87.0084 63.0109 86.9999H69.0087C70.6216 87.0084 72.1739 86.3856 73.3339 85.2646C74.4939 84.1435 75.1695 82.6131 75.2165 81.0004V77.1007C78.7155 75.4599 81.6409 72.8054 83.6134 69.4813H87.0021C88.6117 69.4421 90.1416 68.7728 91.2631 67.6173C92.3847 66.4618 93.0082 64.9123 92.9999 63.3018V55.9524C93.0082 54.342 92.3847 52.7925 91.2631 51.637C90.1416 50.4815 88.6117 49.8122 87.0021 49.7729ZM87.0021 63.3318H79.7748L78.9651 65.1017C78.1996 66.7195 77.1139 68.1652 75.7737 69.3511C74.4335 70.537 72.8666 71.4386 71.1679 72.0011L69.0687 72.6911V81.0004H63.0109V72.9011H47.6566V81.0004H41.6588V72.0011L40.0694 71.1312C37.523 69.7201 35.516 67.5046 34.3623 64.8313C33.2085 62.1579 32.9731 59.1774 33.6928 56.356C34.4125 53.5345 36.0468 51.0313 38.34 49.2377C40.6333 47.4441 43.4561 46.4614 46.3671 46.4432H63.4908L64.2705 44.4934C64.8365 43.2722 65.6692 42.1936 66.7072 41.337C67.7452 40.4804 68.9621 39.8676 70.2683 39.5438V46.7132L72.0976 47.5231C75.1057 48.7643 77.5508 51.0712 78.9651 54.0026L79.7748 55.8025H87.0021V63.3318ZM58.9324 57.8723H58.2727V55.8625H60.9117C61.381 55.8625 61.831 55.676 62.1628 55.3441C62.4946 55.0122 62.6811 54.562 62.6811 54.0926C62.6811 53.6232 62.4946 53.173 62.1628 52.8411C61.831 52.5092 61.381 52.3227 60.9117 52.3227H58.2727V51.0028C58.2164 50.5693 58.0042 50.1711 57.6759 49.8825C57.3475 49.594 56.9254 49.4349 56.4883 49.4349C56.0513 49.4349 55.6291 49.594 55.3008 49.8825C54.9724 50.1711 54.7603 50.5693 54.704 51.0028V52.4127H54.0142C53.362 52.3058 52.6943 52.3421 52.0574 52.519C51.4206 52.6959 50.8298 53.0093 50.3261 53.4373C49.8223 53.8654 49.4177 54.3979 49.1402 54.9979C48.8626 55.598 48.7189 56.2512 48.7189 56.9124C48.7189 57.5735 48.8626 58.2268 49.1402 58.8268C49.4177 59.4269 49.8223 59.9594 50.3261 60.3874C50.8298 60.8154 51.4206 61.1288 52.0574 61.3057C52.6943 61.4826 53.362 61.5189 54.0142 61.412H54.674V63.4218H51.2553C50.786 63.4218 50.336 63.6083 50.0041 63.9402C49.6723 64.2721 49.4859 64.7223 49.4859 65.1917C49.4859 65.6611 49.6723 66.1113 50.0041 66.4432C50.336 66.7751 50.786 66.9615 51.2553 66.9615H54.704V68.3714C54.7603 68.805 54.9724 69.2032 55.3008 69.4917C55.6291 69.7803 56.0513 69.9394 56.4883 69.9394C56.9254 69.9394 57.3475 69.7803 57.6759 69.4917C58.0042 69.2032 58.2164 68.805 58.2727 68.3714V66.9615H58.9324C59.9994 66.7867 60.9695 66.2382 61.6695 65.4139C62.3694 64.5897 62.7537 63.5434 62.7537 62.4619C62.7537 61.3804 62.3694 60.3341 61.6695 59.5099C60.9695 58.6857 59.9994 58.1371 58.9324 57.9623V57.8723ZM54.704 57.8723H54.0142C53.7776 57.8312 53.563 57.7079 53.4083 57.5241C53.2536 57.3402 53.1688 57.1077 53.1688 56.8674C53.1688 56.6271 53.2536 56.3945 53.4083 56.2107C53.563 56.0268 53.7776 55.9035 54.0142 55.8625H54.674L54.704 57.8723ZM58.9324 63.4218H58.2727V61.412H58.9324C59.1691 61.4531 59.3837 61.5764 59.5384 61.7602C59.693 61.9441 59.7778 62.1766 59.7778 62.4169C59.7778 62.6572 59.693 62.8898 59.5384 63.0736C59.3837 63.2575 59.1691 63.3808 58.9324 63.4218Z" fill="#0033A0"/>
</g>
<defs>
<clipPath id="clip0">
<rect width="120" height="120" fill="white"/>
</clipPath>
</defs>
</svg>
