<svg width="48" height="48" viewBox="0 0 48 48" fill="none" xmlns="http://www.w3.org/2000/svg">
<path opacity="0.5" d="M37.806 3.37576C30.275 -1.87761 20.3314 -0.477598 13.6668 4.00243C1.03071 12.5625 -2.64815 34.1893 6.16245 43.216C15.4929 52.8294 38.1525 47.3627 44.6572 32.1093C48.6693 22.8026 46.8165 9.64247 37.806 3.37576Z" fill="#E3E829"/>
<path opacity="0.4" d="M1.14237 15.5356C-1.97765 24.3524 1.6757 33.9695 7.47574 39.545C18.4491 50.1092 39.5426 48.4953 45.9027 37.5176C52.676 25.833 42.2093 4.53122 26.3825 1.67676C16.7291 -0.0839322 4.86239 4.98474 1.14237 15.5356Z" fill="#E3E829"/>
<path fill-rule="evenodd" clip-rule="evenodd" d="M24.5718 15C23.1526 14.9986 21.7553 15.3461 20.505 16.0115C19.2548 16.6768 18.1905 17.6392 17.4078 18.8124C16.625 19.9856 16.1481 21.333 16.0199 22.7338C15.8916 24.1346 16.116 25.545 16.6729 26.8387L15.0506 31.6726C14.9955 31.8463 14.989 32.0315 15.0319 32.2085C15.0748 32.3855 15.1653 32.5477 15.2939 32.6776C15.387 32.7744 15.4986 32.8518 15.6222 32.9053C15.7458 32.9588 15.879 32.9873 16.0138 32.9892C16.1181 33.0036 16.2239 33.0036 16.3282 32.9892L21.2054 31.3812C22.3727 31.8498 23.6297 32.0579 24.8873 31.9907C26.1449 31.9236 27.3721 31.5828 28.4818 30.9926C29.5916 30.4023 30.5565 29.5772 31.3083 28.5757C32.06 27.5742 32.58 26.4209 32.8313 25.1978C33.0827 23.9747 33.0592 22.7117 32.7626 21.4986C32.466 20.2854 31.9035 19.1519 31.1152 18.1785C30.3268 17.2051 29.3318 16.4157 28.2009 15.8664C27.07 15.3171 25.831 15.0213 24.5718 15ZM24.5718 30.0144C23.5765 30.0147 22.5946 29.7877 21.7022 29.3511C21.4583 29.2534 21.1856 29.2534 20.9417 29.3511L17.6058 30.4566L18.7211 27.0598C18.8198 26.8181 18.8198 26.5478 18.7211 26.306C18.2832 25.4345 18.0508 24.4757 18.0418 23.5021C18.0418 22.2141 18.4271 20.9551 19.1491 19.8841C19.8711 18.8132 20.8973 17.9785 22.0979 17.4856C23.2985 16.9927 24.6196 16.8637 25.8942 17.115C27.1687 17.3663 28.3395 17.9865 29.2584 18.8973C30.1773 19.808 30.8031 20.9684 31.0566 22.2317C31.3101 23.4949 31.18 24.8043 30.6827 25.9943C30.1854 27.1843 29.3432 28.2013 28.2627 28.9169C27.1822 29.6325 25.9118 30.0144 24.6123 30.0144H24.5718ZM24.5718 22.5072C24.3028 22.5072 24.0449 22.6131 23.8548 22.8015C23.6646 22.99 23.5578 23.2456 23.5578 23.5122V26.5271C23.5578 26.7937 23.6646 27.0493 23.8548 27.2378C24.0449 27.4262 24.3028 27.5321 24.5718 27.5321C24.8407 27.5321 25.0986 27.4262 25.2888 27.2378C25.4789 27.0493 25.5857 26.7937 25.5857 26.5271V23.5122C25.5857 23.2456 25.4789 22.99 25.2888 22.8015C25.0986 22.6131 24.8407 22.5072 24.5718 22.5072ZM25.2786 21.2079C25.0885 21.3964 24.8306 21.5023 24.5616 21.5023C24.3611 21.5023 24.1651 21.4433 23.9983 21.3329C23.8316 21.2225 23.7016 21.0655 23.6249 20.8819C23.5481 20.6982 23.528 20.4962 23.5672 20.3012C23.6063 20.1063 23.7028 19.9272 23.8447 19.7866C23.9865 19.6461 24.1671 19.5504 24.3638 19.5116C24.5605 19.4728 24.7644 19.4927 24.9497 19.5688C25.1349 19.6449 25.2933 19.7737 25.4047 19.9389C25.5161 20.1042 25.5756 20.2985 25.5756 20.4973C25.5756 20.7638 25.4688 21.0194 25.2786 21.2079Z" fill="#0033A0"/>
</svg>
