<svg width="64" height="64" viewBox="0 0 64 64" fill="none" xmlns="http://www.w3.org/2000/svg">
<path d="M58.6667 50.6667C58.6667 51.374 58.3857 52.0523 57.8856 52.5524C57.3855 53.0525 56.7073 53.3334 56 53.3334H10.6667C9.25219 53.3334 7.89563 52.7715 6.89544 51.7713C5.89525 50.7711 5.33334 49.4146 5.33334 48.0001V13.3334C5.33334 12.6262 5.6143 11.9479 6.11439 11.4478C6.61449 10.9477 7.29277 10.6667 8.00001 10.6667C8.70725 10.6667 9.38553 10.9477 9.88563 11.4478C10.3857 11.9479 10.6667 12.6262 10.6667 13.3334V48.0001H56C56.7073 48.0001 57.3855 48.281 57.8856 48.7811C58.3857 49.2812 58.6667 49.9595 58.6667 50.6667ZM58.4533 18.2134C58.2533 17.7264 57.9136 17.3096 57.477 17.0153C57.0404 16.7211 56.5265 16.5627 56 16.5601H45.8133C45.1061 16.5601 44.4278 16.841 43.9277 17.3411C43.4276 17.8412 43.1467 18.5195 43.1467 19.2267C43.1467 19.934 43.4276 20.6123 43.9277 21.1124C44.4278 21.6125 45.1061 21.8934 45.8133 21.8934H49.5733L40 31.5734L33.28 24.9867C32.7804 24.4901 32.1045 24.2113 31.4 24.2113C30.6955 24.2113 30.0196 24.4901 29.52 24.9867L16.7733 37.7067C16.5234 37.9546 16.325 38.2496 16.1896 38.5745C16.0543 38.8995 15.9845 39.248 15.9845 39.6001C15.9845 39.9521 16.0543 40.3007 16.1896 40.6256C16.325 40.9506 16.5234 41.2455 16.7733 41.4934C17.0212 41.7434 17.3162 41.9417 17.6411 42.0771C17.9661 42.2125 18.3146 42.2822 18.6667 42.2822C19.0187 42.2822 19.3673 42.2125 19.6922 42.0771C20.0172 41.9417 20.3121 41.7434 20.56 41.4934L31.3867 30.6401L38 37.3334C38.4996 37.8301 39.1755 38.1089 39.88 38.1089C40.5845 38.1089 41.2604 37.8301 41.76 37.3334L53.3333 25.6801V29.3334C53.3333 30.0407 53.6143 30.7189 54.1144 31.219C54.6145 31.7191 55.2928 32.0001 56 32.0001C56.7073 32.0001 57.3855 31.7191 57.8856 31.219C58.3857 30.7189 58.6667 30.0407 58.6667 29.3334V19.2267C58.6625 18.8783 58.59 18.534 58.4533 18.2134Z" fill="#B4BCCE"/>
</svg>
