<svg width="10" height="10" viewBox="0 0 10 10" fill="none" xmlns="http://www.w3.org/2000/svg">
<path d="M5.93398 4.9987L9.46732 1.46536C9.73399 1.1987 9.73399 0.798698 9.46732 0.532031C9.20065 0.265365 8.80065 0.265365 8.53399 0.532031L5.00065 4.06536L1.46732 0.532031C1.20065 0.265365 0.800651 0.265365 0.533984 0.532031C0.267318 0.798698 0.267318 1.1987 0.533984 1.46536L4.06732 4.9987L0.533984 8.53203C0.267318 8.7987 0.267318 9.1987 0.533984 9.46537C0.667318 9.5987 0.800651 9.66537 1.00065 9.66537C1.20065 9.66537 1.33398 9.5987 1.46732 9.46537L5.00065 5.93203L8.53399 9.46537C8.66732 9.5987 8.86732 9.66537 9.00065 9.66537C9.13399 9.66537 9.33399 9.5987 9.46732 9.46537C9.73399 9.1987 9.73399 8.7987 9.46732 8.53203L5.93398 4.9987Z" fill="#626277"/>
</svg>
