<svg width="64" height="64" viewBox="0 0 64 64" fill="none" xmlns="http://www.w3.org/2000/svg">
<path opacity="0.5" d="M50.4089 4.50101C40.3676 -2.50348 27.1095 -0.636797 18.2234 5.33657C1.37526 16.75 -3.52989 45.5857 8.21758 57.6214C20.6582 70.4392 50.871 63.1503 59.5439 42.8124C64.8933 30.4034 62.423 12.8566 50.4089 4.50101Z" fill="#B8F5F6"/>
<path opacity="0.4" d="M1.52316 20.2697C-2.63687 32.0254 2.23427 44.8483 9.96765 52.2823C24.5989 66.3679 52.7235 64.2159 61.2035 49.579C70.2347 33.9996 56.2791 5.59723 35.1767 1.79129C22.3055 -0.556306 6.48319 6.20192 1.52316 20.2697Z" fill="#B8F5F6"/>
<path d="M44.6004 34.85C43.2504 34.7 41.9004 34.4 40.7004 33.95C39.0504 33.35 37.2504 33.8 35.9004 35L34.8504 36.05C32.1504 34.25 29.7504 32 27.9504 29.15L29.0004 28.1C30.2004 26.9 30.6504 24.95 30.0504 23.3C29.6004 22.1 29.3004 20.75 29.1504 19.4C28.8504 17.15 26.9004 15.5 24.6504 15.5H20.1504C20.0004 15.5 19.8504 15.5 19.7004 15.5C18.5004 15.65 17.4504 16.25 16.7004 17.15C15.9504 18.05 15.6504 19.25 15.6504 20.45C16.1004 25.25 17.9004 30.05 20.4504 34.1C22.8504 37.85 26.1504 41.15 29.9004 43.55C33.9504 46.25 38.7504 47.9 43.5504 48.35C43.7004 48.35 43.8504 48.35 44.0004 48.35C45.2004 48.35 46.4004 47.9 47.1504 47C47.9004 46.1 48.5004 45.05 48.5004 43.85V39.35C48.5004 37.1 46.8504 35.15 44.6004 34.85ZM45.5004 39.35V43.85C45.5004 44.3 45.3504 44.6 45.0504 44.9C44.7504 45.2 44.4504 45.35 43.8504 45.35C39.5004 44.9 35.3004 43.4 31.5504 41C28.1004 38.9 25.2504 35.9 23.0004 32.45C20.6004 28.7 19.1004 24.5 18.6504 20.15C18.6504 19.7 18.8004 19.4 18.9504 19.1C19.2504 18.8 19.7004 18.5 20.1504 18.5H24.6504C25.4004 18.5 26.0004 19.1 26.1504 19.85C26.3004 21.35 26.7504 23 27.3504 24.35C27.5004 24.95 27.3504 25.55 27.0504 26L25.1004 27.8C24.6504 28.25 24.5004 29 24.8004 29.6C27.0504 33.65 30.3504 36.95 34.4004 39.2C35.0004 39.5 35.7504 39.5 36.2004 38.9L38.1504 36.95C38.6004 36.5 39.2004 36.35 39.8004 36.65C41.3004 37.25 42.8004 37.55 44.3004 37.85C44.9004 38 45.5004 38.6 45.5004 39.35Z" fill="#00AEC7"/>
<path d="M36.7999 14C36.0499 13.85 35.2999 14.45 35.1499 15.35C34.9999 16.1 35.5999 16.85 36.4999 17C42.0499 17.6 46.3999 21.95 47.1499 27.65C47.2999 28.4 47.8999 29 48.6499 29H48.7999C49.5499 28.85 50.1499 28.1 50.1499 27.35C49.2499 20.3 43.6999 14.75 36.7999 14Z" fill="#00AEC7"/>
<path d="M41.0005 27.65C41.1505 28.4 41.7505 28.85 42.5005 28.85C42.6505 28.85 42.6505 28.85 42.8005 28.85C43.5505 28.7 44.1505 27.95 44.0005 27.05C43.2505 23.45 40.5505 20.6 36.9505 20C36.2005 19.85 35.3005 20.3 35.1505 21.2C35.0005 22.1 35.4505 22.85 36.3505 23C38.7505 23.45 40.5505 25.25 41.0005 27.65Z" fill="#00AEC7"/>
</svg>
