<svg width="64" height="64" viewBox="0 0 64 64" fill="none" xmlns="http://www.w3.org/2000/svg">
<path opacity="0.5" d="M50.4089 4.50101C40.3676 -2.50348 27.1095 -0.636797 18.2234 5.33657C1.37526 16.75 -3.52989 45.5857 8.21758 57.6214C20.6582 70.4392 50.871 63.1503 59.5439 42.8124C64.8933 30.4034 62.423 12.8566 50.4089 4.50101Z" fill="#B8F5F6"/>
<path opacity="0.4" d="M1.52316 20.2697C-2.63687 32.0254 2.23427 44.8483 9.96765 52.2823C24.5989 66.3679 52.7235 64.2159 61.2035 49.579C70.2347 33.9996 56.2791 5.59723 35.1767 1.79129C22.3055 -0.556306 6.48319 6.20192 1.52316 20.2697Z" fill="#B8F5F6"/>
<path d="M42.5 18.5H39.5V17C39.5 16.1 38.9 15.5 38 15.5C37.1 15.5 36.5 16.1 36.5 17V18.5H27.5V17C27.5 16.1 26.9 15.5 26 15.5C25.1 15.5 24.5 16.1 24.5 17V18.5H21.5C18.95 18.5 17 20.45 17 23V44C17 46.55 18.95 48.5 21.5 48.5H42.5C45.05 48.5 47 46.55 47 44V23C47 20.45 45.05 18.5 42.5 18.5ZM21.5 21.5H24.5V23C24.5 23.9 25.1 24.5 26 24.5C26.9 24.5 27.5 23.9 27.5 23V21.5H36.5V23C36.5 23.9 37.1 24.5 38 24.5C38.9 24.5 39.5 23.9 39.5 23V21.5H42.5C43.4 21.5 44 22.1 44 23V27.5H20V23C20 22.1 20.6 21.5 21.5 21.5ZM42.5 45.5H21.5C20.6 45.5 20 44.9 20 44V30.5H44V44C44 44.9 43.4 45.5 42.5 45.5Z" fill="#00AEC7"/>
</svg>
