<svg width="21" height="21" viewBox="0 0 21 21" fill="none" xmlns="http://www.w3.org/2000/svg">
<path d="M20.9955 10.5092C21.157 16.4992 16.9574 20.553 10.5167 20.9766C4.07605 21.3799 0.502371 16.5194 0.0379948 10.5092C-0.486952 3.87382 4.50004 0.54604 10.5167 0.0418317C16.8767 -0.482545 20.8138 3.97466 20.9955 10.5092Z" fill="#E3E829"/>
<path d="M14.9673 8.03337C14.7007 7.76671 14.3007 7.76671 14.034 8.03337L10.5007 11.5667L6.96732 8.03337C6.70065 7.76671 6.30065 7.76671 6.03398 8.03337C5.76732 8.30004 5.76732 8.70004 6.03398 8.96671L10.034 12.9667C10.1673 13.1 10.3673 13.1667 10.5007 13.1667C10.634 13.1667 10.834 13.1 10.9673 12.9667L14.9673 8.96671C15.234 8.70004 15.234 8.30004 14.9673 8.03337Z" fill="#0033A0"/>
</svg>
