<svg width="21" height="21" viewBox="0 0 21 21" fill="none" xmlns="http://www.w3.org/2000/svg">
<path d="M20.9955 10.5092C21.157 16.4992 16.9574 20.553 10.5167 20.9766C4.07605 21.3799 0.502371 16.5194 0.0379948 10.5092C-0.486952 3.87382 4.50004 0.54604 10.5167 0.0418317C16.8767 -0.482545 20.8138 3.97466 20.9955 10.5092Z" fill="#464454"/>
<path d="M14.9666 8.03337C14.6999 7.76671 14.2999 7.76671 14.0333 8.03337L10.4999 11.5667L6.96659 8.03337C6.69992 7.76671 6.29992 7.76671 6.03325 8.03337C5.76659 8.30004 5.76659 8.70004 6.03325 8.96671L10.0333 12.9667C10.1666 13.1 10.3666 13.1667 10.4999 13.1667C10.6333 13.1667 10.8333 13.1 10.9666 12.9667L14.9666 8.96671C15.2333 8.70004 15.2333 8.30004 14.9666 8.03337Z" fill="#CBD1DE"/>
</svg>
