<?xml version="1.0" standalone="no"?>
<!DOCTYPE svg PUBLIC "-//W3C//DTD SVG 20010904//EN"
 "http://www.w3.org/TR/2001/REC-SVG-20010904/DTD/svg10.dtd">
<svg version="1.0" xmlns="http://www.w3.org/2000/svg"
 width="512.000000pt" height="512.000000pt" viewBox="0 0 512.000000 512.000000"
 preserveAspectRatio="xMidYMid meet">
<metadata>
Created by potrace 1.15, written by Peter Selinger 2001-2017
</metadata>
<g transform="translate(0.000000,512.000000) scale(0.100000,-0.100000)"
fill="#000000" stroke="none">
<path d="M2310 5114 c-608 -72 -1108 -303 -1523 -703 -409 -394 -656 -861
-758 -1436 -21 -115 -24 -161 -24 -410 0 -224 4 -302 18 -390 89 -542 319
-1007 686 -1388 394 -409 861 -656 1436 -758 115 -21 161 -24 410 -24 307 0
384 8 625 67 334 80 682 250 959 466 119 93 298 268 396 387 297 362 471 745
556 1220 21 115 24 161 24 410 0 224 -4 302 -18 390 -44 268 -121 511 -232
740 -298 612 -845 1092 -1485 1305 -285 94 -455 122 -780 125 -140 2 -271 1
-290 -1z m305 -573 c49 -22 90 -62 119 -116 21 -40 21 -46 26 -815 l5 -775
780 -5 c864 -6 804 -1 872 -72 68 -71 83 -174 38 -265 -30 -59 -71 -94 -138
-117 -42 -14 -134 -16 -802 -16 l-755 0 0 -753 c0 -816 1 -808 -55 -880 -37
-50 -115 -87 -182 -87 -65 0 -117 20 -161 63 -71 68 -66 8 -72 872 l-5 780
-775 5 c-769 5 -775 5 -815 26 -87 47 -134 122 -135 212 0 63 16 106 60 156
67 76 5 70 880 76 l785 5 5 785 c6 864 1 810 67 872 70 67 176 87 258 49z"/>
</g>
</svg>
