<svg width="48" height="48" viewBox="0 0 48 48" fill="none" xmlns="http://www.w3.org/2000/svg">
<path d="M6.06458 9.06652C14.2319 -1.68759 27.1801 -2.89365 38.9331 5.54882C50.686 13.8908 50.0884 27.5596 42.4191 38.7157C33.953 51.0779 20.706 49.8718 9.55063 42.2334C-2.20235 34.0924 -2.79996 20.7252 6.06458 9.06652Z" fill="#0033A0"/>
<path d="M16.7158 24.1121C16.7158 23.7114 16.9161 23.2106 17.2166 22.9101L27.5335 12.5932C28.2347 11.892 29.2363 11.892 29.9375 12.5932C30.6386 13.2943 30.6386 14.296 29.9375 14.9971L20.8225 24.1121L29.9375 33.227C30.6386 33.9281 30.6386 34.9298 29.9375 35.6309C29.2363 36.3321 28.2347 36.3321 27.5335 35.6309L17.2166 25.314C16.816 25.0135 16.7158 24.6129 16.7158 24.1121Z" fill="white"/>
</svg>
