<svg width="49" height="48" viewBox="0 0 49 48" fill="none" xmlns="http://www.w3.org/2000/svg">
<path d="M42.3099 38.9335C34.1426 49.6876 21.1944 50.8937 9.44144 42.4512C-2.31153 34.1092 -1.71392 20.4404 5.95539 9.28431C14.4215 -3.07789 27.6685 -1.87182 38.8239 5.76661C50.5769 13.9076 51.1745 27.2748 42.3099 38.9335Z" fill="#E3E829"/>
<path d="M31.6587 23.888C31.6587 24.2886 31.4584 24.7895 31.1579 25.09L20.841 35.4069C20.1398 36.108 19.1382 36.108 18.437 35.4069C17.7359 34.7057 17.7359 33.7041 18.437 33.0029L27.552 23.888L18.437 14.7731C17.7359 14.0719 17.7359 13.0703 18.437 12.3691C19.1382 11.668 20.1398 11.668 20.841 12.3691L31.1579 22.686C31.5585 22.9865 31.6587 23.3872 31.6587 23.888Z" fill="#1F3696"/>
</svg>
