<svg width="64" height="64" viewBox="0 0 64 64" fill="none" xmlns="http://www.w3.org/2000/svg">
<circle cx="32" cy="32" r="32" fill="white"/>
<path d="M15.0646 47.9335C23.2319 58.6876 36.1801 59.8937 47.9331 51.4512C59.686 43.1092 59.0884 29.4404 51.4191 18.2843C42.953 5.92211 29.706 7.12818 18.5506 14.7666C6.79765 22.9076 6.20004 36.2748 15.0646 47.9335Z" fill="#E3E829"/>
<path d="M25.7158 32.888C25.7158 33.2886 25.9161 33.7895 26.2166 34.09L36.5335 44.4069C37.2347 45.108 38.2363 45.108 38.9375 44.4069C39.6386 43.7057 39.6386 42.7041 38.9375 42.0029L29.8225 32.888L38.9375 23.7731C39.6386 23.0719 39.6386 22.0703 38.9375 21.3691C38.2363 20.668 37.2347 20.668 36.5335 21.3691L26.2166 31.686C25.816 31.9865 25.7158 32.3872 25.7158 32.888Z" fill="#1F3696"/>
</svg>
