<svg width="48" height="48" viewBox="0 0 48 48" fill="none" xmlns="http://www.w3.org/2000/svg">
<path d="M41.9354 38.9335C33.7681 49.6876 20.8199 50.8937 9.06693 42.4512C-2.68604 34.1092 -2.08843 20.4404 5.58088 9.28431C14.047 -3.07789 27.294 -1.87182 38.4494 5.76661C50.2023 13.9076 50.8 27.2748 41.9354 38.9335Z" fill="#0033A0"/>
<path d="M31.2842 23.8879C31.2842 24.2886 31.0839 24.7894 30.7834 25.0899L20.4665 35.4068C19.7653 36.108 18.7637 36.108 18.0625 35.4068C17.3614 34.7057 17.3614 33.704 18.0625 33.0029L27.1775 23.8879L18.0625 14.773C17.3614 14.0719 17.3614 13.0702 18.0625 12.3691C18.7637 11.6679 19.7653 11.6679 20.4665 12.3691L30.7834 22.686C31.184 22.9865 31.2842 23.3871 31.2842 23.8879Z" fill="white"/>
</svg>
