<svg width="32" height="32" viewBox="0 0 32 32" fill="none" xmlns="http://www.w3.org/2000/svg">
<path d="M16.0007 2.66797C13.1717 2.66797 10.4586 3.79178 8.45818 5.79216C6.45779 7.79255 5.33398 10.5057 5.33398 13.3346L5.33398 20.2413C5.33751 21.1443 5.69869 22.009 6.33843 22.6463C6.97817 23.2835 7.84435 23.6413 8.74732 23.6413H9.77398C10.677 23.6413 11.5431 23.2835 12.1829 22.6463C12.8226 22.009 13.1838 21.1443 13.1873 20.2413V17.1213C13.1838 16.2183 12.8226 15.3536 12.1829 14.7163C11.5431 14.0791 10.677 13.7213 9.77398 13.7213H8.00065V13.3346C8.00065 11.2129 8.84351 9.17807 10.3438 7.67778C11.8441 6.17749 13.8789 5.33464 16.0007 5.33464C18.1224 5.33464 20.1572 6.17749 21.6575 7.67778C23.1578 9.17807 24.0007 11.2129 24.0007 13.3346V13.7213H22.2273C21.3244 13.7213 20.4582 14.0791 19.8184 14.7163C19.1787 15.3536 18.8175 16.2183 18.814 17.1213V20.2413C18.8175 21.1443 19.1787 22.009 19.8184 22.6463C20.4582 23.2835 21.3244 23.6413 22.2273 23.6413H23.254C23.4646 23.6403 23.6745 23.618 23.8806 23.5746C23.6765 24.4517 23.1824 25.2343 22.4783 25.7957C21.7741 26.357 20.9012 26.6644 20.0007 26.668H18.5607C18.419 26.2789 18.1617 25.9426 17.8232 25.7043C17.4847 25.4659 17.0813 25.3369 16.6673 25.3346H15.334C14.8036 25.3346 14.2948 25.5454 13.9198 25.9204C13.5447 26.2955 13.334 26.8042 13.334 27.3346C13.334 27.8651 13.5447 28.3738 13.9198 28.7488C14.2948 29.1239 14.8036 29.3346 15.334 29.3346H15.8407C15.8938 29.3407 15.9475 29.3407 16.0007 29.3346H20.0007C21.7688 29.3346 23.4645 28.6323 24.7147 27.382C25.9649 26.1318 26.6673 24.4361 26.6673 22.668V13.3346C26.6673 10.5057 25.5435 7.79255 23.5431 5.79216C21.5427 3.79178 18.8296 2.66797 16.0007 2.66797V2.66797ZM9.77398 16.388C9.96972 16.3879 10.1576 16.4648 10.2973 16.6019C10.4369 16.7391 10.5172 16.9256 10.5207 17.1213V20.2413C10.5172 20.437 10.4369 20.6235 10.2973 20.7607C10.1576 20.8978 9.96972 20.9747 9.77398 20.9746H8.74732C8.55158 20.9747 8.36365 20.8978 8.224 20.7607C8.08435 20.6235 8.00415 20.437 8.00065 20.2413V16.388H9.77398ZM23.254 20.9746H22.2273C22.0316 20.9747 21.8437 20.8978 21.704 20.7607C21.5644 20.6235 21.4841 20.437 21.4806 20.2413V17.1213C21.4841 16.9256 21.5644 16.7391 21.704 16.6019C21.8437 16.4648 22.0316 16.3879 22.2273 16.388H24.0007V20.2413C23.9972 20.437 23.9169 20.6235 23.7773 20.7607C23.6376 20.8978 23.4497 20.9747 23.254 20.9746Z" fill="#0033A0"/>
</svg>
