<svg width="16" height="16" viewBox="0 0 16 16" fill="none" xmlns="http://www.w3.org/2000/svg">
<path d="M12.7326 3.93242C12.466 3.66576 12.066 3.66576 11.7993 3.93242C11.5326 4.19909 11.5326 4.59909 11.7993 4.86576C13.866 6.93242 13.866 10.3324 11.7993 12.3991C9.73263 14.4658 6.33263 14.4658 4.26596 12.3991C2.1993 10.3324 2.1993 6.93242 4.26596 4.86576C4.53263 4.59909 4.53263 4.19909 4.26596 3.93242C3.9993 3.66576 3.5993 3.66576 3.33263 3.93242C0.665965 6.53242 0.665965 10.7991 3.26596 13.3991C4.5993 14.6658 6.26596 15.3324 7.9993 15.3324C9.73263 15.3324 11.3993 14.6658 12.7326 13.3991C15.3326 10.7991 15.3326 6.53242 12.7326 3.93242Z" fill="#626277"/>
<path d="M7.9987 8.66602C8.3987 8.66602 8.66536 8.39935 8.66536 7.99935V1.33268C8.66536 0.932682 8.3987 0.666016 7.9987 0.666016C7.5987 0.666016 7.33203 0.932682 7.33203 1.33268V7.99935C7.33203 8.39935 7.5987 8.66602 7.9987 8.66602Z" fill="#626277"/>
</svg>
