<svg width="120" height="120" viewBox="0 0 120 120" fill="none" xmlns="http://www.w3.org/2000/svg">
<g clip-path="url(#clip0)">
<path fill-rule="evenodd" clip-rule="evenodd" d="M112.536 71.8075C109.848 74.9275 106.632 79.1515 103.176 87.3115C94.5357 107.736 56.1357 101.376 56.8797 77.9035C57.6237 54.5275 43.4397 53.4715 47.5437 38.8075C51.0957 26.1595 80.3997 21.9115 103.176 32.0635C103.176 32.0635 103.272 32.1115 103.416 32.1835C100.992 -3.50447 41.3517 -12.3605 27.5997 20.1355C13.4157 53.6155 1.60773 46.6315 0.0477337 72.5035C-1.41627 97.1516 27.5997 110.712 27.5997 110.712C64.9197 127.344 112.968 120.384 118.776 99.6236C122.304 87.0715 117.624 80.5915 112.536 71.8075Z" fill="#FEFA6C"/>
<path fill-rule="evenodd" clip-rule="evenodd" d="M103.464 35.5436C102.888 53.8316 107.88 63.7916 112.512 71.8076C116.544 67.1036 119.376 64.8476 119.952 55.3676C120.792 41.3756 105.528 33.2396 103.392 32.1836C103.488 33.2876 103.512 34.3916 103.464 35.5436Z" fill="#FEFA6C"/>
<path d="M58.152 112.944C56.856 112.944 55.824 111.888 55.824 110.616C55.824 109.344 56.88 108.288 58.152 108.288C59.448 108.288 60.48 109.344 60.48 110.616C60.48 111.888 59.448 112.944 58.152 112.944ZM58.152 109.272C57.408 109.272 56.808 109.872 56.808 110.616C56.808 111.36 57.408 111.96 58.152 111.96C58.896 111.96 59.496 111.36 59.496 110.616C59.496 109.872 58.896 109.272 58.152 109.272Z" fill="#B8AC08"/>
<path d="M110.808 55.3921C108.84 55.3921 107.256 53.7841 107.256 51.8401C107.256 49.8721 108.864 48.2881 110.808 48.2881C112.776 48.2881 114.36 49.8961 114.36 51.8401C114.384 53.8081 112.776 55.3921 110.808 55.3921ZM110.808 49.2721C109.392 49.2721 108.24 50.4241 108.24 51.8401C108.24 53.2561 109.392 54.4081 110.808 54.4081C112.224 54.4081 113.376 53.2561 113.376 51.8401C113.376 50.4241 112.224 49.2721 110.808 49.2721Z" fill="#B8AC08"/>
<path d="M11.64 81.1199C10.344 81.1199 9.31201 80.0639 9.31201 78.7919C9.31201 77.5199 10.368 76.4639 11.64 76.4639C12.936 76.4639 13.968 77.5199 13.968 78.7919C13.968 80.0639 12.912 81.1199 11.64 81.1199ZM11.64 77.4479C10.896 77.4479 10.296 78.0479 10.296 78.7919C10.296 79.5359 10.896 80.1359 11.64 80.1359C12.384 80.1359 12.984 79.5359 12.984 78.7919C12.96 78.0479 12.36 77.4479 11.64 77.4479Z" fill="#B8AC08"/>
<path d="M51 16.584L49.176 9.79199L55.968 11.616L51 16.584ZM50.592 11.208L51.528 14.664L54.048 12.144L50.592 11.208Z" fill="#B8AC08"/>
<path fill-rule="evenodd" clip-rule="evenodd" d="M103.464 35.5438C103.512 34.3918 103.488 33.2878 103.416 32.1838C103.248 32.1118 103.176 32.0638 103.176 32.0638C80.4001 21.9118 51.0961 26.1598 47.5441 38.8318C43.4401 53.4958 57.6241 54.5278 56.8801 77.9278C56.1361 101.376 94.5121 107.76 103.176 87.3358C106.632 79.1758 109.848 74.9518 112.536 71.8318C107.88 63.7918 102.888 53.8318 103.464 35.5438Z" fill="#F5F548"/>
</g>
<path d="M81.68 74.7572H81.0207V72.7516H83.6579C83.8901 72.7516 84.1201 72.7059 84.3346 72.6172C84.5491 72.5284 84.744 72.3983 84.9082 72.2343C85.0724 72.0703 85.2026 71.8756 85.2915 71.6614C85.3803 71.4471 85.4261 71.2174 85.4261 70.9855C85.4261 70.7536 85.3803 70.5239 85.2915 70.3097C85.2026 70.0954 85.0724 69.9007 84.9082 69.7367C84.744 69.5727 84.5491 69.4426 84.3346 69.3538C84.1201 69.2651 83.8901 69.2194 83.6579 69.2194H81.0207V67.8125C81.0207 67.3441 80.8344 66.8949 80.5028 66.5637C80.1712 66.2325 79.7215 66.0464 79.2526 66.0464C78.7836 66.0464 78.3339 66.2325 78.0023 66.5637C77.6707 66.8949 77.4844 67.3441 77.4844 67.8125V69.2194H76.8251C76.1733 69.1127 75.506 69.1489 74.8696 69.3255C74.2332 69.502 73.6428 69.8147 73.1394 70.2418C72.636 70.669 72.2317 71.2003 71.9543 71.7991C71.677 72.3979 71.5334 73.0497 71.5334 73.7095C71.5334 74.3692 71.677 75.0211 71.9543 75.6198C72.2317 76.2186 72.636 76.75 73.1394 77.1771C73.6428 77.6043 74.2332 77.9169 74.8696 78.0935C75.506 78.27 76.1733 78.3062 76.8251 78.1995H77.4844V80.2051H74.038C73.5691 80.2051 73.1194 80.3912 72.7878 80.7224C72.4562 81.0536 72.2699 81.5028 72.2699 81.9712C72.2699 82.4396 72.4562 82.8888 72.7878 83.22C73.1194 83.5512 73.5691 83.7373 74.038 83.7373H77.4844V85.1442C77.4844 85.6126 77.6707 86.0618 78.0023 86.393C78.3339 86.7242 78.7836 86.9103 79.2526 86.9103C79.7215 86.9103 80.1712 86.7242 80.5028 86.393C80.8344 86.0618 81.0207 85.6126 81.0207 85.1442V83.7373H81.68C81.68 83.7373 82.9991 83.8078 83.6355 83.6312C84.2719 83.4547 84.8623 83.142 85.3657 82.7149C85.8691 82.2877 86.2735 81.7564 86.5508 81.1576C86.8281 80.5588 86.9718 79.907 86.9718 79.2472C86.9718 78.5875 86.8281 77.9356 86.5508 77.3369C86.2735 76.7381 85.8691 76.2067 85.3657 75.7796C84.8623 75.3524 84.2719 75.0398 83.6355 74.8632C82.9991 74.6867 82.3318 74.6505 81.68 74.7572ZM77.4844 74.7572H76.8251C76.6787 74.7825 76.5286 74.7756 76.3852 74.7369C76.2418 74.6982 76.1086 74.6286 75.995 74.5331C75.8813 74.4376 75.7899 74.3184 75.7272 74.1838C75.6646 74.0493 75.6321 73.9027 75.6321 73.7544C75.6321 73.606 75.6646 73.4594 75.7272 73.3249C75.7899 73.1904 75.8813 73.0712 75.995 72.9757C76.1086 72.8801 76.2418 72.8106 76.3852 72.7719C76.5286 72.7332 76.6787 72.7262 76.8251 72.7516H77.4844V74.7572ZM81.68 80.2949H81.0207V78.2893H81.68C81.8264 78.264 81.9765 78.2709 82.1199 78.3096C82.2633 78.3483 82.3965 78.4179 82.5102 78.5134C82.6238 78.6089 82.7152 78.7281 82.7779 78.8627C82.8406 78.9972 82.8731 79.1437 82.8731 79.2921C82.8731 79.4405 82.8406 79.5871 82.7779 79.7216C82.7152 79.8561 82.6238 79.9753 82.5102 80.0708C82.3965 80.1664 82.2633 80.2359 82.1199 80.2746C81.9765 80.3133 81.8264 80.3203 81.68 80.2949ZM86.1925 60.0597C86.4971 59.7342 86.7251 59.345 86.8599 58.9204C86.9947 58.4957 87.0329 58.0464 86.9717 57.6051C86.383 51.3299 83.6269 45.4548 79.1761 40.9873C74.7252 36.5197 68.8568 33.7381 62.5773 33.1193C59.0268 32.7855 55.4453 33.1543 52.0376 34.2047C48.63 35.2552 45.4632 36.9665 42.7186 39.2409C39.974 41.5152 37.7053 44.3079 36.0425 47.4591C34.3798 50.6103 33.3555 54.0581 33.0284 57.6051C32.9672 58.0464 33.0054 58.4957 33.1402 58.9204C33.275 59.345 33.503 59.7342 33.8075 60.0597C34.1031 60.3373 34.4521 60.5522 34.8333 60.6911C35.2145 60.83 35.62 60.8902 36.0252 60.8679H57.0032V77.4811C57.0032 78.4179 56.6306 79.3163 55.9674 79.9788C55.3042 80.6412 54.4048 81.0133 53.4669 81.0133C52.529 81.0133 51.6295 80.6412 50.9664 79.9788C50.3032 79.3163 49.9306 78.4179 49.9306 77.4811C49.9306 76.6872 49.6149 75.9259 49.0528 75.3645C48.4908 74.8031 47.7286 74.4878 46.9338 74.4878C46.1389 74.4878 45.3767 74.8031 44.8147 75.3645C44.2526 75.9259 43.9369 76.6872 43.9369 77.4811C43.9369 80.0057 44.9409 82.4269 46.7282 84.212C48.5154 85.9972 50.9394 87.0001 53.4669 87.0001C55.9944 87.0001 58.4184 85.9972 60.2056 84.212C61.9928 82.4269 62.9969 80.0057 62.9969 77.4811V60.8679H83.9749C84.38 60.8902 84.7855 60.83 85.1667 60.6911C85.5479 60.5522 85.8969 60.3373 86.1925 60.0597ZM60 54.8811H39.5915C40.687 50.5777 43.1341 46.7381 46.5741 43.9254C49.2982 41.6418 52.5587 40.0875 56.0494 39.4084C59.5401 38.7293 63.1463 38.9477 66.5293 40.0431C69.9122 41.1385 72.9609 43.075 75.3887 45.6705C77.8166 48.2661 79.544 51.4356 80.4086 54.8811H60Z" fill="#292730"/>
<defs>
<clipPath id="clip0">
<rect width="120" height="120" fill="white"/>
</clipPath>
</defs>
</svg>
