<svg width="84" height="84" viewBox="0 0 84 84" fill="none" xmlns="http://www.w3.org/2000/svg">
<g filter="url(#filter0_ddd_12170_2957)">
<path d="M73.9863 41.0281C74.4785 59.2833 61.6798 71.6379 42.051 72.9286C22.4222 74.1579 11.531 59.3448 10.1158 41.0281C8.51595 20.8059 23.7144 10.6641 42.051 9.12749C61.4337 7.52939 73.4325 21.1132 73.9863 41.0281Z" fill="white"/>
</g>
<path d="M69.988 41.0245C70.4187 56.9979 59.2199 67.8081 42.0447 68.9376C24.8695 70.0132 15.3397 57.0517 14.1013 41.0245C12.7015 23.3302 26.0001 14.4561 42.0447 13.1116C59.0045 11.7132 69.5034 23.5991 69.988 41.0245Z" fill="#E3E829"/>
<path d="M42 26C38.8174 26 35.7652 27.2643 33.5147 29.5147C31.2643 31.7652 30 34.8174 30 38L30 45.77C30.004 46.7858 30.4103 47.7587 31.13 48.4756C31.8497 49.1925 32.8242 49.595 33.84 49.595H34.995C36.0108 49.595 36.9853 49.1925 37.705 48.4756C38.4247 47.7587 38.831 46.7858 38.835 45.77V42.26C38.831 41.2442 38.4247 40.2713 37.705 39.5544C36.9853 38.8375 36.0108 38.435 34.995 38.435H33V38C33 35.6131 33.9482 33.3239 35.636 31.636C37.3239 29.9482 39.6131 29 42 29C44.3869 29 46.6761 29.9482 48.364 31.636C50.0518 33.3239 51 35.6131 51 38V38.435H49.005C47.9892 38.435 47.0147 38.8375 46.295 39.5544C45.5753 40.2713 45.169 41.2442 45.165 42.26V45.77C45.169 46.7858 45.5753 47.7587 46.295 48.4756C47.0147 49.1925 47.9892 49.595 49.005 49.595H50.16C50.3969 49.5939 50.6331 49.5687 50.865 49.52C50.6354 50.5067 50.0795 51.3871 49.2873 52.0187C48.4952 52.6502 47.5131 52.996 46.5 53H44.88C44.7207 52.5624 44.4311 52.184 44.0503 51.9158C43.6695 51.6477 43.2157 51.5025 42.75 51.5H41.25C40.6533 51.5 40.081 51.7371 39.659 52.159C39.2371 52.581 39 53.1533 39 53.75C39 54.3467 39.2371 54.919 39.659 55.341C40.081 55.7629 40.6533 56 41.25 56H41.82C41.8798 56.0068 41.9402 56.0068 42 56H46.5C48.4891 56 50.3968 55.2098 51.8033 53.8033C53.2098 52.3968 54 50.4891 54 48.5V38C54 34.8174 52.7357 31.7652 50.4853 29.5147C48.2348 27.2643 45.1826 26 42 26V26ZM34.995 41.435C35.2152 41.435 35.4266 41.5214 35.5837 41.6757C35.7408 41.83 35.8311 42.0398 35.835 42.26V45.77C35.8311 45.9902 35.7408 46.2 35.5837 46.3543C35.4266 46.5086 35.2152 46.595 34.995 46.595H33.84C33.6198 46.595 33.4084 46.5086 33.2513 46.3543C33.0942 46.2 33.0039 45.9902 33 45.77V41.435H34.995ZM50.16 46.595H49.005C48.7848 46.595 48.5734 46.5086 48.4163 46.3543C48.2592 46.2 48.1689 45.9902 48.165 45.77V42.26C48.1689 42.0398 48.2592 41.83 48.4163 41.6757C48.5734 41.5214 48.7848 41.435 49.005 41.435H51V45.77C50.9961 45.9902 50.9058 46.2 50.7487 46.3543C50.5916 46.5086 50.3802 46.595 50.16 46.595Z" fill="#0033A0"/>
<defs>
<filter id="filter0_ddd_12170_2957" x="0" y="0" width="84" height="84" filterUnits="userSpaceOnUse" color-interpolation-filters="sRGB">
<feFlood flood-opacity="0" result="BackgroundImageFix"/>
<feColorMatrix in="SourceAlpha" type="matrix" values="0 0 0 0 0 0 0 0 0 0 0 0 0 0 0 0 0 0 127 0" result="hardAlpha"/>
<feOffset dy="2"/>
<feGaussianBlur stdDeviation="2"/>
<feColorMatrix type="matrix" values="0 0 0 0 0.584314 0 0 0 0 0.588235 0 0 0 0 0.6 0 0 0 0.2 0"/>
<feBlend mode="normal" in2="BackgroundImageFix" result="effect1_dropShadow_12170_2957"/>
<feColorMatrix in="SourceAlpha" type="matrix" values="0 0 0 0 0 0 0 0 0 0 0 0 0 0 0 0 0 0 127 0" result="hardAlpha"/>
<feOffset dy="1"/>
<feGaussianBlur stdDeviation="5"/>
<feColorMatrix type="matrix" values="0 0 0 0 0.584314 0 0 0 0 0.588235 0 0 0 0 0.6 0 0 0 0.12 0"/>
<feBlend mode="normal" in2="effect1_dropShadow_12170_2957" result="effect2_dropShadow_12170_2957"/>
<feColorMatrix in="SourceAlpha" type="matrix" values="0 0 0 0 0 0 0 0 0 0 0 0 0 0 0 0 0 0 127 0" result="hardAlpha"/>
<feOffset dy="4"/>
<feGaussianBlur stdDeviation="2.5"/>
<feColorMatrix type="matrix" values="0 0 0 0 0.584314 0 0 0 0 0.588235 0 0 0 0 0.6 0 0 0 0.14 0"/>
<feBlend mode="normal" in2="effect2_dropShadow_12170_2957" result="effect3_dropShadow_12170_2957"/>
<feBlend mode="normal" in="SourceGraphic" in2="effect3_dropShadow_12170_2957" result="shape"/>
</filter>
</defs>
</svg>
