<svg width="20" height="20" viewBox="0 0 20 20" fill="none" xmlns="http://www.w3.org/2000/svg">
<path d="M11.8667 10L18.9333 2.93334C19.4667 2.4 19.4667 1.60001 18.9333 1.06667C18.4 0.533338 17.6 0.533338 17.0667 1.06667L10 8.13334L2.93334 1.06667C2.4 0.533338 1.60001 0.533338 1.06667 1.06667C0.533338 1.60001 0.533338 2.4 1.06667 2.93334L8.13334 10L1.06667 17.0667C0.533338 17.6 0.533338 18.4 1.06667 18.9333C1.33334 19.2 1.6 19.3333 2.00001 19.3333C2.40001 19.3333 2.66667 19.2 2.93334 18.9333L10 11.8667L17.0667 18.9333C17.3333 19.2 17.7333 19.3333 18 19.3333C18.2667 19.3333 18.6667 19.2 18.9333 18.9333C19.4667 18.4 19.4667 17.6 18.9333 17.0667L11.8667 10Z" fill="#464454"/>
</svg>
