<svg width="64" height="64" viewBox="0 0 64 64" fill="none" xmlns="http://www.w3.org/2000/svg">
<path d="M32.0003 2.66669C15.7337 2.66669 2.66699 15.7334 2.66699 32C2.66699 48.2667 15.7337 61.3334 32.0003 61.3334C48.267 61.3334 61.3337 48.2667 61.3337 32C61.3337 15.7334 48.267 2.66669 32.0003 2.66669ZM32.0003 56C18.667 56 8.00033 45.3334 8.00033 32C8.00033 18.6667 18.667 8.00002 32.0003 8.00002C45.3337 8.00002 56.0003 18.6667 56.0003 32C56.0003 45.3334 45.3337 56 32.0003 56ZM35.7337 29.3334H34.667V24.5334H39.2003C40.8003 24.5334 41.867 23.4667 41.867 21.8667C41.867 20.2667 40.8003 19.2 39.2003 19.2H34.667V16C34.667 14.4 33.6003 13.3334 32.0003 13.3334C30.4003 13.3334 29.3337 14.4 29.3337 16V19.2H28.267C24.0003 19.2 20.5337 22.6667 20.5337 26.9334C20.5337 31.2 24.0003 34.6667 28.267 34.6667H29.3337V39.4667H23.2003C21.6003 39.4667 20.5337 40.5334 20.5337 42.1334C20.5337 43.7334 21.6003 44.8 23.2003 44.8H29.3337V48C29.3337 49.6 30.4003 50.6667 32.0003 50.6667C33.6003 50.6667 34.667 49.6 34.667 48V44.8H35.7337C40.0003 44.8 43.467 41.3334 43.467 37.0667C43.467 32.8 40.0003 29.3334 35.7337 29.3334ZM29.3337 29.3334H28.267C26.9337 29.3334 25.867 28.2667 25.867 26.9334C25.867 25.6 26.9337 24.5334 28.267 24.5334H29.3337V29.3334ZM35.7337 39.4667H34.667V34.6667H35.7337C37.067 34.6667 38.1337 35.7333 38.1337 37.0667C38.1337 38.4 37.067 39.4667 35.7337 39.4667Z" fill="#0033A0"/>
</svg>
