<svg width="64" height="64" viewBox="0 0 64 64" fill="none" xmlns="http://www.w3.org/2000/svg">
<path d="M48.0003 5.33331H29.067H16.0003C13.067 5.33331 10.667 7.73331 10.667 10.6666V13.3333C10.667 16.2666 12.8003 18.4 15.7337 18.6666V33.0666C15.7337 33.8666 16.0003 34.4 16.5337 34.9333L23.2003 41.3333V50.6666C21.6003 50.6666 20.5337 51.7333 20.5337 53.3333V56C20.5337 57.6 21.6003 58.6666 23.2003 58.6666H28.5337C30.1337 58.6666 31.2003 57.6 31.2003 56V53.3333C31.2003 51.7333 30.1337 50.6666 28.5337 50.6666V41.3333L32.267 37.8666L36.0003 41.3333V50.6666C34.4003 50.6666 33.3337 51.7333 33.3337 53.3333V56C33.3337 57.6 34.4003 58.6666 36.0003 58.6666H41.3337C42.9337 58.6666 44.0003 57.6 44.0003 56V53.3333C44.0003 51.7333 42.9337 50.6666 41.3337 50.6666V41.3333L48.0003 34.9333C48.5337 34.4 48.8003 33.6 48.8003 33.0666V18.6666C51.467 18.4 53.3337 16 53.3337 13.3333V10.6666C53.3337 7.73331 50.9337 5.33331 48.0003 5.33331ZM48.0003 10.6666V13.3333H46.1337H33.3337H30.9337H29.067V10.6666H48.0003ZM43.467 24H33.6003V18.6666H43.467V24ZM21.067 18.6666H28.5337V24H21.067V18.6666ZM16.0003 10.6666H23.7337V13.3333H18.4003H16.0003V10.6666ZM21.067 29.3333H28.5337V33.0666C28.5337 33.3333 28.5337 33.6 28.8003 33.8666L26.1337 36.5333L21.067 31.7333V29.3333ZM38.667 36.5333L33.6003 31.7333V29.3333H43.467V31.7333L38.667 36.5333Z" fill="#0033A0"/>
</svg>
