<svg width="32" height="32" viewBox="0 0 32 32" fill="none" xmlns="http://www.w3.org/2000/svg">
<path opacity="0.5" d="M25.204 2.25051C20.1833 -1.25174 13.5543 -0.318399 9.11119 2.66829C0.687141 8.37499 -1.76543 22.7929 4.1083 28.8107C10.3286 35.2196 25.435 31.5751 29.7714 21.4062C32.4462 15.2017 31.211 6.42831 25.204 2.25051Z" fill="#E3E829"/>
<path opacity="0.4" d="M0.761578 10.357C-1.31844 16.2349 1.11714 22.6463 4.98383 26.3634C12.2994 33.4061 26.3617 32.3302 30.6018 25.0117C35.1174 17.222 28.1395 3.02082 17.5884 1.11784C11.1528 -0.0559548 3.24159 3.32316 0.761578 10.357Z" fill="#E3E829"/>
<path d="M27 12.9997C26.9 12.5997 26.6 12.3997 26.2 12.2997L19.8001 11.3997L16.9002 5.59982C16.6002 4.89983 15.4002 4.89983 15.1002 5.59982L12.2003 11.2997L5.90038 12.2997C5.50038 12.2997 5.20039 12.5997 5.00039 12.9997C4.90039 13.3997 5.00039 13.7997 5.30038 13.9997L9.90031 18.4996L8.80033 24.8995C8.70033 25.2995 8.90032 25.6995 9.20032 25.8995C9.50031 26.0995 9.90031 26.1995 10.3003 25.9995L16.0002 22.9995L21.7001 25.9995C21.9001 25.9995 22.0001 25.9995 22.2001 25.9995C22.4001 25.9995 22.6001 25.8995 22.8001 25.7995C23.1001 25.5995 23.3001 25.1995 23.2001 24.7995L22.1001 18.3996L26.7 13.8997C27 13.6997 27.1 13.2997 27 12.9997ZM20.3001 17.3996C20.1001 17.6996 20.0001 17.9996 20.0001 18.2996L20.8001 23.1995L16.4002 20.8996C16.1002 20.6996 15.8002 20.6996 15.5002 20.8996L11.1003 23.1995L12.0003 18.2996C12.0003 17.9996 11.9003 17.6996 11.7003 17.3996L8.10034 13.9997L13.0003 13.2997C13.3003 13.2997 13.6002 12.9997 13.8002 12.7997L16.0002 8.29978L18.2002 12.6997C18.3002 12.9997 18.6002 13.1997 19.0002 13.1997L23.9001 13.8997L20.3001 17.3996Z" fill="#292730"/>
</svg>
