<svg width="72" height="72" viewBox="0 0 72 72" fill="none" xmlns="http://www.w3.org/2000/svg">
<g filter="url(#filter0_d)">
<path d="M67.9863 32.0281C68.4785 50.2833 55.6798 62.6379 36.051 63.9286C16.4222 65.1579 5.53104 50.3448 4.11579 32.0281C2.51595 11.8059 17.7144 1.66412 36.051 0.127487C55.4337 -1.47061 67.4325 12.1132 67.9863 32.0281Z" fill="white"/>
</g>
<path d="M63.988 32.0245C64.4187 47.9979 53.2199 58.8081 36.0447 59.9376C18.8695 61.0132 9.33966 48.0517 8.10132 32.0245C6.70146 14.3302 20.0001 5.45611 36.0447 4.11155C53.0045 2.71321 63.5034 14.5991 63.988 32.0245Z" fill="#E3E829"/>
<path d="M36 17C32.8174 17 29.7652 18.2643 27.5147 20.5147C25.2643 22.7652 24 25.8174 24 29L24 36.77C24.004 37.7858 24.4103 38.7587 25.13 39.4756C25.8497 40.1925 26.8242 40.595 27.84 40.595H28.995C30.0108 40.595 30.9853 40.1925 31.705 39.4756C32.4247 38.7587 32.831 37.7858 32.835 36.77V33.26C32.831 32.2442 32.4247 31.2713 31.705 30.5544C30.9853 29.8375 30.0108 29.435 28.995 29.435H27V29C27 26.6131 27.9482 24.3239 29.636 22.636C31.3239 20.9482 33.6131 20 36 20C38.3869 20 40.6761 20.9482 42.364 22.636C44.0518 24.3239 45 26.6131 45 29V29.435H43.005C41.9892 29.435 41.0147 29.8375 40.295 30.5544C39.5753 31.2713 39.169 32.2442 39.165 33.26V36.77C39.169 37.7858 39.5753 38.7587 40.295 39.4756C41.0147 40.1925 41.9892 40.595 43.005 40.595H44.16C44.3969 40.5939 44.6331 40.5687 44.865 40.52C44.6354 41.5067 44.0795 42.3871 43.2873 43.0187C42.4952 43.6502 41.5131 43.996 40.5 44H38.88C38.7207 43.5624 38.4311 43.184 38.0503 42.9158C37.6695 42.6477 37.2157 42.5025 36.75 42.5H35.25C34.6533 42.5 34.081 42.7371 33.659 43.159C33.2371 43.581 33 44.1533 33 44.75C33 45.3467 33.2371 45.919 33.659 46.341C34.081 46.7629 34.6533 47 35.25 47H35.82C35.8798 47.0068 35.9402 47.0068 36 47H40.5C42.4891 47 44.3968 46.2098 45.8033 44.8033C47.2098 43.3968 48 41.4891 48 39.5V29C48 25.8174 46.7357 22.7652 44.4853 20.5147C42.2348 18.2643 39.1826 17 36 17V17ZM28.995 32.435C29.2152 32.435 29.4266 32.5214 29.5837 32.6757C29.7408 32.83 29.8311 33.0398 29.835 33.26V36.77C29.8311 36.9902 29.7408 37.2 29.5837 37.3543C29.4266 37.5086 29.2152 37.595 28.995 37.595H27.84C27.6198 37.595 27.4084 37.5086 27.2513 37.3543C27.0942 37.2 27.0039 36.9902 27 36.77V32.435H28.995ZM44.16 37.595H43.005C42.7848 37.595 42.5734 37.5086 42.4163 37.3543C42.2592 37.2 42.1689 36.9902 42.165 36.77V33.26C42.1689 33.0398 42.2592 32.83 42.4163 32.6757C42.5734 32.5214 42.7848 32.435 43.005 32.435H45V36.77C44.9961 36.9902 44.9058 37.2 44.7487 37.3543C44.5916 37.5086 44.3802 37.595 44.16 37.595Z" fill="#0033A0"/>
<defs>
<filter id="filter0_d" x="0" y="0" width="72" height="72" filterUnits="userSpaceOnUse" color-interpolation-filters="sRGB">
<feFlood flood-opacity="0" result="BackgroundImageFix"/>
<feColorMatrix in="SourceAlpha" type="matrix" values="0 0 0 0 0 0 0 0 0 0 0 0 0 0 0 0 0 0 127 0" result="hardAlpha"/>
<feOffset dy="4"/>
<feGaussianBlur stdDeviation="2"/>
<feColorMatrix type="matrix" values="0 0 0 0 0 0 0 0 0 0 0 0 0 0 0 0 0 0 0.1 0"/>
<feBlend mode="normal" in2="BackgroundImageFix" result="effect1_dropShadow"/>
<feBlend mode="normal" in="SourceGraphic" in2="effect1_dropShadow" result="shape"/>
</filter>
</defs>
</svg>
