<svg width="23" height="23" viewBox="0 0 23 23" fill="none" xmlns="http://www.w3.org/2000/svg">
<path d="M22.5001 3.4C22.3001 1.7 20.9001 0.5 19.2001 0.5C19.2001 0.5 19.2001 0.5 19.1001 0.5H5.20007C3.70007 0.5 2.50007 1.6 2.20007 3L0.800066 12C0.600066 13.6 1.70007 15.2 3.30007 15.4C3.50007 15.4 3.60007 15.4 3.80007 15.4H8.50007V18.4C8.50007 20.6 10.3001 22.4 12.5001 22.4C12.9001 22.4 13.3001 22.2 13.4001 21.8L17.1001 13.4H19.1001C20.8001 13.4 22.2001 12.2 22.4001 10.5V10.4V3.5C22.5001 3.5 22.5001 3.4 22.5001 3.4ZM15.5001 12.3L11.9001 20.4C11.1001 20.1 10.5001 19.4 10.5001 18.5V14.5C10.5001 13.9 10.1001 13.5 9.50007 13.5H3.80007C3.80007 13.5 3.70007 13.5 3.60007 13.5C3.10007 13.4 2.70007 12.9 2.80007 12.4L4.20007 3.4C4.30007 2.9 4.70007 2.5 5.20007 2.5H15.5001V12.3ZM20.5001 10.4C20.4001 11 19.8001 11.5 19.2001 11.5H17.5001V2.5H19.2001C19.8001 2.4 20.4001 2.9 20.5001 3.6V10.4Z" fill="#464454"/>
</svg>
