<svg width="26" height="24" viewBox="0 0 26 24" fill="none" xmlns="http://www.w3.org/2000/svg">
<path d="M16.3 16.3L14 18.6V12C14 11.4 13.6 11 13 11C12.4 11 12 11.4 12 12V18.6L9.7 16.3C9.3 15.9 8.7 15.9 8.3 16.3C7.9 16.7 7.9 17.3 8.3 17.7L12.3 21.7C12.4 21.8 12.5 21.9 12.6 21.9C12.7 22 12.9 22 13 22C13.1 22 13.3 22 13.4 21.9C13.5 21.8 13.6 21.8 13.7 21.7L17.7 17.7C18.1 17.3 18.1 16.7 17.7 16.3C17.3 15.9 16.7 15.9 16.3 16.3Z" fill="#0033A0"/>
<path d="M23.9014 10.5001C22.8014 9.00006 21.0014 8.00006 19.0014 8.00006H18.5014C17.0014 3.60006 12.3014 1.10006 7.80144 2.30006C5.40144 2.90006 3.50144 4.30006 2.20144 6.40006C1.00144 8.50006 0.60144 10.9001 1.20144 13.2001C1.60144 14.6001 2.20144 15.9001 3.20144 16.9001C3.60144 17.3001 4.20144 17.4001 4.60144 17.0001C5.00144 16.6001 5.10144 16.0001 4.70144 15.6001C4.00144 14.8001 3.40144 13.8001 3.20144 12.7001C2.70144 10.9001 3.00144 9.00006 4.00144 7.40006C5.00144 5.80006 6.50144 4.60006 8.30144 4.20006C12.0014 3.20006 15.9014 5.50006 16.8014 9.20006C16.9014 9.60006 17.3014 10.0001 17.8014 10.0001H19.0014C20.3014 10.0001 21.5014 10.6001 22.3014 11.7001C22.9014 12.6001 23.2014 13.6001 23.0014 14.7001C22.8014 15.8001 22.2014 16.7001 21.4014 17.3001C20.9014 17.6001 20.8014 18.2001 21.2014 18.7001C21.4014 19.0001 21.7014 19.1001 22.0014 19.1001C22.2014 19.1001 22.4014 19.0001 22.6014 18.9001C23.9014 18.0001 24.8014 16.6001 25.1014 15.0001C25.4014 13.4001 24.8014 11.9001 23.9014 10.5001Z" fill="#0033A0"/>
</svg>
