<svg width="18" height="20" viewBox="0 0 18 20" fill="none" xmlns="http://www.w3.org/2000/svg">
<path d="M7.80788 16C7.80788 16.1978 7.74892 16.3911 7.63847 16.5556C7.52801 16.72 7.37102 16.8482 7.18734 16.9239C7.00366 16.9996 6.80155 17.0194 6.60656 16.9808C6.41157 16.9422 6.23246 16.847 6.09188 16.7071C5.95129 16.5673 5.85556 16.3891 5.81677 16.1951C5.77798 16.0011 5.79789 15.8 5.87397 15.6173C5.95006 15.4346 6.0789 15.2784 6.2442 15.1685C6.40951 15.0586 6.60385 15 6.80267 15C7.06926 15 7.32494 15.1054 7.51346 15.2929C7.70197 15.4804 7.80788 15.7348 7.80788 16ZM13.0048 9.78L12.844 9.93V8.36C12.844 8.16109 12.7645 7.97032 12.6232 7.82967C12.4818 7.68902 12.29 7.61 12.0901 7.61C11.8901 7.61 11.6984 7.68902 11.557 7.82967C11.4156 7.97032 11.3362 8.16109 11.3362 8.36V9.94L11.1552 9.77C11.0051 9.6408 10.8107 9.57394 10.6124 9.58325C10.4141 9.59255 10.227 9.67731 10.0897 9.82C9.95745 9.9683 9.88869 10.1621 9.89808 10.3602C9.90747 10.5582 9.99427 10.7447 10.14 10.88L11.5573 12.19C11.5926 12.2234 11.6334 12.2505 11.6779 12.27L11.7785 12.33C11.8672 12.3688 11.963 12.3892 12.0599 12.39C12.1537 12.3902 12.2464 12.3698 12.3313 12.33C12.3766 12.3167 12.418 12.2927 12.4519 12.26C12.4923 12.2427 12.5297 12.2191 12.5625 12.19L13.9899 10.88C14.061 10.8111 14.1176 10.7286 14.1562 10.6376C14.1948 10.5466 14.2147 10.4488 14.2147 10.35C14.2147 10.2512 14.1948 10.1534 14.1562 10.0624C14.1176 9.97136 14.061 9.88895 13.9899 9.82C13.8579 9.69679 13.6857 9.62495 13.5048 9.6176C13.324 9.61026 13.1465 9.6679 13.0048 9.78ZM13.0852 15.27L13.0852 18C13.0852 18.5304 12.8734 19.0391 12.4964 19.4142C12.1194 19.7893 11.608 20 11.0748 20H2.51042C1.97722 20 1.46587 19.7893 1.08884 19.4142C0.711812 19.0391 0.5 18.5304 0.5 18L0.5 2C0.5 1.46957 0.711812 0.960859 1.08884 0.585786C1.46587 0.210714 1.97722 0 2.51042 0L11.0849 0C11.6181 0 12.1294 0.210714 12.5064 0.585786C12.8835 0.960859 13.0953 1.46957 13.0953 2V4.73C14.3326 4.95845 15.4504 5.61053 16.255 6.57313C17.0595 7.53573 17.5 8.74812 17.5 10C17.5 11.2519 17.0595 12.4643 16.255 13.4269C15.4504 14.3895 14.3326 15.0416 13.0953 15.27H13.0852ZM11.0748 18L11.0748 15.27C9.83753 15.0416 8.71967 14.3895 7.91512 13.4269C7.11057 12.4643 6.67009 11.2519 6.67009 10C6.67009 8.74812 7.11057 7.53573 7.91512 6.57313C8.71967 5.61053 9.83753 4.95845 11.0748 4.73V2L2.51042 2L2.51042 18H11.0748ZM15.4676 10C15.4676 9.33107 15.2681 8.67719 14.8943 8.12114C14.5205 7.56508 13.9893 7.13187 13.3678 6.87634C12.7464 6.62081 12.0628 6.55447 11.4034 6.6857C10.7441 6.81693 10.1387 7.13983 9.66394 7.61354C9.18918 8.08724 8.86638 8.69043 8.73642 9.34675C8.60646 10.0031 8.67518 10.683 8.93388 11.3004C9.19258 11.9179 9.62962 12.445 10.1897 12.8152C10.7497 13.1854 11.4076 13.382 12.08 13.38C12.5262 13.38 12.968 13.2926 13.3802 13.1227C13.7924 12.9529 14.167 12.7039 14.4825 12.39C14.798 12.0762 15.0483 11.7036 15.219 11.2935C15.3897 10.8834 15.4776 10.4439 15.4776 10H15.4676Z" fill="#0033A0"/>
</svg>
