<svg width="32" height="32" viewBox="0 0 32 32" fill="none" xmlns="http://www.w3.org/2000/svg">
<path d="M27.9993 18.6667C27.1994 18.6667 26.666 19.2 26.666 20V25.3334C26.666 26.1334 26.1327 26.6667 25.3327 26.6667H6.66602C5.86602 26.6667 5.33268 26.1334 5.33268 25.3334V20C5.33268 19.2 4.79935 18.6667 3.99935 18.6667C3.19935 18.6667 2.66602 19.2 2.66602 20V25.3334C2.66602 27.6 4.39935 29.3334 6.66602 29.3334H25.3327C27.5993 29.3334 29.3327 27.6 29.3327 25.3334V20C29.3327 19.2 28.7993 18.6667 27.9993 18.6667Z" fill="#626277"/>
<path d="M15.0667 20.9334C15.2 21.0667 15.3333 21.2 15.4667 21.2C15.6 21.3334 15.8667 21.3334 16 21.3334C16.1333 21.3334 16.4 21.3334 16.5333 21.2C16.6667 21.0667 16.8 21.0667 16.9333 20.9334L23.6 14.2667C24.1333 13.7334 24.1333 12.9334 23.6 12.4C23.0667 11.8667 22.2667 11.8667 21.7333 12.4L17.3333 16.8V4.00002C17.3333 3.20002 16.8 2.66669 16 2.66669C15.2 2.66669 14.6667 3.20002 14.6667 4.00002V16.8L10.2667 12.4C9.73333 11.8667 8.93333 11.8667 8.4 12.4C7.86667 12.9334 7.86667 13.7334 8.4 14.2667L15.0667 20.9334Z" fill="#0033A0"/>
</svg>
