<svg width="24" height="30" viewBox="0 0 24 30" fill="none" xmlns="http://www.w3.org/2000/svg">
<path d="M23.8667 9.13337C23.7333 9.00004 23.7333 8.86671 23.6 8.73337L15.6 0.733374C15.4667 0.600041 15.3333 0.466707 15.2 0.466707C15.0667 0.333374 14.8 0.333374 14.6667 0.333374H4C1.73333 0.333374 0 2.06671 0 4.33337V25.6667C0 27.9334 1.73333 29.6667 4 29.6667H20C22.2667 29.6667 24 27.9334 24 25.6667V9.66671C24 9.53337 24 9.26671 23.8667 9.13337ZM16 4.86671L19.4667 8.33337H16V4.86671ZM20 27H4C3.2 27 2.66667 26.4667 2.66667 25.6667V4.33337C2.66667 3.53337 3.2 3.00004 4 3.00004H13.3333V9.66671C13.3333 10.4667 13.8667 11 14.6667 11H21.3333V25.6667C21.3333 26.4667 20.8 27 20 27Z" fill="#464454"/>
<path d="M17.3335 15H6.66683C5.86683 15 5.3335 15.5333 5.3335 16.3333C5.3335 17.1333 5.86683 17.6667 6.66683 17.6667H17.3335C18.1335 17.6667 18.6668 17.1333 18.6668 16.3333C18.6668 15.5333 18.1335 15 17.3335 15Z" fill="#464454"/>
<path d="M17.3335 20.3334H6.66683C5.86683 20.3334 5.3335 20.8667 5.3335 21.6667C5.3335 22.4667 5.86683 23 6.66683 23H17.3335C18.1335 23 18.6668 22.4667 18.6668 21.6667C18.6668 20.8667 18.1335 20.3334 17.3335 20.3334Z" fill="#464454"/>
<path d="M6.66683 12.3334H9.3335C10.1335 12.3334 10.6668 11.8001 10.6668 11.0001C10.6668 10.2001 10.1335 9.66675 9.3335 9.66675H6.66683C5.86683 9.66675 5.3335 10.2001 5.3335 11.0001C5.3335 11.8001 5.86683 12.3334 6.66683 12.3334Z" fill="#464454"/>
</svg>
