<svg width="32" height="32" viewBox="0 0 32 32" fill="none" xmlns="http://www.w3.org/2000/svg">
<path d="M27.8667 10.132C27.7333 9.9987 27.7333 9.86536 27.6 9.73203L19.6 1.73203C19.4667 1.5987 19.3333 1.46536 19.2 1.46536C19.0667 1.33203 18.8 1.33203 18.6667 1.33203H8C5.73333 1.33203 4 3.06536 4 5.33203V26.6654C4 28.932 5.73333 30.6654 8 30.6654H24C26.2667 30.6654 28 28.932 28 26.6654V10.6654C28 10.532 28 10.2654 27.8667 10.132ZM20 5.86536L23.4667 9.33203H20V5.86536ZM24 27.9987H8C7.2 27.9987 6.66667 27.4654 6.66667 26.6654V5.33203C6.66667 4.53203 7.2 3.9987 8 3.9987H17.3333V10.6654C17.3333 11.4654 17.8667 11.9987 18.6667 11.9987H25.3333V26.6654C25.3333 27.4654 24.8 27.9987 24 27.9987Z" fill="#0033A0"/>
<path d="M21.334 16H10.6673C9.86732 16 9.33398 16.5333 9.33398 17.3333C9.33398 18.1333 9.86732 18.6667 10.6673 18.6667H21.334C22.134 18.6667 22.6673 18.1333 22.6673 17.3333C22.6673 16.5333 22.134 16 21.334 16Z" fill="#0033A0"/>
<path d="M21.334 21.332H10.6673C9.86732 21.332 9.33398 21.8654 9.33398 22.6654C9.33398 23.4654 9.86732 23.9987 10.6673 23.9987H21.334C22.134 23.9987 22.6673 23.4654 22.6673 22.6654C22.6673 21.8654 22.134 21.332 21.334 21.332Z" fill="#0033A0"/>
<path d="M10.6673 13.3307H13.334C14.134 13.3307 14.6673 12.7974 14.6673 11.9974C14.6673 11.1974 14.134 10.6641 13.334 10.6641H10.6673C9.86732 10.6641 9.33398 11.1974 9.33398 11.9974C9.33398 12.7974 9.86732 13.3307 10.6673 13.3307Z" fill="#0033A0"/>
</svg>
