<svg width="16" height="16" viewBox="0 0 16 16" fill="none" xmlns="http://www.w3.org/2000/svg">
<path fill-rule="evenodd" clip-rule="evenodd" d="M0.666748 8.00002C0.666748 3.93335 3.93341 0.666687 8.00008 0.666687C12.0667 0.666687 15.3334 3.93335 15.3334 8.00002C15.3334 12.0667 12.0667 15.3334 8.00008 15.3334C3.93341 15.3334 0.666748 12.0667 0.666748 8.00002ZM2.00008 8.00002C2.00008 11.3334 4.66675 14 8.00008 14C11.3334 14 14.0001 11.3334 14.0001 8.00002C14.0001 4.66669 11.3334 2.00002 8.00008 2.00002C4.66675 2.00002 2.00008 4.66669 2.00008 8.00002ZM9.53341 5.53335C9.80008 5.26669 10.2001 5.26669 10.4667 5.53335C10.7334 5.80002 10.7334 6.20002 10.4667 6.46669L8.93341 8.00002L10.4667 9.53335C10.7334 9.80002 10.7334 10.2 10.4667 10.4667C10.3334 10.6 10.1334 10.6667 10.0001 10.6667C9.86675 10.6667 9.66675 10.6 9.53341 10.4667L8.00008 8.93335L6.46675 10.4667C6.33341 10.6 6.20008 10.6667 6.00008 10.6667C5.80008 10.6667 5.66675 10.6 5.53341 10.4667C5.26675 10.2 5.26675 9.80002 5.53341 9.53335L7.06675 8.00002L5.53341 6.46669C5.26675 6.20002 5.26675 5.80002 5.53341 5.53335C5.80008 5.26669 6.20008 5.26669 6.46675 5.53335L8.00008 7.06669L9.53341 5.53335Z" fill="#E52323"/>
</svg>
