<svg width="54" height="54" viewBox="0 0 54 54" fill="none" xmlns="http://www.w3.org/2000/svg">
<path fill-rule="evenodd" clip-rule="evenodd" d="M48.3332 26.9999C48.3332 38.782 38.782 48.3332 26.9999 48.3332C15.2178 48.3332 5.66658 38.782 5.66658 26.9999C5.66658 15.2178 15.2178 5.66658 26.9999 5.66658C38.782 5.66658 48.3332 15.2178 48.3332 26.9999ZM53.6666 26.9999C53.6666 41.7275 41.7275 53.6666 26.9999 53.6666C12.2723 53.6666 0.333252 41.7275 0.333252 26.9999C0.333252 12.2723 12.2723 0.333252 26.9999 0.333252C41.7275 0.333252 53.6666 12.2723 53.6666 26.9999ZM32.4094 19.5651C32.5245 19.0028 32.2669 18.43 31.7698 18.1431C31.2728 17.8561 30.648 17.9194 30.2186 18.3002L19.0086 28.2406C18.6051 28.5984 18.4569 29.164 18.633 29.6737C18.8092 30.1834 19.275 30.5368 19.8133 30.5692L24.4355 30.8466L26.9868 34.7108C27.2839 35.1608 27.8229 35.3875 28.3524 35.2852C28.8819 35.1829 29.2976 34.7718 29.4057 34.2434L32.4094 19.5651ZM25.2607 28.2247L23.1863 28.1001L28.995 22.9492L27.4386 30.5552L26.2935 28.8209C26.0623 28.4707 25.6796 28.2498 25.2607 28.2247ZM27.0001 7C27.7365 7 28.3334 7.59695 28.3334 8.33333V13.6667C28.3334 14.403 27.7365 15 27.0001 15C26.2637 15 25.6667 14.403 25.6667 13.6667V8.33333C25.6667 7.59695 26.2637 7 27.0001 7ZM28.3334 40.3333C28.3334 39.597 27.7365 39 27.0001 39C26.2637 39 25.6667 39.597 25.6667 40.3333V45.6667C25.6667 46.403 26.2637 47 27.0001 47C27.7365 47 28.3334 46.403 28.3334 45.6667V40.3333ZM7 26.9999C7 26.2635 7.59695 25.6666 8.33333 25.6666L13.6667 25.6666C14.403 25.6666 15 26.2635 15 26.9999C15 27.7363 14.403 28.3333 13.6667 28.3333H8.33333C7.59695 28.3333 7 27.7363 7 26.9999ZM40.3333 25.6666C39.597 25.6666 39 26.2635 39 26.9999C39 27.7363 39.597 28.3333 40.3333 28.3333H45.6667C46.403 28.3333 47 27.7363 47 26.9999C47 26.2635 46.403 25.6666 45.6667 25.6666L40.3333 25.6666Z" fill="#2EC5D6"/>
</svg>
