<svg width="16" height="16" viewBox="0 0 16 16" fill="none" xmlns="http://www.w3.org/2000/svg">
<path d="M15.9323 7.73333C15.799 7.46667 12.999 2 7.99896 2C2.99896 2 0.198958 7.46667 0.065625 7.73333C-0.00104167 7.93333 -0.00104167 8.13333 0.065625 8.33333C0.198958 8.53333 2.99896 14 7.99896 14C12.999 14 15.799 8.53333 15.9323 8.26667C15.999 8.13333 15.999 7.86667 15.9323 7.73333ZM7.99896 12.6667C4.39896 12.6667 2.06562 9.06667 1.39896 8C1.99896 6.93333 4.39896 3.33333 7.99896 3.33333C11.599 3.33333 13.9323 6.93333 14.599 8C13.9323 9.06667 11.599 12.6667 7.99896 12.6667Z" fill="#626277"/>
<path d="M7.9987 5.33398C6.53203 5.33398 5.33203 6.53398 5.33203 8.00065C5.33203 9.46732 6.53203 10.6673 7.9987 10.6673C9.46536 10.6673 10.6654 9.46732 10.6654 8.00065C10.6654 6.53398 9.46536 5.33398 7.9987 5.33398ZM7.9987 9.33398C7.26536 9.33398 6.66536 8.73398 6.66536 8.00065C6.66536 7.26732 7.26536 6.66732 7.9987 6.66732C8.73203 6.66732 9.33203 7.26732 9.33203 8.00065C9.33203 8.73398 8.73203 9.33398 7.9987 9.33398Z" fill="#626277"/>
</svg>
