<svg width="17" height="17" viewBox="0 0 17 17" fill="none" xmlns="http://www.w3.org/2000/svg">
<path d="M14.8656 0H1.94576C0.856133 0 0 0.856133 0 1.94576V14.8656C0 15.9552 0.856133 16.8113 1.94576 16.8113H14.8656C15.9552 16.8113 16.8113 15.9552 16.8113 14.8656V1.94576C16.8113 0.856133 15.9552 0 14.8656 0ZM15.4882 14.8656C15.4882 15.2547 15.1769 15.4882 14.8656 15.4882H11.1297V10.1179H13.1533L13.4646 8.09434H11.1297V6.6934C11.1297 6.14859 11.5967 5.68161 12.1415 5.68161H13.4646V3.65802H12.1415C10.4293 3.65802 9.10614 4.98113 9.10614 6.6934V8.09434H7.08255V10.1179H9.02831V15.4882H1.94576C1.5566 15.4882 1.32311 15.1769 1.32311 14.8656V1.94576C1.32311 1.5566 1.63443 1.32311 1.94576 1.32311H14.8656C15.2547 1.32311 15.4882 1.63443 15.4882 1.94576V14.8656Z" fill="#1F3696"/>
</svg>
