<svg width="24" height="24" viewBox="0 0 24 24" fill="none" xmlns="http://www.w3.org/2000/svg">
<path d="M7.00001 14.748H5.00001V12.7473H7.00001V14.748ZM11 12.7473H9.00001V14.748H11V12.7473ZM15 12.7473H13V14.748H15V12.7473ZM19 12.7473H17V14.748H19V12.7473ZM22 17.9992V4.99436C21.999 4.81927 21.952 4.64752 21.8638 4.49628C21.7756 4.34504 21.6493 4.21961 21.4974 4.13252C21.3456 4.04543 21.1735 3.99974 20.9985 4C20.8235 4.00027 20.6516 4.04649 20.5 4.13404L16 6.76502V4.99436C15.999 4.81927 15.952 4.64752 15.8638 4.49628C15.7756 4.34504 15.6493 4.21961 15.4974 4.13252C15.3456 4.04543 15.1735 3.99974 14.9985 4C14.8235 4.00027 14.6516 4.04649 14.5 4.13404L10 6.76502V4.99436C9.99895 4.81927 9.95198 4.64752 9.86378 4.49628C9.77559 4.34504 9.64925 4.21961 9.49741 4.13252C9.34557 4.04543 9.17353 3.99974 8.99851 4C8.82348 4.00027 8.65159 4.04649 8.50001 4.13404L2.50001 7.64536C2.3474 7.73349 2.22079 7.8604 2.13299 8.01324C2.04518 8.16608 1.99931 8.33941 2.00001 8.51568V17.9992C2.00001 18.5299 2.21072 19.0388 2.58579 19.414C2.96087 19.7892 3.46957 20 4.00001 20H20C20.5304 20 21.0391 19.7892 21.4142 19.414C21.7893 19.0388 22 18.5299 22 17.9992ZM8.00001 6.74502V8.51568C7.99931 8.69196 8.04518 8.86529 8.13299 9.01813C8.22079 9.17096 8.3474 9.29787 8.50001 9.38601C8.65203 9.47381 8.82447 9.52003 9.00001 9.52003C9.17554 9.52003 9.34799 9.47381 9.50001 9.38601L14 6.74502V8.51568C13.9993 8.69196 14.0452 8.86529 14.133 9.01813C14.2208 9.17096 14.3474 9.29787 14.5 9.38601C14.652 9.47381 14.8245 9.52003 15 9.52003C15.1755 9.52003 15.348 9.47381 15.5 9.38601L20 6.74502V17.9992H4.00001V9.0859L8.00001 6.74502Z" fill="#0033A0"/>
</svg>
