<svg width="24" height="24" viewBox="0 0 16 16" fill="none" xmlns="http://www.w3.org/2000/svg">
<path d="M13.9333 5.06602C13.8667 4.99935 13.8667 4.93268 13.8 4.86602L9.8 0.866016C9.73333 0.799349 9.66667 0.732682 9.6 0.732682C9.53333 0.666016 9.4 0.666016 9.33333 0.666016H4C2.86667 0.666016 2 1.53268 2 2.66602V13.3327C2 14.466 2.86667 15.3327 4 15.3327H12C13.1333 15.3327 14 14.466 14 13.3327V5.33268C14 5.26602 14 5.13268 13.9333 5.06602ZM10 2.93268L11.7333 4.66602H10V2.93268ZM12 13.9993H4C3.6 13.9993 3.33333 13.7327 3.33333 13.3327V2.66602C3.33333 2.26602 3.6 1.99935 4 1.99935H8.66667V5.33268C8.66667 5.73268 8.93333 5.99935 9.33333 5.99935H12.6667V13.3327C12.6667 13.7327 12.4 13.9993 12 13.9993ZM9 8.79935L5.8 11.9993C5.8 11.9993 5.73333 11.9993 5.73333 12.066L4.66667 12.3327C4.6 12.3327 4.46667 12.266 4.53333 12.1993L4.8 11.1993C4.8 11.1993 4.8 11.1327 4.86667 11.1327L8.06667 7.93268C8.33333 7.66602 8.73333 7.66602 9 7.93268C9.26667 8.13268 9.26667 8.53268 9 8.79935ZM11.4667 11.666C11.4667 12.066 11.2 12.3327 10.8 12.3327H8.2C7.8 12.3327 7.53333 12.066 7.53333 11.666C7.53333 11.266 7.8 10.9993 8.2 10.9993H10.8C11.2 10.9993 11.4667 11.266 11.4667 11.666Z" fill="#292730"/>
</svg>
