<svg width="32" height="32" viewBox="0 0 32 32" fill="none" xmlns="http://www.w3.org/2000/svg">
<path d="M27.8667 10.1334C27.7333 10 27.7333 9.86671 27.6 9.73337L19.6 1.73337C19.4667 1.60004 19.3333 1.46671 19.2 1.46671C19.0667 1.33337 18.8 1.33337 18.6667 1.33337H8C5.73333 1.33337 4 3.06671 4 5.33337V26.6667C4 28.9334 5.73333 30.6667 8 30.6667H24C26.2667 30.6667 28 28.9334 28 26.6667V10.6667C28 10.5334 28 10.2667 27.8667 10.1334ZM20 5.86671L23.4667 9.33337H20V5.86671ZM24 28H8C7.2 28 6.66667 27.4667 6.66667 26.6667V5.33337C6.66667 4.53337 7.2 4.00004 8 4.00004H17.3333V10.6667C17.3333 11.4667 17.8667 12 18.6667 12H25.3333V26.6667C25.3333 27.4667 24.8 28 24 28Z" fill="#626277"/>
<path d="M21.334 16H10.6673C9.86732 16 9.33398 16.5333 9.33398 17.3333C9.33398 18.1333 9.86732 18.6667 10.6673 18.6667H21.334C22.134 18.6667 22.6673 18.1333 22.6673 17.3333C22.6673 16.5333 22.134 16 21.334 16Z" fill="#626277"/>
<path d="M21.334 21.3334H10.6673C9.86732 21.3334 9.33398 21.8667 9.33398 22.6667C9.33398 23.4667 9.86732 24 10.6673 24H21.334C22.134 24 22.6673 23.4667 22.6673 22.6667C22.6673 21.8667 22.134 21.3334 21.334 21.3334Z" fill="#626277"/>
<path d="M10.6673 13.3334H13.334C14.134 13.3334 14.6673 12.8001 14.6673 12.0001C14.6673 11.2001 14.134 10.6667 13.334 10.6667H10.6673C9.86732 10.6667 9.33398 11.2001 9.33398 12.0001C9.33398 12.8001 9.86732 13.3334 10.6673 13.3334Z" fill="#626277"/>
</svg>
