<svg width="32" height="32" viewBox="0 0 32 32" fill="none" xmlns="http://www.w3.org/2000/svg">
<path d="M27.8667 10.1333C27.7333 9.99998 27.7333 9.86665 27.6 9.73331L19.6 1.73331C19.4667 1.59998 19.3333 1.46665 19.2 1.46665C19.0667 1.33331 18.8 1.33331 18.6667 1.33331H8C5.73333 1.33331 4 3.06665 4 5.33331V26.6666C4 28.9333 5.73333 30.6666 8 30.6666H24C26.2667 30.6666 28 28.9333 28 26.6666V10.6666C28 10.5333 28 10.2666 27.8667 10.1333ZM20 5.86665L23.4667 9.33331H20V5.86665ZM24 28H8C7.2 28 6.66667 27.4666 6.66667 26.6666V5.33331C6.66667 4.53331 7.2 3.99998 8 3.99998H17.3333V10.6666C17.3333 11.4666 17.8667 12 18.6667 12H25.3333V26.6666C25.3333 27.4666 24.8 28 24 28Z" fill="#626277"/>
<path d="M19.9993 18.6666H17.3327V16C17.3327 15.2 16.7993 14.6666 15.9993 14.6666C15.1993 14.6666 14.666 15.2 14.666 16V18.6666H11.9993C11.1993 18.6666 10.666 19.2 10.666 20C10.666 20.8 11.1993 21.3333 11.9993 21.3333H14.666V24C14.666 24.8 15.1993 25.3333 15.9993 25.3333C16.7993 25.3333 17.3327 24.8 17.3327 24V21.3333H19.9993C20.7993 21.3333 21.3327 20.8 21.3327 20C21.3327 19.2 20.7993 18.6666 19.9993 18.6666Z" fill="#626277"/>
</svg>
