<svg width="32" height="32" viewBox="0 0 32 32" fill="none" xmlns="http://www.w3.org/2000/svg">
<path d="M27.8933 10.1467C27.8283 9.98778 27.7333 9.84291 27.6133 9.72004L19.6133 1.72004C19.4905 1.60011 19.3456 1.50503 19.1867 1.44004C19.0214 1.37286 18.8451 1.3367 18.6667 1.33337L8 1.33337C6.93913 1.33337 5.92172 1.7548 5.17157 2.50495C4.42143 3.25509 4 4.27251 4 5.33337L4 26.6667C4 27.7276 4.42143 28.745 5.17157 29.4951C5.92172 30.2453 6.93913 30.6667 8 30.6667H24C25.0609 30.6667 26.0783 30.2453 26.8284 29.4951C27.5786 28.745 28 27.7276 28 26.6667V10.6667C27.9967 10.4883 27.9605 10.312 27.8933 10.1467ZM20 5.88004L23.4533 9.33337H20V5.88004ZM24 28H8C7.64638 28 7.30724 27.8596 7.05719 27.6095C6.80714 27.3595 6.66667 27.0203 6.66667 26.6667V5.33337C6.66667 4.97975 6.80714 4.64061 7.05719 4.39056C7.30724 4.14052 7.64638 4.00004 8 4.00004H17.3333V10.6667C17.3333 11.0203 17.4738 11.3595 17.7239 11.6095C17.9739 11.8596 18.313 12 18.6667 12H25.3333V26.6667C25.3333 27.0203 25.1929 27.3595 24.9428 27.6095C24.6928 27.8596 24.3536 28 24 28ZM17.4667 18.76H17.0667V17.56H18.6667C18.9496 17.56 19.2209 17.4477 19.4209 17.2476C19.621 17.0476 19.7333 16.7763 19.7333 16.4934C19.7333 16.2105 19.621 15.9392 19.4209 15.7391C19.2209 15.5391 18.9496 15.4267 18.6667 15.4267H17.0667V14.5867C17.0667 14.4466 17.0391 14.3079 16.9855 14.1785C16.9319 14.0491 16.8533 13.9315 16.7542 13.8325C16.6552 13.7334 16.5376 13.6548 16.4082 13.6012C16.2788 13.5476 16.1401 13.52 16 13.52C15.8599 13.52 15.7212 13.5476 15.5918 13.6012C15.4624 13.6548 15.3448 13.7334 15.2458 13.8325C15.1467 13.9315 15.0681 14.0491 15.0145 14.1785C14.9609 14.3079 14.9333 14.4466 14.9333 14.5867V15.4267H14.5333C13.8084 15.4267 13.1132 15.7147 12.6006 16.2273C12.088 16.7399 11.8 17.4351 11.8 18.16C11.8 18.885 12.088 19.5802 12.6006 20.0928C13.1132 20.6054 13.8084 20.8934 14.5333 20.8934H14.9333V22.0934H12.8667C12.5838 22.0934 12.3125 22.2058 12.1124 22.4058C11.9124 22.6058 11.8 22.8771 11.8 23.16C11.8 23.4429 11.9124 23.7142 12.1124 23.9143C12.3125 24.1143 12.5838 24.2267 12.8667 24.2267H14.9333V25.0667C14.9333 25.2068 14.9609 25.3455 15.0145 25.4749C15.0681 25.6043 15.1467 25.7219 15.2458 25.821C15.3448 25.92 15.4624 25.9986 15.5918 26.0522C15.7212 26.1058 15.8599 26.1334 16 26.1334C16.1401 26.1334 16.2788 26.1058 16.4082 26.0522C16.5376 25.9986 16.6552 25.92 16.7542 25.821C16.8533 25.7219 16.9319 25.6043 16.9855 25.4749C17.0391 25.3455 17.0667 25.2068 17.0667 25.0667V24.2267H17.4667C18.1916 24.2267 18.8868 23.9387 19.3994 23.4261C19.912 22.9135 20.2 22.2183 20.2 21.4934C20.2 20.7684 19.912 20.0732 19.3994 19.5606C18.8868 19.048 18.1916 18.76 17.4667 18.76ZM14.5333 18.76C14.3742 18.76 14.2216 18.6968 14.1091 18.5843C13.9965 18.4718 13.9333 18.3192 13.9333 18.16C13.9333 18.0009 13.9965 17.8483 14.1091 17.7358C14.2216 17.6233 14.3742 17.56 14.5333 17.56H14.9333V18.76H14.5333ZM17.4667 22.0934H17.0667V20.8934H17.4667C17.6258 20.8934 17.7784 20.9566 17.8909 21.0691C18.0035 21.1816 18.0667 21.3342 18.0667 21.4934C18.0667 21.6525 18.0035 21.8051 17.8909 21.9176C17.7784 22.0302 17.6258 22.0934 17.4667 22.0934Z" fill="#0033A0"/>
</svg>
