<svg width="32" height="32" viewBox="0 0 32 32" fill="none" xmlns="http://www.w3.org/2000/svg">
<path d="M27.8667 10.1334C27.7333 10 27.7333 9.86671 27.6 9.73337L19.6 1.73337C19.4667 1.60004 19.3333 1.46671 19.2 1.46671C19.0667 1.33337 18.8 1.33337 18.6667 1.33337H8C5.73333 1.33337 4 3.06671 4 5.33337V26.6667C4 28.9334 5.73333 30.6667 8 30.6667H24C26.2667 30.6667 28 28.9334 28 26.6667V10.6667C28 10.5334 28 10.2667 27.8667 10.1334ZM20 5.86671L23.4667 9.33337H20V5.86671ZM24 28H8C7.2 28 6.66667 27.4667 6.66667 26.6667V5.33337C6.66667 4.53337 7.2 4.00004 8 4.00004H17.3333V10.6667C17.3333 11.4667 17.8667 12 18.6667 12H25.3333V26.6667C25.3333 27.4667 24.8 28 24 28Z" fill="#0033A0"/>
<path d="M20.4 26C19.6 26 19.0667 25.4667 19.0667 24.6667V24C19.0667 23.2 18.5333 22.6667 17.7333 22.6667H14.2667C13.4667 22.6667 12.9333 23.2 12.9333 24V24.6667C12.9333 25.4667 12.4 26 11.6 26C10.8 26 10.2667 25.4667 10.2667 24.6667V24C10.2667 21.7334 12 20 14.2667 20H17.6C19.8667 20 21.6 21.7334 21.6 24V24.6667C21.7333 25.3334 21.0667 26 20.4 26Z" fill="#0033A0"/>
<path d="M16 18.9334C17.4728 18.9334 18.6667 17.7395 18.6667 16.2667C18.6667 14.794 17.4728 13.6001 16 13.6001C14.5272 13.6001 13.3333 14.794 13.3333 16.2667C13.3333 17.7395 14.5272 18.9334 16 18.9334Z" fill="#0033A0"/>
</svg>
