<svg width="32" height="32" viewBox="0 0 32 32" fill="none" xmlns="http://www.w3.org/2000/svg">
<path d="M16 1.33331C7.86668 1.33331 1.33334 7.86665 1.33334 16C1.33334 24.1333 7.86668 30.6666 16 30.6666C24.1333 30.6666 30.6667 24.1333 30.6667 16C30.6667 7.86665 24.1333 1.33331 16 1.33331ZM27.8667 14.6666H22.5333C22.2667 10.9333 21.0667 7.46665 18.9333 4.39998C23.7333 5.59998 27.3333 9.73331 27.8667 14.6666ZM12.1333 17.3333H20C19.6 20.9333 18.2667 24.4 16.1333 27.2C13.7333 24.4 12.4 20.9333 12.1333 17.3333ZM12.1333 14.6666C12.5333 11.0666 13.8667 7.59998 16 4.79998C18.2667 7.73331 19.6 11.2 19.8667 14.6666H12.1333ZM12.9333 4.39998C10.9333 7.46665 9.73334 10.9333 9.46668 14.6666H4.13334C4.66668 9.73331 8.26668 5.59998 12.9333 4.39998ZM4.13334 17.3333H9.46668C9.73334 21.0666 10.9333 24.5333 13.0667 27.6C8.26668 26.4 4.66668 22.2666 4.13334 17.3333ZM19.0667 27.6C21.0667 24.5333 22.2667 21.0666 22.6667 17.3333H28C27.3333 22.2666 23.7333 26.4 19.0667 27.6Z" fill="#464454"/>
</svg>
