<svg width="36" height="36" viewBox="0 0 36 36" fill="none" xmlns="http://www.w3.org/2000/svg">
<path d="M25.2267 22.9191H25.0069V22.2505H25.886C25.9634 22.2505 26.04 22.2353 26.1115 22.2057C26.183 22.1761 26.248 22.1328 26.3027 22.0781C26.3575 22.0234 26.4009 21.9585 26.4305 21.8871C26.4601 21.8157 26.4754 21.7391 26.4754 21.6618C26.4754 21.5845 26.4601 21.508 26.4305 21.4366C26.4009 21.3651 26.3575 21.3002 26.3027 21.2456C26.248 21.1909 26.183 21.1475 26.1115 21.1179C26.04 21.0884 25.9634 21.0731 25.886 21.0731H25.0069V20.6042C25.0069 20.448 24.9448 20.2983 24.8343 20.1879C24.7237 20.0775 24.5738 20.0155 24.4175 20.0155C24.2612 20.0155 24.1113 20.0775 24.0008 20.1879C23.8902 20.2983 23.8281 20.448 23.8281 20.6042V21.0731H23.6084C23.3911 21.0376 23.1687 21.0496 22.9565 21.1085C22.7444 21.1673 22.5476 21.2716 22.3798 21.4139C22.212 21.5563 22.0772 21.7334 21.9848 21.933C21.8923 22.1326 21.8445 22.3499 21.8445 22.5698C21.8445 22.7897 21.8923 23.007 21.9848 23.2066C22.0772 23.4062 22.212 23.5833 22.3798 23.7257C22.5476 23.8681 22.7444 23.9723 22.9565 24.0312C23.1687 24.09 23.3911 24.1021 23.6084 24.0665H23.8281V24.735H22.6793C22.523 24.735 22.3731 24.7971 22.2626 24.9075C22.1521 25.0179 22.09 25.1676 22.09 25.3237C22.09 25.4799 22.1521 25.6296 22.2626 25.74C22.3731 25.8504 22.523 25.9124 22.6793 25.9124H23.8281V26.3814C23.8281 26.5375 23.8902 26.6873 24.0008 26.7977C24.1113 26.9081 24.2612 26.9701 24.4175 26.9701C24.5738 26.9701 24.7237 26.9081 24.8343 26.7977C24.9448 26.6873 25.0069 26.5375 25.0069 26.3814V25.9124H25.2267C25.2267 25.9124 25.6664 25.9359 25.8785 25.8771C26.0906 25.8182 26.2874 25.714 26.4552 25.5716C26.623 25.4292 26.7578 25.2521 26.8503 25.0525C26.9427 24.8529 26.9906 24.6357 26.9906 24.4157C26.9906 24.1958 26.9427 23.9785 26.8503 23.779C26.7578 23.5794 26.623 23.4022 26.4552 23.2599C26.2874 23.1175 26.0906 23.0133 25.8785 22.9544C25.6664 22.8956 25.4439 22.8835 25.2267 22.9191ZM23.8281 22.9191H23.6084C23.5596 22.9275 23.5095 22.9252 23.4617 22.9123C23.4139 22.8994 23.3695 22.8762 23.3317 22.8444C23.2938 22.8125 23.2633 22.7728 23.2424 22.7279C23.2215 22.6831 23.2107 22.6342 23.2107 22.5848C23.2107 22.5353 23.2215 22.4865 23.2424 22.4416C23.2633 22.3968 23.2938 22.3571 23.3317 22.3252C23.3695 22.2934 23.4139 22.2702 23.4617 22.2573C23.5095 22.2444 23.5596 22.2421 23.6084 22.2505H23.8281V22.9191ZM25.2267 24.765H25.0069V24.0964H25.2267C25.2755 24.088 25.3255 24.0903 25.3733 24.1032C25.4211 24.1161 25.4655 24.1393 25.5034 24.1711C25.5413 24.203 25.5717 24.2427 25.5926 24.2876C25.6135 24.3324 25.6243 24.3813 25.6243 24.4307C25.6243 24.4802 25.6135 24.529 25.5926 24.5739C25.5717 24.6187 25.5413 24.6584 25.5034 24.6903C25.4655 24.7221 25.4211 24.7453 25.3733 24.7582C25.3255 24.7711 25.2755 24.7734 25.2267 24.765ZM26.7308 18.0199C26.8324 17.9114 26.9084 17.7817 26.9533 17.6401C26.9982 17.4986 27.011 17.3488 26.9906 17.2017C26.7943 15.11 25.8756 13.1516 24.392 11.6624C22.9084 10.1732 20.9523 9.24602 18.8591 9.03977C17.6756 8.92849 16.4818 9.05144 15.3459 9.40158C14.21 9.75172 13.1544 10.3222 12.2395 11.0803C11.3247 11.8384 10.5684 12.7693 10.0142 13.8197C9.45992 14.8701 9.11849 16.0194 9.00945 17.2017C8.98906 17.3488 9.0018 17.4986 9.04673 17.6401C9.09167 17.7817 9.16766 17.9114 9.26918 18.0199C9.36772 18.1124 9.48404 18.1841 9.61111 18.2304C9.73818 18.2767 9.87334 18.2967 10.0084 18.2893H17.0011V23.827C17.0011 24.1393 16.8769 24.4388 16.6558 24.6596C16.4347 24.8804 16.1349 25.0044 15.8223 25.0044C15.5097 25.0044 15.2098 24.8804 14.9888 24.6596C14.7677 24.4388 14.6435 24.1393 14.6435 23.827C14.6435 23.5624 14.5383 23.3086 14.3509 23.1215C14.1636 22.9344 13.9095 22.8293 13.6446 22.8293C13.3796 22.8293 13.1256 22.9344 12.9382 23.1215C12.7509 23.3086 12.6456 23.5624 12.6456 23.827C12.6456 24.6686 12.9803 25.4756 13.5761 26.0707C14.1718 26.6657 14.9798 27 15.8223 27C16.6648 27 17.4728 26.6657 18.0685 26.0707C18.6643 25.4756 18.999 24.6686 18.999 23.827V18.2893H25.9916C26.1267 18.2967 26.2618 18.2767 26.3889 18.2304C26.516 18.1841 26.6323 18.1124 26.7308 18.0199ZM18 16.2937H11.1972C11.5623 14.8592 12.378 13.5794 13.5247 12.6418C14.4327 11.8806 15.5196 11.3625 16.6831 11.1361C17.8467 10.9098 19.0488 10.9826 20.1764 11.3477C21.3041 11.7128 22.3203 12.3583 23.1296 13.2235C23.9389 14.0887 24.5147 15.1452 24.8029 16.2937H18Z" fill="#626277"/>
</svg>
