<svg width="30" height="30" viewBox="0 0 30 30" fill="none" xmlns="http://www.w3.org/2000/svg">
<path d="M14.9997 0.333984C6.86634 0.333984 0.333008 6.86732 0.333008 15.0007C0.333008 23.134 6.86634 29.6673 14.9997 29.6673C23.133 29.6673 29.6663 23.134 29.6663 15.0007C29.6663 6.86732 23.133 0.333984 14.9997 0.333984ZM26.8663 13.6673H21.533C21.2663 9.93398 20.0663 6.46732 17.933 3.40065C22.733 4.60065 26.333 8.73398 26.8663 13.6673ZM11.133 16.334H18.9997C18.5997 19.934 17.2663 23.4007 15.133 26.2006C12.733 23.4007 11.3997 19.934 11.133 16.334ZM11.133 13.6673C11.533 10.0673 12.8663 6.60065 14.9997 3.80065C17.2663 6.73398 18.5997 10.2007 18.8663 13.6673H11.133ZM11.933 3.40065C9.93301 6.46732 8.73301 9.93398 8.46634 13.6673H3.13301C3.66634 8.73398 7.26634 4.60065 11.933 3.40065ZM3.13301 16.334H8.46634C8.73301 20.0673 9.93301 23.534 12.0663 26.6007C7.26634 25.4007 3.66634 21.2673 3.13301 16.334ZM18.0663 26.6007C20.0663 23.534 21.2663 20.0673 21.6663 16.334H26.9997C26.333 21.2673 22.733 25.4007 18.0663 26.6007Z" fill="#464454"/>
</svg>
