<svg width="36" height="36" viewBox="0 0 36 36" fill="none" xmlns="http://www.w3.org/2000/svg">
<path d="M27.0007 14.591H25.8711C25.2952 13.6233 24.4791 12.8208 23.502 12.2612V9.00144H22.5024C21.5882 8.9803 20.6836 9.19225 19.8739 9.61734C19.0642 10.0424 18.376 10.6666 17.8741 11.4312H13.4557C12.3128 11.4328 11.1911 11.74 10.2069 12.3212C9.95969 11.9675 9.63049 11.6791 9.24748 11.4806C8.86447 11.2821 8.43906 11.1793 8.00769 11.1813C7.74257 11.1813 7.48831 11.2866 7.30084 11.4741C7.11337 11.6617 7.00805 11.916 7.00805 12.1812C7.00805 12.4464 7.11337 12.7007 7.30084 12.8882C7.48831 13.0757 7.74257 13.1811 8.00769 13.1811C8.13879 13.1798 8.2674 13.217 8.37757 13.2881C8.48774 13.3592 8.57463 13.461 8.62746 13.5811C8.01963 14.263 7.56432 15.0669 7.29196 15.9389C7.01961 16.811 6.93648 17.7312 7.04814 18.6379C7.15979 19.5447 7.46367 20.4172 7.93944 21.1971C8.41521 21.977 9.05193 22.6463 9.80703 23.1603V25.0001C9.82011 25.5368 10.0431 26.0469 10.4282 26.4209C10.8133 26.7948 11.3296 27.0027 11.8663 27H13.8655C14.4032 27.0028 14.9206 26.7952 15.3073 26.4215C15.6939 26.0478 15.9191 25.5377 15.9348 25.0001V24.3502H16.9344V25.0001C16.9501 25.5377 17.1753 26.0478 17.5619 26.4215C17.9486 26.7952 18.466 27.0028 19.0036 27H21.0029C21.5405 27.0028 22.058 26.7952 22.4446 26.4215C22.8313 26.0478 23.0565 25.5377 23.0722 25.0001V23.7002C24.2385 23.1533 25.2136 22.2685 25.8711 21.1604H27.0007C27.5372 21.1474 28.0472 20.9243 28.421 20.5391C28.7949 20.1539 29.0028 19.6374 29 19.1006V16.6508C29.0028 16.114 28.7949 15.5975 28.421 15.2123C28.0472 14.8272 27.5372 14.6041 27.0007 14.591ZM27.0007 19.1106H24.5916L24.3217 19.7006C24.0665 20.2398 23.7046 20.7217 23.2579 21.117C22.8112 21.5123 22.2889 21.8129 21.7226 22.0004L21.0229 22.2304V25.0001H19.0036V22.3004H13.8855V25.0001H11.8863V22.0004L11.3565 21.7104C10.5077 21.24 9.83867 20.5015 9.45408 19.6104C9.0695 18.7193 8.99103 17.7258 9.23093 16.7853C9.47084 15.8448 10.0156 15.0104 10.78 14.4126C11.5444 13.8147 12.4854 13.4871 13.4557 13.4811H19.1636L19.4235 12.8311C19.6122 12.4241 19.8897 12.0645 20.2357 11.779C20.5817 11.4935 20.9874 11.2892 21.4228 11.1813V13.5711L22.0325 13.841C23.0352 14.2548 23.8503 15.0237 24.3217 16.0009L24.5916 16.6008H27.0007V19.1106ZM17.6441 17.2908H17.4242V16.6208H18.3039C18.4603 16.6208 18.6103 16.5587 18.7209 16.448C18.8315 16.3374 18.8937 16.1873 18.8937 16.0309C18.8937 15.8744 18.8315 15.7243 18.7209 15.6137C18.6103 15.5031 18.4603 15.4409 18.3039 15.4409H17.4242V15.0009C17.4055 14.8564 17.3347 14.7237 17.2253 14.6275C17.1158 14.5313 16.9751 14.4783 16.8294 14.4783C16.6838 14.4783 16.543 14.5313 16.4336 14.6275C16.3241 14.7237 16.2534 14.8564 16.2347 15.0009V15.4709H16.0047C15.7873 15.4353 15.5648 15.4474 15.3525 15.5063C15.1402 15.5653 14.9433 15.6698 14.7754 15.8124C14.6074 15.9551 14.4726 16.1326 14.3801 16.3326C14.2875 16.5327 14.2396 16.7504 14.2396 16.9708C14.2396 17.1912 14.2875 17.4089 14.3801 17.6089C14.4726 17.809 14.6074 17.9865 14.7754 18.1291C14.9433 18.2718 15.1402 18.3763 15.3525 18.4352C15.5648 18.4942 15.7873 18.5063 16.0047 18.4707H16.2247V19.1406H15.0851C14.9287 19.1406 14.7787 19.2028 14.668 19.3134C14.5574 19.424 14.4953 19.5741 14.4953 19.7306C14.4953 19.887 14.5574 20.0371 14.668 20.1477C14.7787 20.2584 14.9287 20.3205 15.0851 20.3205H16.2347V20.7905C16.2534 20.935 16.3241 21.0677 16.4336 21.1639C16.543 21.2601 16.6838 21.3131 16.8294 21.3131C16.9751 21.3131 17.1158 21.2601 17.2253 21.1639C17.3347 21.0677 17.4055 20.935 17.4242 20.7905V20.3205H17.6441C17.9998 20.2622 18.3232 20.0794 18.5565 19.8046C18.7898 19.5299 18.9179 19.1811 18.9179 18.8206C18.9179 18.4601 18.7898 18.1114 18.5565 17.8366C18.3232 17.5619 17.9998 17.379 17.6441 17.3208V17.2908ZM16.2347 17.2908H16.0047C15.9259 17.2771 15.8543 17.236 15.8028 17.1747C15.7512 17.1134 15.7229 17.0359 15.7229 16.9558C15.7229 16.8757 15.7512 16.7982 15.8028 16.7369C15.8543 16.6756 15.9259 16.6345 16.0047 16.6208H16.2247L16.2347 17.2908ZM17.6441 19.1406H17.4242V18.4707H17.6441C17.723 18.4844 17.7946 18.5255 17.8461 18.5867C17.8977 18.648 17.9259 18.7255 17.9259 18.8056C17.9259 18.8857 17.8977 18.9633 17.8461 19.0245C17.7946 19.0858 17.723 19.1269 17.6441 19.1406Z" fill="#464454"/>
</svg>
