<svg width="36" height="36" viewBox="0 0 36 36" fill="none" xmlns="http://www.w3.org/2000/svg">
<path d="M19.15 17.1455H18.84V16.146H20.1C20.3083 16.1233 20.5008 16.0245 20.6407 15.8687C20.7806 15.7128 20.8579 15.5108 20.8579 15.3014C20.8579 15.092 20.7806 14.89 20.6407 14.7341C20.5008 14.5782 20.3083 14.4795 20.1 14.4568H18.84V13.8471C18.84 13.7355 18.818 13.6251 18.7753 13.522C18.7326 13.4189 18.67 13.3253 18.591 13.2464C18.5121 13.1675 18.4184 13.1049 18.3153 13.0622C18.2122 13.0195 18.1016 12.9975 17.99 12.9975C17.8784 12.9975 17.7678 13.0195 17.6647 13.0622C17.5616 13.1049 17.4679 13.1675 17.389 13.2464C17.31 13.3253 17.2474 13.4189 17.2047 13.522C17.162 13.6251 17.14 13.7355 17.14 13.8471V14.5068H16.83C16.2545 14.5068 15.7025 14.7353 15.2956 15.142C14.8886 15.5488 14.66 16.1005 14.66 16.6757C14.66 17.2509 14.8886 17.8026 15.2956 18.2093C15.7025 18.6161 16.2545 18.8446 16.83 18.8446H17.14V19.7941H15.51C15.3913 19.7812 15.2712 19.7934 15.1576 19.83C15.0439 19.8665 14.9393 19.9266 14.8504 20.0063C14.7615 20.0859 14.6904 20.1834 14.6418 20.2924C14.5931 20.4014 14.5679 20.5194 14.5679 20.6387C14.5679 20.758 14.5931 20.876 14.6418 20.985C14.6904 21.094 14.7615 21.1915 14.8504 21.2711C14.9393 21.3508 15.0439 21.4109 15.1576 21.4474C15.2712 21.484 15.3913 21.4962 15.51 21.4833H17.14V22.1429C17.14 22.3683 17.2296 22.5844 17.389 22.7437C17.5484 22.903 17.7646 22.9925 17.99 22.9925C18.2154 22.9925 18.4316 22.903 18.591 22.7437C18.7504 22.5844 18.84 22.3683 18.84 22.1429V21.4833H19.15C19.7255 21.4833 20.2775 21.2548 20.6844 20.848C21.0914 20.4413 21.32 19.8896 21.32 19.3144C21.32 18.7391 21.0914 18.1875 20.6844 17.7807C20.2775 17.374 19.7255 17.1455 19.15 17.1455ZM17.15 17.1455H16.84C16.7774 17.1468 16.7152 17.1356 16.6571 17.1126C16.5989 17.0896 16.5459 17.0552 16.5012 17.0114C16.4565 16.9677 16.421 16.9155 16.3967 16.8578C16.3725 16.8001 16.36 16.7382 16.36 16.6757C16.36 16.5485 16.4106 16.4264 16.5006 16.3365C16.5906 16.2465 16.7127 16.1959 16.84 16.1959H17.15V17.1455ZM19.15 19.7941H18.84V18.8446H19.15C19.2126 18.8433 19.2748 18.8544 19.3329 18.8774C19.3911 18.9005 19.4441 18.9349 19.4888 18.9786C19.5335 19.0224 19.569 19.0746 19.5933 19.1323C19.6175 19.1899 19.63 19.2518 19.63 19.3144C19.63 19.4416 19.5794 19.5636 19.4894 19.6536C19.3994 19.7436 19.2773 19.7941 19.15 19.7941ZM18 28C17.8435 27.9991 17.6893 27.9614 17.55 27.8901C17.23 27.7301 10 24.002 10 18.2449V11.6182C10.0014 11.4157 10.0643 11.2184 10.1803 11.0524C10.2964 10.8864 10.4602 10.7596 10.65 10.6887L17.65 8.06002C17.8765 7.97999 18.1235 7.97999 18.35 8.06002L25.35 10.6887C25.5398 10.7596 25.7036 10.8864 25.8197 11.0524C25.9357 11.2184 25.9986 11.4157 26 11.6182V18.2449C26 24.042 18.76 27.7301 18.45 27.8801C18.3115 27.9549 18.1574 27.996 18 28ZM12 12.3179V18.2449C12 22.093 16.54 25.0115 18 25.8511C19.46 25.0115 24 22.093 24 18.2449V12.3179L18 10.069L12 12.3179Z" fill="#626277"/>
</svg>
