<svg width="64" height="64" viewBox="0 0 64 64" fill="none" xmlns="http://www.w3.org/2000/svg">
<path d="M58.6663 50.6667C58.6663 51.3739 58.3854 52.0522 57.8853 52.5523C57.3852 53.0524 56.7069 53.3334 55.9997 53.3334H10.6663C9.25185 53.3334 7.8953 52.7714 6.89511 51.7713C5.89491 50.7711 5.33301 49.4145 5.33301 48V13.3334C5.33301 12.6261 5.61396 11.9478 6.11406 11.4477C6.61415 10.9476 7.29243 10.6667 7.99967 10.6667C8.70692 10.6667 9.3852 10.9476 9.88529 11.4477C10.3854 11.9478 10.6663 12.6261 10.6663 13.3334V48H55.9997C56.7069 48 57.3852 48.281 57.8853 48.7811C58.3854 49.2812 58.6663 49.9594 58.6663 50.6667ZM58.453 18.2134C58.253 17.7264 57.9132 17.3095 57.4766 17.0153C57.0401 16.7211 56.5261 16.5626 55.9997 16.56H45.813C45.1058 16.56 44.4275 16.841 43.9274 17.3411C43.4273 17.8412 43.1463 18.5194 43.1463 19.2267C43.1463 19.9339 43.4273 20.6122 43.9274 21.1123C44.4275 21.6124 45.1058 21.8934 45.813 21.8934H49.573L39.9997 31.5734L33.2797 24.9867C32.78 24.49 32.1042 24.2112 31.3997 24.2112C30.6952 24.2112 30.0193 24.49 29.5197 24.9867L16.773 37.7067C16.5231 37.9546 16.3247 38.2495 16.1893 38.5745C16.0539 38.8994 15.9842 39.248 15.9842 39.6C15.9842 39.9521 16.0539 40.3006 16.1893 40.6256C16.3247 40.9505 16.5231 41.2455 16.773 41.4934C17.0209 41.7433 17.3158 41.9417 17.6408 42.0771C17.9658 42.2124 18.3143 42.2821 18.6663 42.2821C19.0184 42.2821 19.3669 42.2124 19.6919 42.0771C20.0168 41.9417 20.3118 41.7433 20.5597 41.4934L31.3863 30.64L37.9997 37.3334C38.4993 37.83 39.1752 38.1088 39.8797 38.1088C40.5842 38.1088 41.26 37.83 41.7597 37.3334L53.333 25.68V29.3334C53.333 30.0406 53.614 30.7189 54.1141 31.219C54.6142 31.7191 55.2924 32 55.9997 32C56.7069 32 57.3852 31.7191 57.8853 31.219C58.3854 30.7189 58.6663 30.0406 58.6663 29.3334V19.2267C58.6621 18.8782 58.5897 18.5339 58.453 18.2134Z" fill="#0033A0"/>
</svg>
