<svg width="64" height="64" viewBox="0 0 64 64" fill="none" xmlns="http://www.w3.org/2000/svg">
<path d="M56.0022 22.9093H52.99C51.4541 20.3287 49.2779 18.1887 46.6723 16.6965V8.00384H44.0066C41.5687 7.94747 39.1567 8.51268 36.9974 9.64623C34.8382 10.7798 33.003 12.4444 31.6645 14.4833H19.8822C16.8344 14.4873 13.8432 15.3067 11.2187 16.8564C10.5595 15.9134 9.68164 15.1443 8.66027 14.6149C7.63891 14.0855 6.50449 13.8116 5.35416 13.8167C4.64717 13.8167 3.96915 14.0976 3.46923 14.5977C2.96932 15.0977 2.68847 15.776 2.68847 16.4831C2.68847 17.1903 2.96932 17.8686 3.46923 18.3686C3.96915 18.8687 4.64717 19.1496 5.35416 19.1496C5.70377 19.146 6.04673 19.2452 6.34052 19.4348C6.63431 19.6244 6.86601 19.8961 7.00688 20.2162C5.386 22.0347 4.17184 24.1783 3.44556 26.5038C2.71927 28.8293 2.4976 31.2831 2.79536 33.7011C3.09311 36.1192 3.90343 38.4458 5.17216 40.5255C6.44089 42.6052 8.1388 44.3901 10.1524 45.7608V50.667C10.1873 52.0982 10.782 53.4585 11.8089 54.4557C12.8357 55.4529 14.2126 56.0073 15.6437 55.9999H20.9751C22.4088 56.0075 23.7886 55.4539 24.8197 54.4574C25.8507 53.4609 26.4513 52.1005 26.4931 50.667V48.9338H29.1587V50.667C29.2005 52.1005 29.8011 53.4609 30.8321 54.4574C31.8632 55.4539 33.243 56.0075 34.6767 55.9999H40.0081C41.4418 56.0075 42.8216 55.4539 43.8527 54.4574C44.8837 53.4609 45.4843 52.1005 45.5261 50.667V47.2006C48.6363 45.7422 51.2367 43.3826 52.99 40.4279H56.0022C57.4329 40.393 58.7929 39.798 59.7898 38.7709C60.7867 37.7438 61.341 36.3665 61.3336 34.935V28.4022C61.341 26.9706 60.7867 25.5933 59.7898 24.5662C58.7929 23.5391 57.4329 22.9442 56.0022 22.9093ZM56.0022 34.9616H49.5779L48.8582 36.5348C48.1778 37.9729 47.2127 39.2579 46.0214 40.3121C44.8301 41.3662 43.4373 42.1676 41.9274 42.6677L40.0614 43.281V50.667H34.6767V43.4676H21.0284V50.667H15.697V42.6677L14.2842 41.8944C12.0208 40.6401 10.2368 38.6708 9.21122 36.2945C8.18566 33.9181 7.97639 31.2688 8.61615 28.7609C9.2559 26.2529 10.7086 24.0278 12.747 22.4335C14.7854 20.8392 17.2946 19.9657 19.8822 19.9495H35.1032L35.7963 18.2163C36.2994 17.1308 37.0396 16.1721 37.9623 15.4106C38.885 14.6492 39.9667 14.1045 41.1277 13.8167V20.1895L42.7537 20.9095C45.4276 22.0127 47.601 24.0633 48.8582 26.669L49.5779 28.2689H56.0022V34.9616ZM31.0514 30.1087H30.4649V28.3222H32.8107C33.2279 28.3222 33.6279 28.1564 33.9228 27.8614C34.2178 27.5664 34.3835 27.1662 34.3835 26.749C34.3835 26.3317 34.2178 25.9316 33.9228 25.6366C33.6279 25.3415 33.2279 25.1758 32.8107 25.1758H30.4649V24.0025C30.4149 23.6172 30.2263 23.2632 29.9344 23.0067C29.6426 22.7502 29.2673 22.6088 28.8788 22.6088C28.4903 22.6088 28.1151 22.7502 27.8232 23.0067C27.5314 23.2632 27.3428 23.6172 27.2928 24.0025V25.2558H26.6797C26.0999 25.1607 25.5064 25.193 24.9403 25.3502C24.3742 25.5075 23.849 25.786 23.4013 26.1665C22.9535 26.547 22.5938 27.0203 22.3471 27.5537C22.1004 28.0871 21.9727 28.6677 21.9727 29.2554C21.9727 29.8431 22.1004 30.4238 22.3471 30.9572C22.5938 31.4905 22.9535 31.9639 23.4013 32.3444C23.849 32.7248 24.3742 33.0034 24.9403 33.1606C25.5064 33.3179 26.0999 33.3501 26.6797 33.2551H27.2661V35.0416H24.2272C23.8101 35.0416 23.4101 35.2074 23.1151 35.5024C22.8202 35.7974 22.6545 36.1976 22.6545 36.6148C22.6545 37.0321 22.8202 37.4322 23.1151 37.7273C23.4101 38.0223 23.8101 38.188 24.2272 38.188H27.2928V39.4413C27.3428 39.8266 27.5314 40.1806 27.8232 40.4371C28.1151 40.6936 28.4903 40.835 28.8788 40.835C29.2673 40.835 29.6426 40.6936 29.9344 40.4371C30.2263 40.1806 30.4149 39.8266 30.4649 39.4413V38.188H31.0514C31.9998 38.0326 32.8621 37.545 33.4843 36.8124C34.1065 36.0797 34.4481 35.1497 34.4481 34.1884C34.4481 33.227 34.1065 32.297 33.4843 31.5644C32.8621 30.8317 31.9998 30.3441 31.0514 30.1887V30.1087ZM27.2928 30.1087H26.6797C26.4693 30.0722 26.2785 29.9626 26.141 29.7992C26.0036 29.6357 25.9282 29.429 25.9282 29.2154C25.9282 29.0019 26.0036 28.7951 26.141 28.6317C26.2785 28.4683 26.4693 28.3587 26.6797 28.3222H27.2661L27.2928 30.1087ZM31.0514 35.0416H30.4649V33.2551H31.0514C31.2618 33.2916 31.4525 33.4012 31.59 33.5646C31.7275 33.7281 31.8029 33.9348 31.8029 34.1484C31.8029 34.362 31.7275 34.5687 31.59 34.7321C31.4525 34.8955 31.2618 35.0051 31.0514 35.0416Z" fill="#0033A0"/>
</svg>
