<svg width="60" height="64" viewBox="0 0 60 64" fill="none" xmlns="http://www.w3.org/2000/svg">
<path fill-rule="evenodd" clip-rule="evenodd" d="M25.08 7.82445C25.0303 7.82445 24.9806 7.82445 24.931 7.82445C19.915 7.87461 15.048 9.63009 11.1246 12.79C7.20118 16 4.4697 20.5141 3.3771 25.5298C5.11532 24.4263 7.15152 23.8245 9.23737 23.8746C10.7273 23.8245 12.2172 24.1254 13.5581 24.7273C14.899 25.3292 16.1406 26.232 17.1338 27.3354C18.1271 26.232 19.319 25.3292 20.7096 24.7273C22.0505 24.1254 23.5404 23.8245 25.0303 23.8746C26.5202 23.8245 28.0101 24.1254 29.351 24.7273C30.6919 25.3292 31.9335 26.232 32.9268 27.3354C33.92 26.232 35.112 25.3292 36.5025 24.7273C37.8434 24.1254 39.3333 23.8245 40.8232 23.8746C42.9588 23.8245 45.0446 24.4263 46.8822 25.5298C45.8392 20.5141 43.0581 16 39.1347 12.79C35.2113 9.57994 30.2946 7.82445 25.2786 7.82445C25.1793 7.82445 25.1296 7.82445 25.08 7.82445ZM26.5202 1.45455V5.46708C32.5791 5.81818 38.2904 8.32602 42.6111 12.6395C47.2795 17.2539 50.0109 23.5737 50.1599 30.1442C50.1599 30.2947 50.1599 30.4451 50.1599 30.5956V30.7962C50.1599 30.9969 50.1599 31.1975 50.0606 31.348C50.0109 31.5486 49.9116 31.6991 49.7626 31.8495C49.6136 32 49.4646 32.1003 49.3157 32.2006C49.1667 32.3009 48.968 32.3009 48.7694 32.3511C48.3721 32.3511 48.0244 32.2006 47.7264 31.9498C47.4284 31.6991 47.2795 31.2978 47.2795 30.9467C47.0311 28.5893 44.25 26.7335 40.8729 26.7335C37.4958 26.7335 34.4663 28.79 34.4663 31.2477C34.4663 31.4483 34.4167 31.6489 34.367 31.8495C34.3173 32.0502 34.1684 32.2006 34.069 32.3511C33.92 32.5016 33.771 32.6019 33.5724 32.652C33.3737 32.7022 33.1751 32.7524 32.9764 32.7524C32.5791 32.7524 32.2315 32.6019 31.9335 32.3009C31.6852 32.0502 31.4865 31.6489 31.4865 31.2477C31.4865 29.1912 29.4007 27.3856 26.5699 26.884V57.4295C26.5699 58.2821 26.3712 59.1348 26.0732 59.9373C25.7256 60.7398 25.2786 61.442 24.633 62.094C24.037 62.6959 23.2921 63.1975 22.4975 63.4984C21.7029 63.7994 20.8586 64 20.0143 64C18.3258 64 16.6869 63.2978 15.4453 62.0439C14.2534 60.8401 13.5581 59.185 13.5581 57.4295C13.5581 57.0282 13.7071 56.6771 14.0051 56.3762C14.2534 56.1254 14.6507 55.9248 15.048 55.9248C15.4453 55.9248 15.7929 56.0752 16.0909 56.3762C16.3392 56.627 16.5379 57.0282 16.5379 57.4295C16.5379 58.3824 16.9352 59.3354 17.5808 59.9875C18.2761 60.6897 19.17 61.0408 20.1136 61.0408C21.0572 61.0408 22.0008 60.6395 22.6465 59.9875C23.3417 59.2853 23.6894 58.3824 23.6894 57.4295V26.884C20.8089 27.3354 18.6237 29.1912 18.6237 31.2978C18.6237 31.6991 18.4747 32.0502 18.1768 32.3511C17.9285 32.6019 17.5311 32.8025 17.1338 32.8025C16.7365 32.8025 16.3889 32.652 16.0909 32.3511C15.8426 32.1003 15.6439 31.6991 15.6439 31.2978C15.6439 28.8401 12.7635 26.7837 9.18771 26.7837C5.61195 26.7837 3.02946 28.6395 2.78114 30.9969C2.78114 31.3981 2.58249 31.7492 2.33417 32C2.0362 32.2508 1.68855 32.4013 1.29125 32.4013C0.893939 32.4013 0.546296 32.2006 0.29798 31.9498C0.0496633 31.6991 0 31.2477 0 30.8966V30.6458V30.1944C0.14899 23.5737 2.88047 17.3041 7.54882 12.6395C11.9192 8.37618 17.6305 5.86834 23.6397 5.51724V1.5047C23.6397 1.10345 23.7887 0.752351 24.0867 0.451411C24.335 0.15047 24.6827 0 25.08 0C25.4773 0 25.8249 0.15047 26.1229 0.451411C26.3712 0.702194 26.5202 1.05329 26.5202 1.45455ZM44.9453 64C42.1641 64 39.4327 63.1473 37.1481 61.5925C34.814 60.0376 33.0261 57.8307 31.9832 55.2226C30.9402 52.6144 30.6423 49.7555 31.1886 46.9969C31.7348 44.2382 33.0758 41.7304 35.0126 39.7241C36.9992 37.7179 39.4823 36.3636 42.2138 35.8621C44.9453 35.3103 47.7761 35.6113 50.3586 36.6646C52.9411 37.7179 55.1263 39.5737 56.6658 41.8809C58.2054 44.2382 59.0497 46.9467 59.0497 49.7555C59.0497 51.6113 58.702 53.4671 57.9571 55.1724C57.2618 56.8777 56.2189 58.4828 54.9276 59.7868C53.6364 61.0909 52.0968 62.1442 50.3586 62.8464C48.6204 63.6489 46.7828 64 44.9453 64ZM44.9453 38.5204C42.7601 38.5204 40.5749 39.1724 38.7374 40.4263C36.8998 41.6803 35.4596 43.4357 34.6153 45.4922C33.771 47.5486 33.5724 49.8056 33.9697 52.0125C34.4167 54.2194 35.4596 56.2257 37.0488 57.7806C38.5884 59.3354 40.6246 60.4389 42.7601 60.8401C44.9453 61.2915 47.1801 61.0408 49.2163 60.1881C51.2525 59.3354 52.9907 57.8809 54.2323 56.0251C55.4739 54.1693 56.1195 51.9624 56.1195 49.7555C56.1195 48.2508 55.8215 46.7962 55.2753 45.442C54.729 44.0878 53.8847 42.8339 52.8418 41.7806C51.7988 40.7273 50.5572 39.9248 49.2163 39.3229C47.8754 38.8213 46.3855 38.5204 44.9453 38.5204ZM43.7037 43.6364V42.1818L43.803 42.232C43.803 41.8809 43.952 41.5799 44.1507 41.3292C44.3493 41.0784 44.697 40.9781 45.0446 40.9781C45.3923 40.9781 45.6902 41.1285 45.9386 41.3292C46.1869 41.5298 46.2862 41.8809 46.2862 42.232V43.6865C46.9815 43.9373 47.6271 44.3386 48.1734 44.8401C48.4217 45.0909 48.521 45.3918 48.521 45.7429C48.521 46.094 48.3721 46.395 48.1734 46.6458C48.0741 46.7461 47.9251 46.8464 47.7761 46.9467C47.6271 46.9969 47.4781 47.047 47.2795 47.047C47.1305 47.047 46.9318 46.9969 46.7828 46.9467C46.6338 46.8966 46.4848 46.7962 46.3855 46.6458C46.1869 46.4451 45.9882 46.2947 45.7399 46.1442C45.4916 46.0439 45.2433 45.9937 44.9453 45.9436C44.5976 45.9436 44.2997 46.094 44.0513 46.2947C43.803 46.5455 43.7037 46.8464 43.7037 47.1975C43.7037 47.5486 43.8527 47.8495 44.0513 48.1003C44.2997 48.3511 44.5976 48.4514 44.9453 48.4514C45.8392 48.4514 46.7332 48.7524 47.3788 49.3542C48.0741 49.9561 48.521 50.7586 48.67 51.6113C48.819 52.5141 48.67 53.4169 48.1734 54.2194C47.7264 55.0219 46.9815 55.5737 46.1372 55.8746V57.3292C46.1372 57.6803 45.9882 57.9812 45.7896 58.232C45.5909 58.4828 45.2433 58.5831 44.8956 58.5831C44.548 58.5831 44.25 58.4326 44.0017 58.232C43.7534 57.9812 43.654 57.6803 43.654 57.3292V55.8746C42.7601 55.5235 41.9655 54.9718 41.3695 54.2194C41.2702 54.069 41.1709 53.9687 41.1212 53.768C41.0715 53.6176 41.0219 53.4169 41.0715 53.2665C41.0715 53.116 41.1212 52.9154 41.2205 52.7649C41.3199 52.6144 41.4192 52.464 41.5185 52.3636C41.6675 52.2633 41.8165 52.163 41.9655 52.1129C42.1145 52.0627 42.3131 52.0627 42.4621 52.0627C42.6111 52.0627 42.8098 52.1129 42.9588 52.2132C43.1077 52.3135 43.2567 52.4138 43.3561 52.5643C43.5547 52.815 43.803 53.0658 44.0513 53.2163C44.3493 53.3668 44.6473 53.4671 44.9453 53.5172C45.2433 53.4671 45.5412 53.3166 45.7399 53.116C45.9386 52.8652 46.0875 52.5643 46.0875 52.2633C46.0875 51.9624 45.9882 51.6614 45.7399 51.4107C45.5412 51.1599 45.2433 51.0094 44.9453 51.0094C44.0513 51.0094 43.1574 50.7085 42.4621 50.1066C41.7668 49.5047 41.3199 48.7022 41.1709 47.7994C41.0219 46.8966 41.1709 45.9937 41.6675 45.1912C42.1641 44.489 42.8594 43.9373 43.7037 43.6364Z" fill="#0033A0"/>
</svg>
