<svg width="36" height="36" viewBox="0 0 36 36" fill="none" xmlns="http://www.w3.org/2000/svg">
<path d="M15.8407 28.82C15.9061 28.7232 15.9518 28.6145 15.975 28.5C16.0135 28.3252 15.999 28.1429 15.9334 27.9764C15.8677 27.8099 15.7539 27.6667 15.6065 27.5652C15.4591 27.4637 15.2848 27.4084 15.1058 27.4065C14.9269 27.4046 14.7514 27.456 14.6018 27.5543C14.4522 27.6526 14.3353 27.7933 14.2661 27.9583C14.1969 28.1234 14.1784 28.3053 14.2131 28.4809C14.2478 28.6565 14.3341 28.8177 14.4609 28.9441C14.5877 29.0704 14.7493 29.156 14.925 29.19C15.0393 29.2141 15.1572 29.2154 15.272 29.1937C15.3867 29.172 15.4961 29.1278 15.5937 29.0637C15.6913 28.9996 15.7752 28.9167 15.8407 28.82Z" fill="#0033A0"/>
<path d="M11.3636 27.6536C11.5324 27.4849 11.7613 27.39 12 27.39H12.78C13.0187 27.39 13.2476 27.4849 13.4164 27.6536C13.5852 27.8224 13.68 28.0513 13.68 28.29C13.68 28.5287 13.5852 28.7577 13.4164 28.9264C13.2476 29.0952 13.0187 29.19 12.78 29.19H12C11.7613 29.19 11.5324 29.0952 11.3636 28.9264C11.1948 28.7577 11.1 28.5287 11.1 28.29C11.1 28.0513 11.1948 27.8224 11.3636 27.6536Z" fill="#0033A0"/>
<path fill-rule="evenodd" clip-rule="evenodd" d="M24.2056 14.546C24.9074 15.1156 25.4084 15.895 25.635 16.77C25.8208 17.5665 25.9115 18.3822 25.905 19.2C25.8928 20.4016 25.752 21.5984 25.485 22.77C25.4146 23.1313 25.2315 23.461 24.962 23.7117C24.6925 23.9623 24.3504 24.121 23.985 24.165C22.65 24.315 19.395 24.51 17.85 24.51C16.305 24.51 13.08 24.345 11.715 24.21C11.3371 24.1805 10.9787 24.0306 10.6925 23.7821C10.4063 23.5337 10.2073 23.2 10.125 22.83C9.85301 21.659 9.70718 20.4621 9.68999 19.26C9.70687 18.4342 9.82269 17.6133 10.035 16.815C10.2502 15.9369 10.7431 15.1516 11.4403 14.576C12.1376 14.0003 13.002 13.6651 13.905 13.62C15.21 13.5 16.455 13.5 17.82 13.5C19.185 13.5 20.595 13.5 21.735 13.605C22.6379 13.6467 23.5037 13.9765 24.2056 14.546ZM12.2595 18.679C12.4646 18.895 12.7293 19.045 13.02 19.11C13.4036 19.1958 13.8056 19.1276 14.1394 18.92C14.4733 18.7124 14.7123 18.382 14.805 18C14.8752 17.7106 14.8578 17.4068 14.7547 17.1274C14.6517 16.8479 14.4679 16.6055 14.2266 16.4309C13.9853 16.2563 13.6974 16.1575 13.3998 16.1471C13.1021 16.1367 12.8081 16.2151 12.5552 16.3724C12.3023 16.5297 12.1019 16.7587 11.9796 17.0302C11.8573 17.3018 11.8186 17.6036 11.8685 17.8972C11.9183 18.1909 12.0545 18.463 12.2595 18.679ZM19.6301 22.5074C20.1703 22.1839 20.6127 21.72 20.91 21.165C21.0035 20.988 21.0228 20.7811 20.9637 20.5898C20.9047 20.3985 20.772 20.2385 20.595 20.145C20.418 20.0515 20.211 20.0322 20.0197 20.0913C19.8285 20.1504 19.6685 20.283 19.575 20.46C19.4085 20.7774 19.1583 21.0431 18.8516 21.2286C18.5449 21.414 18.1934 21.512 17.835 21.512C17.4766 21.512 17.125 21.414 16.8183 21.2286C16.5117 21.0431 16.2615 20.7774 16.095 20.46C16.0529 20.3662 15.9919 20.2821 15.9159 20.2128C15.8399 20.1436 15.7505 20.0907 15.6532 20.0574C15.5559 20.0242 15.4528 20.0113 15.3503 20.0196C15.2478 20.0279 15.1481 20.0572 15.0574 20.1056C14.9667 20.1541 14.887 20.2206 14.8231 20.3012C14.7592 20.3818 14.7126 20.4746 14.6861 20.574C14.6596 20.6733 14.6538 20.7771 14.6691 20.8787C14.6844 20.9804 14.7204 21.0779 14.775 21.165C15.0723 21.72 15.5147 22.1839 16.0549 22.5074C16.595 22.8308 17.2129 23.0016 17.8425 23.0016C18.4721 23.0016 19.0899 22.8308 19.6301 22.5074ZM23.158 18.9422C23.4895 18.7258 23.7221 18.3872 23.805 18C23.856 17.8039 23.8668 17.5994 23.8366 17.3989C23.8064 17.1985 23.7359 17.0063 23.6294 16.8338C23.5228 16.6614 23.3825 16.5123 23.2167 16.3957C23.0509 16.279 22.8633 16.1971 22.665 16.155C22.468 16.1137 22.2648 16.1115 22.067 16.1487C21.8692 16.1858 21.6806 16.2616 21.5121 16.3716C21.1717 16.5939 20.9335 16.9422 20.85 17.34C20.8086 17.537 20.8065 17.7402 20.8436 17.938C20.8808 18.1359 20.9566 18.3244 21.0666 18.493C21.1766 18.6615 21.3188 18.8067 21.4849 18.9203C21.6511 19.0339 21.838 19.1137 22.035 19.155C22.4227 19.2351 22.8264 19.1586 23.158 18.9422Z" fill="#0033A0"/>
<path fill-rule="evenodd" clip-rule="evenodd" d="M27.3353 9.402C25.0701 7.17437 22.0556 5.881 18.8904 5.76808L18.465 4.35005C18.7018 4.24709 18.9079 4.08477 19.0636 3.87879C19.2192 3.67282 19.3191 3.43015 19.3534 3.17428C19.3878 2.91841 19.3556 2.658 19.2599 2.41823C19.1641 2.17847 19.0081 1.96748 18.807 1.80567C18.6058 1.64386 18.3663 1.53671 18.1115 1.49459C17.8568 1.45247 17.5956 1.4768 17.353 1.56523C17.1105 1.65366 16.8948 1.8032 16.727 1.99938C16.5592 2.19556 16.4448 2.43173 16.395 2.68505C16.3277 3.0184 16.3756 3.36474 16.531 3.66726C16.6863 3.96979 16.9399 4.21055 17.25 4.35005L16.8321 5.76669C13.6416 5.87148 10.6029 7.17713 8.32891 9.4295C5.97355 11.7624 4.62595 14.9253 4.575 18.2401C4.5 19.6501 4.5 25.2601 4.5 30.0001C4.5 31.1935 4.97411 32.3381 5.81802 33.182C6.66193 34.026 7.80653 34.5001 9 34.5001L26.73 34.4551C27.9231 34.454 29.0669 33.9792 29.91 33.1351C30.3271 32.7146 30.657 32.2159 30.881 31.6676C31.1049 31.1194 31.2184 30.5323 31.215 29.9401C31.2069 27.9204 31.1812 25.0892 31.1594 22.6776C31.1408 20.63 31.125 18.8838 31.125 18.1951C31.0584 14.8816 29.6983 11.7257 27.3353 9.402ZM17.205 8.82007H18.465C20.9954 8.8349 23.4207 9.83445 25.2267 11.6069C27.0327 13.3793 28.0777 15.7854 28.14 18.3151C28.215 19.8151 28.215 26.2801 28.215 30.0001C28.215 30.3979 28.057 30.7794 27.7757 31.0607C27.4944 31.342 27.1128 31.5001 26.715 31.5001H9C8.60218 31.5001 8.22064 31.342 7.93934 31.0607C7.65804 30.7794 7.5 30.3979 7.5 30.0001C7.5 27.3001 7.5 19.9501 7.575 18.3751C7.61411 15.8402 8.64359 13.4212 10.4433 11.6355C12.2429 9.8499 14.6699 8.83936 17.205 8.82007Z" fill="#0033A0"/>
</svg>
