<svg width="72" height="72" viewBox="0 0 72 72" fill="none" xmlns="http://www.w3.org/2000/svg">
<g filter="url(#filter0_d)">
<path d="M67.9863 32.0281C68.4785 50.2833 55.6798 62.6379 36.051 63.9286C16.4222 65.1579 5.53104 50.3448 4.11579 32.0281C2.51595 11.8059 17.7144 1.66412 36.051 0.127487C55.4337 -1.47061 67.4325 12.1132 67.9863 32.0281Z" fill="white"/>
</g>
<path d="M63.988 32.0245C64.4187 47.9979 53.2199 58.8081 36.0447 59.9376C18.8695 61.0132 9.33966 48.0517 8.10132 32.0245C6.70146 14.3302 20.0001 5.45611 36.0447 4.11155C53.0045 2.71321 63.5034 14.5991 63.988 32.0245Z" fill="#0033A0"/>
<path d="M49.35 25.4C49.2 25.25 49.2 25.1 49.05 24.95L40.05 15.95C39.9 15.8 39.75 15.65 39.6 15.65C39.45 15.5 39.15 15.5 39 15.5H27C24.45 15.5 22.5 17.45 22.5 20V44C22.5 46.55 24.45 48.5 27 48.5H45C47.55 48.5 49.5 46.55 49.5 44V26C49.5 25.85 49.5 25.55 49.35 25.4ZM40.5 20.6L44.4 24.5H40.5V20.6ZM45 45.5H27C26.1 45.5 25.5 44.9 25.5 44V20C25.5 19.1 26.1 18.5 27 18.5H37.5V26C37.5 26.9 38.1 27.5 39 27.5H46.5V44C46.5 44.9 45.9 45.5 45 45.5Z" fill="white"/>
<path d="M42 32H30C29.1 32 28.5 32.6 28.5 33.5C28.5 34.4 29.1 35 30 35H42C42.9 35 43.5 34.4 43.5 33.5C43.5 32.6 42.9 32 42 32Z" fill="white"/>
<path d="M42 38H30C29.1 38 28.5 38.6 28.5 39.5C28.5 40.4 29.1 41 30 41H42C42.9 41 43.5 40.4 43.5 39.5C43.5 38.6 42.9 38 42 38Z" fill="white"/>
<path d="M30 29H33C33.9 29 34.5 28.4 34.5 27.5C34.5 26.6 33.9 26 33 26H30C29.1 26 28.5 26.6 28.5 27.5C28.5 28.4 29.1 29 30 29Z" fill="white"/>
<defs>
<filter id="filter0_d" x="0" y="0" width="72" height="72" filterUnits="userSpaceOnUse" color-interpolation-filters="sRGB">
<feFlood flood-opacity="0" result="BackgroundImageFix"/>
<feColorMatrix in="SourceAlpha" type="matrix" values="0 0 0 0 0 0 0 0 0 0 0 0 0 0 0 0 0 0 127 0" result="hardAlpha"/>
<feOffset dy="4"/>
<feGaussianBlur stdDeviation="2"/>
<feColorMatrix type="matrix" values="0 0 0 0 0 0 0 0 0 0 0 0 0 0 0 0 0 0 0.1 0"/>
<feBlend mode="normal" in2="BackgroundImageFix" result="effect1_dropShadow"/>
<feBlend mode="normal" in="SourceGraphic" in2="effect1_dropShadow" result="shape"/>
</filter>
</defs>
</svg>
