<svg width="36" height="36" viewBox="0 0 36 36" fill="none" xmlns="http://www.w3.org/2000/svg">
<path d="M28 25C28 25.2652 27.8946 25.5196 27.7071 25.7071C27.5196 25.8946 27.2652 26 27 26H10C9.46957 26 8.96086 25.7893 8.58579 25.4142C8.21071 25.0391 8 24.5304 8 24V11C8 10.7348 8.10536 10.4804 8.29289 10.2929C8.48043 10.1054 8.73478 10 9 10C9.26522 10 9.51957 10.1054 9.70711 10.2929C9.89464 10.4804 10 10.7348 10 11V24H27C27.2652 24 27.5196 24.1054 27.7071 24.2929C27.8946 24.4804 28 24.7348 28 25ZM27.92 12.83C27.845 12.6474 27.7176 12.4911 27.5539 12.3807C27.3901 12.2704 27.1974 12.211 27 12.21H23.18C22.9148 12.21 22.6604 12.3154 22.4729 12.5029C22.2854 12.6904 22.18 12.9448 22.18 13.21C22.18 13.4752 22.2854 13.7296 22.4729 13.9171C22.6604 14.1046 22.9148 14.21 23.18 14.21H24.59L21 17.84L18.48 15.37C18.2926 15.1837 18.0392 15.0792 17.775 15.0792C17.5108 15.0792 17.2574 15.1837 17.07 15.37L12.29 20.14C12.1963 20.233 12.1219 20.3436 12.0711 20.4654C12.0203 20.5873 11.9942 20.718 11.9942 20.85C11.9942 20.982 12.0203 21.1127 12.0711 21.2346C12.1219 21.3564 12.1963 21.467 12.29 21.56C12.383 21.6537 12.4936 21.7281 12.6154 21.7789C12.7373 21.8297 12.868 21.8558 13 21.8558C13.132 21.8558 13.2627 21.8297 13.3846 21.7789C13.5064 21.7281 13.617 21.6537 13.71 21.56L17.77 17.49L20.25 20C20.4374 20.1863 20.6908 20.2908 20.955 20.2908C21.2192 20.2908 21.4726 20.1863 21.66 20L26 15.63V17C26 17.2652 26.1054 17.5196 26.2929 17.7071C26.4804 17.8946 26.7348 18 27 18C27.2652 18 27.5196 17.8946 27.7071 17.7071C27.8946 17.5196 28 17.2652 28 17V13.21C27.9984 13.0793 27.9712 12.9502 27.92 12.83Z" fill="#464454"/>
</svg>
