<svg width="64" height="64" viewBox="0 0 64 64" fill="none" xmlns="http://www.w3.org/2000/svg">
<path d="M63.9863 32.0281C64.4785 50.2833 51.6798 62.6379 32.051 63.9286C12.4222 65.1579 1.53104 50.3448 0.115794 32.0281C-1.48405 11.8059 13.7144 1.66412 32.051 0.127487C51.4337 -1.47061 63.4325 12.1132 63.9863 32.0281Z" fill="#E3E829"/>
<path d="M59.988 32.0245C60.4187 47.9979 49.2199 58.8081 32.0447 59.9376C14.8695 61.0132 5.33966 48.0517 4.10132 32.0245C2.70146 14.3302 16.0001 5.45611 32.0447 4.11155C49.0045 2.71321 59.5034 14.5991 59.988 32.0245Z" fill="#FAFBFC"/>
<path d="M45.35 25.4C45.2 25.25 45.2 25.1 45.05 24.95L36.05 15.95C35.9 15.8 35.75 15.65 35.6 15.65C35.45 15.5 35.15 15.5 35 15.5H23C20.45 15.5 18.5 17.45 18.5 20V44C18.5 46.55 20.45 48.5 23 48.5H41C43.55 48.5 45.5 46.55 45.5 44V26C45.5 25.85 45.5 25.55 45.35 25.4ZM36.5 20.6L40.4 24.5H36.5V20.6ZM41 45.5H23C22.1 45.5 21.5 44.9 21.5 44V20C21.5 19.1 22.1 18.5 23 18.5H33.5V26C33.5 26.9 34.1 27.5 35 27.5H42.5V44C42.5 44.9 41.9 45.5 41 45.5Z" fill="#0033A0"/>
<path d="M38 32H26C25.1 32 24.5 32.6 24.5 33.5C24.5 34.4 25.1 35 26 35H38C38.9 35 39.5 34.4 39.5 33.5C39.5 32.6 38.9 32 38 32Z" fill="#0033A0"/>
<path d="M38 38H26C25.1 38 24.5 38.6 24.5 39.5C24.5 40.4 25.1 41 26 41H38C38.9 41 39.5 40.4 39.5 39.5C39.5 38.6 38.9 38 38 38Z" fill="#0033A0"/>
<path d="M26 29H29C29.9 29 30.5 28.4 30.5 27.5C30.5 26.6 29.9 26 29 26H26C25.1 26 24.5 26.6 24.5 27.5C24.5 28.4 25.1 29 26 29Z" fill="#0033A0"/>
</svg>
