<svg width="58" height="68" viewBox="0 0 58 68" fill="none" xmlns="http://www.w3.org/2000/svg">
<path d="M35.8765 13.399C35.8765 9.3793 32.6354 6.1412 28.6118 6.1412C24.4765 6.02954 21.2354 9.3793 21.2354 13.399C21.2354 17.4187 24.4765 20.6568 28.5001 20.6568C32.5236 20.6568 35.8765 17.4187 35.8765 13.399ZM32.5236 13.399C32.5236 15.5205 30.7354 17.307 28.6118 17.307C26.4883 17.307 24.7001 15.5205 24.7001 13.399C24.7001 11.2775 26.4883 9.49096 28.6118 9.49096C30.7354 9.3793 32.5236 11.1658 32.5236 13.399Z" fill="#0033A0"/>
<path d="M28.5 5.58292C29.3941 5.58292 30.1764 4.80131 30.1764 3.90805V1.67488C30.1764 0.781609 29.3941 0 28.5 0C27.6058 0 26.8235 0.781609 26.8235 1.67488V3.90805C26.8235 4.80131 27.6058 5.58292 28.5 5.58292Z" fill="#0033A0"/>
<path d="M20.6765 7.92775C21.0118 8.26273 21.4588 8.37438 21.9059 8.37438C22.3529 8.37438 22.8 8.15107 23.1353 7.92775C23.8059 7.2578 23.8059 6.25287 23.1353 5.58292L21.5706 4.01971C20.9 3.34975 19.8941 3.34975 19.2235 4.01971C18.5529 4.68966 18.5529 5.69458 19.2235 6.36453L20.6765 7.92775Z" fill="#0033A0"/>
<path d="M16.7647 15.0739H19C19.8941 15.0739 20.6765 14.2923 20.6765 13.399C20.6765 12.5058 19.8941 11.7242 19 11.7242H16.7647C15.8706 11.7242 15.0883 12.5058 15.0883 13.399C15.0883 14.2923 15.8706 15.0739 16.7647 15.0739Z" fill="#0033A0"/>
<path d="M20.6765 18.8703L19.1118 20.4335C18.4412 21.1035 18.4412 22.1084 19.1118 22.7783C19.4471 23.1133 19.8942 23.225 20.3412 23.225C20.7883 23.225 21.2354 23.0017 21.5707 22.7783L23.1354 21.2151C23.8059 20.5452 23.8059 19.5402 23.1354 18.8703C22.353 18.2003 21.3471 18.2003 20.6765 18.8703Z" fill="#0033A0"/>
<path d="M26.8235 22.7783V25.0115C26.8235 25.9048 27.6058 26.6864 28.5 26.6864C29.3941 26.6864 30.1764 25.9048 30.1764 25.0115V22.7783C30.1764 21.8851 29.3941 21.1035 28.5 21.1035C27.6058 21.1035 26.8235 21.8851 26.8235 22.7783Z" fill="#0033A0"/>
<path d="M35.6529 22.7783C35.9882 23.1133 36.4353 23.225 36.8823 23.225C37.3294 23.225 37.7764 23.0017 38.1117 22.7783C38.7823 22.1084 38.7823 21.1035 38.1117 20.4335L36.547 18.8703C35.8764 18.2003 34.8706 18.2003 34.2 18.8703C33.5294 19.5402 33.5294 20.5452 34.2 21.2151L35.6529 22.7783Z" fill="#0033A0"/>
<path d="M36.3235 13.399C36.3235 14.2923 37.1058 15.0739 38 15.0739H40.2353C41.1294 15.0739 41.9117 14.2923 41.9117 13.399C41.9117 12.5058 41.1294 11.7242 40.2353 11.7242H38C36.9941 11.7242 36.3235 12.3941 36.3235 13.399Z" fill="#0033A0"/>
<path d="M35.2059 8.37438C35.653 8.37438 36.1 8.15106 36.4353 7.92775L38 6.25287C38.6706 5.58292 38.6706 4.57799 38 3.90804C37.3294 3.23809 36.3236 3.23809 35.653 3.90804L34.0883 5.47126C33.4177 6.14121 33.4177 7.14614 34.0883 7.81609C34.3118 8.15106 34.7589 8.37438 35.2059 8.37438Z" fill="#0033A0"/>
<path d="M55.3235 49.2414H52.1941V32.381C52.1941 31.4877 51.4118 30.7061 50.5176 30.7061C49.6235 30.7061 48.8412 31.4877 48.8412 32.381V34.2792H7.26471V32.381C7.26471 31.4877 6.48235 30.7061 5.58824 30.7061C4.69412 30.7061 3.91176 31.4877 3.91176 32.381V49.1297H1.67647C0.782353 49.1297 0 49.9113 0 50.8046V57.8391C0 58.7324 0.782353 59.514 1.67647 59.514H2.57059V66.2135C2.57059 66.3251 2.57059 66.3251 2.57059 66.4368C2.68235 67.3301 3.35294 67.8883 4.24706 67.8883C5.14118 67.8883 5.81176 67.2184 5.92353 66.3251V59.514H50.9647V66.2135V66.4368C51.0765 67.3301 51.7471 67.8883 52.6412 67.8883C53.5353 67.8883 54.2059 67.2184 54.3176 66.3251V59.514H55.4353C56.3294 59.514 57.1118 58.7324 57.1118 57.8391V50.8046C57 49.9113 56.3294 49.2414 55.3235 49.2414ZM48.8412 45.3333V49.2414H7.26471V45.3333H48.8412ZM7.26471 41.9836V37.7406H48.8412V41.9836H7.26471ZM53.6471 52.5911V56.2759H3.35294V52.5911H53.6471ZM50.9647 66.4368L51.4118 66.3251V66.4368H50.9647Z" fill="#0033A0"/>
</svg>
