<svg width="48" height="48" viewBox="0 0 48 48" fill="none" xmlns="http://www.w3.org/2000/svg">
<path opacity="0.5" d="M37.805 3.37576C30.274 -1.87761 20.3304 -0.477598 13.6658 4.00243C1.02974 12.5625 -2.64912 34.1893 6.16148 43.216C15.4919 52.8294 38.1515 47.3627 44.6562 32.1093C48.6683 22.8026 46.8155 9.64247 37.805 3.37576Z" fill="#E3E829"/>
<path opacity="0.4" d="M1.14237 15.5352C-1.97765 24.352 1.6757 33.9691 7.47574 39.5447C18.4491 50.1089 39.5426 48.4949 45.9027 37.5172C52.676 25.8326 42.2093 4.53086 26.3825 1.6764C16.7291 -0.0842984 4.86239 4.98437 1.14237 15.5352Z" fill="#E3E829"/>
<path d="M32 24.9704H30.11V22.9914H32C32.2652 22.9914 32.5196 22.8872 32.7071 22.7016C32.8946 22.5161 33 22.2644 33 22.002C33 21.7396 32.8946 21.4879 32.7071 21.3023C32.5196 21.1168 32.2652 21.0125 32 21.0125H30.11H30.05C29.9469 20.5411 29.7093 20.1087 29.3655 19.7668C29.0216 19.4248 28.5859 19.1875 28.11 19.0831V17.6187L29 16.7875C29.1863 16.6021 29.2908 16.3514 29.2908 16.09C29.2908 15.8286 29.1863 15.5778 29 15.3924C28.907 15.2996 28.7964 15.226 28.6746 15.1758C28.5527 15.1256 28.422 15.0997 28.29 15.0997C28.158 15.0997 28.0273 15.1256 27.9054 15.1758C27.7836 15.226 27.673 15.2996 27.58 15.3924L26.4 16.5105C26.3073 16.6029 26.234 16.7126 26.1842 16.8331C26.1345 16.9537 26.1092 17.0828 26.11 17.213V19.0336H25.11V18.618C25.1302 17.7953 24.8594 16.9914 24.3443 16.3451C23.8293 15.6989 23.1024 15.2509 22.2891 15.0784C21.4758 14.906 20.6271 15.0199 19.8897 15.4006C19.1523 15.7813 18.5723 16.4048 18.25 17.1635C17.8192 17.2452 17.4111 17.4173 17.0531 17.6682C16.6952 17.919 16.3958 18.2429 16.175 18.6179C15.9542 18.993 15.8172 19.4105 15.7732 19.8423C15.7292 20.2741 15.7793 20.7103 15.92 21.1214C15.441 21.5814 15.1308 22.1864 15.0384 22.8405C14.9461 23.4946 15.0768 24.1606 15.41 24.7329C15.1448 25.2303 15.0042 25.7834 15 26.3457C15.0006 27.1382 15.2759 27.9066 15.78 28.5225C15.7447 28.6953 15.7246 28.8707 15.72 29.0469C15.7226 29.8019 16.0269 30.5252 16.5664 31.0591C17.106 31.5929 17.837 31.894 18.6 31.8966C18.9429 31.8933 19.2822 31.8262 19.6 31.6987C19.9659 32.2321 20.4975 32.6332 21.1142 32.8412C21.7309 33.0493 22.3994 33.053 23.0184 32.8518C23.6375 32.6506 24.1735 32.2554 24.5454 31.7261C24.9174 31.1967 25.105 30.5619 25.08 29.9177V28.9282H26.08V30.7884C26.0811 31.048 26.1853 31.2967 26.37 31.481L27.5 32.609C27.593 32.7017 27.7036 32.7753 27.8254 32.8256C27.9473 32.8758 28.078 32.9017 28.21 32.9017C28.342 32.9017 28.4727 32.8758 28.5946 32.8256C28.7164 32.7753 28.827 32.7017 28.92 32.609C29.0137 32.517 29.0881 32.4076 29.1389 32.287C29.1897 32.1664 29.2158 32.0371 29.2158 31.9065C29.2158 31.7759 29.1897 31.6465 29.1389 31.5259C29.0881 31.4054 29.0137 31.2959 28.92 31.204L28.08 30.3728V28.8688C28.5601 28.7702 29.0013 28.5366 29.3508 28.1962C29.7002 27.8557 29.9429 27.4228 30.05 26.9493H30.11H32C32.2652 26.9493 32.5196 26.845 32.7071 26.6595C32.8946 26.4739 33 26.2222 33 25.9598C33 25.6974 32.8946 25.4457 32.7071 25.2602C32.5196 25.0746 32.2652 24.9704 32 24.9704ZM23.08 19.6273C22.8745 19.5721 22.6629 19.5422 22.45 19.5382C22.1848 19.5382 21.9304 19.6425 21.7429 19.828C21.5554 20.0136 21.45 20.2653 21.45 20.5277C21.45 20.7901 21.5554 21.0418 21.7429 21.2273C21.9304 21.4129 22.1848 21.5171 22.45 21.5171C22.5862 21.5157 22.7193 21.5573 22.83 21.6359C22.908 21.6886 22.9735 21.7575 23.0219 21.8378C23.0702 21.9182 23.1003 22.0079 23.11 22.1009V23.0904C22.6831 23.0294 22.2478 23.0701 21.84 23.2091C21.6218 22.8548 21.3154 22.5618 20.95 22.3582C20.7193 22.227 20.4453 22.1918 20.1884 22.2605C19.9314 22.3291 19.7126 22.496 19.58 22.7243C19.4474 22.9526 19.4119 23.2237 19.4813 23.4779C19.5507 23.7321 19.7193 23.9486 19.95 24.0798C20.0573 24.1419 20.1391 24.2394 20.1812 24.3552C20.2232 24.4709 20.2228 24.5976 20.18 24.7131C20.1057 24.8912 20.052 25.0771 20.02 25.2672C19.9766 25.5256 20.0385 25.7906 20.1923 26.0039C20.346 26.2172 20.5789 26.3615 20.84 26.4051H21C21.2382 26.4085 21.4699 26.3277 21.6532 26.1771C21.8365 26.0265 21.9595 25.8161 22 25.5838C22.0294 25.4081 22.1281 25.2511 22.2743 25.1473C22.4205 25.0434 22.6023 25.0011 22.78 25.0297C22.9003 25.0497 23.0117 25.1048 23.1 25.188V27.0383H23.05C22.9246 26.9948 22.7917 26.9761 22.659 26.9834C22.5263 26.9907 22.3964 27.0237 22.2766 27.0807C22.0347 27.1958 21.8488 27.4012 21.76 27.6518C21.716 27.7759 21.6971 27.9073 21.7045 28.0386C21.7118 28.1699 21.7453 28.2985 21.8028 28.417C21.8604 28.5356 21.941 28.6417 22.04 28.7294C22.1391 28.8171 22.2546 28.8847 22.38 28.9282C22.5635 28.9883 22.7266 29.0973 22.8515 29.2433C22.9763 29.3893 23.058 29.5665 23.0876 29.7554C23.1172 29.9444 23.0935 30.1378 23.0191 30.3143C22.9448 30.4908 22.8226 30.6436 22.6661 30.7558C22.5096 30.868 22.3249 30.9353 22.1322 30.9502C21.9395 30.9652 21.7464 30.9273 21.5742 30.8406C21.4019 30.7539 21.2571 30.6219 21.1558 30.4591C21.0545 30.2962 21.0006 30.1089 21 29.9177C20.9947 29.8749 20.9947 29.8317 21 29.789C21.0292 29.5266 20.9518 29.2635 20.7849 29.0575C20.7022 28.9555 20.6001 28.8706 20.4843 28.8077C20.3685 28.7448 20.2413 28.705 20.11 28.6907C19.8448 28.6619 19.5788 28.7384 19.3707 28.9036C19.1625 29.0687 19.0292 29.3089 19 29.5713C19 29.6703 19 29.7692 19 29.8682C18.8729 29.9174 18.7354 29.9344 18.6 29.9177C18.3683 29.9177 18.146 29.8273 17.9813 29.6661C17.8165 29.505 17.7226 29.286 17.72 29.0568C17.719 28.9262 17.7498 28.7972 17.81 28.6808C17.8687 28.5534 17.8993 28.4152 17.9 28.2752C17.9035 28.1331 17.8738 27.9922 17.813 27.8635C17.7523 27.7347 17.6623 27.6216 17.55 27.5331C17.3687 27.3934 17.224 27.2126 17.1283 27.0059C17.0325 26.7993 16.9885 26.5728 17 26.3457C16.9905 26.2602 16.9905 26.1739 17 26.0884C17.3212 26.2017 17.6591 26.2618 18 26.2666C18.2652 26.2666 18.5196 26.1623 18.7071 25.9767C18.8946 25.7912 19 25.5395 19 25.2771C19 25.0147 18.8946 24.763 18.7071 24.5774C18.5196 24.3919 18.2652 24.2876 18 24.2876C17.7661 24.2792 17.5415 24.1944 17.3614 24.0464C17.1813 23.8985 17.0558 23.6957 17.0044 23.4697C16.953 23.2438 16.9787 23.0073 17.0774 22.7973C17.1761 22.5873 17.3423 22.4155 17.55 22.3087C17.7939 22.2062 17.9867 22.0121 18.086 21.7691C18.1854 21.5261 18.1832 21.254 18.08 21.0125C18.0581 20.9448 18.0313 20.8787 18 20.8146C18 20.8146 18 20.7256 17.95 20.686C17.8516 20.5212 17.7998 20.3332 17.8 20.1418C17.7973 19.8679 17.904 19.6041 18.0969 19.4077C18.2898 19.2113 18.5533 19.0982 18.83 19.093C19.0965 19.0934 19.3532 19.1922 19.55 19.37C19.7436 19.5498 20.0015 19.6461 20.2668 19.6377C20.3982 19.6336 20.5275 19.6039 20.6473 19.5503C20.7671 19.4967 20.875 19.4203 20.965 19.3255C21.055 19.2306 21.1251 19.1192 21.1716 18.9975C21.218 18.8758 21.2397 18.7462 21.2356 18.6162C21.2314 18.4862 21.2014 18.3583 21.1472 18.2398C21.0931 18.1212 21.0159 18.0144 20.92 17.9254C20.755 17.7818 20.5776 17.6527 20.39 17.5395C20.5337 17.3878 20.7071 17.2666 20.8997 17.1832C21.0922 17.0999 21.2998 17.0561 21.51 17.0547C21.717 17.0547 21.922 17.0952 22.1131 17.1739C22.3043 17.2526 22.4778 17.3679 22.6237 17.5132C22.7696 17.6585 22.8851 17.8309 22.9634 18.0205C23.0417 18.2101 23.0813 18.4132 23.08 18.618V19.6273ZM28.08 26.4051C28.08 26.5503 28.0224 26.6898 27.9195 26.7934C27.8167 26.8971 27.6768 26.9566 27.53 26.9592H25.1V25.9598H26.1C26.3652 25.9598 26.6196 25.8556 26.8071 25.67C26.9946 25.4845 27.1 25.2328 27.1 24.9704V22.9914C27.1 22.729 26.9946 22.4773 26.8071 22.2918C26.6196 22.1062 26.3652 22.002 26.1 22.002H25.1V21.0125H27.55C27.6968 21.0151 27.8367 21.0746 27.9395 21.1783C28.0424 21.2819 28.1 21.4214 28.1 21.5666L28.08 26.4051Z" fill="#292730"/>
</svg>
