<svg width="34" height="34" viewBox="0 0 34 34" fill="none" xmlns="http://www.w3.org/2000/svg">
<path fill-rule="evenodd" clip-rule="evenodd" d="M17 0.5C7.85 0.5 0.5 7.85 0.5 17C0.5 26.15 7.85 33.5 17 33.5C26.15 33.5 33.5 26.15 33.5 17C33.5 7.85 26.15 0.5 17 0.5ZM17 30.5C9.5 30.5 3.5 24.5 3.5 17C3.5 9.5 9.5 3.5 17 3.5C24.5 3.5 30.5 9.5 30.5 17C30.5 24.5 24.5 30.5 17 30.5ZM17 15.5C16.1 15.5 15.5 16.1 15.5 17V23C15.5 23.9 16.1 24.5 17 24.5C17.9 24.5 18.5 23.9 18.5 23V17C18.5 16.1 17.9 15.5 17 15.5ZM18.275 10.25C18.3125 10.2875 18.35 10.325 18.35 10.4C18.35 10.475 18.3875 10.5125 18.425 10.55C18.4625 10.5875 18.5 10.625 18.5 10.7V11C18.5 11.45 18.35 11.75 18.05 12.05L17.9 12.2C17.825 12.2 17.7875 12.2375 17.75 12.275C17.7125 12.3125 17.675 12.35 17.6 12.35C17.45 12.5 17.45 12.5 17.3 12.5H17C16.85 12.5 16.55 12.5 16.4 12.35C16.25 12.35 16.1 12.2 15.95 12.05C15.65 11.75 15.5 11.45 15.5 11V10.7C15.65 10.55 15.65 10.55 15.65 10.4C15.65 10.325 15.6875 10.2875 15.725 10.25C15.7625 10.2125 15.8 10.175 15.8 10.1L15.95 9.95004C16.025 9.87504 16.1 9.83753 16.175 9.80003C16.25 9.76254 16.325 9.72503 16.4 9.65003C17 9.35003 17.6 9.50004 18.05 9.95004C18.05 9.95004 18.2 9.95004 18.2 10.1C18.2 10.175 18.2375 10.2125 18.275 10.25Z" fill="#00AEC7"/>
</svg>
