<svg width="22" height="22" viewBox="0 0 22 22" fill="none" xmlns="http://www.w3.org/2000/svg">
<path fill-rule="evenodd" clip-rule="evenodd" d="M11 0C4.9 0 0 4.9 0 11C0 17.1 4.9 22 11 22C17.1 22 22 17.1 22 11C22 4.9 17.1 0 11 0ZM11 20C6 20 2 16 2 11C2 6 6 2 11 2C16 2 20 6 20 11C20 16 16 20 11 20ZM11 10C10.4 10 10 10.4 10 11V15C10 15.6 10.4 16 11 16C11.6 16 12 15.6 12 15V11C12 10.4 11.6 10 11 10ZM11.85 6.50002C11.875 6.52502 11.9 6.55002 11.9 6.60002C11.9 6.65002 11.925 6.67502 11.95 6.70002C11.975 6.72502 12 6.75002 12 6.80002V7.00002C12 7.30002 11.9 7.50002 11.7 7.70002L11.6 7.80002C11.55 7.80002 11.525 7.82502 11.5 7.85002C11.475 7.87502 11.45 7.90002 11.4 7.90002L11.4 7.90003C11.3 8.00002 11.3 8.00002 11.2 8.00002H11C10.9 8.00002 10.7 8.00002 10.6 7.90002C10.5 7.90002 10.4 7.80002 10.3 7.70002C10.1 7.50002 10 7.30002 10 7.00002V6.80002C10.0575 6.74252 10.0819 6.71808 10.0923 6.68868C10.1 6.66696 10.1 6.64252 10.1 6.60002C10.1 6.55002 10.125 6.52502 10.15 6.50002C10.175 6.47502 10.2 6.45002 10.2 6.40002L10.3 6.30002C10.35 6.25002 10.4 6.22502 10.45 6.20002C10.5 6.17502 10.55 6.15002 10.6 6.10002C11 5.90002 11.4 6.00002 11.7 6.30002C11.7 6.30002 11.8 6.30002 11.8 6.40002C11.8 6.45002 11.825 6.47502 11.85 6.50002Z" fill="#2D6B9C"/>
</svg>
