<svg width="16" height="16" viewBox="0 0 16 16" fill="none" xmlns="http://www.w3.org/2000/svg">
<path fill-rule="evenodd" clip-rule="evenodd" d="M7.99935 0.667969C3.93268 0.667969 0.666016 3.93464 0.666016 8.0013C0.666016 12.068 3.93268 15.3346 7.99935 15.3346C12.066 15.3346 15.3327 12.068 15.3327 8.0013C15.3327 3.93464 12.066 0.667969 7.99935 0.667969ZM7.99935 14.0013C4.66602 14.0013 1.99935 11.3346 1.99935 8.0013C1.99935 4.66797 4.66602 2.0013 7.99935 2.0013C11.3327 2.0013 13.9993 4.66797 13.9993 8.0013C13.9993 11.3346 11.3327 14.0013 7.99935 14.0013ZM7.99935 7.33464C7.59935 7.33464 7.33268 7.6013 7.33268 8.0013V10.668C7.33268 11.068 7.59935 11.3346 7.99935 11.3346C8.39935 11.3346 8.66602 11.068 8.66602 10.668V8.0013C8.66602 7.6013 8.39935 7.33464 7.99935 7.33464ZM8.56602 5.00132C8.58268 5.01798 8.59935 5.03465 8.59935 5.06798C8.59935 5.10132 8.61602 5.11798 8.63268 5.13465C8.64935 5.15132 8.66602 5.16798 8.66602 5.20132V5.33465C8.66602 5.53465 8.59935 5.66798 8.46602 5.80132L8.39935 5.86798C8.36602 5.86798 8.34935 5.88465 8.33268 5.90132C8.31602 5.91798 8.29935 5.93465 8.26602 5.93465L8.26601 5.93465C8.19935 6.00132 8.19935 6.00132 8.13268 6.00132H7.99935C7.93268 6.00132 7.79935 6.00132 7.73268 5.93465C7.66602 5.93465 7.59935 5.86798 7.53268 5.80132C7.39935 5.66798 7.33268 5.53465 7.33268 5.33465V5.20132C7.39935 5.13465 7.39935 5.13465 7.39935 5.06798C7.39935 5.03465 7.41602 5.01798 7.43268 5.00132C7.44935 4.98465 7.46602 4.96798 7.46602 4.93465L7.53268 4.86798C7.56602 4.83465 7.59935 4.81798 7.63268 4.80132C7.66602 4.78465 7.69935 4.76798 7.73268 4.73465C7.99935 4.60132 8.26602 4.66798 8.46602 4.86798C8.46602 4.86798 8.53268 4.86798 8.53268 4.93465C8.53268 4.96798 8.54935 4.98465 8.56602 5.00132Z" fill="#0033A0"/>
</svg>
