<svg width="24" height="25" viewBox="0 0 24 25" fill="none" xmlns="http://www.w3.org/2000/svg">
<path fill-rule="evenodd" clip-rule="evenodd" d="M12 1.5C5.9 1.5 1 6.4 1 12.5C1 18.6 5.9 23.5 12 23.5C18.1 23.5 23 18.6 23 12.5C23 6.4 18.1 1.5 12 1.5ZM12 21.5C7 21.5 3 17.5 3 12.5C3 7.5 7 3.5 12 3.5C17 3.5 21 7.5 21 12.5C21 17.5 17 21.5 12 21.5ZM12 11.5C11.4 11.5 11 11.9 11 12.5V16.5C11 17.1 11.4 17.5 12 17.5C12.6 17.5 13 17.1 13 16.5V12.5C13 11.9 12.6 11.5 12 11.5ZM12.85 8.00002C12.875 8.02502 12.9 8.05002 12.9 8.10002C12.9 8.15002 12.925 8.17502 12.95 8.20002C12.975 8.22502 13 8.25002 13 8.30002V8.50002C13 8.80002 12.9 9.00002 12.7 9.20002L12.6 9.30002C12.55 9.30002 12.525 9.32502 12.5 9.35002C12.475 9.37502 12.45 9.40002 12.4 9.40002L12.4 9.40003C12.3 9.50002 12.3 9.50002 12.2 9.50002H12C11.9 9.50002 11.7 9.50002 11.6 9.40002C11.5 9.40002 11.4 9.30002 11.3 9.20002C11.1 9.00002 11 8.80002 11 8.50002V8.30002C11.0575 8.24252 11.0819 8.21808 11.0923 8.18868C11.1 8.16696 11.1 8.14252 11.1 8.10002C11.1 8.05002 11.125 8.02502 11.15 8.00002C11.175 7.97502 11.2 7.95002 11.2 7.90002L11.3 7.80002C11.35 7.75002 11.4 7.72502 11.45 7.70002C11.5 7.67502 11.55 7.65002 11.6 7.60002C12 7.40002 12.4 7.50002 12.7 7.80002C12.7 7.80002 12.8 7.80002 12.8 7.90002C12.8 7.95002 12.825 7.97502 12.85 8.00002Z" fill="#0033A0"/>
</svg>
