<svg width="36" height="36" viewBox="0 0 36 36" fill="none" xmlns="http://www.w3.org/2000/svg">
<path d="M35.9922 18.0159C36.2702 28.2892 29.077 35.2307 18.0264 35.9595C6.97592 36.6537 0.859915 28.324 0.0606641 18.0159C-0.808087 6.63195 7.77518 0.939961 18.0264 0.0722806C28.938 -0.830107 35.6795 6.80548 35.9922 18.0159Z" fill="#E3E829"/>
<path fill-rule="evenodd" clip-rule="evenodd" d="M23 13C23 15.8 20.8 18 18 18C15.2 18 13 15.8 13 13C13 10.2 15.2 8 18 8C20.8 8 23 10.2 23 13ZM21 13C21 11.3 19.7 10 18 10C16.3 10 15 11.3 15 13C15 14.7 16.3 16 18 16C19.7 16 21 14.7 21 13ZM9 25C9 22.2 11.2 20 14 20H22C24.8 20 27 22.2 27 25V27C27 27.6 26.6 28 26 28C25.4 28 25 27.6 25 27V25C25 23.3 23.7 22 22 22H14C12.3 22 11 23.3 11 25V27C11 27.6 10.6 28 10 28C9.4 28 9 27.6 9 27V25Z" fill="#0033A0"/>
</svg>
