<svg width="36" height="36" viewBox="0 0 36 36" fill="none" xmlns="http://www.w3.org/2000/svg">
<path d="M35.9922 18.0159C36.2702 28.2892 29.077 35.2307 18.0264 35.9595C6.97592 36.6537 0.859915 28.324 0.0606641 18.0159C-0.808087 6.63195 7.77518 0.939961 18.0264 0.0722806C28.938 -0.830107 35.6795 6.80548 35.9922 18.0159Z" fill="#2EC5D6"/>
<path d="M26.6851 13.3L24.8791 11.5L25.6817 10.7C26.0831 10.3 26.0831 9.7 25.6817 9.3C25.2804 8.9 24.6784 8.9 24.277 9.3L22.6717 10.9L19.8623 13.7L16.7518 16.8C14.7451 15.8 12.3371 16.1 10.6314 17.7C8.5243 19.8 8.42396 23.2 10.531 25.4C11.5344 26.5 12.9391 27 14.3438 27C15.7485 27 17.1532 26.5 18.2569 25.4C20.2636 23.4 20.3639 20.1 18.4576 18L20.7653 15.7L22.5713 17.5C22.772 17.7 23.073 17.8 23.2737 17.8C23.4744 17.8 23.7754 17.7 23.976 17.5L26.7854 14.7C27.0864 14.4 27.0864 13.7 26.6851 13.3ZM16.7518 24C15.4475 25.3 13.2401 25.4 11.8354 24C10.531 22.6 10.531 20.5 11.9357 19.2C12.6381 18.6 13.4408 18.2 14.3438 18.2C15.2468 18.2 16.0495 18.5 16.7518 19.2C18.0562 20.5 18.0562 22.6 16.7518 24ZM23.1733 15.4L22.0697 14.3L23.4744 12.9L24.578 14L23.1733 15.4Z" fill="#0033A0"/>
</svg>
