<svg width="120" height="120" viewBox="0 0 120 120" fill="none" xmlns="http://www.w3.org/2000/svg">
<g clip-path="url(#clip0)">
<path d="M103.4 32.1992C105.5 33.2992 120.8 41.3992 120 55.3992C119.4 64.8992 116.6 67.0992 112.6 71.7992C108 63.7992 103 53.7992 103.6 35.4992C103.5 34.3992 103.5 33.2992 103.4 32.1992Z" fill="#B8F5F6"/>
<path d="M112.5 71.8011C109.8 74.9011 106.6 79.2011 103.1 87.3011C94.3997 107.701 56.0997 101.401 56.7997 77.9011C57.5997 54.5011 43.3997 53.5011 47.4997 38.8011C50.9997 26.1011 80.3997 21.9011 103.1 32.0011C103.1 32.0011 103.2 32.0011 103.3 32.1011C103.4 33.2011 103.4 34.3011 103.4 35.5011C102.9 53.8011 107.9 63.8011 112.5 71.8011Z" fill="#8AE9EE"/>
<path d="M27.6002 20.1011C41.4002 -12.3989 101 -3.49889 103.4 32.1011C103.2 32.0011 103.2 32.0011 103.2 32.0011C80.4002 21.9011 51.1002 26.1011 47.6002 38.8011C43.5002 53.5011 57.7002 54.5011 56.9002 77.9011C56.1002 101.401 94.5002 107.701 103.2 87.3011C106.7 79.2011 109.9 74.9011 112.6 71.8011C117.7 80.6011 122.4 87.0011 118.8 99.6011C113 120.401 64.9002 127.301 27.6002 110.701C27.6002 110.701 -1.39981 97.1011 0.100191 72.5011C1.60019 46.6011 13.4002 53.6011 27.6002 20.1011Z" fill="#B8F5F6"/>
<path d="M58.2004 112.401C59.1945 112.401 60.0004 111.595 60.0004 110.601C60.0004 109.607 59.1945 108.801 58.2004 108.801C57.2063 108.801 56.4004 109.607 56.4004 110.601C56.4004 111.595 57.2063 112.401 58.2004 112.401Z" stroke="#00AEC7"/>
<path d="M110.8 54.8992C112.512 54.8992 113.9 53.5113 113.9 51.7992C113.9 50.0871 112.512 48.6992 110.8 48.6992C109.088 48.6992 107.7 50.0871 107.7 51.7992C107.7 53.5113 109.088 54.8992 110.8 54.8992Z" stroke="#00AEC7"/>
<path d="M11.5998 80.6C12.5939 80.6 13.3998 79.7941 13.3998 78.8C13.3998 77.8059 12.5939 77 11.5998 77C10.6057 77 9.7998 77.8059 9.7998 78.8C9.7998 79.7941 10.6057 80.6 11.5998 80.6Z" stroke="#00AEC7"/>
<path d="M49.9004 10.5L55.0004 11.9L51.3004 15.6L49.9004 10.5Z" stroke="#00AEC7"/>
<path d="M90 81C90 81.7957 89.6839 82.5587 89.1213 83.1213C88.5587 83.6839 87.7957 84 87 84H36C34.4087 84 32.8826 83.3679 31.7574 82.2426C30.6321 81.1174 30 79.5913 30 78V39C30 38.2044 30.3161 37.4413 30.8787 36.8787C31.4413 36.3161 32.2044 36 33 36C33.7956 36 34.5587 36.3161 35.1213 36.8787C35.6839 37.4413 36 38.2044 36 39V78H87C87.7957 78 88.5587 78.3161 89.1213 78.8787C89.6839 79.4413 90 80.2043 90 81ZM89.76 44.49C89.5349 43.9421 89.1527 43.4732 88.6616 43.1422C88.1704 42.8112 87.5923 42.633 87 42.63H75.54C74.7444 42.63 73.9813 42.9461 73.4187 43.5087C72.8561 44.0713 72.54 44.8344 72.54 45.63C72.54 46.4256 72.8561 47.1887 73.4187 47.7513C73.9813 48.3139 74.7444 48.63 75.54 48.63H79.77L69 59.52L61.44 52.11C60.8779 51.5512 60.1176 51.2376 59.325 51.2376C58.5324 51.2376 57.7721 51.5512 57.21 52.11L42.87 66.42C42.5888 66.6989 42.3656 67.0307 42.2133 67.3963C42.061 67.7618 41.9826 68.154 41.9826 68.55C41.9826 68.946 42.061 69.3382 42.2133 69.7037C42.3656 70.0693 42.5888 70.4011 42.87 70.68C43.1489 70.9612 43.4807 71.1844 43.8463 71.3367C44.2118 71.489 44.604 71.5674 45 71.5674C45.396 71.5674 45.7882 71.489 46.1537 71.3367C46.5193 71.1844 46.8511 70.9612 47.13 70.68L59.31 58.47L66.75 66C67.3121 66.5588 68.0724 66.8724 68.865 66.8724C69.6576 66.8724 70.4179 66.5588 70.98 66L84 52.89V57C84 57.7956 84.3161 58.5587 84.8787 59.1213C85.4413 59.6839 86.2043 60 87 60C87.7957 60 88.5587 59.6839 89.1213 59.1213C89.6839 58.5587 90 57.7956 90 57V45.63C89.9953 45.238 89.9137 44.8507 89.76 44.49Z" fill="#0033A0"/>
</g>
<defs>
<clipPath id="clip0">
<rect width="120" height="120" fill="white"/>
</clipPath>
</defs>
</svg>
