<svg width="16" height="22" viewBox="0 0 16 22" fill="none" xmlns="http://www.w3.org/2000/svg">
<path fill-rule="evenodd" clip-rule="evenodd" d="M3 0H13C14.7 0 16 1.3 16 3V19C16 20.7 14.7 22 13 22H3C1.3 22 0 20.7 0 19V3C0 1.3 1.3 0 3 0ZM13 20C13.6 20 14 19.6 14 19V3C14 2.4 13.6 2 13 2H3C2.4 2 2 2.4 2 3V19C2 19.6 2.4 20 3 20H13ZM7.8 16C8.1 16 8.5 16.1 8.7 16.3C8.8 16.4 8.9 16.5 8.9 16.6C9 16.7 9 16.9 9 17C9 17.3 8.9 17.5 8.7 17.7C8.5 17.9 8.3 18 8 18C7.7 18 7.5 17.9 7.3 17.7C7.1 17.5 7 17.3 7 17C7 16.8828 7.0343 16.8 7.0627 16.7314C7.0828 16.6828 7.1 16.6414 7.1 16.6C7.1 16.5 7.2 16.4 7.3 16.3C7.3 16.3 7.3 16.2 7.4 16.2C7.5 16.1 7.5 16.1 7.6 16.1C7.6575 16.0425 7.6819 16.0181 7.7113 16.0077C7.7331 16 7.7575 16 7.8 16Z" fill="#0033A0"/>
</svg>
