<svg width="23" height="23" viewBox="0 0 23 23" fill="none" xmlns="http://www.w3.org/2000/svg">
<path d="M21.6 8.7C21.1 8.1 20.4 7.6 19.6 7.5C19.4 7.5 19.3 7.5 19.1 7.5H14.5V4.5C14.5 2.3 12.7 0.5 10.5 0.5C10.1 0.5 9.7 0.7 9.6 1.1L5.9 9.5H3.5C1.8 9.5 0.5 10.8 0.5 12.5V19.5C0.5 21.2 1.8 22.5 3.5 22.5H17.8C19.3 22.5 20.5 21.4 20.8 20L22.2 11C22.3 10.2 22.1 9.4 21.6 8.7ZM5.5 20.5H3.5C2.9 20.5 2.5 20.1 2.5 19.5V12.5C2.5 11.9 2.9 11.5 3.5 11.5H5.5V20.5ZM18.8 19.7C18.7 20.2 18.3 20.5 17.8 20.5H7.5V10.7L11.1 2.6C11.9 2.9 12.5 3.6 12.5 4.5V8.5C12.5 9.1 12.9 9.5 13.5 9.5H19.2C19.3 9.5 19.3 9.5 19.4 9.5C19.7 9.5 19.9 9.7 20.1 9.9C20.3 10.1 20.3 10.4 20.3 10.6L18.8 19.7Z" fill="#464454"/>
</svg>
