<svg width="110" height="18" viewBox="0 0 110 18" fill="none" xmlns="http://www.w3.org/2000/svg">
<path fill-rule="evenodd" clip-rule="evenodd" d="M94.374 1.85486L90.6805 4.92256L89.1381 3.57497L92.3168 0L94.374 1.85486ZM97.0006 14.3191C97.2744 13.5133 97.4103 12.6684 97.4028 11.8188C97.4141 10.9691 97.2692 10.1244 96.9751 9.32535C96.7182 8.60974 96.3134 7.95425 95.7861 7.40022C95.2715 6.86456 94.6475 6.44205 93.955 6.16043C92.4564 5.57264 90.7856 5.57264 89.2869 6.16043C88.592 6.4452 87.9638 6.86716 87.4412 7.40022C86.9096 7.95524 86.4972 8.61 86.2287 9.32535C85.9302 10.1239 85.783 10.9695 85.7942 11.8203C85.783 12.6728 85.9268 13.5203 86.2189 14.323C86.4804 15.0424 86.8849 15.7034 87.409 16.2674C87.9203 16.8105 88.5458 17.2375 89.2419 17.5187C89.9928 17.8209 90.798 17.9709 91.6093 17.9596C92.4285 17.9714 93.2418 17.8215 94.001 17.5187C94.6962 17.2351 95.3215 16.8085 95.835 16.2674C96.3566 15.7044 96.7535 15.041 97.0006 14.3191ZM93.3717 9.42064C93.7828 10.004 93.9902 10.8 93.9902 11.8165C93.9902 12.8349 93.7818 13.6425 93.3717 14.2354C92.9617 14.8283 92.3735 15.1306 91.6102 15.1306C90.8468 15.1306 90.2567 14.8312 89.8369 14.2354C89.417 13.6396 89.2076 12.8329 89.2076 11.8165C89.2076 10.8 89.419 9.99818 89.8369 9.42064C90.2547 8.84311 90.8478 8.55434 91.6102 8.55434C92.3725 8.55434 92.9607 8.83733 93.3717 9.42064ZM83.7488 2.674C83.7488 3.27721 83.5508 3.75144 83.1547 4.09668C82.351 4.78959 81.1497 4.78959 80.346 4.09668C79.9545 3.75208 79.7588 3.27785 79.7588 2.674C79.7588 2.07015 79.9548 1.59593 80.347 1.25133C81.1521 0.562196 82.3505 0.562196 83.1557 1.25133C83.5511 1.59593 83.7491 2.07079 83.7498 2.67593L83.7488 2.674ZM83.4366 17.6496H80.0906V6.03047H83.4356L83.4366 17.6496ZM4.67451 2.16481C6.99076 2.16509 8.77173 2.56712 10.0174 3.3709C11.2544 4.17079 11.8837 5.48662 11.8837 7.3155C11.8837 9.14437 11.2544 10.4862 9.99297 11.3024C8.73149 12.1187 6.94253 12.5307 4.60454 12.5307H3.50356V17.6525H0V2.56138C0.801795 2.41168 1.6119 2.30882 2.42607 2.25336C3.28033 2.19184 4.02916 2.16488 4.67451 2.16481ZM4.8932 5.10161C4.63875 5.10161 4.39018 5.10931 4.14062 5.12375C3.89107 5.13818 3.67968 5.1507 3.50157 5.16899V9.58621H4.6045C5.82096 9.58621 6.72817 9.4245 7.34472 9.09915C7.96126 8.7738 8.2666 8.17123 8.2666 7.28952C8.28076 6.92271 8.19994 6.55837 8.03173 6.2307C7.87331 5.95007 7.64021 5.71714 7.35744 5.5569C7.02738 5.37432 6.66505 5.25509 6.28973 5.20556C5.82806 5.13208 5.36087 5.0973 4.8932 5.10161ZM20.0819 8.71893C20.489 8.79498 20.8384 8.87583 21.1388 8.95187L21.6947 6.23359C21.4847 6.1494 21.2672 6.08495 21.0449 6.04108C20.7959 5.99135 20.546 5.9526 20.2979 5.91413L20.2979 5.91413L20.2786 5.91113C20.0241 5.87166 19.7707 5.84471 19.5172 5.82354C19.2637 5.80236 19.0455 5.78985 18.8625 5.78985C17.9464 5.78008 17.0321 5.87211 16.1369 6.06418C15.4192 6.21791 14.7114 6.41333 14.0172 6.64942V17.6506H17.3671V8.77284C17.584 8.71399 17.8057 8.67405 18.0296 8.65348C18.2785 8.61661 18.5296 8.59667 18.7812 8.5938C19.218 8.5909 19.6539 8.63283 20.0819 8.71893ZM33.6899 14.3191C33.967 13.5133 34.1037 12.6671 34.0941 11.8165L34.0951 11.8203C34.105 10.9702 33.9602 10.1252 33.6674 9.32534C33.4073 8.61059 33.0017 7.95553 32.4754 7.40021C31.9608 6.86631 31.3385 6.44403 30.6483 6.16042C29.9032 5.86041 29.1046 5.7105 28.2995 5.71956C27.5035 5.71131 26.7139 5.86126 25.9782 6.16042C25.285 6.44486 24.6584 6.86617 24.1373 7.39828C23.6025 7.9512 23.189 8.60652 22.9228 9.32342C22.6227 10.1217 22.4738 10.9673 22.4834 11.8184C22.4728 12.6712 22.6184 13.5189 22.9131 14.3211C23.1721 15.0415 23.5758 15.7034 24.1002 16.2674C24.6137 16.8085 25.239 17.2351 25.9341 17.5187C27.4624 18.1055 29.1592 18.1055 30.6874 17.5187C31.3836 17.2375 32.0091 16.8105 32.5204 16.2674C33.0436 15.7049 33.4419 15.0414 33.6899 14.3191ZM30.0602 9.42449C30.4731 10.0078 30.6816 10.8038 30.6816 11.8203C30.6816 12.8387 30.4741 13.6463 30.0602 14.2393C29.6462 14.8322 29.0649 15.1344 28.2986 15.1344C27.5323 15.1344 26.9402 14.8351 26.5223 14.2393C26.1044 13.6434 25.8921 12.8368 25.8921 11.8203C25.8921 10.8038 26.1044 10.002 26.5223 9.42449C26.9402 8.84695 27.5343 8.55818 28.2986 8.55818C29.0629 8.55818 29.6472 8.84117 30.0602 9.42449ZM39.6851 2.60374L36.3401 3.13411V12.8984C36.3308 13.589 36.401 14.2784 36.5495 14.9535C36.6691 15.5313 36.9264 16.073 37.3001 16.534C37.6831 16.9862 38.1769 17.335 38.7348 17.5476C39.3416 17.793 40.0922 17.9124 41.0053 17.9124C41.618 17.9257 42.2301 17.8666 42.8285 17.7362C43.2879 17.6307 43.7386 17.4917 44.1771 17.3204L43.7063 14.7542C43.3672 14.8791 43.0165 14.9713 42.6592 15.0295C42.2926 15.0967 41.9204 15.1305 41.5475 15.1306C40.8027 15.1306 40.3036 14.9304 40.055 14.5136C39.8064 14.0968 39.6851 13.5472 39.6851 12.8551V8.76994H43.7063V6.03048H39.6851V2.60374ZM45.6755 9.22139C45.3466 9.99914 45.1861 10.8972 45.1861 11.9243L45.1881 11.9233C45.1815 12.734 45.3067 13.5406 45.559 14.3124C45.7928 15.024 46.1834 15.6761 46.703 16.2221C47.2517 16.7831 47.9202 17.2171 48.6603 17.4927C49.4472 17.8007 50.369 17.9567 51.4338 17.9567C51.8539 17.9572 52.2737 17.935 52.6914 17.8903C53.1109 17.8479 53.504 17.7921 53.8706 17.7228C54.2082 17.6649 54.5421 17.588 54.8708 17.4927C55.1166 17.4247 55.3562 17.3368 55.5872 17.2299L55.137 14.553C54.6716 14.7434 54.1862 14.8822 53.6896 14.9669C53.093 15.0777 52.4871 15.1324 51.8801 15.1306C50.922 15.1306 50.1567 14.9323 49.59 14.5328C49.0366 14.1669 48.6806 13.5748 48.6212 12.9215H56.2223C56.2409 12.7463 56.2576 12.5374 56.2703 12.3132C56.283 12.0889 56.2928 11.8761 56.2928 11.6836C56.2928 9.72866 55.8035 8.24149 54.8248 7.23369C53.852 6.22492 52.5273 5.72053 50.8505 5.72053C50.1312 5.7197 49.4185 5.85533 48.7513 6.12C48.0719 6.38162 47.4556 6.77997 46.9418 7.28952C46.3924 7.84351 45.9617 8.50048 45.6755 9.22139ZM52.9037 9.85283C52.9869 10.1189 53.0362 10.394 53.0505 10.672L48.6172 10.6681C48.6653 10.3872 48.737 10.1106 48.8316 9.84128C48.924 9.57863 49.0657 9.33538 49.2494 9.12417C49.4351 8.91285 49.6638 8.74232 49.9208 8.62364C50.2261 8.49284 50.5567 8.42912 50.8897 8.4369C51.2272 8.42799 51.5623 8.49653 51.8683 8.63711C52.1186 8.76092 52.3407 8.93351 52.5211 9.14438C52.6946 9.35357 52.8246 9.59429 52.9037 9.85283ZM58.4947 9.46684C58.2134 10.2271 58.0723 11.0306 58.0778 11.8396C58.0703 12.6587 58.1874 13.4744 58.4253 14.2595C58.6423 14.9739 59.0173 15.6323 59.5233 16.1875C60.0583 16.7537 60.7144 17.1959 61.4444 17.4821C62.2293 17.7959 63.1561 17.9557 64.2326 17.9557C64.8809 17.9603 65.528 17.9013 66.1644 17.7796C66.6632 17.6881 67.1514 17.5475 67.6216 17.3599L67.1529 14.6647C66.7423 14.8335 66.312 14.9515 65.8718 15.016C65.4413 15.0902 65.0053 15.1298 64.5683 15.1344C63.4311 15.1344 62.6305 14.8437 62.1774 14.2681C61.7243 13.6925 61.4923 12.8849 61.4923 11.8396C61.4923 10.8529 61.7429 10.0559 62.2254 9.45337C62.7078 8.8508 63.4545 8.55048 64.4332 8.55048C64.8565 8.54432 65.2791 8.58827 65.6917 8.68139C66.0418 8.763 66.3863 8.8662 66.7232 8.99037L67.422 6.36834C66.9293 6.16094 66.4178 5.9998 65.8943 5.88706C65.3257 5.77295 64.7464 5.71778 64.166 5.72246C63.2883 5.7066 62.4167 5.8705 61.6068 6.20374C60.1494 6.813 59.0198 7.99735 58.4947 9.46684ZM68.5201 11.8396C68.5156 11.0307 68.6564 10.2275 68.936 9.46684C69.4635 7.99848 70.5927 6.81487 72.0491 6.20374C72.8585 5.8713 73.7293 5.70742 74.6063 5.72246C75.7257 5.70698 76.8357 5.92617 77.8623 6.36545L77.1723 8.99037C76.8347 8.86637 76.4896 8.76317 76.1389 8.68139C75.7265 8.5884 75.3043 8.54445 74.8813 8.55048C73.8948 8.55048 73.155 8.8508 72.6696 9.45336C72.1841 10.0559 71.9424 10.8529 71.9424 11.8396C71.9424 12.8849 72.1685 13.6925 72.6275 14.2681C73.0865 14.8437 73.8811 15.1344 75.0183 15.1344C75.4537 15.1293 75.888 15.0897 76.317 15.016C76.7561 14.951 77.1854 14.833 77.5951 14.6647L78.0688 17.3599C77.5977 17.5469 77.1089 17.6875 76.6096 17.7796C75.971 17.9022 75.3215 17.9618 74.6709 17.9576C73.5944 17.9576 72.6705 17.7979 71.8896 17.4841C71.1605 17.1988 70.5057 16.7564 69.9734 16.1894C69.4665 15.6339 69.0911 14.9748 68.8743 14.2595C68.6342 13.4747 68.5148 12.6591 68.5201 11.8396ZM101.962 5.97272C101.22 6.07816 100.485 6.23154 99.7634 6.43187V17.6438H103.106V8.67754C103.316 8.64866 103.555 8.61978 103.827 8.59957C104.099 8.57936 104.35 8.56684 104.588 8.56684C105.369 8.56684 105.905 8.78727 106.187 9.23005C106.469 9.67283 106.613 10.4227 106.613 11.4815V17.6487H109.958V11.0897C109.966 10.3613 109.884 9.63469 109.713 8.92588C109.563 8.31288 109.279 7.73922 108.881 7.24428C108.458 6.75181 107.913 6.37517 107.298 6.1508C106.63 5.89411 105.795 5.76577 104.793 5.76577C103.845 5.76374 102.899 5.83292 101.962 5.97272Z" fill="#626277"/>
</svg>
