<svg width="144" height="25" viewBox="0 0 144 25" fill="none" xmlns="http://www.w3.org/2000/svg">
<path d="M6.10726 3.41846C9.13565 3.41846 11.4574 3.97192 13.123 5.02852C14.7382 6.08512 15.5457 7.84613 15.5457 10.2612C15.5457 12.7266 14.7382 14.4876 13.0726 15.5946C11.4069 16.7015 9.08517 17.2046 6.00631 17.2046H4.59306V24.0474H0V3.97192C1.00946 3.77066 2.0694 3.61972 3.17981 3.5694C4.29022 3.46877 5.24921 3.41846 6.10726 3.41846ZM6.41009 7.34299C6.05678 7.34299 5.75394 7.34299 5.40063 7.3933C5.09779 7.3933 4.79495 7.44361 4.54259 7.44361V13.3304H6.00631C7.57098 13.3304 8.78233 13.1292 9.5899 12.6763C10.3975 12.2235 10.8013 11.4185 10.8013 10.2612C10.8013 9.70777 10.7003 9.20462 10.4984 8.85242C10.2965 8.50022 9.99369 8.19833 9.64038 7.94676C9.23659 7.7455 8.78233 7.54424 8.22713 7.49393C7.67192 7.3933 7.06625 7.34299 6.41009 7.34299Z" fill="#292730"/>
<path d="M27.6579 12.4749C27.2541 12.3743 26.7998 12.2737 26.2951 12.173C25.7903 12.0724 25.1847 12.0221 24.579 12.0221C24.3266 12.0221 23.9733 12.0221 23.5695 12.0724C23.1657 12.1227 22.9134 12.173 22.7115 12.2234V24.0473H18.3203V9.40575C19.1279 9.15417 20.0364 8.85229 21.0963 8.65103C22.1563 8.39946 23.3676 8.29883 24.6799 8.29883C24.9323 8.29883 25.1847 8.29883 25.538 8.34914C25.8913 8.39946 26.1941 8.39946 26.5474 8.44977C26.9008 8.50009 27.2036 8.5504 27.5569 8.60072C27.9102 8.65103 28.1626 8.75166 28.415 8.85229L27.6579 12.4749Z" fill="#292730"/>
<path d="M44.6687 16.2989C44.6687 17.5064 44.4668 18.6134 44.1135 19.6196C43.7602 20.6259 43.2554 21.4813 42.5993 22.1857C41.9431 22.8901 41.1356 23.4435 40.227 23.8461C39.3185 24.2486 38.2586 24.4498 37.0977 24.4498C35.9368 24.4498 34.9274 24.2486 33.9684 23.8461C33.0599 23.4435 32.2523 22.8901 31.5457 22.1857C30.8895 21.4813 30.3343 20.6259 29.981 19.6196C29.6277 18.6134 29.4258 17.5064 29.4258 16.2989C29.4258 15.0913 29.6277 13.9844 29.981 12.9781C30.3848 11.9718 30.8895 11.1165 31.5457 10.4121C32.2018 9.7077 33.0094 9.15424 33.9684 8.75172C34.8769 8.34921 35.9368 8.14795 36.9968 8.14795C38.1072 8.14795 39.1166 8.34921 40.0756 8.75172C40.9841 9.15424 41.7917 9.7077 42.4983 10.4121C43.1545 11.1165 43.7097 11.9718 44.063 12.9781C44.4668 13.9341 44.6687 15.041 44.6687 16.2989ZM40.1766 16.2989C40.1766 14.9404 39.9242 13.8838 39.369 13.1291C38.8138 12.3744 38.0567 11.9718 37.0472 11.9718C36.0378 11.9718 35.2807 12.3744 34.7255 13.1291C34.1703 13.8838 33.9179 14.9907 33.9179 16.2989C33.9179 17.6574 34.1703 18.714 34.7255 19.519C35.2807 20.3241 36.0378 20.7266 37.0472 20.7266C38.0567 20.7266 38.8138 20.3241 39.369 19.519C39.9242 18.714 40.1766 17.6071 40.1766 16.2989Z" fill="#292730"/>
<path d="M47.5977 4.72638L51.9888 4.02197V8.60059H57.238V12.2232H51.9888V17.6572C51.9888 18.5629 52.1402 19.3176 52.4936 19.871C52.7964 20.4245 53.4525 20.6761 54.462 20.6761C54.9163 20.6761 55.421 20.6257 55.9257 20.5251C56.4305 20.4245 56.8847 20.3239 57.2885 20.1729L57.8942 23.5943C57.339 23.7956 56.7838 23.9968 56.1276 24.1478C55.4715 24.2987 54.6639 24.3993 53.7554 24.3993C52.544 24.3993 51.585 24.2484 50.7775 23.8962C49.9699 23.5943 49.3642 23.1415 48.91 22.5377C48.4557 21.9339 48.1024 21.2798 47.9005 20.4245C47.6986 19.6195 47.5977 18.6635 47.5977 17.7075V4.72638Z" fill="#292730"/>
<path d="M59.2031 16.4498C59.2031 15.0913 59.405 13.8838 59.8593 12.8272C60.2631 11.8209 60.8183 10.9656 61.5249 10.2612C62.2315 9.55675 62.9886 9.05361 63.8971 8.70141C64.8056 8.34921 65.7142 8.14795 66.6227 8.14795C68.8435 8.14795 70.5596 8.80204 71.8214 10.1605C73.0833 11.519 73.7394 13.4813 73.7394 16.0976C73.7394 16.3492 73.7394 16.6511 73.6889 16.953C73.6889 17.2549 73.6385 17.5064 73.6385 17.758H63.6952C63.7962 18.6637 64.2 19.3681 64.9571 19.9215C65.7142 20.475 66.7236 20.7266 67.935 20.7266C68.7426 20.7266 69.5501 20.6763 70.3072 20.5253C71.0643 20.3744 71.7205 20.1731 72.2252 19.9718L72.8309 23.5442C72.5785 23.6448 72.2757 23.7958 71.8719 23.8964C71.4681 23.997 71.0643 24.0976 70.5596 24.1983C70.0549 24.2989 69.5501 24.3492 68.9949 24.3995C68.4397 24.4498 67.8845 24.5002 67.3293 24.5002C65.9161 24.5002 64.7047 24.2989 63.6952 23.8964C62.6858 23.4939 61.8277 22.9404 61.1211 22.1857C60.465 21.4813 59.9602 20.6259 59.6069 19.6196C59.3545 18.6134 59.2031 17.5568 59.2031 16.4498ZM69.4997 14.7391C69.4997 14.3869 69.3987 13.9844 69.2978 13.6322C69.1968 13.28 69.0454 12.9781 68.793 12.6763C68.5911 12.4247 68.2883 12.1731 67.935 12.0222C67.5817 11.8209 67.1779 11.7706 66.6732 11.7706C66.1684 11.7706 65.7646 11.8712 65.4113 12.0222C65.058 12.1731 64.7552 12.4247 64.5533 12.6763C64.3009 12.9278 64.1495 13.28 63.9981 13.6322C63.8467 13.9844 63.7962 14.3869 63.6952 14.7391H69.4997Z" fill="#292730"/>
<path d="M76.0625 16.2989C76.0625 15.192 76.2644 14.1354 76.6177 13.1291C76.971 12.1228 77.5262 11.2674 78.1824 10.563C78.889 9.80833 79.6966 9.25487 80.706 8.80204C81.665 8.34921 82.8259 8.14795 84.0373 8.14795C84.8448 8.14795 85.6019 8.19826 86.3086 8.34921C87.0152 8.50015 87.6713 8.70141 88.3275 9.00329L87.419 12.5253C87.0152 12.3744 86.5609 12.2234 86.0562 12.1228C85.5515 12.0222 84.9963 11.9215 84.3906 11.9215C83.0783 11.9215 82.1193 12.324 81.5136 13.1291C80.8575 13.9341 80.5546 14.9907 80.5546 16.2989C80.5546 17.7077 80.8575 18.7643 81.4631 19.519C82.0688 20.2737 83.1288 20.6763 84.5925 20.6763C85.0972 20.6763 85.7029 20.6259 86.3086 20.5253C86.9142 20.4247 87.4694 20.2737 87.9742 20.0725L88.5799 23.6448C88.0751 23.8461 87.419 24.0473 86.6619 24.1983C85.9048 24.3492 85.0467 24.4498 84.1382 24.4498C82.725 24.4498 81.5136 24.2486 80.5041 23.7957C79.4947 23.3932 78.6366 22.7895 77.9805 22.0851C77.3243 21.3807 76.8196 20.5253 76.5168 19.519C76.2139 18.5127 76.0625 17.4561 76.0625 16.2989Z" fill="#292730"/>
<path d="M89.7422 16.2989C89.7422 15.192 89.9441 14.1354 90.2974 13.1291C90.6507 12.1228 91.2059 11.2674 91.8621 10.563C92.5687 9.80833 93.3763 9.25487 94.3857 8.80204C95.3447 8.34921 96.5056 8.14795 97.717 8.14795C98.5245 8.14795 99.2816 8.19826 99.9882 8.34921C100.695 8.50015 101.351 8.70141 102.007 9.00329L101.099 12.5253C100.695 12.3744 100.241 12.2234 99.7359 12.1228C99.2311 12.0222 98.6759 11.9215 98.0703 11.9215C96.758 11.9215 95.799 12.324 95.1933 13.1291C94.5371 13.9341 94.2343 14.9907 94.2343 16.2989C94.2343 17.7077 94.5371 18.7643 95.1428 19.519C95.7485 20.2737 96.8084 20.6763 98.2722 20.6763C98.8274 20.6763 99.3826 20.6259 99.9882 20.5253C100.594 20.4247 101.149 20.2737 101.654 20.0725L102.26 23.6448C101.755 23.8461 101.099 24.0473 100.342 24.1983C99.5845 24.3492 98.7264 24.4498 97.8179 24.4498C96.4046 24.4498 95.1933 24.2486 94.1838 23.7957C93.1744 23.3932 92.3163 22.7895 91.6602 22.0851C91.004 21.3807 90.4993 20.5253 90.1964 19.519C89.8936 18.5127 89.7422 17.4561 89.7422 16.2989Z" fill="#292730"/>
<path d="M109.68 4.1227C109.68 4.92773 109.427 5.58182 108.922 6.03465C108.418 6.48748 107.812 6.73905 107.105 6.73905C106.399 6.73905 105.793 6.48748 105.288 6.03465C104.784 5.58182 104.531 4.92773 104.531 4.1227C104.531 3.31767 104.784 2.66358 105.288 2.21075C105.793 1.75792 106.399 1.50635 107.105 1.50635C107.812 1.50635 108.418 1.75792 108.922 2.21075C109.427 2.66358 109.68 3.31767 109.68 4.1227ZM109.276 24.0472H104.885V8.60069H109.276V24.0472Z" fill="#292730"/>
<path d="M127.595 16.2987C127.595 17.5063 127.393 18.6132 127.09 19.6195C126.737 20.6258 126.232 21.4811 125.576 22.1855C124.92 22.8899 124.112 23.4434 123.204 23.8459C122.295 24.2484 121.235 24.4497 120.075 24.4497C118.914 24.4497 117.904 24.2484 116.945 23.8459C116.037 23.4434 115.229 22.8899 114.573 22.1855C113.917 21.4811 113.362 20.6258 113.008 19.6195C112.655 18.6132 112.453 17.5063 112.453 16.2987C112.453 15.0912 112.655 13.9843 113.008 12.978C113.412 11.9717 113.917 11.1164 114.573 10.412C115.229 9.70755 116.037 9.15409 116.996 8.75157C117.904 8.34906 118.964 8.1478 120.024 8.1478C121.135 8.1478 122.144 8.34906 123.103 8.75157C124.011 9.15409 124.819 9.70755 125.475 10.412C126.131 11.1164 126.636 11.9717 127.04 12.978C127.393 13.934 127.595 15.0409 127.595 16.2987ZM123.608 3.01572L118.762 7.0912L116.743 5.27987L120.882 0.5L123.608 3.01572ZM123.103 16.2987C123.103 14.9403 122.851 13.8836 122.295 13.1289C121.74 12.3742 120.983 11.9717 119.974 11.9717C118.964 11.9717 118.207 12.3742 117.652 13.1289C117.097 13.8836 116.844 14.9906 116.844 16.2987C116.844 17.6572 117.097 18.7138 117.652 19.5189C118.207 20.3239 118.964 20.7264 119.974 20.7264C120.983 20.7264 121.74 20.3239 122.295 19.5189C122.851 18.7138 123.103 17.6069 123.103 16.2987Z" fill="#292730"/>
<path d="M130.675 9.1039C131.433 8.90264 132.392 8.70139 133.552 8.50013C134.713 8.29887 135.975 8.19824 137.237 8.19824C138.549 8.19824 139.66 8.34919 140.518 8.70139C141.376 9.05359 142.082 9.50642 142.587 10.1605C143.092 10.8146 143.445 11.519 143.698 12.3743C143.899 13.2297 144 14.1857 144 15.2423V23.997H139.609V15.846C139.609 14.4372 139.407 13.4309 139.054 12.8272C138.701 12.2234 137.994 11.9215 136.985 11.9215C136.682 11.9215 136.328 11.9215 135.975 11.9718C135.622 12.0221 135.319 12.0221 135.016 12.0725V23.997H130.625V9.1039H130.675Z" fill="#292730"/>
</svg>
