<svg width="191" height="20" viewBox="0 0 191 20" fill="none" xmlns="http://www.w3.org/2000/svg">
<path d="M150.935 10.6237V14.3243C150.935 15.0452 150.717 15.6459 150.306 16.0785C149.871 16.511 149.315 16.7273 148.589 16.7273C147.888 16.7273 147.308 16.511 146.897 16.0785C146.461 15.6459 146.268 15.0452 146.268 14.3243V10.6237H142.883V14.1561C142.883 15.8382 143.391 17.1838 144.43 18.1691C145.446 19.1543 146.848 19.6349 148.613 19.6349C150.378 19.6349 151.781 19.1543 152.821 18.1691C153.86 17.1838 154.368 15.8622 154.368 14.1561V10.6237H150.935Z" fill="#0033A0"/>
<path d="M146.316 10.4074V7.76412C146.316 7.04322 146.534 6.44247 146.945 6.00993C147.38 5.57739 147.936 5.36112 148.638 5.36112C149.363 5.36112 149.943 5.57739 150.354 6.00993C150.79 6.44247 150.983 7.04322 150.983 7.76412V10.4074H154.368V7.86024C154.368 6.20217 153.86 4.88052 152.821 3.91932C151.781 2.95812 150.378 2.45349 148.613 2.45349C146.848 2.45349 145.446 2.93409 144.43 3.91932C143.415 4.88052 142.883 6.20217 142.883 7.86024V10.4074H146.316Z" fill="#00AEC7"/>
<path d="M163.169 12.4019C163.024 12.4019 162.903 12.4019 162.807 12.3779C162.71 12.3538 162.637 12.3298 162.589 12.3058C162.541 12.2817 162.492 12.2337 162.468 12.1616C162.444 12.0895 162.42 12.0174 162.396 11.9453L162.057 10.7679H159.325L158.986 11.9453C158.962 12.0414 158.938 12.1135 158.914 12.1616C158.89 12.2337 158.841 12.2817 158.793 12.3058C158.745 12.3538 158.672 12.3779 158.575 12.3779C158.479 12.4019 158.358 12.4019 158.213 12.4019H156.955C156.786 12.4019 156.665 12.3779 156.593 12.3298C156.52 12.2817 156.472 12.2097 156.472 12.0895C156.472 12.0414 156.496 11.9694 156.52 11.8732C156.544 11.7771 156.593 11.5849 156.689 11.3205C157.1 9.99889 157.487 8.7253 157.85 7.49977C158.213 6.27424 158.599 5.07274 159.011 3.89527C159.083 3.65497 159.204 3.48676 159.349 3.39064C159.494 3.29452 159.736 3.24646 160.026 3.24646H161.332C161.646 3.24646 161.864 3.29452 162.009 3.39064C162.154 3.48676 162.275 3.65497 162.347 3.89527C162.758 5.07274 163.145 6.27424 163.532 7.49977C163.919 8.7253 164.306 9.99889 164.717 11.3205C164.789 11.5849 164.838 11.7771 164.886 11.8732C164.91 11.9694 164.934 12.0414 164.934 12.0895C164.934 12.2097 164.886 12.3058 164.814 12.3298C164.741 12.3779 164.62 12.4019 164.451 12.4019H163.169ZM161.67 8.91754L160.8 5.72155H160.631C160.558 5.96185 160.485 6.22618 160.389 6.51454C160.316 6.8029 160.244 7.09126 160.171 7.35559C160.099 7.64395 160.026 7.90828 159.954 8.17261C159.881 8.43694 159.808 8.67724 159.76 8.91754H161.67Z" fill="#00AEC7"/>
<path d="M168.344 7.64392H168.319V11.9213C168.319 12.1135 168.295 12.2577 168.223 12.3057C168.15 12.3778 168.029 12.4019 167.836 12.4019H166.627C166.433 12.4019 166.288 12.3778 166.216 12.3057C166.143 12.2337 166.095 12.1135 166.095 11.9213V3.72703C166.095 3.53479 166.143 3.41464 166.216 3.34255C166.288 3.27046 166.433 3.24643 166.603 3.24643H167.231C167.473 3.24643 167.642 3.27046 167.788 3.31852C167.933 3.36658 168.054 3.48673 168.15 3.63091L171.318 8.2687H171.342V3.703C171.342 3.51076 171.39 3.36658 171.463 3.31852C171.535 3.24643 171.68 3.2224 171.874 3.2224H173.083C173.276 3.2224 173.397 3.24643 173.47 3.31852C173.542 3.39061 173.566 3.51076 173.566 3.703V11.9453C173.566 12.1375 173.518 12.2577 173.446 12.3298C173.373 12.4019 173.228 12.4259 173.059 12.4259H172.43C172.188 12.4259 172.019 12.4019 171.874 12.3538C171.729 12.3057 171.608 12.1856 171.511 12.0414L168.344 7.64392ZM167.449 2.11702C167.376 2.06896 167.328 2.0209 167.328 1.94881C167.328 1.90075 167.352 1.82866 167.376 1.75657C167.57 1.3 167.812 0.963579 168.102 0.747309C168.392 0.531039 168.682 0.410889 168.997 0.410889C169.19 0.410889 169.359 0.434919 169.504 0.482979C169.649 0.531039 169.77 0.603129 169.915 0.699249L170.181 0.867459C170.399 1.01164 170.568 1.0597 170.689 1.0597C170.81 1.0597 170.907 1.03567 171.003 0.963579C171.1 0.891489 171.197 0.771339 171.318 0.627159C171.366 0.555069 171.439 0.507009 171.511 0.507009C171.56 0.507009 171.632 0.531039 171.705 0.579099L172.261 0.939549C172.357 1.01164 172.382 1.08373 172.382 1.13179C172.382 1.17985 172.357 1.25194 172.333 1.32403C172.285 1.39612 172.261 1.44418 172.212 1.49224C171.777 2.14105 171.245 2.47747 170.665 2.47747C170.375 2.47747 170.109 2.40538 169.867 2.2612L169.577 2.06896C169.383 1.94881 169.214 1.87672 169.093 1.87672C168.997 1.87672 168.924 1.90075 168.827 1.97284C168.731 2.04493 168.634 2.16508 168.489 2.38135C168.44 2.47747 168.368 2.5015 168.295 2.5015C168.247 2.5015 168.199 2.47747 168.126 2.45344L167.449 2.11702Z" fill="#00AEC7"/>
<path d="M182.972 8.36488C182.972 9.1819 182.876 9.87877 182.706 10.4555C182.537 11.0322 182.223 11.4888 181.763 11.8492C181.473 12.0655 181.135 12.2337 180.699 12.3539C180.264 12.474 179.732 12.5221 179.104 12.5221H178.983C178.354 12.5221 177.822 12.474 177.387 12.3539C176.952 12.2337 176.589 12.0655 176.323 11.8492C175.864 11.4888 175.549 11.0322 175.38 10.4555C175.211 9.87877 175.114 9.1819 175.114 8.36488V7.28353C175.114 6.46651 175.211 5.76964 175.38 5.19292C175.549 4.6162 175.864 4.15963 176.323 3.79918C176.613 3.58291 176.952 3.4147 177.387 3.29455C177.822 3.1744 178.354 3.12634 178.983 3.12634H179.104C179.732 3.12634 180.264 3.1744 180.699 3.29455C181.135 3.4147 181.497 3.58291 181.763 3.79918C182.223 4.15963 182.537 4.6162 182.706 5.19292C182.876 5.76964 182.972 6.46651 182.972 7.28353V8.36488ZM180.506 7.57189C180.506 7.04323 180.482 6.61069 180.433 6.25024C180.385 5.88979 180.264 5.62546 180.095 5.45725C179.974 5.3371 179.853 5.26501 179.708 5.19292C179.563 5.14486 179.37 5.0968 179.152 5.0968H178.959C178.741 5.0968 178.547 5.12083 178.402 5.19292C178.257 5.24098 178.112 5.3371 178.016 5.45725C177.846 5.62546 177.725 5.88979 177.677 6.25024C177.629 6.61069 177.605 7.04323 177.605 7.57189V8.10055C177.605 8.62921 177.629 9.06175 177.677 9.4222C177.725 9.78265 177.846 10.047 178.016 10.2152C178.136 10.3353 178.257 10.4074 178.402 10.4795C178.547 10.5276 178.741 10.5756 178.959 10.5756H179.152C179.37 10.5756 179.563 10.5516 179.708 10.4795C179.853 10.4315 179.998 10.3353 180.095 10.2152C180.264 10.047 180.385 9.78265 180.433 9.4222C180.482 9.06175 180.506 8.62921 180.506 8.10055V7.57189Z" fill="#00AEC7"/>
<path d="M187.325 12.5461C187.131 12.5461 186.914 12.5461 186.672 12.5221C186.43 12.498 186.188 12.474 185.946 12.426C185.705 12.3779 185.487 12.3539 185.269 12.3058C185.052 12.2577 184.858 12.2097 184.689 12.1616C184.496 12.0895 184.375 12.0174 184.326 11.9213C184.278 11.8252 184.254 11.7291 184.278 11.5849L184.471 10.4315C184.52 10.1431 184.689 10.047 184.979 10.1431C185.39 10.2873 185.801 10.3834 186.212 10.4795C186.623 10.5516 186.986 10.5997 187.276 10.5997H187.349C187.808 10.5997 188.123 10.5276 188.292 10.4074C188.461 10.2873 188.558 10.071 188.558 9.78265V9.63847C188.558 9.35011 188.485 9.15787 188.316 9.03772C188.147 8.9416 187.857 8.84548 187.421 8.77339L186.454 8.58115C186.043 8.50906 185.68 8.38891 185.414 8.24473C185.124 8.10055 184.907 7.93234 184.737 7.71607C184.568 7.4998 184.447 7.2595 184.375 6.99517C184.302 6.73084 184.278 6.41845 184.278 6.08203V5.69755C184.278 4.90456 184.496 4.30381 184.931 3.8953C185.221 3.63097 185.584 3.43873 186.043 3.31858C186.503 3.19843 187.083 3.12634 187.808 3.12634H187.905C188.34 3.12634 188.775 3.15037 189.235 3.22246C189.694 3.29455 190.057 3.39067 190.347 3.48679C190.492 3.53485 190.589 3.60694 190.637 3.70306C190.686 3.79918 190.661 3.94336 190.613 4.11157L190.371 5.14486C190.323 5.40919 190.129 5.48128 189.839 5.38516C189.501 5.28904 189.186 5.21695 188.896 5.16889C188.582 5.12083 188.268 5.0968 187.953 5.0968H187.857C187.373 5.0968 187.059 5.14486 186.865 5.26501C186.696 5.38516 186.599 5.55337 186.599 5.8177V5.93785C186.599 6.15412 186.672 6.32233 186.793 6.41845C186.914 6.51457 187.18 6.58666 187.542 6.68278L188.63 6.89905C189.041 6.99517 189.404 7.09129 189.694 7.18741C189.984 7.30756 190.226 7.45174 190.395 7.64398C190.565 7.83622 190.71 8.07652 190.782 8.36488C190.855 8.65324 190.903 9.01369 190.903 9.44623V9.78265C190.903 10.7198 190.637 11.4167 190.105 11.8733C189.573 12.3298 188.703 12.5461 187.494 12.5461H187.325Z" fill="#00AEC7"/>
<path d="M158.865 19.6349C157.995 19.6349 157.366 19.4427 157.004 19.0342C156.81 18.8419 156.689 18.6016 156.617 18.3133C156.544 18.0249 156.496 17.6644 156.496 17.2319V16.1506C156.496 15.718 156.544 15.3576 156.617 15.0692C156.689 14.7808 156.834 14.5405 157.028 14.3483C157.221 14.132 157.463 13.9879 157.777 13.8917C158.092 13.7956 158.454 13.7476 158.89 13.7476H158.962C159.252 13.7476 159.567 13.7716 159.881 13.8437C160.195 13.9158 160.485 14.0119 160.727 14.132C160.8 14.1561 160.824 14.2041 160.848 14.2522C160.872 14.3002 160.848 14.3723 160.824 14.4444L160.534 15.1894C160.51 15.2855 160.437 15.3335 160.389 15.3335C160.34 15.3335 160.268 15.3095 160.219 15.2855C160.026 15.1894 159.833 15.1173 159.639 15.0692C159.446 15.0211 159.252 14.9971 159.035 14.9971H159.011C158.624 14.9971 158.382 15.0932 158.237 15.3095C158.164 15.4297 158.116 15.5498 158.092 15.718C158.068 15.8862 158.068 16.1025 158.068 16.3428V16.9916C158.068 17.2559 158.092 17.4962 158.116 17.6645C158.14 17.8327 158.213 18.0009 158.309 18.121C158.382 18.2171 158.503 18.2892 158.648 18.3133C158.793 18.3373 158.962 18.3854 159.156 18.3854H159.18C159.349 18.3854 159.518 18.3613 159.736 18.3133C159.954 18.2652 160.123 18.2171 160.292 18.1451C160.316 18.1451 160.34 18.121 160.365 18.121C160.389 18.121 160.413 18.121 160.437 18.121C160.461 18.121 160.51 18.145 160.534 18.1691C160.558 18.1931 160.582 18.2412 160.606 18.3133L160.751 18.938C160.776 19.0101 160.776 19.0582 160.776 19.1063C160.776 19.1543 160.751 19.2024 160.727 19.2504C160.703 19.2985 160.631 19.3225 160.51 19.3706C160.292 19.4427 160.05 19.5148 159.784 19.5628C159.518 19.6109 159.252 19.6349 158.986 19.6349H158.865Z" fill="#0033A0"/>
<path d="M166.289 17.0397C166.289 17.5443 166.24 18.0009 166.119 18.3613C165.998 18.7218 165.805 19.0101 165.539 19.2264C165.37 19.3706 165.152 19.4667 164.886 19.5388C164.62 19.6109 164.282 19.6349 163.895 19.6349H163.822C163.435 19.6349 163.097 19.6109 162.831 19.5388C162.565 19.4667 162.347 19.3706 162.178 19.2264C161.888 19.0101 161.694 18.7218 161.598 18.3613C161.477 18.0009 161.428 17.5683 161.428 17.0397V16.3668C161.428 15.8622 161.477 15.4056 161.598 15.0452C161.719 14.6847 161.912 14.3964 162.178 14.1801C162.347 14.0359 162.565 13.9398 162.831 13.8677C163.097 13.7956 163.435 13.7716 163.822 13.7716H163.895C164.282 13.7716 164.62 13.7956 164.886 13.8677C165.152 13.9398 165.37 14.0359 165.539 14.1801C165.829 14.3964 166.023 14.6847 166.119 15.0452C166.24 15.4056 166.289 15.8382 166.289 16.3668V17.0397ZM164.741 16.5351C164.741 16.1986 164.717 15.9343 164.693 15.694C164.669 15.4777 164.596 15.3095 164.475 15.1894C164.403 15.1173 164.33 15.0692 164.233 15.0212C164.137 14.9971 164.016 14.9731 163.895 14.9731H163.774C163.629 14.9731 163.532 14.9971 163.435 15.0212C163.339 15.0452 163.266 15.1173 163.194 15.1894C163.097 15.2855 163.024 15.4537 162.976 15.694C162.952 15.9103 162.928 16.1986 162.928 16.5351V16.8715C162.928 17.2079 162.952 17.4722 162.976 17.7125C163 17.9288 163.073 18.097 163.194 18.2172C163.266 18.2892 163.339 18.3373 163.435 18.3854C163.532 18.4094 163.653 18.4334 163.774 18.4334H163.895C164.04 18.4334 164.137 18.4094 164.233 18.3854C164.33 18.3613 164.403 18.2892 164.475 18.2172C164.572 18.121 164.644 17.9528 164.693 17.7125C164.717 17.4963 164.741 17.2079 164.741 16.8715V16.5351Z" fill="#0033A0"/>
<path d="M168.682 16.5832L168.658 19.2505C168.658 19.3707 168.634 19.4668 168.585 19.4908C168.537 19.5389 168.465 19.5389 168.344 19.5389H167.594C167.473 19.5389 167.401 19.5148 167.328 19.4908C167.28 19.4427 167.256 19.3707 167.256 19.2505V14.1321C167.256 14.012 167.28 13.9399 167.328 13.8918C167.377 13.8437 167.449 13.8438 167.57 13.8438H167.957C168.102 13.8438 168.223 13.8678 168.295 13.8918C168.368 13.9158 168.465 13.9879 168.537 14.0841L170.52 16.9917H170.544V14.1321C170.544 14.012 170.568 13.9158 170.617 13.8918C170.665 13.8437 170.762 13.8438 170.883 13.8438H171.632C171.753 13.8438 171.826 13.8678 171.874 13.8918C171.922 13.9399 171.946 14.012 171.946 14.1321V19.2505C171.946 19.3707 171.922 19.4427 171.874 19.4908C171.826 19.5389 171.753 19.5389 171.632 19.5389H171.245C171.1 19.5389 170.979 19.5148 170.907 19.4908C170.834 19.4668 170.737 19.3947 170.665 19.2986L168.682 16.5832Z" fill="#0033A0"/>
<path d="M172.914 15.0453C172.793 15.0453 172.72 15.0212 172.672 14.9972C172.648 14.9732 172.624 14.9011 172.624 14.7809V14.1081C172.624 13.9879 172.648 13.9158 172.672 13.8918C172.696 13.8678 172.793 13.8438 172.914 13.8438H176.782C176.903 13.8438 176.976 13.8678 177.024 13.8918C177.048 13.9158 177.073 13.9879 177.073 14.1081V14.7809C177.073 14.877 177.048 14.9491 177.024 14.9972C177 15.0212 176.903 15.0453 176.782 15.0453H175.598V19.2745C175.598 19.3947 175.573 19.4668 175.525 19.4908C175.477 19.5389 175.404 19.5389 175.259 19.5389H174.413C174.268 19.5389 174.195 19.5148 174.147 19.4908C174.098 19.4427 174.074 19.3707 174.074 19.2745V15.0453H172.914Z" fill="#0033A0"/>
<path d="M179.297 19.2745C179.297 19.3947 179.273 19.4668 179.249 19.5148C179.225 19.5388 179.128 19.5629 178.983 19.5629H178.112C177.967 19.5629 177.895 19.5388 177.846 19.5148C177.798 19.4908 177.798 19.4187 177.798 19.2745V14.1081C177.798 13.9879 177.822 13.9158 177.846 13.8678C177.871 13.8437 177.967 13.8197 178.112 13.8197H178.983C179.128 13.8197 179.201 13.8437 179.249 13.8678C179.273 13.8918 179.297 13.9639 179.297 14.1081V19.2745Z" fill="#0033A0"/>
<path d="M180.313 16.1986C180.313 15.7661 180.361 15.4056 180.458 15.0933C180.555 14.7809 180.7 14.5406 180.893 14.3483C181.086 14.1561 181.352 14.0119 181.643 13.9158C181.957 13.8197 182.344 13.7716 182.803 13.7716H182.876C183.045 13.7716 183.214 13.7716 183.408 13.7956C183.577 13.8197 183.77 13.8437 183.94 13.8918C184.109 13.9398 184.254 13.9638 184.399 14.0359C184.544 14.084 184.665 14.1321 184.786 14.2041C184.834 14.2282 184.883 14.2522 184.907 14.3003C184.931 14.3483 184.931 14.3724 184.931 14.3964C184.931 14.4204 184.931 14.4685 184.907 14.4925C184.907 14.5406 184.883 14.5886 184.858 14.6607L184.617 15.2615C184.568 15.4056 184.472 15.4537 184.327 15.3816C184.109 15.2615 183.867 15.1653 183.65 15.1173C183.432 15.0692 183.19 15.0212 182.924 15.0212H182.876C182.465 15.0212 182.199 15.1413 182.029 15.3576C181.957 15.4777 181.909 15.5979 181.86 15.7661C181.836 15.9343 181.812 16.1506 181.812 16.4149V17.0877C181.812 17.4001 181.836 17.6164 181.86 17.8086C181.884 17.9769 181.957 18.121 182.054 18.2172C182.126 18.2892 182.223 18.3613 182.344 18.3854C182.465 18.4094 182.61 18.4334 182.803 18.4334H182.852C182.924 18.4334 183.021 18.4334 183.093 18.4334C183.166 18.4334 183.238 18.4094 183.287 18.4094C183.359 18.4094 183.408 18.3854 183.432 18.3373C183.456 18.2892 183.456 18.2652 183.456 18.1931V17.3761H183.021C182.924 17.3761 182.852 17.3521 182.803 17.328C182.779 17.304 182.755 17.2319 182.755 17.1358V16.511C182.755 16.3909 182.779 16.3188 182.803 16.2948C182.827 16.2707 182.9 16.2467 183.021 16.2467H184.713C184.81 16.2467 184.883 16.2707 184.931 16.3188C184.979 16.3668 184.979 16.4389 184.979 16.5351V18.914C184.979 19.0342 184.955 19.1063 184.931 19.1784C184.883 19.2504 184.81 19.2985 184.713 19.3225C184.593 19.3706 184.447 19.4187 184.302 19.4667C184.157 19.5148 183.988 19.5388 183.819 19.5628C183.65 19.5869 183.504 19.6109 183.335 19.6349C183.166 19.659 183.021 19.659 182.9 19.659H182.779C182.295 19.659 181.909 19.6109 181.594 19.5388C181.28 19.4667 181.038 19.3225 180.845 19.1303C180.651 18.9381 180.506 18.6737 180.434 18.3854C180.361 18.073 180.313 17.6885 180.313 17.2319V16.1986Z" fill="#0033A0"/>
<path d="M190.758 17.0397C190.758 17.5443 190.71 18.0009 190.589 18.3613C190.468 18.7218 190.275 19.0101 190.009 19.2264C189.839 19.3706 189.622 19.4667 189.356 19.5388C189.09 19.6109 188.751 19.6349 188.365 19.6349H188.292C187.905 19.6349 187.567 19.6109 187.301 19.5388C187.035 19.4667 186.817 19.3706 186.648 19.2264C186.358 19.0101 186.164 18.7218 186.067 18.3613C185.947 18.0009 185.898 17.5683 185.898 17.0397V16.3668C185.898 15.8622 185.947 15.4056 186.067 15.0452C186.188 14.6847 186.382 14.3964 186.648 14.1801C186.817 14.0359 187.035 13.9398 187.301 13.8677C187.567 13.7956 187.905 13.7716 188.292 13.7716H188.365C188.751 13.7716 189.09 13.7956 189.356 13.8677C189.622 13.9398 189.839 14.0359 190.009 14.1801C190.299 14.3964 190.492 14.6847 190.589 15.0452C190.71 15.4056 190.758 15.8382 190.758 16.3668V17.0397ZM189.235 16.5351C189.235 16.1986 189.211 15.9343 189.187 15.694C189.162 15.4777 189.09 15.3095 188.969 15.1894C188.896 15.1173 188.824 15.0692 188.727 15.0212C188.63 14.9971 188.51 14.9731 188.389 14.9731H188.268C188.123 14.9731 188.026 14.9971 187.929 15.0212C187.833 15.0452 187.76 15.1173 187.687 15.1894C187.591 15.2855 187.518 15.4537 187.47 15.694C187.446 15.9103 187.422 16.1986 187.422 16.5351V16.8715C187.422 17.2079 187.446 17.4722 187.47 17.7125C187.494 17.9288 187.567 18.097 187.687 18.2172C187.76 18.2892 187.833 18.3373 187.929 18.3854C188.026 18.4094 188.147 18.4334 188.268 18.4334H188.389C188.534 18.4334 188.63 18.4094 188.727 18.3854C188.824 18.3613 188.896 18.2892 188.969 18.2172C189.066 18.121 189.138 17.9528 189.187 17.7125C189.211 17.4963 189.235 17.2079 189.235 16.8715V16.5351Z" fill="#0033A0"/>
<path d="M142.012 14.0839C142.012 14.925 141.867 15.718 141.577 16.4389C141.19 17.4481 140.562 18.2171 139.667 18.7938C138.772 19.3465 137.733 19.6349 136.499 19.6349C135.291 19.6349 134.251 19.3465 133.332 18.7458C132.413 18.145 131.784 17.352 131.373 16.3187C131.204 15.6939 131.059 15.0451 131.035 14.3483C131.035 14.156 131.132 14.0599 131.325 14.0599H134.13C134.323 14.0599 134.42 14.156 134.42 14.3483C134.493 14.8769 134.565 15.2614 134.686 15.5017C134.831 15.9102 135.049 16.2226 135.387 16.4629C135.702 16.6792 136.088 16.7993 136.524 16.7993C137.418 16.7993 138.023 16.4148 138.337 15.6459C138.555 15.1653 138.676 14.6366 138.676 13.9878C138.676 13.2429 138.555 12.6421 138.313 12.1856C137.95 11.4406 137.346 11.0802 136.499 11.0802C136.33 11.0802 136.137 11.1282 135.943 11.2244C135.75 11.3205 135.532 11.4647 135.266 11.6569C135.194 11.705 135.145 11.729 135.073 11.729C134.976 11.729 134.904 11.6809 134.855 11.5848L133.453 9.63838C133.429 9.59032 133.405 9.54226 133.405 9.47017C133.405 9.37405 133.429 9.30196 133.501 9.22987L137.273 5.96179C137.297 5.93776 137.322 5.8897 137.297 5.86567C137.297 5.84164 137.273 5.81761 137.225 5.81761H131.664C131.591 5.81761 131.519 5.79358 131.47 5.74552C131.422 5.69746 131.398 5.62537 131.398 5.55328V3.27043C131.398 3.19834 131.422 3.12625 131.47 3.07819C131.519 3.03013 131.591 3.0061 131.664 3.0061H141.529C141.601 3.0061 141.674 3.03013 141.722 3.07819C141.771 3.12625 141.795 3.19834 141.795 3.27043V5.86567C141.795 5.98582 141.746 6.10597 141.626 6.22612L138.531 9.0136C138.506 9.03763 138.482 9.08569 138.506 9.10972C138.506 9.13375 138.555 9.15778 138.603 9.15778C139.981 9.42211 140.949 10.2391 141.529 11.5848C141.867 12.3057 142.012 13.1468 142.012 14.0839Z" fill="#00AEC7"/>
<path d="M4.52126 3.31152C6.76321 3.31152 8.48204 3.72125 9.71511 4.50347C10.9108 5.28568 11.5087 6.58937 11.5087 8.37729C11.5087 10.2025 10.9108 11.5062 9.67774 12.3256C8.44467 13.1451 6.72585 13.5176 4.44653 13.5176H3.40029V18.5833H0V3.72126C0.747316 3.57226 1.532 3.46052 2.35405 3.42327C3.17609 3.34877 3.88604 3.31152 4.52126 3.31152ZM4.74546 6.21689C4.4839 6.21689 4.2597 6.21689 3.99814 6.25414C3.77395 6.25414 3.54975 6.29139 3.36292 6.29139V10.6494H4.44653C5.60487 10.6494 6.50165 10.5004 7.0995 10.1652C7.69736 9.82998 7.99628 9.234 7.99628 8.37729C7.99628 7.96756 7.92155 7.59508 7.77209 7.33434C7.62262 7.0736 7.39843 6.85011 7.13687 6.66387C6.83794 6.51488 6.50165 6.36589 6.09063 6.32864C5.6796 6.25414 5.23121 6.21689 4.74546 6.21689Z" fill="#0033A0"/>
<path d="M20.4766 10.0163C20.1777 9.9418 19.8414 9.8673 19.4678 9.7928C19.0941 9.71831 18.6457 9.68106 18.1973 9.68106C18.0105 9.68106 17.7489 9.68106 17.45 9.71831C17.1511 9.75555 16.9643 9.7928 16.8148 9.83005V18.5834H13.564V7.74415C14.1618 7.5579 14.8344 7.33441 15.6191 7.18542C16.4038 6.99918 17.3005 6.92468 18.2721 6.92468C18.4589 6.92468 18.6457 6.92468 18.9073 6.96193C19.1688 6.99918 19.393 6.99918 19.6546 7.03643C19.9162 7.07368 20.1403 7.11092 20.4019 7.14817C20.6635 7.18542 20.8503 7.25992 21.0371 7.33441L20.4766 10.0163Z" fill="#0033A0"/>
<path d="M33.0689 12.8472C33.0689 13.7412 32.9194 14.5606 32.6579 15.3056C32.3963 16.0506 32.0227 16.6838 31.5369 17.2053C31.0511 17.7267 30.4533 18.1365 29.7807 18.4345C29.1081 18.7324 28.3234 18.8814 27.464 18.8814C26.6046 18.8814 25.8573 18.7324 25.1473 18.4345C24.4748 18.1365 23.8769 17.7267 23.3538 17.2053C22.868 16.6838 22.457 16.0506 22.1954 15.3056C21.9339 14.5606 21.7844 13.7412 21.7844 12.8472C21.7844 11.9533 21.9339 11.1338 22.1954 10.3888C22.4944 9.64386 22.868 9.01064 23.3538 8.48916C23.8395 7.96769 24.4374 7.55795 25.1473 7.25997C25.8199 6.96198 26.6046 6.81299 27.3893 6.81299C28.2113 6.81299 28.9587 6.96198 29.6686 7.25997C30.3412 7.55795 30.939 7.96769 31.4622 8.48916C31.9479 9.01064 32.3589 9.64386 32.6205 10.3888C32.9194 11.0965 33.0689 11.916 33.0689 12.8472ZM29.7433 12.8472C29.7433 11.8415 29.5565 11.0593 29.1455 10.5006C28.7345 9.94185 28.174 9.64386 27.4267 9.64386C26.6793 9.64386 26.1189 9.94185 25.7078 10.5006C25.2968 11.0593 25.11 11.8788 25.11 12.8472C25.11 13.8529 25.2968 14.6351 25.7078 15.2311C26.1189 15.8271 26.6793 16.1251 27.4267 16.1251C28.174 16.1251 28.7345 15.8271 29.1455 15.2311C29.5565 14.6351 29.7433 13.8157 29.7433 12.8472Z" fill="#0033A0"/>
<path d="M35.2358 4.28002L38.4867 3.75854V7.14814H42.3727V9.83002H38.4867V13.8528C38.4867 14.5233 38.5988 15.082 38.8603 15.4918C39.0845 15.9015 39.5703 16.0877 40.3176 16.0877C40.6539 16.0877 41.0275 16.0505 41.4012 15.976C41.7749 15.9015 42.1111 15.827 42.4101 15.7153L42.8585 18.2481C42.4474 18.3971 42.0364 18.5461 41.5507 18.6579C41.0649 18.7696 40.4671 18.8441 39.7945 18.8441C38.8977 18.8441 38.1877 18.7324 37.5899 18.4716C36.992 18.2481 36.5436 17.9129 36.2074 17.4659C35.8711 17.0189 35.6095 16.5347 35.46 15.9015C35.3106 15.3055 35.2358 14.5978 35.2358 13.8901V4.28002Z" fill="#0033A0"/>
<path d="M43.8301 12.959C43.8301 11.9533 43.9795 11.0593 44.3158 10.2771C44.6148 9.53211 45.0258 8.89889 45.5489 8.37742C46.072 7.85594 46.6325 7.48346 47.3051 7.22272C47.9777 6.96198 48.6503 6.81299 49.3229 6.81299C50.9669 6.81299 52.2374 7.29722 53.1715 8.30292C54.1057 9.30862 54.5914 10.7613 54.5914 12.6982C54.5914 12.8845 54.5914 13.108 54.5541 13.3314C54.5541 13.5549 54.5167 13.7412 54.5167 13.9274H47.1556C47.2304 14.5979 47.5293 15.1194 48.0898 15.5291C48.6503 15.9388 49.3976 16.1251 50.2944 16.1251C50.8922 16.1251 51.4901 16.0878 52.0506 15.9761C52.611 15.8643 53.0968 15.7153 53.4705 15.5663L53.9188 18.211C53.732 18.2855 53.5078 18.3972 53.2089 18.4717C52.91 18.5462 52.611 18.6207 52.2374 18.6952C51.8637 18.7697 51.4901 18.8069 51.079 18.8442C50.668 18.8814 50.257 18.9187 49.846 18.9187C48.7997 18.9187 47.9029 18.7697 47.1556 18.4717C46.4083 18.1737 45.7731 17.764 45.25 17.2053C44.7642 16.6838 44.3906 16.0506 44.129 15.3056C43.9422 14.5606 43.8301 13.7784 43.8301 12.959ZM51.4527 11.6925C51.4527 11.4318 51.378 11.1338 51.3032 10.8731C51.2285 10.6123 51.1164 10.3888 50.9296 10.1653C50.7801 9.97909 50.5559 9.79285 50.2944 9.68111C50.0328 9.53211 49.7339 9.49487 49.3602 9.49487C48.9866 9.49487 48.6876 9.56936 48.4261 9.68111C48.1645 9.79285 47.9403 9.97909 47.7909 10.1653C47.604 10.3516 47.4919 10.6123 47.3798 10.8731C47.2677 11.1338 47.2304 11.4318 47.1556 11.6925H51.4527Z" fill="#0033A0"/>
<path d="M56.3103 12.8472C56.3103 12.0278 56.4598 11.2455 56.7213 10.5006C56.9829 9.7556 57.3939 9.12238 57.8797 8.60091C58.4028 8.04218 59.0006 7.63245 59.748 7.29722C60.4579 6.96198 61.3173 6.81299 62.2141 6.81299C62.812 6.81299 63.3724 6.85024 63.8956 6.96198C64.4187 7.07373 64.9044 7.22272 65.3902 7.44621L64.7176 10.0536C64.4187 9.94185 64.0824 9.8301 63.7087 9.7556C63.3351 9.68111 62.9241 9.60661 62.4757 9.60661C61.5042 9.60661 60.7942 9.9046 60.3458 10.5006C59.8601 11.0965 59.6359 11.8788 59.6359 12.8472C59.6359 13.8902 59.8601 14.6724 60.3084 15.2311C60.7568 15.7898 61.5415 16.0878 62.6251 16.0878C62.9988 16.0878 63.4472 16.0506 63.8956 15.9761C64.344 15.9016 64.755 15.7898 65.1286 15.6408L65.577 18.2855C65.2034 18.4345 64.7176 18.5835 64.1571 18.6952C63.5966 18.8069 62.9614 18.8814 62.2888 18.8814C61.2426 18.8814 60.3458 18.7324 59.5985 18.3972C58.8512 18.0992 58.216 17.6522 57.7302 17.1308C57.2444 16.6093 56.8708 15.9761 56.6466 15.2311C56.4224 14.4861 56.3103 13.7039 56.3103 12.8472Z" fill="#0033A0"/>
<path d="M66.4363 12.8472C66.4363 12.0278 66.5857 11.2455 66.8473 10.5006C67.1089 9.7556 67.5199 9.12238 68.0056 8.60091C68.5288 8.04218 69.1266 7.63245 69.8739 7.29722C70.5839 6.96198 71.4433 6.81299 72.3401 6.81299C72.9379 6.81299 73.4984 6.85024 74.0215 6.96198C74.5447 7.07373 75.0304 7.22272 75.5162 7.44621L74.8436 10.0536C74.5447 9.94185 74.2084 9.8301 73.8347 9.7556C73.4611 9.68111 73.05 9.60661 72.6016 9.60661C71.6301 9.60661 70.9202 9.9046 70.4718 10.5006C69.986 11.0965 69.7618 11.8788 69.7618 12.8472C69.7618 13.8902 69.986 14.6724 70.4344 15.2311C70.8828 15.7898 71.6675 16.0878 72.7511 16.0878C73.1621 16.0878 73.5732 16.0506 74.0215 15.9761C74.4699 15.9016 74.8809 15.7898 75.2546 15.6408L75.703 18.2855C75.3293 18.4345 74.8436 18.5835 74.2831 18.6952C73.7226 18.8069 73.0874 18.8814 72.4148 18.8814C71.3686 18.8814 70.4718 18.7324 69.7245 18.3972C68.9772 18.0992 68.3419 17.6522 67.8562 17.1308C67.3704 16.6093 66.9968 15.9761 66.7726 15.2311C66.5484 14.4861 66.4363 13.7039 66.4363 12.8472Z" fill="#0033A0"/>
<path d="M81.1961 3.83315C81.1961 4.42912 81.0092 4.91335 80.6356 5.24859C80.2619 5.58382 79.8135 5.77006 79.2904 5.77006C78.7673 5.77006 78.3189 5.58382 77.9453 5.24859C77.5716 4.91335 77.3848 4.42912 77.3848 3.83315C77.3848 3.23718 77.5716 2.75295 77.9453 2.41772C78.3189 2.08248 78.7673 1.89624 79.2904 1.89624C79.8135 1.89624 80.2619 2.08248 80.6356 2.41772C81.0092 2.75295 81.1961 3.23718 81.1961 3.83315ZM80.8971 18.5835H77.6463V7.14825H80.8971V18.5835Z" fill="#0033A0"/>
<path d="M94.4607 12.8471C94.4607 13.7411 94.3113 14.5605 94.0871 15.3055C93.8255 16.0504 93.4518 16.6837 92.9661 17.2051C92.4803 17.7266 91.8825 18.1364 91.2099 18.4343C90.5373 18.7323 89.7526 18.8813 88.8932 18.8813C88.0338 18.8813 87.2865 18.7323 86.5765 18.4343C85.9039 18.1364 85.3061 17.7266 84.8203 17.2051C84.3346 16.6837 83.9236 16.0504 83.662 15.3055C83.4004 14.5605 83.251 13.7411 83.251 12.8471C83.251 11.9531 83.4004 11.1337 83.662 10.3887C83.9609 9.64374 84.3346 9.01052 84.8203 8.48904C85.3061 7.96756 85.9039 7.55783 86.6139 7.25985C87.2865 6.96186 88.0712 6.81287 88.8558 6.81287C89.6779 6.81287 90.4252 6.96186 91.1352 7.25985C91.8077 7.55783 92.4056 7.96756 92.8914 8.48904C93.3771 9.01052 93.7508 9.64374 94.0497 10.3887C94.3113 11.0964 94.4607 11.9159 94.4607 12.8471ZM91.5088 3.01354L87.9217 6.03065L86.4271 4.68971L89.4911 1.15112L91.5088 3.01354ZM91.1352 12.8471C91.1352 11.8414 90.9483 11.0592 90.5373 10.5004C90.1263 9.94172 89.5658 9.64374 88.8185 9.64374C88.0712 9.64374 87.5107 9.94172 87.0997 10.5004C86.6886 11.0592 86.5018 11.8786 86.5018 12.8471C86.5018 13.8528 86.6886 14.635 87.0997 15.231C87.5107 15.827 88.0712 16.1249 88.8185 16.1249C89.5658 16.1249 90.1263 15.827 90.5373 15.231C90.9483 14.635 91.1352 13.8155 91.1352 12.8471Z" fill="#0033A0"/>
<path d="M96.74 7.52069C97.3005 7.3717 98.0104 7.2227 98.8699 7.07371C99.7293 6.92472 100.663 6.85022 101.598 6.85022C102.569 6.85022 103.391 6.96197 104.026 7.2227C104.662 7.48344 105.185 7.81868 105.558 8.3029C105.932 8.78713 106.194 9.30861 106.38 9.94183C106.53 10.5751 106.605 11.2828 106.605 12.065V18.5462H103.354V12.512C103.354 11.469 103.204 10.724 102.943 10.2771C102.681 9.83008 102.158 9.60659 101.411 9.60659C101.187 9.60659 100.925 9.60659 100.663 9.64384C100.402 9.68109 100.178 9.68109 99.9535 9.71834V18.5462H96.7026V7.52069H96.74Z" fill="#0033A0"/>
<rect x="118.45" y="2.63171" width="0.74031" height="14.8062" fill="#0033A0"/>
</svg>
