<svg width="191" height="19" viewBox="0 0 191 19" fill="none" xmlns="http://www.w3.org/2000/svg">
<path d="M150.935 10.0811V13.734C150.935 14.4456 150.717 15.0386 150.306 15.4656C149.871 15.8925 149.315 16.106 148.589 16.106C147.888 16.106 147.308 15.8925 146.897 15.4656C146.461 15.0386 146.268 14.4456 146.268 13.734V10.0811H142.883V13.5679C142.883 15.2284 143.391 16.5567 144.43 17.5292C145.446 18.5018 146.848 18.9762 148.613 18.9762C150.378 18.9762 151.781 18.5018 152.821 17.5292C153.86 16.5567 154.368 15.2521 154.368 13.5679V10.0811H150.935Z" fill="#0033A0"/>
<path d="M146.316 9.86754V7.2583C146.316 6.54669 146.534 5.95368 146.945 5.52672C147.38 5.09975 147.936 4.88627 148.638 4.88627C149.363 4.88627 149.943 5.09975 150.354 5.52672C150.79 5.95368 150.983 6.54669 150.983 7.2583V9.86754H154.368V7.35318C154.368 5.71648 153.86 4.41186 152.821 3.46305C151.781 2.51424 150.378 2.01611 148.613 2.01611C146.848 2.01611 145.446 2.49052 144.43 3.46305C143.415 4.41186 142.883 5.71648 142.883 7.35318V9.86754H146.316Z" fill="#00AEC7"/>
<path d="M163.169 11.8365C163.024 11.8365 162.903 11.8365 162.807 11.8128C162.71 11.7891 162.637 11.7654 162.589 11.7416C162.541 11.7179 162.492 11.6705 162.468 11.5993C162.444 11.5282 162.42 11.457 162.396 11.3858L162.057 10.2235H159.325L158.986 11.3858C158.962 11.4807 158.938 11.5519 158.914 11.5993C158.89 11.6705 158.841 11.7179 158.793 11.7416C158.745 11.7891 158.672 11.8128 158.575 11.8128C158.479 11.8365 158.358 11.8365 158.213 11.8365H156.955C156.786 11.8365 156.665 11.8128 156.593 11.7654C156.52 11.7179 156.472 11.6468 156.472 11.5282C156.472 11.4807 156.496 11.4095 156.52 11.3147C156.544 11.2198 156.593 11.03 156.689 10.7691C157.1 9.46448 157.487 8.20731 157.85 6.99757C158.213 5.78783 158.599 4.60182 159.011 3.43952C159.083 3.20232 159.204 3.03628 159.349 2.94139C159.494 2.84651 159.736 2.79907 160.026 2.79907H161.332C161.646 2.79907 161.864 2.84651 162.009 2.94139C162.154 3.03628 162.275 3.20232 162.347 3.43952C162.758 4.60182 163.145 5.78783 163.532 6.99757C163.919 8.20731 164.306 9.46448 164.717 10.7691C164.789 11.03 164.838 11.2198 164.886 11.3147C164.91 11.4095 164.934 11.4807 164.934 11.5282C164.934 11.6468 164.886 11.7416 164.814 11.7654C164.741 11.8128 164.62 11.8365 164.451 11.8365H163.169ZM161.67 8.39707L160.8 5.24227H160.631C160.558 5.47947 160.485 5.74039 160.389 6.02504C160.316 6.30968 160.244 6.59432 160.171 6.85525C160.099 7.13989 160.026 7.40082 159.954 7.66174C159.881 7.92266 159.808 8.15987 159.76 8.39707H161.67Z" fill="#00AEC7"/>
<path d="M168.344 7.13982H168.32V11.362C168.32 11.5518 168.296 11.6941 168.223 11.7416C168.15 11.8127 168.03 11.8364 167.836 11.8364H166.627C166.434 11.8364 166.289 11.8127 166.216 11.7416C166.144 11.6704 166.095 11.5518 166.095 11.362V3.2734C166.095 3.08364 166.144 2.96504 166.216 2.89388C166.289 2.82272 166.434 2.799 166.603 2.799H167.232C167.473 2.799 167.643 2.82272 167.788 2.87016C167.933 2.9176 168.054 3.0362 168.15 3.17852L171.318 7.75654H171.342V3.24968C171.342 3.05992 171.391 2.9176 171.463 2.87016C171.536 2.799 171.681 2.77528 171.874 2.77528H173.083C173.277 2.77528 173.397 2.799 173.47 2.87016C173.542 2.94132 173.567 3.05992 173.567 3.24968V11.3858C173.567 11.5755 173.518 11.6941 173.446 11.7653C173.373 11.8364 173.228 11.8602 173.059 11.8602H172.43C172.188 11.8602 172.019 11.8364 171.874 11.789C171.729 11.7416 171.608 11.623 171.511 11.4806L168.344 7.13982ZM167.449 1.68414C167.377 1.6367 167.328 1.58926 167.328 1.5181C167.328 1.47066 167.353 1.3995 167.377 1.32834C167.57 0.877652 167.812 0.545567 168.102 0.332084C168.392 0.118602 168.682 0 168.997 0C169.19 0 169.359 0.0237203 169.505 0.0711609C169.65 0.118602 169.77 0.189763 169.916 0.284644L170.182 0.450686C170.399 0.593008 170.568 0.640449 170.689 0.640449C170.81 0.640449 170.907 0.616728 171.004 0.545567C171.1 0.474406 171.197 0.355805 171.318 0.213483C171.366 0.142322 171.439 0.0948813 171.511 0.0948813C171.56 0.0948813 171.632 0.118602 171.705 0.166042L172.261 0.521847C172.358 0.593008 172.382 0.664169 172.382 0.711609C172.382 0.75905 172.358 0.830211 172.334 0.901372C172.285 0.972533 172.261 1.01997 172.213 1.06741C171.777 1.70786 171.245 2.03995 170.665 2.03995C170.375 2.03995 170.109 1.96879 169.867 1.82646L169.577 1.6367C169.384 1.5181 169.214 1.44694 169.093 1.44694C168.997 1.44694 168.924 1.47066 168.827 1.54182C168.731 1.61298 168.634 1.73158 168.489 1.94507C168.441 2.03995 168.368 2.06367 168.296 2.06367C168.247 2.06367 168.199 2.03995 168.126 2.01623L167.449 1.68414Z" fill="#00AEC7"/>
<path d="M182.972 7.85145C182.972 8.65794 182.876 9.34583 182.706 9.91512C182.537 10.4844 182.223 10.9351 181.763 11.2909C181.473 11.5044 181.135 11.6704 180.699 11.789C180.264 11.9076 179.732 11.9551 179.104 11.9551H178.983C178.354 11.9551 177.822 11.9076 177.387 11.789C176.952 11.6704 176.589 11.5044 176.323 11.2909C175.864 10.9351 175.549 10.4844 175.38 9.91512C175.211 9.34583 175.114 8.65794 175.114 7.85145V6.78403C175.114 5.97754 175.211 5.28965 175.38 4.72037C175.549 4.15108 175.864 3.70039 176.323 3.34459C176.613 3.13111 176.952 2.96506 177.387 2.84646C177.822 2.72786 178.354 2.68042 178.983 2.68042H179.104C179.732 2.68042 180.264 2.72786 180.699 2.84646C181.135 2.96506 181.497 3.13111 181.763 3.34459C182.223 3.70039 182.537 4.15108 182.706 4.72037C182.876 5.28965 182.972 5.97754 182.972 6.78403V7.85145ZM180.506 7.06868C180.506 6.54683 180.482 6.11987 180.433 5.76406C180.385 5.40826 180.264 5.14733 180.095 4.98129C179.974 4.86269 179.853 4.79153 179.708 4.72037C179.563 4.67293 179.37 4.62549 179.152 4.62549H178.959C178.741 4.62549 178.547 4.64921 178.402 4.72037C178.257 4.76781 178.112 4.86269 178.016 4.98129C177.846 5.14733 177.725 5.40826 177.677 5.76406C177.629 6.11987 177.605 6.54683 177.605 7.06868V7.59053C177.605 8.11237 177.629 8.53934 177.677 8.89514C177.725 9.25095 177.846 9.51187 178.016 9.67791C178.136 9.79651 178.257 9.86768 178.402 9.93884C178.547 9.98628 178.741 10.0337 178.959 10.0337H179.152C179.37 10.0337 179.563 10.01 179.708 9.93884C179.853 9.8914 179.998 9.79651 180.095 9.67791C180.264 9.51187 180.385 9.25095 180.433 8.89514C180.482 8.53934 180.506 8.11237 180.506 7.59053V7.06868Z" fill="#00AEC7"/>
<path d="M187.325 11.9788C187.131 11.9788 186.914 11.9788 186.672 11.9551C186.43 11.9313 186.188 11.9076 185.946 11.8602C185.705 11.8127 185.487 11.789 185.269 11.7416C185.052 11.6941 184.858 11.6467 184.689 11.5993C184.496 11.5281 184.375 11.4569 184.326 11.3621C184.278 11.2672 184.254 11.1723 184.278 11.03L184.471 9.8914C184.52 9.60675 184.689 9.51187 184.979 9.60675C185.39 9.74907 185.801 9.84396 186.212 9.93884C186.623 10.01 186.986 10.0574 187.276 10.0574H187.349C187.808 10.0574 188.123 9.98628 188.292 9.86768C188.461 9.74907 188.558 9.53559 188.558 9.25095V9.10863C188.558 8.82398 188.485 8.63422 188.316 8.51562C188.147 8.42074 187.857 8.32585 187.421 8.25469L186.454 8.06493C186.043 7.99377 185.68 7.87517 185.414 7.73285C185.124 7.59053 184.907 7.42448 184.737 7.211C184.568 6.99752 184.447 6.76031 184.375 6.49939C184.302 6.23847 184.278 5.9301 184.278 5.59802V5.21849C184.278 4.43572 184.496 3.84272 184.931 3.43947C185.221 3.17855 185.584 2.98878 186.043 2.87018C186.503 2.75158 187.083 2.68042 187.808 2.68042H187.905C188.34 2.68042 188.775 2.70414 189.235 2.7753C189.694 2.84646 190.057 2.94134 190.347 3.03622C190.492 3.08367 190.589 3.15483 190.637 3.24971C190.686 3.34459 190.661 3.48691 190.613 3.65295L190.371 4.67293C190.323 4.93385 190.129 5.00501 189.839 4.91013C189.501 4.81525 189.186 4.74409 188.896 4.69665C188.582 4.64921 188.268 4.62549 187.953 4.62549H187.857C187.373 4.62549 187.059 4.67293 186.865 4.79153C186.696 4.91013 186.599 5.07617 186.599 5.3371V5.4557C186.599 5.66918 186.672 5.83522 186.793 5.9301C186.914 6.02498 187.18 6.09615 187.542 6.19103L188.63 6.40451C189.041 6.49939 189.404 6.59427 189.694 6.68915C189.984 6.80775 190.226 6.95008 190.395 7.13984C190.565 7.3296 190.71 7.5668 190.782 7.85145C190.855 8.13609 190.903 8.4919 190.903 8.91886V9.25095C190.903 10.176 190.637 10.8639 190.105 11.3146C189.573 11.7653 188.703 11.9788 187.494 11.9788H187.325Z" fill="#00AEC7"/>
<path d="M158.865 18.9763C157.995 18.9763 157.366 18.7865 157.004 18.3833C156.81 18.1935 156.689 17.9563 156.617 17.6717C156.544 17.387 156.496 17.0312 156.496 16.6042V15.5368C156.496 15.1099 156.544 14.7541 156.617 14.4694C156.689 14.1848 156.834 13.9476 157.028 13.7578C157.221 13.5443 157.463 13.402 157.777 13.3071C158.092 13.2122 158.454 13.1648 158.89 13.1648H158.962C159.252 13.1648 159.567 13.1885 159.881 13.2597C160.195 13.3308 160.485 13.4257 160.727 13.5443C160.8 13.568 160.824 13.6155 160.848 13.6629C160.872 13.7104 160.848 13.7815 160.824 13.8527L160.534 14.588C160.51 14.6829 160.437 14.7303 160.389 14.7303C160.34 14.7303 160.268 14.7066 160.219 14.6829C160.026 14.588 159.833 14.5169 159.639 14.4694C159.446 14.422 159.252 14.3983 159.035 14.3983H159.011C158.624 14.3983 158.382 14.4931 158.237 14.7066C158.164 14.8252 158.116 14.9438 158.092 15.1099C158.068 15.2759 158.068 15.4894 158.068 15.7266V16.367C158.068 16.628 158.092 16.8652 158.116 17.0312C158.14 17.1972 158.213 17.3633 158.309 17.4819C158.382 17.5768 158.503 17.6479 158.648 17.6717C158.793 17.6954 158.962 17.7428 159.156 17.7428H159.18C159.349 17.7428 159.518 17.7191 159.736 17.6717C159.954 17.6242 160.123 17.5768 160.292 17.5056C160.316 17.5056 160.34 17.4819 160.365 17.4819C160.389 17.4819 160.413 17.4819 160.437 17.4819C160.461 17.4819 160.51 17.5056 160.534 17.5293C160.558 17.5531 160.582 17.6005 160.606 17.6717L160.751 18.2884C160.776 18.3595 160.776 18.407 160.776 18.4544C160.776 18.5019 160.751 18.5493 160.727 18.5967C160.703 18.6442 160.631 18.6679 160.51 18.7153C160.292 18.7865 160.05 18.8577 159.784 18.9051C159.518 18.9526 159.252 18.9763 158.986 18.9763H158.865Z" fill="#0033A0"/>
<path d="M166.289 16.4144C166.289 16.9126 166.24 17.3633 166.119 17.7191C165.998 18.0749 165.805 18.3595 165.539 18.573C165.37 18.7153 165.152 18.8102 164.886 18.8814C164.62 18.9525 164.282 18.9762 163.895 18.9762H163.822C163.435 18.9762 163.097 18.9525 162.831 18.8814C162.565 18.8102 162.347 18.7153 162.178 18.573C161.888 18.3595 161.694 18.0749 161.598 17.7191C161.477 17.3633 161.428 16.9363 161.428 16.4144V15.7503C161.428 15.2521 161.477 14.8015 161.598 14.4457C161.719 14.0898 161.912 13.8052 162.178 13.5917C162.347 13.4494 162.565 13.3545 162.831 13.2834C163.097 13.2122 163.435 13.1885 163.822 13.1885H163.895C164.282 13.1885 164.62 13.2122 164.886 13.2834C165.152 13.3545 165.37 13.4494 165.539 13.5917C165.829 13.8052 166.023 14.0898 166.119 14.4457C166.24 14.8015 166.289 15.2284 166.289 15.7503V16.4144ZM164.741 15.9163C164.741 15.5842 164.717 15.3233 164.693 15.0861C164.669 14.8726 164.596 14.7066 164.475 14.588C164.403 14.5168 164.33 14.4694 164.233 14.4219C164.137 14.3982 164.016 14.3745 163.895 14.3745H163.774C163.629 14.3745 163.532 14.3982 163.435 14.4219C163.339 14.4457 163.266 14.5168 163.194 14.588C163.097 14.6829 163.024 14.8489 162.976 15.0861C162.952 15.2996 162.928 15.5842 162.928 15.9163V16.2484C162.928 16.5805 162.952 16.8414 162.976 17.0786C163 17.2921 163.073 17.4581 163.194 17.5767C163.266 17.6479 163.339 17.6953 163.435 17.7428C163.532 17.7665 163.653 17.7902 163.774 17.7902H163.895C164.04 17.7902 164.137 17.7665 164.233 17.7428C164.33 17.7191 164.403 17.6479 164.475 17.5767C164.572 17.4819 164.644 17.3158 164.693 17.0786C164.717 16.8651 164.741 16.5805 164.741 16.2484V15.9163Z" fill="#0033A0"/>
<path d="M168.682 15.9639L168.658 18.5968C168.658 18.7154 168.634 18.8103 168.585 18.834C168.537 18.8815 168.465 18.8815 168.344 18.8815H167.594C167.473 18.8815 167.401 18.8578 167.328 18.834C167.28 18.7866 167.256 18.7154 167.256 18.5968V13.5444C167.256 13.4258 167.28 13.3546 167.328 13.3072C167.377 13.2598 167.449 13.2598 167.57 13.2598H167.957C168.102 13.2598 168.223 13.2835 168.295 13.3072C168.368 13.3309 168.465 13.4021 168.537 13.497L170.52 16.3671H170.544V13.5444C170.544 13.4258 170.568 13.3309 170.617 13.3072C170.665 13.2598 170.762 13.2598 170.883 13.2598H171.632C171.753 13.2598 171.826 13.2835 171.874 13.3072C171.922 13.3546 171.946 13.4258 171.946 13.5444V18.5968C171.946 18.7154 171.922 18.7866 171.874 18.834C171.826 18.8815 171.753 18.8815 171.632 18.8815H171.245C171.1 18.8815 170.979 18.8578 170.907 18.834C170.834 18.8103 170.737 18.7392 170.665 18.6443L168.682 15.9639Z" fill="#0033A0"/>
<path d="M172.914 14.4458C172.793 14.4458 172.72 14.4221 172.672 14.3983C172.648 14.3746 172.624 14.3035 172.624 14.1849V13.5207C172.624 13.4021 172.648 13.3309 172.672 13.3072C172.696 13.2835 172.793 13.2598 172.914 13.2598H176.782C176.903 13.2598 176.976 13.2835 177.024 13.3072C177.048 13.3309 177.073 13.4021 177.073 13.5207V14.1849C177.073 14.2797 177.048 14.3509 177.024 14.3983C177 14.4221 176.903 14.4458 176.782 14.4458H175.598V18.6206C175.598 18.7392 175.573 18.8103 175.525 18.834C175.477 18.8815 175.404 18.8815 175.259 18.8815H174.413C174.268 18.8815 174.195 18.8578 174.147 18.834C174.098 18.7866 174.074 18.7154 174.074 18.6206V14.4458H172.914Z" fill="#0033A0"/>
<path d="M179.297 18.6206C179.297 18.7392 179.273 18.8104 179.249 18.8578C179.225 18.8815 179.128 18.9052 178.983 18.9052H178.112C177.967 18.9052 177.895 18.8815 177.846 18.8578C177.798 18.8341 177.798 18.7629 177.798 18.6206V13.5207C177.798 13.4021 177.822 13.331 177.846 13.2835C177.871 13.2598 177.967 13.2361 178.112 13.2361H178.983C179.128 13.2361 179.201 13.2598 179.249 13.2835C179.273 13.3072 179.297 13.3784 179.297 13.5207V18.6206Z" fill="#0033A0"/>
<path d="M180.313 15.5842C180.313 15.1573 180.361 14.8015 180.458 14.4931C180.555 14.1847 180.7 13.9475 180.893 13.7578C181.086 13.568 181.352 13.4257 181.643 13.3308C181.957 13.2359 182.344 13.1885 182.803 13.1885H182.876C183.045 13.1885 183.214 13.1885 183.408 13.2122C183.577 13.2359 183.77 13.2596 183.94 13.3071C184.109 13.3545 184.254 13.3782 184.399 13.4494C184.544 13.4968 184.665 13.5443 184.786 13.6154C184.834 13.6392 184.883 13.6629 184.907 13.7103C184.931 13.7578 184.931 13.7815 184.931 13.8052C184.931 13.8289 184.931 13.8764 184.907 13.9001C184.907 13.9475 184.883 13.995 184.858 14.0661L184.617 14.6591C184.568 14.8015 184.472 14.8489 184.327 14.7777C184.109 14.6591 183.867 14.5643 183.65 14.5168C183.432 14.4694 183.19 14.4219 182.924 14.4219H182.876C182.465 14.4219 182.199 14.5405 182.029 14.754C181.957 14.8726 181.909 14.9912 181.86 15.1573C181.836 15.3233 181.812 15.5368 181.812 15.7977V16.4619C181.812 16.7702 181.836 16.9837 181.86 17.1735C181.884 17.3395 181.957 17.4819 182.054 17.5767C182.126 17.6479 182.223 17.7191 182.344 17.7428C182.465 17.7665 182.61 17.7902 182.803 17.7902H182.852C182.924 17.7902 183.021 17.7902 183.093 17.7902C183.166 17.7902 183.238 17.7665 183.287 17.7665C183.359 17.7665 183.408 17.7428 183.432 17.6953C183.456 17.6479 183.456 17.6242 183.456 17.553V16.7465H183.021C182.924 16.7465 182.852 16.7228 182.803 16.6991C182.779 16.6754 182.755 16.6042 182.755 16.5093V15.8926C182.755 15.774 182.779 15.7028 182.803 15.6791C182.827 15.6554 182.9 15.6317 183.021 15.6317H184.713C184.81 15.6317 184.883 15.6554 184.931 15.7028C184.979 15.7503 184.979 15.8214 184.979 15.9163V18.2646C184.979 18.3832 184.955 18.4544 184.931 18.5255C184.883 18.5967 184.81 18.6441 184.713 18.6679C184.593 18.7153 184.447 18.7627 184.302 18.8102C184.157 18.8576 183.988 18.8813 183.819 18.9051C183.65 18.9288 183.504 18.9525 183.335 18.9762C183.166 19 183.021 19 182.9 19H182.779C182.295 19 181.909 18.9525 181.594 18.8813C181.28 18.8102 181.038 18.6679 180.845 18.4781C180.651 18.2883 180.506 18.0274 180.434 17.7428C180.361 17.4344 180.313 17.0549 180.313 16.6042V15.5842Z" fill="#0033A0"/>
<path d="M190.758 16.4144C190.758 16.9126 190.71 17.3633 190.589 17.7191C190.468 18.0749 190.275 18.3595 190.009 18.573C189.839 18.7153 189.622 18.8102 189.356 18.8814C189.09 18.9525 188.751 18.9762 188.365 18.9762H188.292C187.905 18.9762 187.567 18.9525 187.301 18.8814C187.035 18.8102 186.817 18.7153 186.648 18.573C186.358 18.3595 186.164 18.0749 186.067 17.7191C185.947 17.3633 185.898 16.9363 185.898 16.4144V15.7503C185.898 15.2521 185.947 14.8015 186.067 14.4457C186.188 14.0898 186.382 13.8052 186.648 13.5917C186.817 13.4494 187.035 13.3545 187.301 13.2834C187.567 13.2122 187.905 13.1885 188.292 13.1885H188.365C188.751 13.1885 189.09 13.2122 189.356 13.2834C189.622 13.3545 189.839 13.4494 190.009 13.5917C190.299 13.8052 190.492 14.0898 190.589 14.4457C190.71 14.8015 190.758 15.2284 190.758 15.7503V16.4144ZM189.235 15.9163C189.235 15.5842 189.211 15.3233 189.187 15.0861C189.162 14.8726 189.09 14.7066 188.969 14.588C188.896 14.5168 188.824 14.4694 188.727 14.4219C188.63 14.3982 188.51 14.3745 188.389 14.3745H188.268C188.123 14.3745 188.026 14.3982 187.929 14.4219C187.833 14.4457 187.76 14.5168 187.687 14.588C187.591 14.6829 187.518 14.8489 187.47 15.0861C187.446 15.2996 187.422 15.5842 187.422 15.9163V16.2484C187.422 16.5805 187.446 16.8414 187.47 17.0786C187.494 17.2921 187.567 17.4581 187.687 17.5767C187.76 17.6479 187.833 17.6953 187.929 17.7428C188.026 17.7665 188.147 17.7902 188.268 17.7902H188.389C188.534 17.7902 188.63 17.7665 188.727 17.7428C188.824 17.7191 188.896 17.6479 188.969 17.5767C189.066 17.4819 189.138 17.3158 189.187 17.0786C189.211 16.8651 189.235 16.5805 189.235 16.2484V15.9163Z" fill="#0033A0"/>
<path d="M142.012 13.4968C142.012 14.327 141.867 15.1098 141.577 15.8214C141.19 16.8177 140.562 17.5767 139.667 18.146C138.772 18.6916 137.733 18.9762 136.499 18.9762C135.291 18.9762 134.251 18.6916 133.332 18.0986C132.413 17.5056 131.784 16.7228 131.373 15.7028C131.204 15.0861 131.059 14.4456 131.035 13.7578C131.035 13.568 131.132 13.4731 131.325 13.4731H134.13C134.323 13.4731 134.42 13.568 134.42 13.7578C134.493 14.2796 134.565 14.6591 134.686 14.8963C134.831 15.2996 135.049 15.6079 135.387 15.8451C135.702 16.0586 136.088 16.1772 136.524 16.1772C137.418 16.1772 138.023 15.7977 138.337 15.0387C138.555 14.5642 138.676 14.0424 138.676 13.402C138.676 12.6666 138.555 12.0736 138.313 11.6229C137.95 10.8876 137.346 10.5318 136.499 10.5318C136.33 10.5318 136.137 10.5792 135.943 10.6741C135.75 10.769 135.532 10.9113 135.266 11.1011C135.194 11.1485 135.145 11.1722 135.073 11.1722C134.976 11.1722 134.904 11.1248 134.855 11.0299L133.453 9.10857C133.429 9.06113 133.405 9.01369 133.405 8.94253C133.405 8.84765 133.429 8.77649 133.501 8.70533L137.273 5.47937C137.297 5.45565 137.322 5.40821 137.297 5.38449C137.297 5.36076 137.273 5.33704 137.225 5.33704H131.664C131.591 5.33704 131.519 5.31332 131.47 5.26588C131.422 5.21844 131.398 5.14728 131.398 5.07612V2.82269C131.398 2.75153 131.422 2.68037 131.47 2.63293C131.519 2.58549 131.591 2.56177 131.664 2.56177H141.529C141.601 2.56177 141.674 2.58549 141.722 2.63293C141.771 2.68037 141.795 2.75153 141.795 2.82269V5.38449C141.795 5.50309 141.746 5.62169 141.626 5.74029L138.531 8.49185C138.506 8.51557 138.482 8.56301 138.506 8.58673C138.506 8.61045 138.555 8.63417 138.603 8.63417C139.981 8.89509 140.949 9.70158 141.529 11.0299C141.867 11.7415 142.012 12.5717 142.012 13.4968Z" fill="#00AEC7"/>
<path d="M4.52126 2.86328C6.76321 2.86328 8.48204 3.26773 9.71511 4.03987C10.9108 4.812 11.5087 6.09889 11.5087 7.86377C11.5087 9.66541 10.9108 10.9523 9.67774 11.7612C8.44467 12.5701 6.72585 12.9378 4.44653 12.9378H3.40029V17.9383H0V3.26773C0.747316 3.12066 1.532 3.01035 2.35405 2.97359C3.17609 2.90005 3.88604 2.86328 4.52126 2.86328ZM4.74546 5.73121C4.4839 5.73121 4.2597 5.73121 3.99814 5.76797C3.77395 5.76797 3.54975 5.80474 3.36292 5.80474V10.1066H4.44653C5.60487 10.1066 6.50165 9.95956 7.0995 9.62864C7.69736 9.29773 7.99628 8.70944 7.99628 7.86377C7.99628 7.45931 7.92155 7.09163 7.77209 6.83425C7.62262 6.57688 7.39843 6.35627 7.13687 6.17243C6.83794 6.02535 6.50165 5.87828 6.09063 5.84151C5.6796 5.76797 5.23121 5.73121 4.74546 5.73121Z" fill="#0033A0"/>
<path d="M20.4766 9.4817C20.1777 9.40816 19.8414 9.33462 19.4678 9.26109C19.0941 9.18755 18.6457 9.15078 18.1973 9.15078C18.0105 9.15078 17.7489 9.15078 17.45 9.18755C17.1511 9.22432 16.9643 9.26109 16.8148 9.29786V17.9384H13.564V7.23883C14.1618 7.05499 14.8344 6.83438 15.6191 6.68731C16.4038 6.50347 17.3005 6.42993 18.2721 6.42993C18.4589 6.42993 18.6457 6.42993 18.9073 6.4667C19.1688 6.50347 19.393 6.50347 19.6546 6.54024C19.9162 6.577 20.1403 6.61377 20.4019 6.65054C20.6635 6.68731 20.8503 6.76085 21.0371 6.83438L20.4766 9.4817Z" fill="#0033A0"/>
<path d="M33.0689 12.276C33.0689 13.1585 32.9194 13.9674 32.6579 14.7027C32.3963 15.4381 32.0227 16.0632 31.5369 16.5779C31.0511 17.0927 30.4533 17.4971 29.7807 17.7913C29.1081 18.0854 28.3234 18.2325 27.464 18.2325C26.6046 18.2325 25.8573 18.0854 25.1473 17.7913C24.4748 17.4971 23.8769 17.0927 23.3538 16.5779C22.868 16.0632 22.457 15.4381 22.1954 14.7027C21.9339 13.9674 21.7844 13.1585 21.7844 12.276C21.7844 11.3936 21.9339 10.5847 22.1954 9.84933C22.4944 9.11397 22.868 8.48891 23.3538 7.97415C23.8395 7.4594 24.4374 7.05494 25.1473 6.7608C25.8199 6.46665 26.6046 6.31958 27.3893 6.31958C28.2113 6.31958 28.9587 6.46665 29.6686 6.7608C30.3412 7.05494 30.939 7.4594 31.4622 7.97415C31.9479 8.48891 32.3589 9.11397 32.6205 9.84933C32.9194 10.5479 33.0689 11.3568 33.0689 12.276ZM29.7433 12.276C29.7433 11.2833 29.5565 10.5112 29.1455 9.95964C28.7345 9.40811 28.174 9.11397 27.4267 9.11397C26.6793 9.11397 26.1189 9.40811 25.7078 9.95964C25.2968 10.5112 25.11 11.3201 25.11 12.276C25.11 13.2688 25.2968 14.0409 25.7078 14.6292C26.1189 15.2175 26.6793 15.5116 27.4267 15.5116C28.174 15.5116 28.7345 15.2175 29.1455 14.6292C29.5565 14.0409 29.7433 13.232 29.7433 12.276Z" fill="#0033A0"/>
<path d="M35.2358 3.8192L38.4867 3.30444V6.65036H42.3727V9.29767H38.4867V13.2686C38.4867 13.9305 38.5988 14.482 38.8603 14.8864C39.0845 15.2909 39.5703 15.4747 40.3176 15.4747C40.6539 15.4747 41.0275 15.438 41.4012 15.3644C41.7749 15.2909 42.1111 15.2174 42.4101 15.1071L42.8585 17.6073C42.4474 17.7544 42.0364 17.9014 41.5507 18.0118C41.0649 18.1221 40.4671 18.1956 39.7945 18.1956C38.8977 18.1956 38.1877 18.0853 37.5899 17.8279C36.992 17.6073 36.5436 17.2764 36.2074 16.8352C35.8711 16.3939 35.6095 15.916 35.46 15.2909C35.3106 14.7026 35.2358 14.004 35.2358 13.3054V3.8192Z" fill="#0033A0"/>
<path d="M43.8301 12.3863C43.8301 11.3936 43.9795 10.5112 44.3158 9.73903C44.6148 9.00366 45.0258 8.3786 45.5489 7.86385C46.072 7.34909 46.6325 6.98141 47.3051 6.72403C47.9777 6.46665 48.6503 6.31958 49.3229 6.31958C50.9669 6.31958 52.2374 6.79757 53.1715 7.79031C54.1057 8.78305 54.5914 10.217 54.5914 12.129C54.5914 12.3128 54.5914 12.5334 54.5541 12.754C54.5541 12.9746 54.5167 13.1585 54.5167 13.3423H47.1556C47.2304 14.0041 47.5293 14.5189 48.0898 14.9234C48.6503 15.3278 49.3976 15.5116 50.2944 15.5116C50.8922 15.5116 51.4901 15.4749 52.0506 15.3646C52.611 15.2543 53.0968 15.1072 53.4705 14.9601L53.9188 17.5707C53.732 17.6442 53.5078 17.7545 53.2089 17.828C52.91 17.9016 52.611 17.9751 52.2374 18.0487C51.8637 18.1222 51.4901 18.159 51.079 18.1957C50.668 18.2325 50.257 18.2693 49.846 18.2693C48.7997 18.2693 47.9029 18.1222 47.1556 17.828C46.4083 17.5339 45.7731 17.1294 45.25 16.5779C44.7642 16.0632 44.3906 15.4381 44.129 14.7027C43.9422 13.9674 43.8301 13.1952 43.8301 12.3863ZM51.4527 11.1362C51.4527 10.8788 51.378 10.5847 51.3032 10.3273C51.2285 10.0699 51.1164 9.84933 50.9296 9.62872C50.7801 9.44488 50.5559 9.26104 50.2944 9.15074C50.0328 9.00366 49.7339 8.96689 49.3602 8.96689C48.9866 8.96689 48.6876 9.04043 48.4261 9.15074C48.1645 9.26104 47.9403 9.44488 47.7909 9.62872C47.604 9.81257 47.4919 10.0699 47.3798 10.3273C47.2677 10.5847 47.2304 10.8788 47.1556 11.1362H51.4527Z" fill="#0033A0"/>
<path d="M56.3103 12.276C56.3103 11.4671 56.4598 10.695 56.7213 9.95964C56.9829 9.22427 57.3939 8.59921 57.8797 8.08446C58.4028 7.53293 59.0006 7.12848 59.748 6.79757C60.4579 6.46665 61.3173 6.31958 62.2141 6.31958C62.812 6.31958 63.3724 6.35635 63.8956 6.46665C64.4187 6.57696 64.9044 6.72403 65.3902 6.94464L64.7176 9.51842C64.4187 9.40811 64.0824 9.29781 63.7087 9.22427C63.3351 9.15074 62.9241 9.0772 62.4757 9.0772C61.5042 9.0772 60.7942 9.37135 60.3458 9.95964C59.8601 10.5479 59.6359 11.3201 59.6359 12.276C59.6359 13.3055 59.8601 14.0777 60.3084 14.6292C60.7568 15.1807 61.5415 15.4749 62.6251 15.4749C62.9988 15.4749 63.4472 15.4381 63.8956 15.3646C64.344 15.291 64.755 15.1807 65.1286 15.0337L65.577 17.6442C65.2034 17.7913 64.7176 17.9384 64.1571 18.0487C63.5966 18.159 62.9614 18.2325 62.2888 18.2325C61.2426 18.2325 60.3458 18.0854 59.5985 17.7545C58.8512 17.4604 58.216 17.0191 57.7302 16.5044C57.2444 15.9896 56.8708 15.3646 56.6466 14.6292C56.4224 13.8938 56.3103 13.1217 56.3103 12.276Z" fill="#0033A0"/>
<path d="M66.4363 12.276C66.4363 11.4671 66.5857 10.695 66.8473 9.95964C67.1089 9.22427 67.5199 8.59921 68.0056 8.08446C68.5288 7.53293 69.1266 7.12848 69.8739 6.79757C70.5839 6.46665 71.4433 6.31958 72.3401 6.31958C72.9379 6.31958 73.4984 6.35635 74.0215 6.46665C74.5447 6.57696 75.0304 6.72403 75.5162 6.94464L74.8436 9.51842C74.5447 9.40811 74.2084 9.29781 73.8347 9.22427C73.4611 9.15074 73.05 9.0772 72.6016 9.0772C71.6301 9.0772 70.9202 9.37135 70.4718 9.95964C69.986 10.5479 69.7618 11.3201 69.7618 12.276C69.7618 13.3055 69.986 14.0777 70.4344 14.6292C70.8828 15.1807 71.6675 15.4749 72.7511 15.4749C73.1621 15.4749 73.5732 15.4381 74.0215 15.3646C74.4699 15.291 74.8809 15.1807 75.2546 15.0337L75.703 17.6442C75.3293 17.7913 74.8436 17.9384 74.2831 18.0487C73.7226 18.159 73.0874 18.2325 72.4148 18.2325C71.3686 18.2325 70.4718 18.0854 69.7245 17.7545C68.9772 17.4604 68.3419 17.0191 67.8562 16.5044C67.3704 15.9896 66.9968 15.3646 66.7726 14.6292C66.5484 13.8938 66.4363 13.1217 66.4363 12.276Z" fill="#0033A0"/>
<path d="M81.1961 3.37826C81.1961 3.96655 81.0092 4.44454 80.6356 4.77545C80.2619 5.10637 79.8135 5.29021 79.2904 5.29021C78.7673 5.29021 78.3189 5.10637 77.9453 4.77545C77.5716 4.44454 77.3848 3.96655 77.3848 3.37826C77.3848 2.78997 77.5716 2.31198 77.9453 1.98106C78.3189 1.65015 78.7673 1.46631 79.2904 1.46631C79.8135 1.46631 80.2619 1.65015 80.6356 1.98106C81.0092 2.31198 81.1961 2.78997 81.1961 3.37826ZM80.8971 17.9385H77.6463V6.65063H80.8971V17.9385Z" fill="#0033A0"/>
<path d="M94.4607 12.2759C94.4607 13.1584 94.3113 13.9673 94.0871 14.7027C93.8255 15.438 93.4518 16.0631 92.9661 16.5778C92.4803 17.0926 91.8825 17.497 91.2099 17.7912C90.5373 18.0853 89.7526 18.2324 88.8932 18.2324C88.0338 18.2324 87.2865 18.0853 86.5765 17.7912C85.9039 17.497 85.3061 17.0926 84.8203 16.5778C84.3346 16.0631 83.9236 15.438 83.662 14.7027C83.4004 13.9673 83.251 13.1584 83.251 12.2759C83.251 11.3935 83.4004 10.5846 83.662 9.84924C83.9609 9.11388 84.3346 8.48882 84.8203 7.97406C85.3061 7.45931 85.9039 7.05485 86.6139 6.76071C87.2865 6.46656 88.0712 6.31949 88.8558 6.31949C89.6779 6.31949 90.4252 6.46656 91.1352 6.76071C91.8077 7.05485 92.4056 7.45931 92.8914 7.97406C93.3771 8.48882 93.7508 9.11388 94.0497 9.84924C94.3113 10.5478 94.4607 11.3567 94.4607 12.2759ZM91.5088 2.56913L87.9217 5.54736L86.4271 4.2237L89.4911 0.730713L91.5088 2.56913ZM91.1352 12.2759C91.1352 11.2832 90.9483 10.5111 90.5373 9.95955C90.1263 9.40802 89.5658 9.11388 88.8185 9.11388C88.0712 9.11388 87.5107 9.40802 87.0997 9.95955C86.6886 10.5111 86.5018 11.32 86.5018 12.2759C86.5018 13.2687 86.6886 14.0408 87.0997 14.6291C87.5107 15.2174 88.0712 15.5116 88.8185 15.5116C89.5658 15.5116 90.1263 15.2174 90.5373 14.6291C90.9483 14.0408 91.1352 13.2319 91.1352 12.2759Z" fill="#0033A0"/>
<path d="M96.74 7.01827C97.3005 6.8712 98.0104 6.72413 98.8699 6.57706C99.7293 6.42998 100.663 6.35645 101.598 6.35645C102.569 6.35645 103.391 6.46675 104.026 6.72413C104.662 6.98151 105.185 7.31242 105.558 7.79041C105.932 8.2684 106.194 8.78315 106.38 9.40821C106.53 10.0333 106.605 10.7319 106.605 11.504V17.9017H103.354V11.9452C103.354 10.9157 103.204 10.1803 102.943 9.73913C102.681 9.29791 102.158 9.0773 101.411 9.0773C101.187 9.0773 100.925 9.0773 100.663 9.11407C100.402 9.15083 100.178 9.15083 99.9535 9.1876V17.9017H96.7026V7.01827H96.74Z" fill="#0033A0"/>
<rect x="118.45" y="2.19238" width="0.74031" height="14.6154" fill="#0033A0"/>
</svg>
