<svg width="191" height="19" viewBox="0 0 191 19" fill="none" xmlns="http://www.w3.org/2000/svg">
<path d="M150.935 10.0811V13.734C150.935 14.4456 150.717 15.0386 150.306 15.4656C149.871 15.8925 149.315 16.106 148.589 16.106C147.888 16.106 147.308 15.8925 146.897 15.4656C146.461 15.0386 146.268 14.4456 146.268 13.734V10.0811H142.883V13.5679C142.883 15.2284 143.391 16.5567 144.43 17.5292C145.446 18.5018 146.848 18.9762 148.613 18.9762C150.378 18.9762 151.781 18.5018 152.821 17.5292C153.86 16.5567 154.368 15.2521 154.368 13.5679V10.0811H150.935Z" fill="white"/>
<path d="M146.316 9.86754V7.2583C146.316 6.54669 146.534 5.95368 146.945 5.52672C147.38 5.09975 147.936 4.88627 148.638 4.88627C149.363 4.88627 149.943 5.09975 150.354 5.52672C150.79 5.95368 150.983 6.54669 150.983 7.2583V9.86754H154.368V7.35318C154.368 5.71648 153.86 4.41186 152.821 3.46305C151.781 2.51424 150.378 2.01611 148.613 2.01611C146.848 2.01611 145.446 2.49052 144.43 3.46305C143.415 4.41186 142.883 5.71648 142.883 7.35318V9.86754H146.316Z" fill="#00AEC7"/>
<path d="M163.169 11.8363C163.024 11.8363 162.903 11.8363 162.807 11.8126C162.71 11.7888 162.637 11.7651 162.589 11.7414C162.541 11.7177 162.492 11.6702 162.468 11.5991C162.444 11.5279 162.42 11.4567 162.396 11.3856L162.057 10.2233H159.325L158.986 11.3856C158.962 11.4805 158.938 11.5516 158.914 11.5991C158.89 11.6702 158.841 11.7177 158.793 11.7414C158.745 11.7888 158.672 11.8126 158.575 11.8126C158.479 11.8363 158.358 11.8363 158.213 11.8363H156.955C156.786 11.8363 156.665 11.8126 156.593 11.7651C156.52 11.7177 156.472 11.6465 156.472 11.5279C156.472 11.4805 156.496 11.4093 156.52 11.3144C156.544 11.2195 156.593 11.0298 156.689 10.7689C157.1 9.46424 157.487 8.20706 157.85 6.99733C158.213 5.78759 158.599 4.60157 159.011 3.43928C159.083 3.20207 159.204 3.03603 159.349 2.94115C159.494 2.84627 159.736 2.79883 160.026 2.79883H161.332C161.646 2.79883 161.864 2.84627 162.009 2.94115C162.154 3.03603 162.275 3.20207 162.347 3.43928C162.758 4.60157 163.145 5.78759 163.532 6.99733C163.919 8.20706 164.306 9.46424 164.717 10.7689C164.789 11.0298 164.838 11.2195 164.886 11.3144C164.91 11.4093 164.934 11.4805 164.934 11.5279C164.934 11.6465 164.886 11.7414 164.814 11.7651C164.741 11.8126 164.62 11.8363 164.451 11.8363H163.169ZM161.67 8.39682L160.8 5.24202H160.631C160.558 5.47922 160.485 5.74015 160.389 6.02479C160.316 6.30944 160.244 6.59408 160.171 6.855C160.099 7.13965 160.026 7.40057 159.954 7.66149C159.881 7.92242 159.808 8.15962 159.76 8.39682H161.67Z" fill="#00AEC7"/>
<path d="M168.344 7.13982H168.32V11.362C168.32 11.5518 168.296 11.6941 168.223 11.7416C168.15 11.8127 168.03 11.8364 167.836 11.8364H166.627C166.434 11.8364 166.289 11.8127 166.216 11.7416C166.144 11.6704 166.095 11.5518 166.095 11.362V3.2734C166.095 3.08364 166.144 2.96504 166.216 2.89388C166.289 2.82272 166.434 2.799 166.603 2.799H167.232C167.473 2.799 167.643 2.82272 167.788 2.87016C167.933 2.9176 168.054 3.0362 168.15 3.17852L171.318 7.75654H171.342V3.24968C171.342 3.05992 171.391 2.9176 171.463 2.87016C171.536 2.799 171.681 2.77528 171.874 2.77528H173.083C173.277 2.77528 173.397 2.799 173.47 2.87016C173.542 2.94132 173.567 3.05992 173.567 3.24968V11.3858C173.567 11.5755 173.518 11.6941 173.446 11.7653C173.373 11.8364 173.228 11.8602 173.059 11.8602H172.43C172.188 11.8602 172.019 11.8364 171.874 11.789C171.729 11.7416 171.608 11.623 171.511 11.4806L168.344 7.13982ZM167.449 1.68414C167.377 1.6367 167.328 1.58926 167.328 1.5181C167.328 1.47066 167.353 1.3995 167.377 1.32834C167.57 0.877652 167.812 0.545567 168.102 0.332084C168.392 0.118602 168.682 0 168.997 0C169.19 0 169.359 0.0237203 169.505 0.0711609C169.65 0.118602 169.77 0.189763 169.916 0.284644L170.182 0.450686C170.399 0.593008 170.568 0.640449 170.689 0.640449C170.81 0.640449 170.907 0.616728 171.004 0.545567C171.1 0.474406 171.197 0.355805 171.318 0.213483C171.366 0.142322 171.439 0.0948813 171.511 0.0948813C171.56 0.0948813 171.632 0.118602 171.705 0.166042L172.261 0.521847C172.358 0.593008 172.382 0.664169 172.382 0.711609C172.382 0.75905 172.358 0.830211 172.334 0.901372C172.285 0.972533 172.261 1.01997 172.213 1.06741C171.777 1.70786 171.245 2.03995 170.665 2.03995C170.375 2.03995 170.109 1.96879 169.867 1.82646L169.577 1.6367C169.384 1.5181 169.214 1.44694 169.093 1.44694C168.997 1.44694 168.924 1.47066 168.827 1.54182C168.731 1.61298 168.634 1.73158 168.489 1.94507C168.441 2.03995 168.368 2.06367 168.296 2.06367C168.247 2.06367 168.199 2.03995 168.126 2.01623L167.449 1.68414Z" fill="#00AEC7"/>
<path d="M182.972 7.85169C182.972 8.65818 182.876 9.34607 182.706 9.91536C182.537 10.4846 182.223 10.9353 181.763 11.2911C181.473 11.5046 181.135 11.6707 180.699 11.7893C180.264 11.9079 179.732 11.9553 179.104 11.9553H178.983C178.354 11.9553 177.822 11.9079 177.387 11.7893C176.952 11.6707 176.589 11.5046 176.323 11.2911C175.864 10.9353 175.549 10.4846 175.38 9.91536C175.211 9.34607 175.114 8.65818 175.114 7.85169V6.78428C175.114 5.97779 175.211 5.2899 175.38 4.72061C175.549 4.15132 175.864 3.70064 176.323 3.34483C176.613 3.13135 176.952 2.96531 177.387 2.84671C177.822 2.7281 178.354 2.68066 178.983 2.68066H179.104C179.732 2.68066 180.264 2.7281 180.699 2.84671C181.135 2.96531 181.497 3.13135 181.763 3.34483C182.223 3.70064 182.537 4.15132 182.706 4.72061C182.876 5.2899 182.972 5.97779 182.972 6.78428V7.85169ZM180.506 7.06892C180.506 6.54708 180.482 6.12011 180.433 5.7643C180.385 5.4085 180.264 5.14758 180.095 4.98153C179.974 4.86293 179.853 4.79177 179.708 4.72061C179.563 4.67317 179.37 4.62573 179.152 4.62573H178.959C178.741 4.62573 178.547 4.64945 178.402 4.72061C178.257 4.76805 178.112 4.86293 178.016 4.98153C177.846 5.14758 177.725 5.4085 177.677 5.7643C177.629 6.12011 177.605 6.54708 177.605 7.06892V7.59077C177.605 8.11262 177.629 8.53958 177.677 8.89539C177.725 9.25119 177.846 9.51211 178.016 9.67816C178.136 9.79676 178.257 9.86792 178.402 9.93908C178.547 9.98652 178.741 10.034 178.959 10.034H179.152C179.37 10.034 179.563 10.0102 179.708 9.93908C179.853 9.89164 179.998 9.79676 180.095 9.67816C180.264 9.51211 180.385 9.25119 180.433 8.89539C180.482 8.53958 180.506 8.11262 180.506 7.59077V7.06892Z" fill="#00AEC7"/>
<path d="M187.325 11.979C187.131 11.979 186.914 11.979 186.672 11.9553C186.43 11.9316 186.188 11.9079 185.946 11.8604C185.705 11.813 185.487 11.7893 185.269 11.7418C185.052 11.6944 184.858 11.6469 184.689 11.5995C184.496 11.5283 184.375 11.4572 184.326 11.3623C184.278 11.2674 184.254 11.1725 184.278 11.0302L184.471 9.89164C184.52 9.607 184.689 9.51212 184.979 9.607C185.39 9.74932 185.801 9.8442 186.212 9.93908C186.623 10.0102 186.986 10.0577 187.276 10.0577H187.349C187.808 10.0577 188.123 9.98652 188.292 9.86792C188.461 9.74932 188.558 9.53584 188.558 9.25119V9.10887C188.558 8.82423 188.485 8.63446 188.316 8.51586C188.147 8.42098 187.857 8.3261 187.421 8.25494L186.454 8.06518C186.043 7.99401 185.68 7.87541 185.414 7.73309C185.124 7.59077 184.907 7.42473 184.737 7.21124C184.568 6.99776 184.447 6.76056 184.375 6.49963C184.302 6.23871 184.278 5.93035 184.278 5.59826V5.21874C184.278 4.43597 184.496 3.84296 184.931 3.43971C185.221 3.17879 185.584 2.98903 186.043 2.87043C186.503 2.75183 187.083 2.68066 187.808 2.68066H187.905C188.34 2.68066 188.775 2.70438 189.235 2.77555C189.694 2.84671 190.057 2.94159 190.347 3.03647C190.492 3.08391 190.589 3.15507 190.637 3.24995C190.686 3.34483 190.661 3.48715 190.613 3.6532L190.371 4.67317C190.323 4.93409 190.129 5.00525 189.839 4.91037C189.501 4.81549 189.186 4.74433 188.896 4.69689C188.582 4.64945 188.268 4.62573 187.953 4.62573H187.857C187.373 4.62573 187.059 4.67317 186.865 4.79177C186.696 4.91037 186.599 5.07642 186.599 5.33734V5.45594C186.599 5.66942 186.672 5.83547 186.793 5.93035C186.914 6.02523 187.18 6.09639 187.542 6.19127L188.63 6.40475C189.041 6.49963 189.404 6.59452 189.694 6.6894C189.984 6.808 190.226 6.95032 190.395 7.14008C190.565 7.32985 190.71 7.56705 190.782 7.85169C190.855 8.13634 190.903 8.49214 190.903 8.91911V9.25119C190.903 10.1763 190.637 10.8642 190.105 11.3149C189.573 11.7655 188.703 11.979 187.494 11.979H187.325Z" fill="#00AEC7"/>
<path d="M158.865 18.9765C157.995 18.9765 157.366 18.7868 157.004 18.3835C156.81 18.1937 156.689 17.9565 156.617 17.6719C156.544 17.3873 156.496 17.0315 156.496 16.6045V15.5371C156.496 15.1101 156.544 14.7543 156.617 14.4697C156.689 14.185 156.834 13.9478 157.028 13.758C157.221 13.5446 157.463 13.4022 157.777 13.3074C158.092 13.2125 158.454 13.165 158.89 13.165H158.962C159.252 13.165 159.567 13.1888 159.881 13.2599C160.195 13.3311 160.485 13.426 160.727 13.5446C160.8 13.5683 160.824 13.6157 160.848 13.6632C160.872 13.7106 160.848 13.7818 160.824 13.8529L160.534 14.5883C160.51 14.6831 160.437 14.7306 160.389 14.7306C160.34 14.7306 160.268 14.7069 160.219 14.6831C160.026 14.5883 159.833 14.5171 159.639 14.4697C159.446 14.4222 159.252 14.3985 159.035 14.3985H159.011C158.624 14.3985 158.382 14.4934 158.237 14.7069C158.164 14.8255 158.116 14.9441 158.092 15.1101C158.068 15.2761 158.068 15.4896 158.068 15.7268V16.3673C158.068 16.6282 158.092 16.8654 158.116 17.0315C158.14 17.1975 158.213 17.3635 158.309 17.4821C158.382 17.577 158.503 17.6482 158.648 17.6719C158.793 17.6956 158.962 17.7431 159.156 17.7431H159.18C159.349 17.7431 159.518 17.7193 159.736 17.6719C159.954 17.6245 160.123 17.577 160.292 17.5059C160.316 17.5059 160.34 17.4821 160.365 17.4821C160.389 17.4821 160.413 17.4821 160.437 17.4821C160.461 17.4821 160.51 17.5059 160.534 17.5296C160.558 17.5533 160.582 17.6007 160.606 17.6719L160.751 18.2886C160.776 18.3598 160.776 18.4072 160.776 18.4547C160.776 18.5021 160.751 18.5496 160.727 18.597C160.703 18.6444 160.631 18.6682 160.51 18.7156C160.292 18.7868 160.05 18.8579 159.784 18.9054C159.518 18.9528 159.252 18.9765 158.986 18.9765H158.865Z" fill="white"/>
<path d="M166.289 16.4149C166.289 16.9131 166.24 17.3637 166.119 17.7195C165.998 18.0753 165.805 18.36 165.539 18.5735C165.37 18.7158 165.152 18.8107 164.886 18.8818C164.62 18.953 164.282 18.9767 163.895 18.9767H163.822C163.435 18.9767 163.097 18.953 162.831 18.8818C162.565 18.8107 162.347 18.7158 162.178 18.5735C161.888 18.36 161.694 18.0753 161.598 17.7195C161.477 17.3637 161.428 16.9368 161.428 16.4149V15.7508C161.428 15.2526 161.477 14.8019 161.598 14.4461C161.719 14.0903 161.912 13.8057 162.178 13.5922C162.347 13.4499 162.565 13.355 162.831 13.2838C163.097 13.2127 163.435 13.189 163.822 13.189H163.895C164.282 13.189 164.62 13.2127 164.886 13.2838C165.152 13.355 165.37 13.4499 165.539 13.5922C165.829 13.8057 166.023 14.0903 166.119 14.4461C166.24 14.8019 166.289 15.2289 166.289 15.7508V16.4149ZM164.741 15.9168C164.741 15.5847 164.717 15.3238 164.693 15.0866C164.669 14.8731 164.596 14.7071 164.475 14.5885C164.403 14.5173 164.33 14.4699 164.233 14.4224C164.137 14.3987 164.016 14.375 163.895 14.375H163.774C163.629 14.375 163.532 14.3987 163.435 14.4224C163.339 14.4461 163.266 14.5173 163.194 14.5885C163.097 14.6833 163.024 14.8494 162.976 15.0866C162.952 15.3001 162.928 15.5847 162.928 15.9168V16.2489C162.928 16.581 162.952 16.8419 162.976 17.0791C163 17.2926 163.073 17.4586 163.194 17.5772C163.266 17.6484 163.339 17.6958 163.435 17.7433C163.532 17.767 163.653 17.7907 163.774 17.7907H163.895C164.04 17.7907 164.137 17.767 164.233 17.7433C164.33 17.7195 164.403 17.6484 164.475 17.5772C164.572 17.4823 164.644 17.3163 164.693 17.0791C164.717 16.8656 164.741 16.581 164.741 16.2489V15.9168Z" fill="white"/>
<path d="M168.682 15.9644L168.658 18.5973C168.658 18.7159 168.634 18.8108 168.585 18.8345C168.537 18.882 168.465 18.882 168.344 18.882H167.594C167.473 18.882 167.401 18.8582 167.328 18.8345C167.28 18.7871 167.256 18.7159 167.256 18.5973V13.5449C167.256 13.4263 167.28 13.3551 167.328 13.3077C167.377 13.2603 167.449 13.2603 167.57 13.2603H167.957C168.102 13.2603 168.223 13.284 168.295 13.3077C168.368 13.3314 168.465 13.4026 168.537 13.4975L170.52 16.3676H170.544V13.5449C170.544 13.4263 170.568 13.3314 170.617 13.3077C170.665 13.2603 170.762 13.2603 170.883 13.2603H171.632C171.753 13.2603 171.826 13.284 171.874 13.3077C171.922 13.3551 171.946 13.4263 171.946 13.5449V18.5973C171.946 18.7159 171.922 18.7871 171.874 18.8345C171.826 18.882 171.753 18.882 171.632 18.882H171.245C171.1 18.882 170.979 18.8582 170.907 18.8345C170.834 18.8108 170.737 18.7396 170.665 18.6448L168.682 15.9644Z" fill="white"/>
<path d="M172.914 14.4463C172.793 14.4463 172.72 14.4225 172.672 14.3988C172.648 14.3751 172.624 14.3039 172.624 14.1853V13.5212C172.624 13.4026 172.648 13.3314 172.672 13.3077C172.696 13.284 172.793 13.2603 172.914 13.2603H176.782C176.903 13.2603 176.976 13.284 177.024 13.3077C177.048 13.3314 177.073 13.4026 177.073 13.5212V14.1853C177.073 14.2802 177.048 14.3514 177.024 14.3988C177 14.4225 176.903 14.4463 176.782 14.4463H175.598V18.621C175.598 18.7396 175.573 18.8108 175.525 18.8345C175.477 18.882 175.404 18.882 175.259 18.882H174.413C174.268 18.882 174.195 18.8582 174.147 18.8345C174.098 18.7871 174.074 18.7159 174.074 18.621V14.4463H172.914Z" fill="white"/>
<path d="M179.297 18.6208C179.297 18.7394 179.273 18.8106 179.249 18.858C179.225 18.8818 179.128 18.9055 178.983 18.9055H178.112C177.967 18.9055 177.895 18.8818 177.846 18.858C177.798 18.8343 177.798 18.7632 177.798 18.6208V13.521C177.798 13.4024 177.822 13.3312 177.846 13.2838C177.871 13.26 177.967 13.2363 178.112 13.2363H178.983C179.128 13.2363 179.201 13.26 179.249 13.2838C179.273 13.3075 179.297 13.3787 179.297 13.521V18.6208Z" fill="white"/>
<path d="M180.313 15.5847C180.313 15.1577 180.361 14.8019 180.458 14.4936C180.555 14.1852 180.7 13.948 180.893 13.7583C181.086 13.5685 181.352 13.4262 181.643 13.3313C181.957 13.2364 182.344 13.189 182.803 13.189H182.876C183.045 13.189 183.214 13.189 183.408 13.2127C183.577 13.2364 183.77 13.2601 183.94 13.3076C184.109 13.355 184.254 13.3787 184.399 13.4499C184.544 13.4973 184.665 13.5448 184.786 13.6159C184.834 13.6397 184.883 13.6634 184.907 13.7108C184.931 13.7583 184.931 13.782 184.931 13.8057C184.931 13.8294 184.931 13.8769 184.907 13.9006C184.907 13.948 184.883 13.9955 184.858 14.0666L184.617 14.6596C184.568 14.8019 184.472 14.8494 184.327 14.7782C184.109 14.6596 183.867 14.5647 183.65 14.5173C183.432 14.4699 183.19 14.4224 182.924 14.4224H182.876C182.465 14.4224 182.199 14.541 182.029 14.7545C181.957 14.8731 181.909 14.9917 181.86 15.1578C181.836 15.3238 181.812 15.5373 181.812 15.7982V16.4624C181.812 16.7707 181.836 16.9842 181.86 17.174C181.884 17.34 181.957 17.4823 182.054 17.5772C182.126 17.6484 182.223 17.7195 182.344 17.7433C182.465 17.767 182.61 17.7907 182.803 17.7907H182.852C182.924 17.7907 183.021 17.7907 183.093 17.7907C183.166 17.7907 183.238 17.767 183.287 17.767C183.359 17.767 183.408 17.7433 183.432 17.6958C183.456 17.6484 183.456 17.6247 183.456 17.5535V16.747H183.021C182.924 16.747 182.852 16.7233 182.803 16.6996C182.779 16.6759 182.755 16.6047 182.755 16.5098V15.8931C182.755 15.7745 182.779 15.7033 182.803 15.6796C182.827 15.6559 182.9 15.6322 183.021 15.6322H184.713C184.81 15.6322 184.883 15.6559 184.931 15.7033C184.979 15.7508 184.979 15.8219 184.979 15.9168V18.2651C184.979 18.3837 184.955 18.4549 184.931 18.526C184.883 18.5972 184.81 18.6446 184.713 18.6684C184.593 18.7158 184.447 18.7632 184.302 18.8107C184.157 18.8581 183.988 18.8818 183.819 18.9056C183.65 18.9293 183.504 18.953 183.335 18.9767C183.166 19.0004 183.021 19.0004 182.9 19.0004H182.779C182.295 19.0004 181.909 18.953 181.594 18.8818C181.28 18.8107 181.038 18.6684 180.845 18.4786C180.651 18.2888 180.506 18.0279 180.434 17.7433C180.361 17.4349 180.313 17.0554 180.313 16.6047V15.5847Z" fill="white"/>
<path d="M190.758 16.4149C190.758 16.9131 190.71 17.3637 190.589 17.7195C190.468 18.0753 190.275 18.36 190.009 18.5735C189.839 18.7158 189.622 18.8107 189.356 18.8818C189.09 18.953 188.751 18.9767 188.365 18.9767H188.292C187.905 18.9767 187.567 18.953 187.301 18.8818C187.035 18.8107 186.817 18.7158 186.648 18.5735C186.358 18.36 186.164 18.0753 186.067 17.7195C185.947 17.3637 185.898 16.9368 185.898 16.4149V15.7508C185.898 15.2526 185.947 14.8019 186.067 14.4461C186.188 14.0903 186.382 13.8057 186.648 13.5922C186.817 13.4499 187.035 13.355 187.301 13.2838C187.567 13.2127 187.905 13.189 188.292 13.189H188.365C188.751 13.189 189.09 13.2127 189.356 13.2838C189.622 13.355 189.839 13.4499 190.009 13.5922C190.299 13.8057 190.492 14.0903 190.589 14.4461C190.71 14.8019 190.758 15.2289 190.758 15.7508V16.4149ZM189.235 15.9168C189.235 15.5847 189.211 15.3238 189.187 15.0866C189.162 14.8731 189.09 14.7071 188.969 14.5885C188.896 14.5173 188.824 14.4699 188.727 14.4224C188.63 14.3987 188.51 14.375 188.389 14.375H188.268C188.123 14.375 188.026 14.3987 187.929 14.4224C187.833 14.4461 187.76 14.5173 187.687 14.5885C187.591 14.6833 187.518 14.8494 187.47 15.0866C187.446 15.3001 187.422 15.5847 187.422 15.9168V16.2489C187.422 16.581 187.446 16.8419 187.47 17.0791C187.494 17.2926 187.567 17.4586 187.687 17.5772C187.76 17.6484 187.833 17.6958 187.929 17.7433C188.026 17.767 188.147 17.7907 188.268 17.7907H188.389C188.534 17.7907 188.63 17.767 188.727 17.7433C188.824 17.7195 188.896 17.6484 188.969 17.5772C189.066 17.4823 189.138 17.3163 189.187 17.0791C189.211 16.8656 189.235 16.581 189.235 16.2489V15.9168Z" fill="white"/>
<path d="M142.012 13.4966C142.012 14.3268 141.867 15.1096 141.577 15.8212C141.19 16.8174 140.562 17.5765 139.667 18.1458C138.772 18.6913 137.733 18.976 136.499 18.976C135.291 18.976 134.251 18.6913 133.332 18.0983C132.413 17.5053 131.784 16.7226 131.373 15.7026C131.204 15.0858 131.059 14.4454 131.035 13.7575C131.035 13.5677 131.132 13.4729 131.325 13.4729H134.13C134.323 13.4729 134.42 13.5677 134.42 13.7575C134.493 14.2794 134.565 14.6589 134.686 14.8961C134.831 15.2993 135.049 15.6077 135.387 15.8449C135.702 16.0584 136.088 16.177 136.524 16.177C137.418 16.177 138.023 15.7975 138.337 15.0384C138.555 14.564 138.676 14.0422 138.676 13.4017C138.676 12.6664 138.555 12.0734 138.313 11.6227C137.95 10.8874 137.346 10.5315 136.499 10.5315C136.33 10.5315 136.137 10.579 135.943 10.6739C135.75 10.7688 135.532 10.9111 135.266 11.1008C135.194 11.1483 135.145 11.172 135.073 11.172C134.976 11.172 134.904 11.1246 134.855 11.0297L133.453 9.10833C133.429 9.06089 133.405 9.01345 133.405 8.94229C133.405 8.84741 133.429 8.77625 133.501 8.70509L137.273 5.47912C137.297 5.4554 137.322 5.40796 137.297 5.38424C137.297 5.36052 137.273 5.3368 137.225 5.3368H131.664C131.591 5.3368 131.519 5.31308 131.47 5.26564C131.422 5.2182 131.398 5.14704 131.398 5.07588V2.82245C131.398 2.75129 131.422 2.68013 131.47 2.63268C131.519 2.58524 131.591 2.56152 131.664 2.56152H141.529C141.601 2.56152 141.674 2.58524 141.722 2.63268C141.771 2.68013 141.795 2.75129 141.795 2.82245V5.38424C141.795 5.50284 141.746 5.62144 141.626 5.74005L138.531 8.4916C138.506 8.51532 138.482 8.56276 138.506 8.58648C138.506 8.6102 138.555 8.63392 138.603 8.63392C139.981 8.89485 140.949 9.70134 141.529 11.0297C141.867 11.7413 142.012 12.5715 142.012 13.4966Z" fill="#00AEC7"/>
<path d="M4.52126 2.86279C6.76321 2.86279 8.48204 3.26724 9.71511 4.03938C10.9108 4.81151 11.5087 6.0984 11.5087 7.86328C11.5087 9.66492 10.9108 10.9518 9.67774 11.7607C8.44467 12.5696 6.72585 12.9373 4.44653 12.9373H3.40029V17.9378H0V3.26724C0.747316 3.12017 1.532 3.00987 2.35405 2.9731C3.17609 2.89956 3.88604 2.86279 4.52126 2.86279ZM4.74546 5.73072C4.4839 5.73072 4.2597 5.73072 3.99814 5.76749C3.77395 5.76749 3.54975 5.80425 3.36292 5.80425V10.1061H4.44653C5.60487 10.1061 6.50165 9.95907 7.0995 9.62816C7.69736 9.29724 7.99628 8.70895 7.99628 7.86328C7.99628 7.45883 7.92155 7.09114 7.77209 6.83377C7.62262 6.57639 7.39843 6.35578 7.13687 6.17194C6.83794 6.02486 6.50165 5.87779 6.09063 5.84102C5.6796 5.76749 5.23121 5.73072 4.74546 5.73072Z" fill="white"/>
<path d="M20.4766 9.48145C20.1777 9.40792 19.8414 9.33438 19.4678 9.26084C19.0941 9.18731 18.6457 9.15054 18.1973 9.15054C18.0105 9.15054 17.7489 9.15054 17.45 9.18731C17.1511 9.22408 16.9643 9.26084 16.8148 9.29761V17.9382H13.564V7.23859C14.1618 7.05475 14.8344 6.83414 15.6191 6.68707C16.4038 6.50322 17.3005 6.42969 18.2721 6.42969C18.4589 6.42969 18.6457 6.42969 18.9073 6.46646C19.1688 6.50322 19.393 6.50322 19.6546 6.53999C19.9162 6.57676 20.1403 6.61353 20.4019 6.6503C20.6635 6.68707 20.8503 6.7606 21.0371 6.83414L20.4766 9.48145Z" fill="white"/>
<path d="M33.0689 12.2758C33.0689 13.1582 32.9194 13.9671 32.6579 14.7025C32.3963 15.4379 32.0227 16.0629 31.5369 16.5777C31.0511 17.0924 30.4533 17.4969 29.7807 17.791C29.1081 18.0852 28.3234 18.2323 27.464 18.2323C26.6046 18.2323 25.8573 18.0852 25.1473 17.791C24.4748 17.4969 23.8769 17.0924 23.3538 16.5777C22.868 16.0629 22.457 15.4379 22.1954 14.7025C21.9339 13.9671 21.7844 13.1582 21.7844 12.2758C21.7844 11.3934 21.9339 10.5845 22.1954 9.84909C22.4944 9.11372 22.868 8.48866 23.3538 7.97391C23.8395 7.45915 24.4374 7.0547 25.1473 6.76055C25.8199 6.46641 26.6046 6.31934 27.3893 6.31934C28.2113 6.31934 28.9587 6.46641 29.6686 6.76055C30.3412 7.0547 30.939 7.45915 31.4622 7.97391C31.9479 8.48866 32.3589 9.11372 32.6205 9.84909C32.9194 10.5477 33.0689 11.3566 33.0689 12.2758ZM29.7433 12.2758C29.7433 11.2831 29.5565 10.5109 29.1455 9.95939C28.7345 9.40787 28.174 9.11372 27.4267 9.11372C26.6793 9.11372 26.1189 9.40787 25.7078 9.95939C25.2968 10.5109 25.11 11.3198 25.11 12.2758C25.11 13.2685 25.2968 14.0407 25.7078 14.629C26.1189 15.2173 26.6793 15.5114 27.4267 15.5114C28.174 15.5114 28.7345 15.2173 29.1455 14.629C29.5565 14.0407 29.7433 13.2318 29.7433 12.2758Z" fill="white"/>
<path d="M35.2358 3.81896L38.4867 3.3042V6.65011H42.3727V9.29743H38.4867V13.2684C38.4867 13.9302 38.5988 14.4818 38.8603 14.8862C39.0845 15.2907 39.5703 15.4745 40.3176 15.4745C40.6539 15.4745 41.0275 15.4377 41.4012 15.3642C41.7749 15.2907 42.1111 15.2171 42.4101 15.1068L42.8585 17.6071C42.4474 17.7541 42.0364 17.9012 41.5507 18.0115C41.0649 18.1218 40.4671 18.1953 39.7945 18.1953C38.8977 18.1953 38.1877 18.085 37.5899 17.8277C36.992 17.6071 36.5436 17.2761 36.2074 16.8349C35.8711 16.3937 35.6095 15.9157 35.46 15.2907C35.3106 14.7024 35.2358 14.0038 35.2358 13.3052V3.81896Z" fill="white"/>
<path d="M43.8301 12.3861C43.8301 11.3934 43.9795 10.5109 44.3158 9.73878C44.6148 9.00342 45.0258 8.37836 45.5489 7.8636C46.072 7.34885 46.6325 6.98116 47.3051 6.72379C47.9777 6.46641 48.6503 6.31934 49.3229 6.31934C50.9669 6.31934 52.2374 6.79732 53.1715 7.79007C54.1057 8.78281 54.5914 10.2168 54.5914 12.1287C54.5914 12.3126 54.5914 12.5332 54.5541 12.7538C54.5541 12.9744 54.5167 13.1582 54.5167 13.3421H47.1556C47.2304 14.0039 47.5293 14.5187 48.0898 14.9231C48.6503 15.3276 49.3976 15.5114 50.2944 15.5114C50.8922 15.5114 51.4901 15.4746 52.0506 15.3643C52.611 15.254 53.0968 15.107 53.4705 14.9599L53.9188 17.5704C53.732 17.644 53.5078 17.7543 53.2089 17.8278C52.91 17.9013 52.611 17.9749 52.2374 18.0484C51.8637 18.1219 51.4901 18.1587 51.079 18.1955C50.668 18.2323 50.257 18.269 49.846 18.269C48.7997 18.269 47.9029 18.122 47.1556 17.8278C46.4083 17.5337 45.7731 17.1292 45.25 16.5777C44.7642 16.0629 44.3906 15.4379 44.129 14.7025C43.9422 13.9671 43.8301 13.195 43.8301 12.3861ZM51.4527 11.136C51.4527 10.8786 51.378 10.5845 51.3032 10.3271C51.2285 10.0697 51.1164 9.84909 50.9296 9.62848C50.7801 9.44464 50.5559 9.2608 50.2944 9.15049C50.0328 9.00342 49.7339 8.96665 49.3602 8.96665C48.9866 8.96665 48.6876 9.04019 48.4261 9.15049C48.1645 9.2608 47.9403 9.44464 47.7909 9.62848C47.604 9.81232 47.4919 10.0697 47.3798 10.3271C47.2677 10.5845 47.2304 10.8786 47.1556 11.136H51.4527Z" fill="white"/>
<path d="M56.3103 12.2758C56.3103 11.4669 56.4598 10.6948 56.7213 9.95939C56.9829 9.22403 57.3939 8.59897 57.8797 8.08421C58.4028 7.53269 59.0006 7.12824 59.748 6.79732C60.4579 6.46641 61.3173 6.31934 62.2141 6.31934C62.812 6.31934 63.3724 6.3561 63.8956 6.46641C64.4187 6.57671 64.9044 6.72379 65.3902 6.9444L64.7176 9.51817C64.4187 9.40787 64.0824 9.29757 63.7087 9.22403C63.3351 9.15049 62.9241 9.07696 62.4757 9.07696C61.5042 9.07696 60.7942 9.3711 60.3458 9.95939C59.8601 10.5477 59.6359 11.3198 59.6359 12.2758C59.6359 13.3053 59.8601 14.0774 60.3084 14.629C60.7568 15.1805 61.5415 15.4746 62.6251 15.4746C62.9988 15.4746 63.4472 15.4379 63.8956 15.3643C64.344 15.2908 64.755 15.1805 65.1286 15.0334L65.577 17.644C65.2034 17.791 64.7176 17.9381 64.1571 18.0484C63.5966 18.1587 62.9614 18.2323 62.2888 18.2323C61.2426 18.2323 60.3458 18.0852 59.5985 17.7543C58.8512 17.4601 58.216 17.0189 57.7302 16.5041C57.2444 15.9894 56.8708 15.3643 56.6466 14.629C56.4224 13.8936 56.3103 13.1215 56.3103 12.2758Z" fill="white"/>
<path d="M66.4363 12.2758C66.4363 11.4669 66.5857 10.6948 66.8473 9.95939C67.1089 9.22403 67.5199 8.59897 68.0056 8.08421C68.5288 7.53269 69.1266 7.12824 69.8739 6.79732C70.5839 6.46641 71.4433 6.31934 72.3401 6.31934C72.9379 6.31934 73.4984 6.3561 74.0215 6.46641C74.5447 6.57671 75.0304 6.72379 75.5162 6.9444L74.8436 9.51817C74.5447 9.40787 74.2084 9.29757 73.8347 9.22403C73.4611 9.15049 73.05 9.07696 72.6016 9.07696C71.6301 9.07696 70.9202 9.3711 70.4718 9.95939C69.986 10.5477 69.7618 11.3198 69.7618 12.2758C69.7618 13.3053 69.986 14.0774 70.4344 14.629C70.8828 15.1805 71.6675 15.4746 72.7511 15.4746C73.1621 15.4746 73.5732 15.4379 74.0215 15.3643C74.4699 15.2908 74.8809 15.1805 75.2546 15.0334L75.703 17.644C75.3293 17.791 74.8436 17.9381 74.2831 18.0484C73.7226 18.1587 73.0874 18.2323 72.4148 18.2323C71.3686 18.2323 70.4718 18.0852 69.7245 17.7543C68.9772 17.4601 68.3419 17.0189 67.8562 16.5041C67.3704 15.9894 66.9968 15.3643 66.7726 14.629C66.5484 13.8936 66.4363 13.1215 66.4363 12.2758Z" fill="white"/>
<path d="M81.1961 3.37777C81.1961 3.96606 81.0092 4.44405 80.6356 4.77496C80.2619 5.10588 79.8135 5.28972 79.2904 5.28972C78.7673 5.28972 78.3189 5.10588 77.9453 4.77496C77.5716 4.44405 77.3848 3.96606 77.3848 3.37777C77.3848 2.78948 77.5716 2.31149 77.9453 1.98058C78.3189 1.64966 78.7673 1.46582 79.2904 1.46582C79.8135 1.46582 80.2619 1.64966 80.6356 1.98058C81.0092 2.31149 81.1961 2.78948 81.1961 3.37777ZM80.8971 17.938H77.6463V6.65015H80.8971V17.938Z" fill="white"/>
<path d="M94.4607 12.2757C94.4607 13.1581 94.3113 13.967 94.0871 14.7024C93.8255 15.4378 93.4518 16.0628 92.9661 16.5776C92.4803 17.0923 91.8825 17.4968 91.2099 17.7909C90.5373 18.0851 89.7526 18.2322 88.8932 18.2322C88.0338 18.2322 87.2865 18.0851 86.5765 17.7909C85.9039 17.4968 85.3061 17.0923 84.8203 16.5776C84.3346 16.0628 83.9236 15.4378 83.662 14.7024C83.4004 13.967 83.251 13.1581 83.251 12.2757C83.251 11.3933 83.4004 10.5844 83.662 9.849C83.9609 9.11363 84.3346 8.48857 84.8203 7.97382C85.3061 7.45906 85.9039 7.05461 86.6139 6.76046C87.2865 6.46632 88.0712 6.31925 88.8558 6.31925C89.6779 6.31925 90.4252 6.46632 91.1352 6.76046C91.8077 7.05461 92.4056 7.45906 92.8914 7.97382C93.3771 8.48857 93.7508 9.11363 94.0497 9.849C94.3113 10.5476 94.4607 11.3565 94.4607 12.2757ZM91.5088 2.56888L87.9217 5.54711L86.4271 4.22345L89.4911 0.730469L91.5088 2.56888ZM91.1352 12.2757C91.1352 11.283 90.9483 10.5108 90.5373 9.9593C90.1263 9.40778 89.5658 9.11363 88.8185 9.11363C88.0712 9.11363 87.5107 9.40778 87.0997 9.9593C86.6886 10.5108 86.5018 11.3197 86.5018 12.2757C86.5018 13.2684 86.6886 14.0406 87.0997 14.6289C87.5107 15.2172 88.0712 15.5113 88.8185 15.5113C89.5658 15.5113 90.1263 15.2172 90.5373 14.6289C90.9483 14.0406 91.1352 13.2317 91.1352 12.2757Z" fill="white"/>
<path d="M96.74 7.01827C97.3005 6.8712 98.0104 6.72413 98.8699 6.57706C99.7293 6.42998 100.663 6.35645 101.598 6.35645C102.569 6.35645 103.391 6.46675 104.026 6.72413C104.662 6.98151 105.185 7.31242 105.558 7.79041C105.932 8.2684 106.194 8.78315 106.38 9.40821C106.53 10.0333 106.605 10.7319 106.605 11.504V17.9017H103.354V11.9452C103.354 10.9157 103.204 10.1803 102.943 9.73913C102.681 9.29791 102.158 9.0773 101.411 9.0773C101.187 9.0773 100.925 9.0773 100.663 9.11407C100.402 9.15083 100.178 9.15083 99.9535 9.1876V17.9017H96.7026V7.01827H96.74Z" fill="white"/>
<rect x="118.45" y="2.19238" width="0.74031" height="14.6154" fill="white"/>
</svg>
