<svg width="25" height="26" viewBox="0 0 25 26" fill="none" xmlns="http://www.w3.org/2000/svg">
<path fill-rule="evenodd" clip-rule="evenodd" d="M10.5758 15.3113V23.7445C10.5758 24.8337 11.4386 25.7249 12.4932 25.7249C13.5478 25.7249 14.4106 24.8337 14.4106 23.7445V15.3113H22.5758C23.6304 15.3113 24.4933 14.4201 24.4933 13.3309C24.4933 12.2417 23.6304 11.3505 22.5758 11.3505H14.4106V2.91729C14.4106 1.82807 13.5478 0.93689 12.4932 0.93689C11.4386 0.93689 10.5758 1.82807 10.5758 2.91729V11.3505H2.41073C1.35614 11.3505 0.493286 12.2417 0.493286 13.3309C0.493286 14.4201 1.35614 15.3113 2.41073 15.3113H10.5758Z" fill="#626277"/>
</svg>
