<svg width="64" height="64" viewBox="0 0 64 64" fill="none" xmlns="http://www.w3.org/2000/svg">
<path d="M35.0667 29.7211H34.24V27.0558H37.6C38.1554 26.9953 38.6688 26.732 39.0418 26.3163C39.4149 25.9007 39.6212 25.362 39.6212 24.8036C39.6212 24.2452 39.4149 23.7065 39.0418 23.2909C38.6688 22.8752 38.1554 22.6119 37.6 22.5514H34.24V20.9256C34.24 20.628 34.1814 20.3334 34.0675 20.0586C33.9535 19.7837 33.7866 19.534 33.5761 19.3236C33.3656 19.1132 33.1157 18.9463 32.8407 18.8325C32.5657 18.7186 32.271 18.66 31.9733 18.66C31.6757 18.66 31.3809 18.7186 31.1059 18.8325C30.8309 18.9463 30.581 19.1132 30.3706 19.3236C30.1601 19.534 29.9931 19.7837 29.8792 20.0586C29.7653 20.3334 29.7067 20.628 29.7067 20.9256V22.6847H28.88C27.3453 22.6847 25.8734 23.294 24.7882 24.3787C23.703 25.4634 23.0933 26.9345 23.0933 28.4684C23.0933 30.0024 23.703 31.4735 24.7882 32.5582C25.8734 33.6428 27.3453 34.2522 28.88 34.2522H29.7067V36.7843H25.36C25.0435 36.7498 24.7233 36.7824 24.4202 36.8798C24.1171 36.9773 23.838 37.1375 23.601 37.35C23.364 37.5624 23.1744 37.8224 23.0447 38.113C22.9149 38.4036 22.8478 38.7182 22.8478 39.0365C22.8478 39.3547 22.9149 39.6693 23.0447 39.9599C23.1744 40.2505 23.364 40.5105 23.601 40.7229C23.838 40.9354 24.1171 41.0956 24.4202 41.1931C24.7233 41.2906 25.0435 41.3231 25.36 41.2887H29.7067V43.0478C29.7067 43.6486 29.9455 44.2249 30.3706 44.6497C30.7956 45.0746 31.3722 45.3133 31.9733 45.3133C32.5745 45.3133 33.151 45.0746 33.5761 44.6497C34.0012 44.2249 34.24 43.6486 34.24 43.0478V41.2887H35.0667C36.6014 41.2887 38.0732 40.6793 39.1585 39.5946C40.2437 38.51 40.8533 37.0388 40.8533 35.5049C40.8533 33.9709 40.2437 32.4998 39.1585 31.4152C38.0732 30.3305 36.6014 29.7211 35.0667 29.7211ZM29.7333 29.7211H28.9067C28.7398 29.7247 28.574 29.6949 28.4188 29.6335C28.2637 29.5722 28.1224 29.4805 28.0031 29.3638C27.8839 29.2471 27.7892 29.1078 27.7246 28.9541C27.6599 28.8003 27.6266 28.6352 27.6267 28.4684C27.6267 28.1291 27.7615 27.8037 28.0016 27.5638C28.2416 27.3239 28.5672 27.1891 28.9067 27.1891H29.7333V29.7211ZM35.0667 36.7843H34.24V34.2522H35.0667C35.2335 34.2486 35.3993 34.2784 35.5545 34.3398C35.7096 34.4011 35.851 34.4929 35.9702 34.6095C36.0894 34.7262 36.1841 34.8655 36.2488 35.0193C36.3134 35.173 36.3467 35.3381 36.3467 35.5049C36.3467 35.8442 36.2118 36.1696 35.9718 36.4095C35.7317 36.6495 35.4061 36.7843 35.0667 36.7843ZM32 58.6666C31.5826 58.6641 31.1715 58.5637 30.8 58.3734C29.9467 57.9469 10.6667 48.0053 10.6667 32.653V14.9819C10.6703 14.4418 10.838 13.9156 11.1475 13.473C11.4571 13.0303 11.8938 12.6921 12.4 12.5031L31.0667 5.49331C31.6706 5.2799 32.3294 5.2799 32.9333 5.49331L51.6 12.5031C52.1061 12.6921 52.5429 13.0303 52.8524 13.473C53.162 13.9156 53.3297 14.4418 53.3333 14.9819V32.653C53.3333 48.1119 34.0267 57.9469 33.2 58.3467C32.8308 58.5463 32.4196 58.6559 32 58.6666ZM16 16.8476V32.653C16 42.9145 28.1067 50.6973 32 52.9361C35.8933 50.6973 48 42.9145 48 32.653V16.8476L32 10.8506L16 16.8476Z" fill="#0033A0"/>
</svg>
