<svg width="64" height="64" viewBox="0 0 64 64" fill="none" xmlns="http://www.w3.org/2000/svg">
<path d="M39.467 17.8043L42.1337 13.8242C43.2003 12.2322 43.2003 10.1094 42.4003 8.25205C41.6003 6.39467 39.7337 5.33331 37.6003 5.33331H26.4003C24.267 5.59865 22.667 6.66001 21.6003 8.51739C20.8003 10.1094 20.8003 12.2322 21.867 13.8242L24.5337 17.8043C18.4003 20.4577 10.667 27.0912 10.667 44.3383C10.667 53.3599 18.4003 58.6666 32.0003 58.6666C45.6003 58.6666 53.3337 53.3599 53.3337 44.3383C53.3337 27.0912 45.6003 20.4577 39.467 17.8043ZM29.867 16.2123L26.4003 10.9055H37.867L34.1337 16.2123H29.867ZM32.0003 53.3598C24.8003 53.3598 16.0003 51.7678 16.0003 44.3383C16.0003 22.5804 29.3337 21.5191 32.0003 21.5191C34.667 21.5191 48.0003 22.5804 48.0003 44.3383C48.0003 51.7678 39.2003 53.3598 32.0003 53.3598ZM34.9337 35.3167H34.1337V32.9287H37.3337C38.4003 32.9287 39.467 31.8673 39.467 30.806C39.467 29.7446 38.4003 28.6832 37.3337 28.6832H34.1337V27.0912C34.1337 26.0298 33.067 24.9685 32.0003 24.9685C30.9337 24.9685 29.867 25.7645 29.867 27.0912V28.6832H29.067C26.1337 28.6832 23.467 31.0713 23.467 34.2554C23.467 37.1741 25.867 39.5622 29.067 39.5622H29.867V41.9502H25.6003C24.5337 41.9502 23.467 43.0116 23.467 44.0729C23.467 45.1343 24.5337 46.1957 25.6003 46.1957H29.867V47.7877C29.867 48.8491 30.9337 49.9104 32.0003 49.9104C33.067 49.9104 34.1337 48.8491 34.1337 47.7877V46.1957H34.9337C37.867 46.1957 40.5337 43.8076 40.5337 40.8889C40.5337 37.9701 37.867 35.3167 34.9337 35.3167ZM29.867 35.3167H29.067C28.5337 35.3167 27.7337 34.7861 27.7337 33.99C27.7337 33.4594 28.267 32.6633 29.067 32.6633H29.867V35.3167ZM34.9337 41.9502H34.1337V39.5622H34.9337C35.467 39.5622 36.267 40.0928 36.267 40.8889C36.267 41.4196 35.467 41.9502 34.9337 41.9502Z" fill="#0033A0"/>
</svg>
