<svg width="35" height="37" viewBox="0 0 35 37" fill="none" xmlns="http://www.w3.org/2000/svg">
<path d="M18 21.5C19.6569 21.5 21 20.1569 21 18.5C21 16.8431 19.6569 15.5 18 15.5C16.3431 15.5 15 16.8431 15 18.5C15 20.1569 16.3431 21.5 18 21.5Z" fill="#0033A0"/>
<path d="M18 11C19.6569 11 21 9.65685 21 8C21 6.34315 19.6569 5 18 5C16.3431 5 15 6.34315 15 8C15 9.65685 16.3431 11 18 11Z" fill="#0033A0"/>
<path d="M18 32C19.6569 32 21 30.6569 21 29C21 27.3431 19.6569 26 18 26C16.3431 26 15 27.3431 15 29C15 30.6569 16.3431 32 18 32Z" fill="#0033A0"/>
</svg>
