<svg width="32" height="32" viewBox="0 0 32 32" fill="none" xmlns="http://www.w3.org/2000/svg">
<path fill-rule="evenodd" clip-rule="evenodd" d="M22.666 12.0001V20.0001C22.666 23.682 19.6812 26.6667 15.9993 26.6667C12.3175 26.6667 9.33268 23.682 9.33268 20.0001V12.0001C9.33268 8.31818 12.3175 5.33341 15.9993 5.33341C19.6812 5.33341 22.666 8.31818 22.666 12.0001ZM6.66602 12.0001C6.66602 6.84542 10.8447 2.66675 15.9993 2.66675C21.154 2.66675 25.3327 6.84542 25.3327 12.0001V20.0001C25.3327 25.1547 21.154 29.3334 15.9993 29.3334C10.8447 29.3334 6.66602 25.1547 6.66602 20.0001V12.0001ZM14.6667 13.3334C14.6667 14.0698 15.2636 14.6667 16 14.6667C16.7364 14.6667 17.3333 14.0698 17.3333 13.3334V10.6667C17.3333 9.93035 16.7364 9.33339 16 9.33339C15.2636 9.33339 14.6667 9.93035 14.6667 10.6667V13.3334Z" fill="#626277"/>
</svg>
