<svg width="24" height="24" viewBox="0 0 24 24" fill="none" xmlns="http://www.w3.org/2000/svg">
<path fill-rule="evenodd" clip-rule="evenodd" d="M10.3 4.2012C10.6 4.0012 11.1 3.9012 11.4 4.1012C11.8 4.3012 12 4.6012 11.9 5.0012V19.0012C11.9 19.4012 11.6 19.7012 11.3 19.9012C11.2 20.0012 11 20.0012 10.9 20.0012C10.7 20.0012 10.5 19.9012 10.3 19.8012L5.6 16.0012H2C1.4 16.0012 1 15.6012 1 15.0012V9.0012C1 8.4012 1.4 8.0012 2 8.0012H5.6L10.3 4.2012ZM6.6 14.2012L10 16.9012V7.1012L6.6 9.8012C6.4 9.9012 6.2 10.0012 6 10.0012H3V14.0012H6C6.2 14.0012 6.4 14.1012 6.6 14.2012ZM23.7 9.70122L21.4 12.0012L23.7 14.3012C24.1 14.7012 24.1 15.3012 23.7 15.7012C23.5 15.9012 23.2 16.0012 23 16.0012C22.8 16.0012 22.5 15.9012 22.3 15.7012L20 13.4012L17.7 15.7012C17.5 15.9012 17.2 16.0012 17 16.0012C16.8 16.0012 16.5 15.9012 16.3 15.7012C15.9 15.3012 15.9 14.7012 16.3 14.3012L18.6 12.0012L16.3 9.70122C15.9 9.30122 15.9 8.70122 16.3 8.30122C16.7 7.90122 17.3 7.90122 17.7 8.30122L20 10.6012L22.3 8.30122C22.7 7.90122 23.3 7.90122 23.7 8.30122C24.1 8.70122 24.1 9.30122 23.7 9.70122Z" fill="#292730"/>
</svg>
