<svg width="24" height="24" viewBox="0 0 24 24" fill="none" xmlns="http://www.w3.org/2000/svg">
<path fill-rule="evenodd" clip-rule="evenodd" d="M4.6 3.1012C4.9 2.9012 5.3 3.0012 5.6 3.2012L15.6 11.2012C15.9 11.4012 16 11.7012 16 12.0012C16 12.3012 15.8 12.6012 15.6 12.8012L5.6 20.8012C5.4 20.9012 5.2 21.0012 5 21.0012C4.9 21.0012 4.7 21.0012 4.6 20.9012C4.2 20.7012 4 20.4012 4 20.0012V4.0012C4 3.6012 4.2 3.3012 4.6 3.1012ZM13.4 12.0012L6 6.1012V17.9012L13.4 12.0012ZM18 5.00122C18 4.40122 18.4 4.00122 19 4.00122C19.6 4.00122 20 4.40122 20 5.00122V19.0012C20 19.6012 19.6 20.0012 19 20.0012C18.4 20.0012 18 19.6012 18 19.0012V5.00122Z" fill="#292730"/>
</svg>
