<svg width="48" height="48" viewBox="0 0 48 48" fill="none" xmlns="http://www.w3.org/2000/svg">
<path d="M41.9354 38.9335C33.7681 49.6876 20.8199 50.8937 9.06693 42.4512C-2.68604 34.1092 -2.08843 20.4404 5.58088 9.28431C14.047 -3.07789 27.294 -1.87182 38.4494 5.76661C50.2023 13.9076 50.8 27.2748 41.9354 38.9335Z" fill="#292730"/>
<rect width="32" height="32" transform="translate(8 8)" fill="#292730"/>
<path d="M28.9346 23.068L20.9346 15.068C20.4013 14.5346 19.6013 14.5346 19.068 15.068C18.5346 15.6013 18.5346 16.4013 19.068 16.9346L26.1346 24.0013L19.068 31.068C18.5346 31.6013 18.5346 32.4013 19.068 32.9346C19.3346 33.2013 19.6013 33.3346 20.0013 33.3346C20.4013 33.3346 20.668 33.2013 20.9346 32.9346L28.9346 24.9346C29.468 24.4013 29.468 23.6013 28.9346 23.068Z" fill="#E3E829"/>
</svg>
