<svg width="48" height="48" viewBox="0 0 48 48" fill="none" xmlns="http://www.w3.org/2000/svg">
<path d="M41.9354 38.9336C33.7681 49.6877 20.8199 50.8938 9.06693 42.4513C-2.68604 34.1093 -2.08843 20.4406 5.58088 9.28443C14.047 -3.07777 27.294 -1.8717 38.4494 5.76673C50.2023 13.9077 50.8 27.2749 41.9354 38.9336Z" fill="#E3E829"/>
<path d="M28.9327 23.0667L20.9327 15.0667C20.3993 14.5334 19.5993 14.5334 19.066 15.0667C18.5327 15.6001 18.5327 16.4001 19.066 16.9334L26.1327 24.0001L19.066 31.0667C18.5327 31.6001 18.5327 32.4001 19.066 32.9334C19.3327 33.2001 19.5993 33.3334 19.9993 33.3334C20.3993 33.3334 20.666 33.2001 20.9327 32.9334L28.9327 24.9334C29.466 24.4001 29.466 23.6001 28.9327 23.0667Z" fill="#0033A0"/>
</svg>
