<svg width="20" height="24" viewBox="0 0 20 24" fill="none" xmlns="http://www.w3.org/2000/svg">
<path d="M10 0C4.5 0 0 4.5 0 10C0 17.4 9.1 23.6 9.4 23.8C9.6 23.9 9.8 24 10 24C10.2 24 10.4 23.9 10.6 23.8C10.9 23.6 20 17.4 20 10C20 4.5 15.5 0 10 0ZM10 21.8C8.1 20.4 2 15.4 2 10C2 5.6 5.6 2 10 2C14.4 2 18 5.6 18 10C18 15.4 11.9 20.4 10 21.8Z" fill="#0033A0"/>
<path d="M10 6C7.8 6 6 7.8 6 10C6 12.2 7.8 14 10 14C12.2 14 14 12.2 14 10C14 7.8 12.2 6 10 6ZM10 12C8.9 12 8 11.1 8 10C8 8.9 8.9 8 10 8C11.1 8 12 8.9 12 10C12 11.1 11.1 12 10 12Z" fill="#0033A0"/>
</svg>
