<svg width="48" height="48" viewBox="0 0 48 48" fill="none" xmlns="http://www.w3.org/2000/svg">
<path d="M47.9896 24.0212C48.3603 37.719 38.7693 46.9743 24.0353 47.9461C9.30123 48.8716 1.14655 37.7653 0.0808855 24.0212C-1.07745 8.84259 10.3669 1.25328 24.0353 0.0963741C38.5839 -1.10681 47.5726 9.07398 47.9896 24.0212Z" fill="#E3E829"/>
<path d="M22 15H18C17.4 15 17 15.4 17 16V32C17 32.6 17.4 33 18 33H22C22.6 33 23 32.6 23 32V16C23 15.4 22.6 15 22 15ZM21 31H19V17H21V31Z" fill="#292730"/>
<path d="M30 15H26C25.4 15 25 15.4 25 16V32C25 32.6 25.4 33 26 33H30C30.6 33 31 32.6 31 32V16C31 15.4 30.6 15 30 15ZM29 31H27V17H29V31Z" fill="#292730"/>
</svg>
