<svg width="32" height="32" viewBox="0 0 32 32" fill="none" xmlns="http://www.w3.org/2000/svg">
<path d="M26.6673 4H5.33398C3.06732 4 1.33398 5.73333 1.33398 8V18.4C1.33398 20.6667 3.06732 22.6667 5.33398 22.6667H12.0007L10.6673 25.3333H6.66732C5.86732 25.3333 5.33398 25.8667 5.33398 26.6667C5.33398 27.4667 5.86732 28 6.66732 28H25.334C26.134 28 26.6673 27.4667 26.6673 26.6667C26.6673 25.8667 26.134 25.3333 25.334 25.3333H21.334L20.0007 22.6667H26.6673C28.934 22.6667 30.6673 20.6667 30.6673 18.4V8C30.6673 5.73333 28.934 4 26.6673 4ZM18.6673 25.3333H13.334L14.6673 22.6667H17.334L18.6673 25.3333ZM28.0006 18.4C28.0006 19.2 27.4673 20 26.6673 20H5.33398C4.53398 20 4.00065 19.2 4.00065 18.4V8C4.00065 7.2 4.53398 6.66667 5.33398 6.66667H26.6673C27.4673 6.66667 28.0006 7.2 28.0006 8V18.4ZM25.334 15.7333C25.334 16.5333 24.8006 17.0667 24.0007 17.0667H15.734C14.934 17.0667 14.4007 16.5333 14.4007 15.7333C14.4007 14.9333 14.934 14.4 15.734 14.4H24.0007C24.8006 14.4 25.334 14.9333 25.334 15.7333ZM25.334 10.6667C25.334 11.4667 24.8006 12 24.0007 12H15.734C14.934 12 14.4007 11.4667 14.4007 10.6667C14.4007 9.86667 14.934 9.33333 15.734 9.33333H24.0007C24.8006 9.33333 25.334 10 25.334 10.6667ZM10.934 12.4H10.534V11.4667H11.734C12.134 11.4667 12.534 11.0667 12.534 10.6667C12.534 10.2667 12.134 9.86667 11.734 9.86667H10.534V9.33333C10.534 8.93333 10.134 8.53333 9.73398 8.53333C9.33398 8.53333 9.06732 8.8 9.06732 9.33333V10H8.66732C7.60065 9.86667 6.66732 10.8 6.66732 12C6.66732 13.0667 7.60065 14 8.66732 14H8.93398V14.9333H7.46732C7.06732 14.9333 6.66732 15.2 6.66732 15.7333C6.66732 16.1333 7.06732 16.5333 7.46732 16.5333H9.06732V17.2C9.06732 17.6 9.46732 18 9.86732 18C10.2673 18 10.6673 17.6 10.6673 17.2V16.5333H10.934C12.0007 16.5333 12.934 15.6 12.934 14.5333C12.934 13.4667 12.0007 12.4 10.934 12.4ZM9.06732 12.4H8.66732C8.40065 12.4 8.26732 12.1333 8.26732 12C8.26732 11.7333 8.53398 11.6 8.66732 11.6H8.93398V12.4H9.06732ZM10.934 14.9333H10.534V14H10.8007C11.0673 14 11.2007 14.2667 11.2007 14.4C11.334 14.6667 11.2007 14.9333 10.934 14.9333Z" fill="#626277"/>
</svg>
