<svg width="120" height="120" viewBox="0 0 120 120" fill="none" xmlns="http://www.w3.org/2000/svg">
<path opacity="0.5" fill-rule="evenodd" clip-rule="evenodd" d="M27.5922 110.72C27.5922 110.72 -1.41481 97.1632 0.0539524 72.5145C1.59615 46.6334 13.4148 53.6273 27.5922 20.1359C41.7696 -13.3555 104.7 -2.91163 103.476 35.5414C102.252 73.8817 125.506 75.5956 118.775 99.628C112.959 120.39 64.922 127.358 27.5922 110.72Z" fill="#E3E829"/>
<path opacity="0.5" fill-rule="evenodd" clip-rule="evenodd" d="M103.169 32.0625C103.169 32.0625 120.863 40.332 119.967 55.3677C119.026 71.1552 111.817 66.8889 103.169 87.3187C94.5205 107.748 56.1333 101.378 56.8799 77.9213C57.6265 54.5337 43.4412 53.4883 47.5475 38.8285C51.095 26.1635 80.3976 21.9134 103.169 32.0625Z" fill="#E3E829"/>
<circle cx="58.1649" cy="110.618" r="1.83673" stroke="#B8AC08"/>
<circle cx="110.815" cy="51.8425" r="3.06122" stroke="#B8AC08"/>
<ellipse cx="11.6336" cy="78.782" rx="1.83673" ry="1.83673" stroke="#B8AC08"/>
<path d="M49.8755 10.4955L54.9971 11.8679L51.2479 15.6171L49.8755 10.4955Z" stroke="#B8AC08"/>
<path d="M63.45 57.4364H62.52V54.4379H66.3C66.9248 54.3698 67.5024 54.0736 67.9221 53.606C68.3417 53.1384 68.5738 52.5323 68.5738 51.9041C68.5738 51.276 68.3417 50.6699 67.9221 50.2023C67.5024 49.7347 66.9248 49.4385 66.3 49.3704H62.52V47.5413C62.52 47.2066 62.454 46.8752 62.3259 46.566C62.1977 46.2568 62.0099 45.9758 61.7731 45.7391C61.5363 45.5025 61.2552 45.3147 60.9458 45.1866C60.6365 45.0585 60.3049 44.9926 59.97 44.9926C59.6351 44.9926 59.3035 45.0585 58.9942 45.1866C58.6848 45.3147 58.4037 45.5025 58.1669 45.7391C57.9301 45.9758 57.7423 46.2568 57.6141 46.566C57.486 46.8752 57.42 47.2066 57.42 47.5413V49.5203H56.49C54.7634 49.5203 53.1076 50.2059 51.8867 51.4261C50.6659 52.6464 49.98 54.3014 49.98 56.0271C49.98 57.7528 50.6659 59.4078 51.8867 60.628C53.1076 61.8483 54.7634 62.5338 56.49 62.5338H57.42V65.3824H52.53C52.1739 65.3436 51.8137 65.3802 51.4727 65.4899C51.1318 65.5995 50.8178 65.7798 50.5511 66.0188C50.2845 66.2578 50.0713 66.5503 49.9253 66.8772C49.7793 67.2041 49.7038 67.5581 49.7038 67.9161C49.7038 68.2741 49.7793 68.6281 49.9253 68.955C50.0713 69.2819 50.2845 69.5744 50.5511 69.8134C50.8178 70.0524 51.1318 70.2327 51.4727 70.3423C51.8137 70.452 52.1739 70.4886 52.53 70.4498H57.42V72.4288C57.42 73.1048 57.6887 73.7531 58.1669 74.231C58.6451 74.709 59.2937 74.9776 59.97 74.9776C60.6463 74.9776 61.2949 74.709 61.7731 74.231C62.2513 73.7531 62.52 73.1048 62.52 72.4288V70.4498H63.45C65.1766 70.4498 66.8324 69.7643 68.0533 68.544C69.2741 67.3238 69.96 65.6688 69.96 63.9431C69.96 62.2174 69.2741 60.5624 68.0533 59.3421C66.8324 58.1219 65.1766 57.4364 63.45 57.4364ZM57.45 57.4364H56.52C56.3323 57.4404 56.1457 57.4069 55.9712 57.3378C55.7967 57.2688 55.6377 57.1656 55.5035 57.0343C55.3694 56.9031 55.2629 56.7464 55.1901 56.5734C55.1174 56.4004 55.08 56.2147 55.08 56.0271C55.08 55.6454 55.2317 55.2793 55.5018 55.0093C55.7718 54.7394 56.1381 54.5878 56.52 54.5878H57.45V57.4364ZM63.45 65.3824H62.52V62.5338H63.45C63.6377 62.5298 63.8243 62.5633 63.9988 62.6323C64.1733 62.7014 64.3323 62.8046 64.4665 62.9358C64.6006 63.0671 64.7071 63.2238 64.7799 63.3968C64.8526 63.5697 64.89 63.7555 64.89 63.9431C64.89 64.3248 64.7383 64.6909 64.4682 64.9608C64.1982 65.2307 63.8319 65.3824 63.45 65.3824ZM60 90C59.5304 89.9972 59.068 89.8842 58.65 89.6702C57.69 89.1904 36 78.006 36 60.7347V40.8547C36.0041 40.2472 36.1928 39.6552 36.541 39.1572C36.8892 38.6592 37.3806 38.2787 37.95 38.0661L58.95 30.1801C59.6294 29.94 60.3706 29.94 61.05 30.1801L82.05 38.0661C82.6194 38.2787 83.1108 38.6592 83.459 39.1572C83.8072 39.6552 83.9959 40.2472 84 40.8547V60.7347C84 78.126 62.28 89.1904 61.35 89.6402C60.9346 89.8646 60.4721 89.9879 60 90ZM42 42.9536V60.7347C42 72.2789 55.62 81.0345 60 83.5532C64.38 81.0345 78 72.2789 78 60.7347V42.9536L60 36.207L42 42.9536Z" fill="#292730"/>
</svg>
