<svg width="120" height="120" viewBox="0 0 120 120" fill="none" xmlns="http://www.w3.org/2000/svg">
<g clip-path="url(#clip0)">
<path fill-rule="evenodd" clip-rule="evenodd" d="M112.536 71.8075C109.848 74.9275 106.632 79.1515 103.176 87.3115C94.5357 107.736 56.1357 101.376 56.8797 77.9035C57.6237 54.5275 43.4397 53.4715 47.5437 38.8075C51.0957 26.1595 80.3997 21.9115 103.176 32.0635C103.176 32.0635 103.272 32.1115 103.416 32.1835C100.992 -3.50447 41.3517 -12.3605 27.5997 20.1355C13.4157 53.6155 1.60773 46.6315 0.0477337 72.5035C-1.41627 97.1516 27.5997 110.712 27.5997 110.712C64.9197 127.344 112.968 120.384 118.776 99.6236C122.304 87.0715 117.624 80.5915 112.536 71.8075Z" fill="#FEFA6C"/>
<path fill-rule="evenodd" clip-rule="evenodd" d="M103.464 35.5436C102.888 53.8316 107.88 63.7916 112.512 71.8076C116.544 67.1036 119.376 64.8476 119.952 55.3676C120.792 41.3756 105.528 33.2396 103.392 32.1836C103.488 33.2876 103.512 34.3916 103.464 35.5436Z" fill="#FEFA6C"/>
<path d="M58.152 112.944C56.856 112.944 55.824 111.888 55.824 110.616C55.824 109.344 56.88 108.288 58.152 108.288C59.448 108.288 60.48 109.344 60.48 110.616C60.48 111.888 59.448 112.944 58.152 112.944ZM58.152 109.272C57.408 109.272 56.808 109.872 56.808 110.616C56.808 111.36 57.408 111.96 58.152 111.96C58.896 111.96 59.496 111.36 59.496 110.616C59.496 109.872 58.896 109.272 58.152 109.272Z" fill="#B8AC08"/>
<path d="M110.808 55.3921C108.84 55.3921 107.256 53.7841 107.256 51.8401C107.256 49.8721 108.864 48.2881 110.808 48.2881C112.776 48.2881 114.36 49.8961 114.36 51.8401C114.384 53.8081 112.776 55.3921 110.808 55.3921ZM110.808 49.2721C109.392 49.2721 108.24 50.4241 108.24 51.8401C108.24 53.2561 109.392 54.4081 110.808 54.4081C112.224 54.4081 113.376 53.2561 113.376 51.8401C113.376 50.4241 112.224 49.2721 110.808 49.2721Z" fill="#B8AC08"/>
<path d="M11.64 81.1199C10.344 81.1199 9.31201 80.0639 9.31201 78.7919C9.31201 77.5199 10.368 76.4639 11.64 76.4639C12.936 76.4639 13.968 77.5199 13.968 78.7919C13.968 80.0639 12.912 81.1199 11.64 81.1199ZM11.64 77.4479C10.896 77.4479 10.296 78.0479 10.296 78.7919C10.296 79.5359 10.896 80.1359 11.64 80.1359C12.384 80.1359 12.984 79.5359 12.984 78.7919C12.96 78.0479 12.36 77.4479 11.64 77.4479Z" fill="#B8AC08"/>
<path d="M51 16.584L49.176 9.79199L55.968 11.616L51 16.584ZM50.592 11.208L51.528 14.664L54.048 12.144L50.592 11.208Z" fill="#B8AC08"/>
<path fill-rule="evenodd" clip-rule="evenodd" d="M103.464 35.5438C103.512 34.3918 103.488 33.2878 103.416 32.1838C103.248 32.1118 103.176 32.0638 103.176 32.0638C80.4001 21.9118 51.0961 26.1598 47.5441 38.8318C43.4401 53.4958 57.6241 54.5278 56.8801 77.9278C56.1361 101.376 94.5121 107.76 103.176 87.3358C106.632 79.1758 109.848 74.9518 112.536 71.8318C107.88 63.7918 102.888 53.8318 103.464 35.5438Z" fill="#F5F548"/>
</g>
<path d="M63.45 57.4364H62.52V54.4379H66.3C66.9248 54.3698 67.5024 54.0736 67.9221 53.606C68.3417 53.1384 68.5738 52.5323 68.5738 51.9041C68.5738 51.276 68.3417 50.6699 67.9221 50.2023C67.5024 49.7347 66.9248 49.4385 66.3 49.3704H62.52V47.5413C62.52 47.2066 62.454 46.8752 62.3259 46.566C62.1977 46.2568 62.0099 45.9758 61.7731 45.7391C61.5363 45.5025 61.2552 45.3147 60.9458 45.1866C60.6365 45.0585 60.3049 44.9926 59.97 44.9926C59.6351 44.9926 59.3035 45.0585 58.9942 45.1866C58.6848 45.3147 58.4037 45.5025 58.1669 45.7391C57.9301 45.9758 57.7423 46.2568 57.6141 46.566C57.486 46.8752 57.42 47.2066 57.42 47.5413V49.5203H56.49C54.7634 49.5203 53.1076 50.2059 51.8867 51.4261C50.6659 52.6464 49.98 54.3014 49.98 56.0271C49.98 57.7528 50.6659 59.4078 51.8867 60.628C53.1076 61.8483 54.7634 62.5338 56.49 62.5338H57.42V65.3824H52.53C52.1739 65.3436 51.8137 65.3802 51.4727 65.4899C51.1318 65.5995 50.8178 65.7798 50.5511 66.0188C50.2845 66.2578 50.0713 66.5503 49.9253 66.8772C49.7793 67.2041 49.7038 67.5581 49.7038 67.9161C49.7038 68.2741 49.7793 68.6281 49.9253 68.955C50.0713 69.2819 50.2845 69.5744 50.5511 69.8134C50.8178 70.0524 51.1318 70.2327 51.4727 70.3423C51.8137 70.452 52.1739 70.4886 52.53 70.4498H57.42V72.4288C57.42 73.1048 57.6887 73.7531 58.1669 74.231C58.6451 74.709 59.2937 74.9776 59.97 74.9776C60.6463 74.9776 61.2949 74.709 61.7731 74.231C62.2513 73.7531 62.52 73.1048 62.52 72.4288V70.4498H63.45C65.1766 70.4498 66.8324 69.7643 68.0533 68.544C69.2741 67.3238 69.96 65.6688 69.96 63.9431C69.96 62.2174 69.2741 60.5624 68.0533 59.3421C66.8324 58.1219 65.1766 57.4364 63.45 57.4364ZM57.45 57.4364H56.52C56.3323 57.4404 56.1457 57.4069 55.9712 57.3378C55.7967 57.2688 55.6377 57.1656 55.5035 57.0343C55.3694 56.9031 55.2629 56.7464 55.1901 56.5734C55.1174 56.4004 55.08 56.2147 55.08 56.0271C55.08 55.6454 55.2317 55.2793 55.5018 55.0093C55.7718 54.7394 56.1381 54.5878 56.52 54.5878H57.45V57.4364ZM63.45 65.3824H62.52V62.5338H63.45C63.6377 62.5298 63.8243 62.5633 63.9988 62.6323C64.1733 62.7014 64.3323 62.8046 64.4665 62.9358C64.6006 63.0671 64.7071 63.2238 64.7799 63.3968C64.8526 63.5697 64.89 63.7555 64.89 63.9431C64.89 64.3248 64.7383 64.6909 64.4682 64.9608C64.1982 65.2307 63.8319 65.3824 63.45 65.3824ZM60 90C59.5304 89.9972 59.068 89.8842 58.65 89.6702C57.69 89.1904 36 78.006 36 60.7347V40.8547C36.0041 40.2472 36.1928 39.6552 36.541 39.1572C36.8892 38.6592 37.3806 38.2787 37.95 38.0661L58.95 30.1801C59.6294 29.94 60.3706 29.94 61.05 30.1801L82.05 38.0661C82.6194 38.2787 83.1108 38.6592 83.459 39.1572C83.8072 39.6552 83.9959 40.2472 84 40.8547V60.7347C84 78.126 62.28 89.1904 61.35 89.6402C60.9346 89.8646 60.4721 89.9879 60 90ZM42 42.9536V60.7347C42 72.2789 55.62 81.0345 60 83.5532C64.38 81.0345 78 72.2789 78 60.7347V42.9536L60 36.207L42 42.9536Z" fill="#292730"/>
<defs>
<clipPath id="clip0">
<rect width="120" height="120" fill="white"/>
</clipPath>
</defs>
</svg>
