<svg width="12" height="15" viewBox="0 0 12 15" fill="none" xmlns="http://www.w3.org/2000/svg">
<mask id="path-1-inside-1" fill="white">
<path fill-rule="evenodd" clip-rule="evenodd" d="M9.10001 4.27111C9.10001 6.23992 7.67001 7.78684 5.85001 7.78684C4.03 7.78684 2.6 6.23992 2.6 4.27111C2.6 2.30229 4.03 0.755371 5.85001 0.755371C7.67001 0.755371 9.10001 2.30229 9.10001 4.27111ZM7.80001 4.27111C7.80001 3.07576 6.95501 2.16167 5.85001 2.16167C4.74501 2.16167 3.9 3.07576 3.9 4.27111C3.9 5.46646 4.74501 6.38055 5.85001 6.38055C6.95501 6.38055 7.80001 5.46646 7.80001 4.27111ZM0 12.7089C0 10.7401 1.43 9.19314 3.25 9.19314H8.45001C10.27 9.19314 11.7 10.7401 11.7 12.7089V14.1152C11.7 14.5371 11.44 14.8183 11.05 14.8183C10.66 14.8183 10.4 14.5371 10.4 14.1152V12.7089C10.4 11.5135 9.55501 10.5994 8.45001 10.5994H3.25C2.145 10.5994 1.3 11.5135 1.3 12.7089V14.1152C1.3 14.5371 1.04 14.8183 0.650001 14.8183C0.26 14.8183 0 14.5371 0 14.1152V12.7089Z"/>
</mask>
<path fill-rule="evenodd" clip-rule="evenodd" d="M9.10001 4.27111C9.10001 6.23992 7.67001 7.78684 5.85001 7.78684C4.03 7.78684 2.6 6.23992 2.6 4.27111C2.6 2.30229 4.03 0.755371 5.85001 0.755371C7.67001 0.755371 9.10001 2.30229 9.10001 4.27111ZM7.80001 4.27111C7.80001 3.07576 6.95501 2.16167 5.85001 2.16167C4.74501 2.16167 3.9 3.07576 3.9 4.27111C3.9 5.46646 4.74501 6.38055 5.85001 6.38055C6.95501 6.38055 7.80001 5.46646 7.80001 4.27111ZM0 12.7089C0 10.7401 1.43 9.19314 3.25 9.19314H8.45001C10.27 9.19314 11.7 10.7401 11.7 12.7089V14.1152C11.7 14.5371 11.44 14.8183 11.05 14.8183C10.66 14.8183 10.4 14.5371 10.4 14.1152V12.7089C10.4 11.5135 9.55501 10.5994 8.45001 10.5994H3.25C2.145 10.5994 1.3 11.5135 1.3 12.7089V14.1152C1.3 14.5371 1.04 14.8183 0.650001 14.8183C0.26 14.8183 0 14.5371 0 14.1152V12.7089Z" fill="#BABABA"/>
<path d="M7.10001 4.27111C7.10001 5.28626 6.42034 5.78684 5.85001 5.78684V9.78684C8.91968 9.78684 11.1 7.19358 11.1 4.27111H7.10001ZM5.85001 5.78684C5.27967 5.78684 4.6 5.28626 4.6 4.27111H0.600003C0.600003 7.19358 2.78033 9.78684 5.85001 9.78684V5.78684ZM4.6 4.27111C4.6 3.25595 5.27967 2.75537 5.85001 2.75537V-1.24463C2.78033 -1.24463 0.600003 1.34864 0.600003 4.27111H4.6ZM5.85001 2.75537C6.42034 2.75537 7.10001 3.25595 7.10001 4.27111H11.1C11.1 1.34864 8.91968 -1.24463 5.85001 -1.24463V2.75537ZM9.80001 4.27111C9.80001 2.1221 8.20468 0.161665 5.85001 0.161665V4.16167C5.85007 4.16167 5.84876 4.16167 5.84622 4.1614C5.84369 4.16114 5.84026 4.16064 5.8361 4.15976C5.82751 4.15794 5.81781 4.15489 5.80792 4.1505C5.78722 4.14128 5.7751 4.13045 5.77076 4.12575C5.75974 4.11383 5.80001 4.14837 5.80001 4.27111H9.80001ZM5.85001 0.161665C3.49534 0.161665 1.9 2.1221 1.9 4.27111H5.9C5.9 4.14837 5.94027 4.11383 5.92926 4.12575C5.92492 4.13045 5.9128 4.14128 5.89209 4.1505C5.8822 4.15489 5.8725 4.15794 5.86391 4.15976C5.85975 4.16064 5.85633 4.16114 5.85379 4.1614C5.85125 4.16167 5.84994 4.16167 5.85001 4.16167V0.161665ZM1.9 4.27111C1.9 6.42012 3.49534 8.38055 5.85001 8.38055V4.38055C5.84994 4.38055 5.85125 4.38055 5.85379 4.38081C5.85633 4.38108 5.85975 4.38157 5.86391 4.38246C5.8725 4.38428 5.8822 4.38732 5.89209 4.39172C5.9128 4.40093 5.92492 4.41177 5.92926 4.41646C5.94027 4.42838 5.9 4.39384 5.9 4.27111H1.9ZM5.85001 8.38055C8.20468 8.38055 9.80001 6.42012 9.80001 4.27111H5.80001C5.80001 4.39384 5.75974 4.42838 5.77076 4.41646C5.7751 4.41177 5.78722 4.40093 5.80792 4.39172C5.81781 4.38732 5.82751 4.38428 5.8361 4.38246C5.84026 4.38157 5.84369 4.38108 5.84622 4.38081C5.84876 4.38055 5.85007 4.38055 5.85001 4.38055V8.38055ZM2 12.7089C2 11.6937 2.67967 11.1931 3.25 11.1931V7.19314C0.180332 7.19314 -2 9.7864 -2 12.7089H2ZM3.25 11.1931H8.45001V7.19314H3.25V11.1931ZM8.45001 11.1931C9.02034 11.1931 9.70001 11.6937 9.70001 12.7089H13.7C13.7 9.7864 11.5197 7.19314 8.45001 7.19314V11.1931ZM9.70001 12.7089V14.1152H13.7V12.7089H9.70001ZM9.70001 14.1152C9.70001 13.9165 9.76606 13.5773 10.0526 13.2673C10.3524 12.9431 10.7409 12.8183 11.05 12.8183V16.8183C11.7491 16.8183 12.4626 16.5529 12.9899 15.9826C13.504 15.4265 13.7 14.7357 13.7 14.1152H9.70001ZM11.05 12.8183C11.3591 12.8183 11.7476 12.9431 12.0474 13.2673C12.334 13.5773 12.4 13.9165 12.4 14.1152H8.40001C8.40001 14.7357 8.59606 15.4265 9.11014 15.9826C9.63738 16.5529 10.3509 16.8183 11.05 16.8183V12.8183ZM12.4 14.1152V12.7089H8.40001V14.1152H12.4ZM12.4 12.7089C12.4 10.5599 10.8047 8.59943 8.45001 8.59943V12.5994C8.45008 12.5994 8.44877 12.5994 8.44623 12.5992C8.44369 12.5989 8.44027 12.5984 8.4361 12.5975C8.42751 12.5957 8.41781 12.5927 8.40793 12.5883C8.38722 12.5791 8.3751 12.5682 8.37076 12.5635C8.35974 12.5516 8.40001 12.5861 8.40001 12.7089H12.4ZM8.45001 8.59943H3.25V12.5994H8.45001V8.59943ZM3.25 8.59943C0.895333 8.59943 -0.699999 10.5599 -0.699999 12.7089H3.3C3.3 12.5861 3.34027 12.5516 3.32925 12.5635C3.32491 12.5682 3.31279 12.5791 3.29209 12.5883C3.2822 12.5927 3.2725 12.5957 3.26391 12.5975C3.25975 12.5984 3.25632 12.5989 3.25378 12.5992C3.25124 12.5994 3.24993 12.5994 3.25 12.5994V8.59943ZM-0.699999 12.7089V14.1152H3.3V12.7089H-0.699999ZM-0.699999 14.1152C-0.699999 13.9165 -0.633952 13.5773 -0.347375 13.2673C-0.0476313 12.9431 0.340927 12.8183 0.650001 12.8183V16.8183C1.34908 16.8183 2.06263 16.5529 2.58988 15.9826C3.10395 15.4265 3.3 14.7357 3.3 14.1152H-0.699999ZM0.650001 12.8183C0.959075 12.8183 1.34763 12.9431 1.64738 13.2673C1.93395 13.5773 2 13.9165 2 14.1152H-2C-2 14.7357 -1.80395 15.4265 -1.28988 15.9826C-0.762632 16.5529 -0.0490737 16.8183 0.650001 16.8183V12.8183ZM2 14.1152V12.7089H-2V14.1152H2Z" fill="#BABABA" mask="url(#path-1-inside-1)"/>
</svg>
