<svg width="64" height="64" viewBox="0 0 64 64" fill="none" xmlns="http://www.w3.org/2000/svg">
<path opacity="0.5" d="M50.4084 4.50101C40.3671 -2.50348 27.109 -0.636797 18.2229 5.33657C1.37477 16.75 -3.53038 45.5857 8.21709 57.6214C20.6577 70.4392 50.8705 63.1503 59.5434 42.8124C64.8928 30.4034 62.4225 12.8566 50.4084 4.50101Z" fill="#B8F5F6"/>
<path opacity="0.4" d="M1.52316 20.2696C-2.63687 32.0254 2.23427 44.8482 9.96765 52.2823C24.5989 66.3678 52.7235 64.2159 61.2035 49.579C70.2347 33.9995 56.2791 5.59717 35.1767 1.79123C22.3055 -0.556368 6.48319 6.20186 1.52316 20.2696Z" fill="#B8F5F6"/>
<path fill-rule="evenodd" clip-rule="evenodd" d="M24.5 15.5H39.5C42.05 15.5 44 17.45 44 20V44C44 46.55 42.05 48.5 39.5 48.5H24.5C21.95 48.5 20 46.55 20 44V20C20 17.45 21.95 15.5 24.5 15.5ZM39.5 45.5C40.4 45.5 41 44.9 41 44V20C41 19.1 40.4 18.5 39.5 18.5H24.5C23.6 18.5 23 19.1 23 20V44C23 44.9 23.6 45.5 24.5 45.5H39.5ZM31.7 39.5C32.15 39.5 32.75 39.65 33.05 39.95C33.2 40.1 33.35 40.25 33.35 40.4C33.5 40.55 33.5 40.85 33.5 41C33.5 41.45 33.35 41.75 33.05 42.05C32.75 42.35 32.45 42.5 32 42.5C31.55 42.5 31.25 42.35 30.95 42.05C30.65 41.75 30.5 41.45 30.5 41C30.5 40.8243 30.5515 40.7 30.5941 40.5971C30.6243 40.5243 30.65 40.4621 30.65 40.4C30.65 40.25 30.8 40.1 30.95 39.95C30.95 39.95 30.95 39.8 31.1 39.8C31.25 39.65 31.25 39.65 31.4 39.65C31.4863 39.5637 31.5229 39.5271 31.567 39.5115C31.5996 39.5 31.6363 39.5 31.7 39.5Z" fill="#00AEC7"/>
</svg>
