<svg width="32" height="32" viewBox="0 0 32 32" fill="none" xmlns="http://www.w3.org/2000/svg">
<path d="M27.2001 18.532C26.0001 18.3987 24.8001 18.132 23.7335 17.732C22.2668 17.1987 20.6668 17.5987 19.4668 18.6654L18.5335 19.5987C16.1335 17.9987 14.0001 15.9987 12.4001 13.4654L13.3335 12.532C14.4001 11.4654 14.8001 9.73203 14.2668 8.26536C13.8668 7.1987 13.6001 5.9987 13.4668 4.7987C13.2001 2.7987 11.4668 1.33203 9.4668 1.33203H5.4668C5.33346 1.33203 5.20013 1.33203 5.0668 1.33203C4.00013 1.46536 3.0668 1.9987 2.40013 2.7987C1.73346 3.5987 1.4668 4.66536 1.4668 5.73203C1.8668 9.9987 3.4668 14.2654 5.73346 17.8654C7.8668 21.1987 10.8001 24.132 14.1335 26.2654C17.7335 28.6654 22.0001 30.132 26.2668 30.532C26.4001 30.532 26.5335 30.532 26.6668 30.532C27.7335 30.532 28.8001 30.132 29.4668 29.332C30.1335 28.532 30.6668 27.5987 30.6668 26.532V22.532C30.6668 20.532 29.2001 18.7987 27.2001 18.532ZM28.0001 22.532V26.532C28.0001 26.932 27.8668 27.1987 27.6001 27.4654C27.3335 27.732 27.0668 27.8654 26.5335 27.8654C22.6668 27.4654 18.9335 26.132 15.6001 23.9987C12.5335 22.132 10.0001 19.4654 8.00013 16.3987C5.8668 13.0654 4.53346 9.33203 4.13346 5.46536C4.13346 5.06536 4.2668 4.7987 4.40013 4.53203C4.6668 4.26536 5.0668 3.9987 5.4668 3.9987H9.4668C10.1335 3.9987 10.6668 4.53203 10.8001 5.1987C10.9335 6.53203 11.3335 7.9987 11.8668 9.1987C12.0001 9.73203 11.8668 10.2654 11.6001 10.6654L9.8668 12.2654C9.4668 12.6654 9.33346 13.332 9.60013 13.8654C11.6001 17.4654 14.5335 20.3987 18.1335 22.3987C18.6668 22.6654 19.3335 22.6654 19.7335 22.132L21.4668 20.3987C21.8668 19.9987 22.4001 19.8654 22.9335 20.132C24.2668 20.6654 25.6001 20.932 26.9335 21.1987C27.4668 21.332 28.0001 21.8654 28.0001 22.532Z" fill="#626277"/>
</svg>
