<svg width="64" height="64" viewBox="0 0 64 64" fill="none" xmlns="http://www.w3.org/2000/svg">
<path d="M56.0019 22.9093H52.9897C51.4537 20.3287 49.2776 18.1887 46.672 16.6965V8.00384H44.0063C41.5684 7.94747 39.1563 8.51268 36.9971 9.64623C34.8379 10.7798 33.0026 12.4444 31.6642 14.4833H19.8818C16.8341 14.4873 13.8429 15.3067 11.2183 16.8564C10.5592 15.9134 9.6813 15.1443 8.65994 14.6149C7.63858 14.0855 6.50415 13.8116 5.35382 13.8167C4.64684 13.8167 3.96881 14.0976 3.4689 14.5977C2.96898 15.0977 2.68814 15.776 2.68814 16.4831C2.68814 17.1903 2.96898 17.8686 3.4689 18.3686C3.96881 18.8687 4.64684 19.1496 5.35382 19.1496C5.70343 19.146 6.04639 19.2452 6.34018 19.4348C6.63397 19.6244 6.86567 19.8961 7.00655 20.2162C5.38566 22.0347 4.1715 24.1783 3.44522 26.5038C2.71894 28.8293 2.49727 31.2831 2.79502 33.7011C3.09278 36.1192 3.9031 38.4458 5.17183 40.5255C6.44055 42.6052 8.13846 44.3901 10.1521 45.7608V50.667C10.1869 52.0982 10.7817 53.4585 11.8085 54.4557C12.8353 55.4529 14.2122 56.0073 15.6434 55.9999H20.9747C22.4084 56.0075 23.7883 55.4539 24.8193 54.4574C25.8504 53.4609 26.451 52.1005 26.4927 50.667V48.9338H29.1584V50.667C29.2001 52.1005 29.8007 53.4609 30.8318 54.4574C31.8629 55.4539 33.2427 56.0075 34.6764 55.9999H40.0078C41.4415 56.0075 42.8213 55.4539 43.8523 54.4574C44.8834 53.4609 45.484 52.1005 45.5257 50.667V47.2006C48.636 45.7422 51.2363 43.3826 52.9897 40.4279H56.0019C57.4326 40.393 58.7925 39.798 59.7894 38.7709C60.7863 37.7438 61.3407 36.3665 61.3332 34.935V28.4022C61.3407 26.9706 60.7863 25.5933 59.7894 24.5662C58.7925 23.5391 57.4326 22.9442 56.0019 22.9093ZM56.0019 34.9616H49.5776L48.8578 36.5348C48.1774 37.9729 47.2124 39.2579 46.0211 40.3121C44.8298 41.3662 43.437 42.1676 41.927 42.6677L40.0611 43.281V50.667H34.6764V43.4676H21.0281V50.667H15.6967V42.6677L14.2839 41.8944C12.0204 40.6401 10.2364 38.6708 9.21088 36.2945C8.18532 33.9181 7.97606 31.2688 8.61581 28.7609C9.25557 26.2529 10.7083 24.0278 12.7467 22.4335C14.7851 20.8392 17.2943 19.9657 19.8818 19.9495H35.1029L35.796 18.2163C36.2991 17.1308 37.0393 16.1721 37.962 15.4106C38.8846 14.6492 39.9663 14.1045 41.1273 13.8167V20.1895L42.7534 20.9095C45.4273 22.0127 47.6007 24.0633 48.8578 26.669L49.5776 28.2689H56.0019V34.9616ZM31.051 30.1087H30.4646V28.3222H32.8104C33.2275 28.3222 33.6276 28.1564 33.9225 27.8614C34.2175 27.5664 34.3832 27.1662 34.3832 26.749C34.3832 26.3317 34.2175 25.9316 33.9225 25.6366C33.6276 25.3415 33.2275 25.1758 32.8104 25.1758H30.4646V24.0025C30.4145 23.6172 30.226 23.2632 29.9341 23.0067C29.6422 22.7502 29.267 22.6088 28.8785 22.6088C28.49 22.6088 28.1148 22.7502 27.8229 23.0067C27.531 23.2632 27.3425 23.6172 27.2924 24.0025V25.2558H26.6793C26.0995 25.1607 25.506 25.193 24.9399 25.3502C24.3738 25.5075 23.8487 25.786 23.4009 26.1665C22.9532 26.547 22.5935 27.0203 22.3468 27.5537C22.1001 28.0871 21.9723 28.6677 21.9723 29.2554C21.9723 29.8431 22.1001 30.4238 22.3468 30.9572C22.5935 31.4905 22.9532 31.9639 23.4009 32.3444C23.8487 32.7248 24.3738 33.0034 24.9399 33.1606C25.506 33.3179 26.0995 33.3501 26.6793 33.2551H27.2658V35.0416H24.2269C23.8098 35.0416 23.4097 35.2074 23.1148 35.5024C22.8198 35.7974 22.6541 36.1976 22.6541 36.6148C22.6541 37.0321 22.8198 37.4322 23.1148 37.7273C23.4097 38.0223 23.8098 38.188 24.2269 38.188H27.2924V39.4413C27.3425 39.8266 27.531 40.1806 27.8229 40.4371C28.1148 40.6936 28.49 40.835 28.8785 40.835C29.267 40.835 29.6422 40.6936 29.9341 40.4371C30.226 40.1806 30.4145 39.8266 30.4646 39.4413V38.188H31.051C31.9994 38.0326 32.8617 37.545 33.4839 36.8124C34.1062 36.0797 34.4478 35.1497 34.4478 34.1884C34.4478 33.227 34.1062 32.297 33.4839 31.5644C32.8617 30.8317 31.9994 30.3441 31.051 30.1887V30.1087ZM27.2924 30.1087H26.6793C26.4689 30.0722 26.2782 29.9626 26.1407 29.7992C26.0032 29.6357 25.9278 29.429 25.9278 29.2154C25.9278 29.0019 26.0032 28.7951 26.1407 28.6317C26.2782 28.4683 26.4689 28.3587 26.6793 28.3222H27.2658L27.2924 30.1087ZM31.051 35.0416H30.4646V33.2551H31.051C31.2614 33.2916 31.4522 33.4012 31.5896 33.5646C31.7271 33.7281 31.8025 33.9348 31.8025 34.1484C31.8025 34.362 31.7271 34.5687 31.5896 34.7321C31.4522 34.8955 31.2614 35.0051 31.051 35.0416Z" fill="#B4BCCE"/>
</svg>
