<svg width="48" height="48" viewBox="0 0 48 48" fill="none" xmlns="http://www.w3.org/2000/svg">
<path d="M47.9896 24.0212C48.3603 37.719 38.7693 46.9743 24.0353 47.9461C9.30123 48.8716 1.14655 37.7653 0.0808855 24.0212C-1.07745 8.84259 10.3669 1.25328 24.0353 0.0963741C38.5839 -1.10681 47.5726 9.07398 47.9896 24.0212Z" fill="#E3E829"/>
<path d="M33.5 23.2008L19.5 14.2008C19.2 14.0008 18.8 14.0008 18.5 14.2008C18.2 14.3008 18 14.6008 18 15.0008V33.0008C18 33.4008 18.2 33.7008 18.5 33.9008C18.7 34.0008 18.8 34.0008 19 34.0008C19.2 34.0008 19.4 33.9008 19.5 33.8008L33.5 24.8008C33.8 24.6008 34 24.3008 34 24.0008C34 23.7008 33.8 23.3008 33.5 23.2008ZM20 31.2008V16.8008L31.2 24.0008L20 31.2008Z" fill="#292730"/>
</svg>
