<svg xmlns="http://www.w3.org/2000/svg" width="34" height="34" viewBox="0 0 33 32" fill="none">
  <path d="M25.8335 14.6673H17.8335V6.66732C17.8335 5.86732 17.3002 5.33398 16.5002 5.33398C15.7002 5.33398 15.1668 5.86732 15.1668 6.66732L15.1668 14.6673L7.16683 14.6673C6.36683 14.6673 5.8335 15.2007 5.8335 16.0007C5.8335 16.8007 6.36683 17.334 7.16683 17.334H15.1668V25.334C15.1668 26.134 15.7002 26.6673 16.5002 26.6673C17.3002 26.6673 17.8335 26.134 17.8335 25.334V17.334H25.8335C26.6335 17.334 27.1668 16.8007 27.1668 16.0007C27.1668 15.2007 26.6335 14.6673 25.8335 14.6673Z" fill="#0033A0"/>
</svg>