<svg width="48" height="48" viewBox="0 0 48 48" fill="none" xmlns="http://www.w3.org/2000/svg">
<path d="M41.9354 38.9335C33.7681 49.6876 20.8199 50.8937 9.06693 42.4512C-2.68604 34.1092 -2.08843 20.4404 5.58088 9.28431C14.047 -3.07789 27.294 -1.87182 38.4494 5.76661C50.2023 13.9076 50.8 27.2748 41.9354 38.9335Z" fill="#292730"/>
<path d="M21.868 24.0013L28.9346 16.9346C29.468 16.4013 29.468 15.6013 28.9346 15.068C28.4013 14.5346 27.6013 14.5346 27.068 15.068L19.068 23.068C18.5346 23.6013 18.5346 24.4013 19.068 24.9346L27.068 32.9346C27.3346 33.2013 27.7346 33.3346 28.0013 33.3346C28.268 33.3346 28.668 33.2013 28.9346 32.9346C29.468 32.4013 29.468 31.6013 28.9346 31.068L21.868 24.0013Z" fill="#E3E829"/>
</svg>
