<svg width="48" height="48" viewBox="0 0 48 48" fill="none" xmlns="http://www.w3.org/2000/svg">
<path d="M41.9354 38.9335C33.7681 49.6876 20.8199 50.8937 9.06693 42.4512C-2.68604 34.1092 -2.08843 20.4404 5.58088 9.28431C14.047 -3.07789 27.294 -1.87182 38.4494 5.76661C50.2023 13.9076 50.8 27.2748 41.9354 38.9335Z" fill="#E3E829"/>
<path d="M21.867 24L28.9337 16.9333C29.467 16.4 29.467 15.6 28.9337 15.0666C28.4003 14.5333 27.6003 14.5333 27.067 15.0666L19.067 23.0666C18.5337 23.6 18.5337 24.4 19.067 24.9333L27.067 32.9333C27.3337 33.2 27.7337 33.3333 28.0003 33.3333C28.267 33.3333 28.667 33.2 28.9337 32.9333C29.467 32.4 29.467 31.6 28.9337 31.0666L21.867 24Z" fill="#0033A0"/>
</svg>
