<svg width="48" height="48" viewBox="0 0 48 48" fill="none" xmlns="http://www.w3.org/2000/svg">
<path d="M6.06458 9.06652C14.2319 -1.68759 27.1801 -2.89365 38.9331 5.54882C50.686 13.8908 50.0884 27.5596 42.4191 38.7157C33.953 51.0779 20.706 49.8718 9.55063 42.2334C-2.20235 34.0924 -2.79996 20.7252 6.06458 9.06652Z" fill="#E3E829"/>
<path d="M19.0654 24.932L27.0654 32.932C27.5987 33.4654 28.3987 33.4654 28.932 32.932C29.4654 32.3987 29.4654 31.5987 28.932 31.0654L21.8654 23.9987L28.932 16.932C29.4654 16.3987 29.4654 15.5987 28.932 15.0654C28.6654 14.7987 28.3987 14.6654 27.9987 14.6654C27.5987 14.6654 27.332 14.7987 27.0654 15.0654L19.0654 23.0654C18.532 23.5987 18.532 24.3987 19.0654 24.932Z" fill="#292730"/>
</svg>
