<svg width="24" height="24" viewBox="0 0 24 24" fill="none" xmlns="http://www.w3.org/2000/svg">
<path fill-rule="evenodd" clip-rule="evenodd" d="M18.3 3.2012C18.6 3.0012 19.1 2.9012 19.4 3.1012C19.8 3.3012 20 3.6012 20 4.0012V20.0012C20 20.4012 19.7 20.7012 19.4 20.9012C19.3 21.0012 19.1 21.0012 19 21.0012C18.8 21.0012 18.6 20.9012 18.4 20.8012L8.4 12.8012C8.1 12.6012 8 12.3012 8 12.0012C8 11.7012 8.1 11.4012 8.3 11.2012L18.3 3.2012ZM10.6 12.0012L18 17.9012V6.1012L10.6 12.0012ZM4 5.00122C4 4.40122 4.4 4.00122 5 4.00122C5.6 4.00122 6 4.40122 6 5.00122V19.0012C6 19.6012 5.6 20.0012 5 20.0012C4.4 20.0012 4 19.6012 4 19.0012V5.00122Z" fill="#292730"/>
</svg>
