<svg width="32" height="41" viewBox="0 0 32 41" fill="none" xmlns="http://www.w3.org/2000/svg">
<path fill-rule="evenodd" clip-rule="evenodd" d="M18.2704 37.1613L21.5887 36.4337C23.4903 36.0106 24.9299 34.4257 25.1934 32.465L25.5317 30.0508L17.1773 32.0351L8.77734 33.735L10.0787 35.7855C11.1094 37.4625 13.0631 38.3035 14.9651 37.8888L18.2704 37.1613ZM16.2544 38.8914C16.2099 38.6825 16.3429 38.476 16.5514 38.4301L20.9598 37.4595C21.1683 37.4136 21.3735 37.5457 21.418 37.7545C21.4625 37.9634 21.3295 38.1699 21.1209 38.2159L16.7125 39.1864C16.504 39.2323 16.2989 39.1002 16.2544 38.8914ZM18.1958 39.5571C18.0443 39.5905 17.9476 39.7405 17.98 39.8922C18.0123 40.044 18.1613 40.1399 18.3128 40.1066L20.0407 39.7262C20.1922 39.6928 20.2889 39.5428 20.2565 39.391C20.2242 39.2393 20.0752 39.1433 19.9237 39.1767L18.1958 39.5571Z" fill="#00AEC7"/>
<path fill-rule="evenodd" clip-rule="evenodd" d="M10.9042 2.57481L11.5549 2.43591C17.5713 1.18606 23.4804 5.00555 24.9193 11.0743C25.3878 13.0586 25.8693 15.1554 26.3313 17.3183C27.086 20.8438 27.574 23.5557 27.8928 25.5334C28.2928 27.9662 26.8171 30.3122 24.4769 30.9638C22.5249 31.5062 20.0264 32.161 17.3197 32.7563C14.613 33.3516 12.1145 33.8014 10.0844 34.1255C7.69061 34.5143 5.39511 33.0005 4.76857 30.6199C4.25456 28.6884 3.5974 25.9898 2.84914 22.4841L2.73454 21.9325L2.73454 21.9325C2.3245 19.9596 1.92188 18.0225 1.60639 16.2071C0.439467 10.0665 4.27895 4.09317 10.2796 2.71371L10.9042 2.57481ZM4.35214 30.9903C3.96826 29.5152 2.92721 25.0902 2.45223 22.8545C2.34813 22.3849 1.65843 22.2791 1.35263 23.1522C0.460406 25.674 0.412373 28.4247 1.21599 30.977C1.50265 32.0494 2.57096 32.7004 3.63642 32.452C4.50179 32.333 4.55385 31.8104 4.35214 30.9903ZM26.9429 17.4638C27.4178 19.7193 28.2767 24.1708 28.5239 25.6723C28.6606 26.5057 28.9339 26.9555 29.7667 26.7041C30.8376 26.4809 31.5458 25.4402 31.3738 24.3428C31.0682 21.6787 29.9037 19.1925 28.062 17.272C27.4308 16.604 26.8453 16.9942 26.9429 17.4638Z" fill="#E3E829"/>
<path fill-rule="evenodd" clip-rule="evenodd" d="M14.8347 21.1124C17.5675 20.5039 20.1701 19.7366 21.6406 19.2538C22.4933 18.9818 23.0731 18.178 23.072 17.2695C23.0887 15.8724 22.9578 14.4776 22.6816 13.109C22.461 12.1696 22.1335 11.2595 21.7056 10.3971C20.755 8.46819 18.6781 7.39507 16.585 7.75135C15.2837 7.96963 13.7026 8.25405 12.167 8.59138C10.7055 8.91965 9.25198 9.28354 7.80765 9.68275C5.75252 10.2421 4.30099 12.1048 4.23556 14.2665C4.19125 15.2306 4.26116 16.1967 4.44377 17.1438C4.74961 18.5116 5.19896 19.8421 5.78412 21.1124C6.15662 21.9299 7.0064 22.4086 7.88573 22.2964C9.45381 22.1046 12.1215 21.7276 14.8347 21.1323V21.1124Z" fill="white"/>
<path fill-rule="evenodd" clip-rule="evenodd" d="M22.9685 34.493C22.9358 34.9327 22.6286 35.3011 22.2072 35.4058C21.9696 35.4688 21.7168 35.4173 21.5213 35.2664C21.3258 35.1154 21.2093 34.8815 21.2052 34.6319V33.1966C21.198 32.7365 21.5112 32.3352 21.9535 32.2375L22.2398 32.1714C22.4599 32.125 22.6886 32.1865 22.8574 32.3373C23.0262 32.4881 23.1156 32.7108 23.0986 32.9387L22.9685 34.493ZM18.1407 36.4906C18.6112 36.3881 18.9272 35.9378 18.8694 35.4521L18.7067 34.0168C18.6744 33.7488 18.5325 33.507 18.3157 33.3509C18.099 33.1947 17.8275 33.1387 17.5681 33.1966L17.3143 33.2561C17.0572 33.311 16.8348 33.4738 16.7022 33.7044C16.5696 33.935 16.539 34.2118 16.6181 34.4666L17.0345 35.8424C17.179 36.3199 17.6618 36.6028 18.1407 36.4906ZM13.7097 37.2777C13.2835 37.3568 12.855 37.1522 12.6426 36.7684L11.8944 35.4058C11.7868 35.2058 11.7777 34.9661 11.8697 34.7582C11.9617 34.5503 12.1442 34.3983 12.3628 34.3475L12.6491 34.288C13.0915 34.1893 13.5409 34.4219 13.7227 34.8436L14.2953 36.1665C14.3877 36.3921 14.3754 36.6479 14.2619 36.8634C14.1484 37.0788 13.9456 37.2309 13.7097 37.2777Z" fill="#E9F7F9"/>
<path fill-rule="evenodd" clip-rule="evenodd" d="M11.0997 24.1355C11.0997 24.4131 10.8783 24.6382 10.6052 24.6382C10.3321 24.6382 10.1107 24.4131 10.1107 24.1355C10.1107 23.8579 10.3321 23.6328 10.6052 23.6328C10.8783 23.6328 11.0997 23.8579 11.0997 24.1355ZM8.50643 24.0825C8.23549 24.1422 8.06271 24.4105 8.12052 24.6818C8.17833 24.9532 8.44483 25.1248 8.71577 25.0651L9.12726 24.9745C9.3982 24.9149 9.57097 24.6466 9.51317 24.3752C9.45536 24.1039 9.18886 23.9323 8.91792 23.9919L8.50643 24.0825Z" fill="#1AA4BE"/>
<path fill-rule="evenodd" clip-rule="evenodd" d="M10.736 0.317491C10.736 0.492837 10.5961 0.634982 10.4236 0.634982C10.2512 0.634982 10.1113 0.492837 10.1113 0.317491C10.1113 0.142146 10.2512 0 10.4236 0C10.5961 0 10.736 0.142146 10.736 0.317491ZM10.6514 2.64576L10.4692 0.892944C10.468 0.871677 10.4781 0.851394 10.4957 0.839737C10.5132 0.828079 10.5355 0.826819 10.5542 0.836429C10.5729 0.84604 10.5852 0.865062 10.5863 0.88633L11.1589 2.53993L10.6514 2.64576Z" fill="#00AEC7"/>
<path fill-rule="evenodd" clip-rule="evenodd" d="M18.5962 14.6908C19.1712 14.6908 19.6373 14.217 19.6373 13.6325C19.6373 13.048 19.1712 12.5742 18.5962 12.5742C18.0213 12.5742 17.5552 13.048 17.5552 13.6325C17.5552 14.217 18.0213 14.6908 18.5962 14.6908ZM8.49808 16.9133C9.07303 16.9133 9.53913 16.4394 9.53913 15.855C9.53913 15.2705 9.07303 14.7967 8.49808 14.7967C7.92312 14.7967 7.45703 15.2705 7.45703 15.855C7.45703 16.4394 7.92312 16.9133 8.49808 16.9133ZM11.8359 17.5218C12.5076 18.1027 13.4082 18.3304 14.2694 18.1369C15.1473 17.9557 15.8885 17.3617 16.2669 16.5362C16.311 16.4299 16.296 16.3077 16.2275 16.2156C16.159 16.1236 16.0474 16.0757 15.9347 16.09C15.8221 16.1042 15.7254 16.1786 15.6813 16.2849C15.3859 16.9201 14.8169 17.3798 14.1414 17.5288C13.4659 17.6778 12.7606 17.4992 12.2328 17.0455C12.1012 16.9357 11.9072 16.9534 11.7969 17.0852C11.7436 17.1477 11.7177 17.2296 11.7251 17.3119C11.7324 17.3943 11.7725 17.4701 11.8359 17.5218Z" fill="#00AEC7"/>
</svg>
