<svg width="21" height="20" viewBox="0 0 21 20" fill="none" xmlns="http://www.w3.org/2000/svg">
<path d="M20.9999 8.9C20.6999 4.1 16.8999 0.2 11.9999 0H11.4999C9.99992 0 8.59992 0.3 7.29992 1C3.99992 2.6 1.99992 5.9 1.99992 9.5C1.99992 10.8 2.29992 12.2 2.79992 13.4L0.999924 18.7C0.899924 19.1 0.999924 19.5 1.19992 19.7C1.49992 19.9 1.69992 20 1.99992 20C2.09992 20 2.19992 20 2.29992 19.9L7.59992 18.1C8.79992 18.6 10.0999 18.9 11.4999 18.9C15.0999 18.9 18.3999 16.9 19.9999 13.7C20.6999 12.4 20.9999 10.9 20.9999 9.4V8.9ZM18.9999 9.5C18.9999 10.7 18.6999 11.8 18.1999 12.9C16.8999 15.5 14.3999 17 11.4999 17C10.2999 17 9.19992 16.7 8.19992 16.2C7.99992 16.1 7.69992 16.1 7.39992 16.1L3.59992 17.4L4.89992 13.6C4.99992 13.3 4.99992 13.1 4.79992 12.8C4.29992 11.8 3.99992 10.6 3.99992 9.5C3.99992 6.6 5.59992 4.1 8.19992 2.8C9.19992 2.3 10.3999 2 11.4999 2H11.8999C15.6999 2.2 18.6999 5.2 18.9999 9V9.5Z" fill="#0033A0"/>
</svg>
