<svg width="32" height="32" viewBox="0 0 32 32" fill="none" xmlns="http://www.w3.org/2000/svg">
<path d="M14.0806 25.6196C14.1388 25.5336 14.1794 25.437 14.2 25.3352C14.2342 25.1798 14.2213 25.0178 14.163 24.8698C14.1047 24.7218 14.0035 24.5945 13.8725 24.5043C13.7415 24.414 13.5865 24.3649 13.4274 24.3632C13.2683 24.3615 13.1123 24.4072 12.9794 24.4946C12.8464 24.5819 12.7425 24.707 12.681 24.8537C12.6195 25.0004 12.6031 25.1621 12.6339 25.3182C12.6647 25.4743 12.7414 25.6176 12.8541 25.7299C12.9668 25.8422 13.1105 25.9183 13.2667 25.9485C13.3682 25.97 13.4731 25.9711 13.5751 25.9518C13.6771 25.9325 13.7743 25.8933 13.861 25.8362C13.9478 25.7792 14.0224 25.7056 14.0806 25.6196Z" fill="#626277"/>
<path d="M10.101 24.5829C10.251 24.4328 10.4545 24.3486 10.6667 24.3486H11.36C11.5722 24.3486 11.7756 24.4328 11.9257 24.5829C12.0757 24.7329 12.16 24.9364 12.16 25.1486C12.16 25.3607 12.0757 25.5642 11.9257 25.7142C11.7756 25.8643 11.5722 25.9485 11.36 25.9485H10.6667C10.4545 25.9485 10.251 25.8643 10.101 25.7142C9.95094 25.5642 9.86666 25.3607 9.86666 25.1486C9.86666 24.9364 9.95094 24.7329 10.101 24.5829Z" fill="#626277"/>
<path fill-rule="evenodd" clip-rule="evenodd" d="M21.5161 12.9316C22.1399 13.4379 22.5852 14.1307 22.7867 14.9085C22.9518 15.6165 23.0324 16.3416 23.0267 17.0685C23.0159 18.1366 22.8907 19.2005 22.6533 20.2419C22.5908 20.563 22.428 20.8561 22.1885 21.0789C21.9489 21.3017 21.6448 21.4428 21.32 21.4819C20.1333 21.6152 17.24 21.7885 15.8667 21.7885C14.4933 21.7885 11.6267 21.6419 10.4133 21.5219C10.0775 21.4957 9.75887 21.3623 9.50445 21.1415C9.25002 20.9207 9.0732 20.624 8.99999 20.2952C8.75823 19.2543 8.6286 18.1904 8.61332 17.1219C8.62832 16.3878 8.73128 15.6581 8.91999 14.9485C9.1113 14.1679 9.54941 13.4699 10.1692 12.9583C10.789 12.4466 11.5573 12.1486 12.36 12.1085C13.52 12.0019 14.6267 12.0019 15.84 12.0019C17.0533 12.0019 18.3067 12.0019 19.32 12.0952C20.1226 12.1322 20.8922 12.4254 21.5161 12.9316ZM10.8974 16.6054C11.0797 16.7974 11.315 16.9308 11.5733 16.9885C11.9143 17.0648 12.2716 17.0041 12.5684 16.8196C12.8651 16.6351 13.0776 16.3414 13.16 16.0019C13.2224 15.7446 13.2069 15.4746 13.1153 15.2262C13.0238 14.9778 12.8603 14.7623 12.6458 14.6071C12.4313 14.4519 12.1755 14.3641 11.9109 14.3548C11.6463 14.3456 11.385 14.4153 11.1602 14.5551C10.9354 14.6949 10.7573 14.8984 10.6486 15.1398C10.5398 15.3812 10.5055 15.6495 10.5498 15.9105C10.5941 16.1715 10.7151 16.4134 10.8974 16.6054ZM17.449 20.0084C17.9292 19.7209 18.3224 19.3085 18.5867 18.8152C18.6698 18.6578 18.6869 18.4739 18.6344 18.3039C18.5819 18.1338 18.464 17.9916 18.3067 17.9085C18.1493 17.8254 17.9654 17.8082 17.7953 17.8608C17.6253 17.9133 17.4831 18.0312 17.4 18.1885C17.252 18.4706 17.0296 18.7069 16.757 18.8717C16.4844 19.0365 16.1719 19.1236 15.8533 19.1236C15.5348 19.1236 15.2223 19.0365 14.9496 18.8717C14.677 18.7069 14.4547 18.4706 14.3067 18.1885C14.2692 18.1052 14.215 18.0304 14.1475 17.9688C14.0799 17.9072 14.0004 17.8602 13.914 17.8307C13.8275 17.8011 13.7358 17.7897 13.6447 17.7971C13.5536 17.8044 13.465 17.8304 13.3844 17.8735C13.3038 17.9166 13.2329 17.9757 13.1761 18.0474C13.1193 18.119 13.0778 18.2015 13.0543 18.2898C13.0307 18.3781 13.0256 18.4703 13.0392 18.5607C13.0528 18.6511 13.0848 18.7377 13.1333 18.8152C13.3976 19.3085 13.7908 19.7209 14.271 20.0084C14.7512 20.2959 15.3003 20.4477 15.86 20.4477C16.4196 20.4477 16.9688 20.2959 17.449 20.0084ZM20.5848 16.8394C20.8796 16.647 21.0863 16.346 21.16 16.0019C21.2054 15.8275 21.2149 15.6457 21.1881 15.4676C21.1613 15.2894 21.0986 15.1185 21.0039 14.9653C20.9092 14.812 20.7844 14.6795 20.6371 14.5758C20.4897 14.4721 20.3229 14.3993 20.1467 14.3619C19.9716 14.3251 19.7909 14.3232 19.6151 14.3562C19.4393 14.3892 19.2716 14.4566 19.1218 14.5544C18.8193 14.7519 18.6076 15.0616 18.5333 15.4152C18.4966 15.5903 18.4946 15.7709 18.5277 15.9468C18.5607 16.1226 18.628 16.2902 18.7259 16.44C18.8237 16.5898 18.95 16.7189 19.0977 16.8199C19.2454 16.9209 19.4116 16.9918 19.5867 17.0285C19.9313 17.0997 20.2901 17.0317 20.5848 16.8394Z" fill="#626277"/>
<path fill-rule="evenodd" clip-rule="evenodd" d="M24.298 8.35917C22.2845 6.37907 19.6049 5.2294 16.7915 5.12902L16.4133 3.86855C16.6238 3.77704 16.807 3.63275 16.9454 3.44966C17.0837 3.26657 17.1725 3.05087 17.2031 2.82343C17.2336 2.59599 17.205 2.36451 17.1199 2.15139C17.0348 1.93826 16.8961 1.75071 16.7173 1.60688C16.5385 1.46305 16.3256 1.36781 16.0992 1.33037C15.8727 1.29292 15.6405 1.31455 15.4249 1.39316C15.2093 1.47177 15.0176 1.60469 14.8685 1.77907C14.7193 1.95345 14.6176 2.16338 14.5733 2.38855C14.5135 2.68487 14.5561 2.99272 14.6942 3.26163C14.8323 3.53055 15.0576 3.74455 15.3333 3.86855L14.9619 5.12779C12.1258 5.22094 9.42483 6.38152 7.40348 8.38362C5.30982 10.4573 4.11195 13.2688 4.06667 16.2152C4 17.4686 4 22.4552 4 26.6686C4 27.7294 4.42143 28.7469 5.17157 29.497C5.92172 30.2471 6.93913 30.6686 8 30.6686L23.76 30.6286C24.8205 30.6276 25.8372 30.2056 26.5867 29.4552C26.9574 29.0815 27.2507 28.6382 27.4498 28.1509C27.6488 27.6635 27.7497 27.1417 27.7467 26.6152C27.7395 24.8199 27.7167 22.3033 27.6972 20.1597C27.6807 18.3396 27.6667 16.7874 27.6667 16.1752C27.6075 13.23 26.3985 10.4247 24.298 8.35917ZM15.2933 7.84191H16.4133C18.6626 7.85509 20.8184 8.74358 22.4237 10.3191C24.0291 11.8946 24.9579 14.0333 25.0133 16.2819C25.08 17.6152 25.08 23.3619 25.08 26.6686C25.08 27.0222 24.9395 27.3613 24.6895 27.6114C24.4394 27.8614 24.1003 28.0019 23.7467 28.0019H8C7.64638 28.0019 7.30724 27.8614 7.05719 27.6114C6.80714 27.3613 6.66667 27.0222 6.66667 26.6686C6.66667 24.2686 6.66667 17.7352 6.73333 16.3352C6.7681 14.082 7.68319 11.9318 9.28289 10.3445C10.8826 8.75731 13.0399 7.85905 15.2933 7.84191Z" fill="#626277"/>
</svg>
