<svg width="48" height="48" viewBox="0 0 48 48" fill="none" xmlns="http://www.w3.org/2000/svg">
<path fill-rule="evenodd" clip-rule="evenodd" d="M42.8642 38.8642C42.0887 39.6398 41.0545 40 40 40L16 40C14.9455 40 13.9113 39.6398 13.1358 38.8642C12.3602 38.0887 12 37.0545 12 36L12 30.9307C11.6779 30.976 11.3444 31 11 31C7.09543 31 4 27.9046 4 24C4 20.0954 7.09543 17 11 17C11.3444 17 11.6779 17.024 12 17.0693L12 12C12 10.9455 12.3602 9.91134 13.1358 9.13578C13.9113 8.36022 14.9455 8 16 8L24 8C24.7575 8 25.4501 8.428 25.7889 9.10557C26.1276 9.78314 26.0545 10.594 25.6 11.2C25.2339 11.6881 25 12.2737 25 13C25 14.6954 26.3046 16 28 16C29.6954 16 31 14.6954 31 13C31 12.2737 30.7661 11.6881 30.4 11.2C29.9455 10.594 29.8724 9.78314 30.2111 9.10557C30.5499 8.428 31.2425 8 32 8L40 8C41.0545 8 42.0887 8.36023 42.8642 9.13579C43.6398 9.91134 44 10.9455 44 12L44 36C44 37.0545 43.6398 38.0887 42.8642 38.8642ZM16 36L40 36L40 12L34.9307 12C34.976 12.3221 35 12.6556 35 13C35 16.9046 31.9046 20 28 20C24.0954 20 21 16.9046 21 13C21 12.6556 21.024 12.3221 21.0693 12L16 12L16 20C16 20.7575 15.572 21.4501 14.8944 21.7889C14.2169 22.1276 13.406 22.0545 12.8 21.6C12.3119 21.2339 11.7263 21 11 21C9.30457 21 8 22.3046 8 24C8 25.6954 9.30457 27 11 27C11.7263 27 12.3119 26.7661 12.8 26.4C13.406 25.9455 14.2169 25.8724 14.8944 26.2111C15.572 26.5499 16 27.2425 16 28L16 36Z" fill="#0033A0"/>
</svg>
