<svg width="48" height="48" viewBox="0 0 48 48" fill="none" xmlns="http://www.w3.org/2000/svg">
<path fill-rule="evenodd" clip-rule="evenodd" d="M38.8642 5.13579C39.6398 5.91134 40 6.9455 40 8L40 32C40 33.0545 39.6398 34.0887 38.8642 34.8642C38.0887 35.6398 37.0545 36 36 36L30.9307 36C30.976 36.3221 31 36.6556 31 37C31 40.9046 27.9046 44 24 44C20.0954 44 17 40.9046 17 37C17 36.6556 17.024 36.3221 17.0693 36L12 36C10.9455 36 9.91134 35.6398 9.13578 34.8642C8.36023 34.0887 8 33.0545 8 32L8 24C8 23.2425 8.428 22.5499 9.10557 22.2111C9.78314 21.8724 10.594 21.9455 11.2 22.4C11.6881 22.7661 12.2737 23 13 23C14.6954 23 16 21.6954 16 20C16 18.3046 14.6954 17 13 17C12.2737 17 11.6881 17.2339 11.2 17.6C10.594 18.0545 9.78314 18.1276 9.10557 17.7889C8.428 17.4501 8 16.7575 8 16L8 8C8 6.9455 8.36023 5.91134 9.13579 5.13579C9.91134 4.36023 10.9455 4 12 4L36 4C37.0545 4 38.0887 4.36023 38.8642 5.13579ZM36 32L36 8L12 8L12 13.0693C12.3221 13.024 12.6556 13 13 13C16.9046 13 20 16.0954 20 20C20 23.9046 16.9046 27 13 27C12.6556 27 12.3221 26.976 12 26.9307L12 32L20 32C20.7575 32 21.4501 32.428 21.7889 33.1056C22.1276 33.7831 22.0545 34.594 21.6 35.2C21.2339 35.6881 21 36.2737 21 37C21 38.6954 22.3046 40 24 40C25.6954 40 27 38.6954 27 37C27 36.2737 26.7661 35.6881 26.4 35.2C25.9455 34.594 25.8724 33.7831 26.2111 33.1056C26.5499 32.428 27.2425 32 28 32L36 32Z" fill="#626277"/>
</svg>
