<svg width="48" height="48" viewBox="0 0 48 48" fill="none" xmlns="http://www.w3.org/2000/svg">
<path fill-rule="evenodd" clip-rule="evenodd" d="M9.13579 42.8642C8.36023 42.0887 8 41.0545 8 40L8 16C8 14.9455 8.36023 13.9113 9.13579 13.1358C9.91134 12.3602 10.9455 12 12 12L17.0693 12C17.024 11.6779 17 11.3444 17 11C17 7.09543 20.0954 4 24 4C27.9046 4 31 7.09543 31 11C31 11.3444 30.976 11.6779 30.9307 12L36 12C37.0545 12 38.0887 12.3602 38.8642 13.1358C39.6398 13.9113 40 14.9455 40 16L40 24C40 24.7575 39.572 25.4501 38.8944 25.7889C38.2169 26.1276 37.406 26.0545 36.8 25.6C36.3119 25.2339 35.7262 25 35 25C33.3046 25 32 26.3046 32 28C32 29.6954 33.3046 31 35 31C35.7262 31 36.3119 30.7661 36.8 30.4C37.406 29.9455 38.2169 29.8724 38.8944 30.2111C39.572 30.5499 40 31.2425 40 32L40 40C40 41.0545 39.6398 42.0887 38.8642 42.8642C38.0887 43.6398 37.0545 44 36 44L12 44C10.9455 44 9.91134 43.6398 9.13579 42.8642ZM12 16L12 40L36 40L36 34.9307C35.6779 34.976 35.3444 35 35 35C31.0954 35 28 31.9046 28 28C28 24.0954 31.0954 21 35 21C35.3444 21 35.6779 21.024 36 21.0693L36 16L28 16C27.2425 16 26.5499 15.572 26.2111 14.8944C25.8724 14.2169 25.9455 13.406 26.4 12.8C26.7661 12.3119 27 11.7262 27 11C27 9.30457 25.6954 8 24 8C22.3046 8 21 9.30457 21 11C21 11.7262 21.2339 12.3119 21.6 12.8C22.0545 13.406 22.1276 14.2169 21.7889 14.8944C21.4501 15.572 20.7575 16 20 16L12 16Z" fill="#626277"/>
</svg>
