<svg width="16" height="16" viewBox="0 0 16 16" fill="none" xmlns="http://www.w3.org/2000/svg">
<path fill-rule="evenodd" clip-rule="evenodd" d="M3.20039 1.59961C3.41256 1.59961 3.61605 1.68389 3.76608 1.83392C3.91611 1.98395 4.00039 2.18744 4.00039 2.39961V4.08041C4.66602 3.40143 5.49354 2.90305 6.40499 2.63224C7.31644 2.36142 8.28182 2.32706 9.21022 2.53241C10.1386 2.73776 10.9995 3.17606 11.7117 3.80601C12.4239 4.43596 12.964 5.23684 13.2812 6.13321C13.3197 6.23302 13.3377 6.33952 13.3343 6.44644C13.3309 6.55335 13.3061 6.6585 13.2614 6.75566C13.2166 6.85282 13.1529 6.94002 13.0738 7.0121C12.9948 7.08418 12.9021 7.13968 12.8013 7.17531C12.7004 7.21095 12.5934 7.22599 12.4866 7.21956C12.3799 7.21313 12.2755 7.18535 12.1796 7.13786C12.0838 7.09038 11.9984 7.02416 11.9286 6.94311C11.8588 6.86206 11.806 6.76784 11.7732 6.66601C11.5317 5.98346 11.1096 5.37922 10.5517 4.91767C9.99392 4.45612 9.32133 4.15456 8.60564 4.04511C7.88995 3.93567 7.15798 4.02245 6.48772 4.2962C5.81746 4.56995 5.23403 5.02042 4.79959 5.59961H7.20039C7.41256 5.59961 7.61605 5.68389 7.76608 5.83392C7.91611 5.98395 8.00039 6.18744 8.00039 6.39961C8.00039 6.61178 7.91611 6.81527 7.76608 6.96529C7.61605 7.11532 7.41256 7.19961 7.20039 7.19961H3.20039C2.98822 7.19961 2.78473 7.11532 2.63471 6.96529C2.48468 6.81527 2.40039 6.61178 2.40039 6.39961V2.39961C2.40039 2.18744 2.48468 1.98395 2.63471 1.83392C2.78473 1.68389 2.98822 1.59961 3.20039 1.59961ZM3.20679 8.84521C3.30586 8.81022 3.41085 8.79508 3.51577 8.80067C3.62069 8.80626 3.72348 8.83246 3.81827 8.87777C3.91306 8.92309 3.998 8.98663 4.06823 9.06478C4.13846 9.14292 4.19261 9.23414 4.22759 9.33321C4.46908 10.0158 4.89123 10.62 5.44905 11.0815C6.00686 11.5431 6.67945 11.8447 7.39514 11.9541C8.11083 12.0635 8.8428 11.9768 9.51306 11.703C10.1833 11.4293 10.7668 10.9788 11.2012 10.3996H8.80039C8.58822 10.3996 8.38474 10.3153 8.23471 10.1653C8.08468 10.0153 8.00039 9.81178 8.00039 9.59961C8.00039 9.38744 8.08468 9.18395 8.23471 9.03392C8.38474 8.88389 8.58822 8.79961 8.80039 8.79961H12.8004C13.0126 8.79961 13.216 8.88389 13.3661 9.03392C13.5161 9.18395 13.6004 9.38744 13.6004 9.59961V13.5996C13.6004 13.8118 13.5161 14.0153 13.3661 14.1653C13.216 14.3153 13.0126 14.3996 12.8004 14.3996C12.5882 14.3996 12.3847 14.3153 12.2347 14.1653C12.0847 14.0153 12.0004 13.8118 12.0004 13.5996V11.9188C11.3348 12.5978 10.5072 13.0962 9.5958 13.367C8.68435 13.6378 7.71896 13.6722 6.79057 13.4668C5.86217 13.2615 5.00133 12.8232 4.28912 12.1932C3.57691 11.5633 3.03677 10.7624 2.71959 9.86601C2.6846 9.76694 2.66946 9.66195 2.67505 9.55703C2.68064 9.45211 2.70684 9.34932 2.75216 9.25453C2.79747 9.15974 2.86102 9.0748 2.93916 9.00457C3.0173 8.93434 3.10852 8.88019 3.20759 8.84521H3.20679Z" fill="#626277"/>
</svg>
