<svg width="16" height="16" viewBox="0 0 16 16" fill="none" xmlns="http://www.w3.org/2000/svg">
<path fill-rule="evenodd" clip-rule="evenodd" d="M3.20039 1.60156C3.41256 1.60156 3.61605 1.68585 3.76608 1.83588C3.91611 1.98591 4.00039 2.18939 4.00039 2.40156V4.08236C4.66602 3.40338 5.49354 2.90501 6.40499 2.63419C7.31644 2.36337 8.28182 2.32902 9.21022 2.53437C10.1386 2.73972 10.9995 3.17801 11.7117 3.80796C12.4239 4.43791 12.964 5.23879 13.2812 6.13516C13.3197 6.23497 13.3377 6.34148 13.3343 6.44839C13.3309 6.55531 13.3061 6.66045 13.2614 6.75761C13.2166 6.85477 13.1529 6.94197 13.0738 7.01405C12.9948 7.08613 12.9021 7.14163 12.8013 7.17726C12.7004 7.2129 12.5934 7.22794 12.4866 7.22151C12.3799 7.21508 12.2755 7.1873 12.1796 7.13982C12.0838 7.09233 11.9984 7.02611 11.9286 6.94506C11.8588 6.86401 11.806 6.76979 11.7732 6.66796C11.5317 5.98541 11.1096 5.38117 10.5517 4.91962C9.99392 4.45807 9.32133 4.15651 8.60564 4.04707C7.88995 3.93762 7.15798 4.0244 6.48772 4.29816C5.81746 4.57191 5.23403 5.02238 4.79959 5.60156H7.20039C7.41256 5.60156 7.61605 5.68585 7.76608 5.83588C7.91611 5.98591 8.00039 6.18939 8.00039 6.40156C8.00039 6.61374 7.91611 6.81722 7.76608 6.96725C7.61605 7.11728 7.41256 7.20156 7.20039 7.20156H3.20039C2.98822 7.20156 2.78473 7.11728 2.63471 6.96725C2.48468 6.81722 2.40039 6.61374 2.40039 6.40156V2.40156C2.40039 2.18939 2.48468 1.98591 2.63471 1.83588C2.78473 1.68585 2.98822 1.60156 3.20039 1.60156ZM3.20679 8.84716C3.30586 8.81217 3.41085 8.79704 3.51577 8.80262C3.62069 8.80821 3.72348 8.83441 3.81827 8.87973C3.91306 8.92504 3.998 8.98859 4.06823 9.06673C4.13846 9.14488 4.19261 9.23609 4.22759 9.33516C4.46908 10.0177 4.89123 10.622 5.44905 11.0835C6.00686 11.5451 6.67945 11.8466 7.39514 11.9561C8.11083 12.0655 8.8428 11.9787 9.51306 11.705C10.1833 11.4312 10.7668 10.9807 11.2012 10.4016H8.80039C8.58822 10.4016 8.38474 10.3173 8.23471 10.1672C8.08468 10.0172 8.00039 9.81374 8.00039 9.60156C8.00039 9.38939 8.08468 9.18591 8.23471 9.03588C8.38474 8.88585 8.58822 8.80156 8.80039 8.80156H12.8004C13.0126 8.80156 13.216 8.88585 13.3661 9.03588C13.5161 9.18591 13.6004 9.38939 13.6004 9.60156V13.6016C13.6004 13.8137 13.5161 14.0172 13.3661 14.1672C13.216 14.3173 13.0126 14.4016 12.8004 14.4016C12.5882 14.4016 12.3847 14.3173 12.2347 14.1672C12.0847 14.0172 12.0004 13.8137 12.0004 13.6016V11.9208C11.3348 12.5997 10.5072 13.0981 9.5958 13.3689C8.68435 13.6398 7.71896 13.6741 6.79057 13.4688C5.86217 13.2634 5.00133 12.8251 4.28912 12.1952C3.57691 11.5652 3.03677 10.7643 2.71959 9.86796C2.6846 9.76889 2.66946 9.6639 2.67505 9.55898C2.68064 9.45407 2.70684 9.35128 2.75216 9.25648C2.79747 9.16169 2.86102 9.07676 2.93916 9.00652C3.0173 8.93629 3.10852 8.88214 3.20759 8.84716H3.20679Z" fill="#0033A0"/>
</svg>
