<svg width="32" height="32" viewBox="0 0 32 32" fill="none" xmlns="http://www.w3.org/2000/svg">
<path d="M28.9327 27.0667L23.9993 22.1334C25.5993 20.1334 26.666 17.4667 26.666 14.6667C26.666 8.00002 21.3327 2.66669 14.666 2.66669C7.99935 2.66669 2.66602 8.00002 2.66602 14.6667C2.66602 21.3334 7.99935 26.6667 14.666 26.6667C17.466 26.6667 20.1327 25.7334 22.1327 24L27.066 28.9334C27.3327 29.2 27.7327 29.3334 27.9993 29.3334C28.266 29.3334 28.666 29.2 28.9327 28.9334C29.466 28.4 29.466 27.6 28.9327 27.0667ZM5.33268 14.6667C5.33268 9.46669 9.46602 5.33335 14.666 5.33335C19.866 5.33335 23.9993 9.46669 23.9993 14.6667C23.9993 17.2 22.9327 19.6 21.3327 21.2C19.5993 22.9334 17.3327 23.8667 14.7993 23.8667C9.46602 24 5.33268 19.8667 5.33268 14.6667Z" fill="#626277"/>
</svg>
