<svg width="38" height="54" viewBox="0 0 38 54" fill="none" xmlns="http://www.w3.org/2000/svg">
<path fill-rule="evenodd" clip-rule="evenodd" d="M32.3333 19V35C32.3333 42.3638 26.3637 48.3334 18.9999 48.3334C11.6361 48.3334 5.66658 42.3638 5.66658 35V19C5.66658 11.6362 11.6361 5.66671 18.9999 5.66671C26.3637 5.66671 32.3333 11.6362 32.3333 19ZM0.333252 19C0.333252 8.69073 8.6906 0.333374 18.9999 0.333374C29.3092 0.333374 37.6666 8.69072 37.6666 19V35C37.6666 45.3094 29.3092 53.6667 18.9999 53.6667C8.6906 53.6667 0.333252 45.3094 0.333252 35V19ZM16.3333 21.6667C16.3333 23.1394 17.5272 24.3333 19 24.3333C20.4728 24.3333 21.6667 23.1394 21.6667 21.6667V16.3333C21.6667 14.8606 20.4728 13.6667 19 13.6667C17.5272 13.6667 16.3333 14.8606 16.3333 16.3333V21.6667Z" fill="#2EC5D6"/>
</svg>
