<svg width="20" height="28" viewBox="0 0 20 28" fill="none" xmlns="http://www.w3.org/2000/svg">
<path fill-rule="evenodd" clip-rule="evenodd" d="M16.666 10.0013V18.0013C16.666 21.6832 13.6812 24.668 9.99935 24.668C6.31745 24.668 3.33268 21.6832 3.33268 18.0013V10.0013C3.33268 6.3194 6.31745 3.33464 9.99935 3.33464C13.6812 3.33464 16.666 6.3194 16.666 10.0013ZM0.666016 10.0013C0.666016 4.84664 4.84469 0.667969 9.99935 0.667969C15.154 0.667969 19.3327 4.84664 19.3327 10.0013V18.0013C19.3327 23.156 15.154 27.3346 9.99935 27.3346C4.84469 27.3346 0.666016 23.156 0.666016 18.0013V10.0013ZM8.66667 11.3346C8.66667 12.071 9.26362 12.6679 10 12.6679C10.7364 12.6679 11.3333 12.071 11.3333 11.3346V8.66795C11.3333 7.93157 10.7364 7.33462 10 7.33462C9.26362 7.33462 8.66667 7.93157 8.66667 8.66795V11.3346Z" fill="#0033A0"/>
</svg>
