<svg xmlns="http://www.w3.org/2000/svg" xmlns:xlink="http://www.w3.org/1999/xlink" width="47.24" height="590" viewBox="0 0 47.24 590"><svg width="19" height="9" viewBox="0 0 19 9" id="arrow-terms-use" y="0"><defs><style>.blue{fill:#0033a0;fill-rule:evenodd}</style></defs><path class="blue" d="M0 .008v3.128l9.5 5.871L19 3.136V.008L9.12 6.023z"></path></svg><svg width="27" height="22" viewBox="0 0 27 22" id="arrowselectform" y="9"><defs><style>.blue-two{fill:#00aec7;fill-rule:evenodd}</style></defs><path id="Forma_1" data-name="Forma 1" class="blue-two" d="M0 0h1v22H0V0zm15 7l6 6.187L27 7v1.82L21 15l-6-6.184V7z"></path></svg><svg width="6" height="13" viewBox="0 0 6 13" id="icon-blue-arrow" y="31"><defs><style>.blue{fill:#0033a0;fill-rule:evenodd}</style></defs><path class="blue" d="M0 13.014l4.753-6.5L0 .007h1.257L6.01 6.51l-4.753 6.5H0z"></path></svg><svg width="14" height="11" viewBox="0 0 14 11" id="icon-bread" y="44"><defs><style>.grey{fill:#737373;fill-rule:evenodd}</style></defs><path class="grey" d="M13.779 4.94L7.316.1a.519.519 0 0 0-.626 0L.226 4.94a.579.579 0 0 0-.126.784.524.524 0 0 0 .751.13l.77-.576v5.154a.55.55 0 0 0 .538.562H5.6a.55.55 0 0 0 .538-.562V6.888h1.726v3.545a.55.55 0 0 0 .538.562h3.441a.55.55 0 0 0 .538-.562V5.277l.771.577a.517.517 0 0 0 .312.105.53.53 0 0 0 .436-.235.578.578 0 0 0-.121-.784zm-2.474-.348V9.87H8.94V6.325a.55.55 0 0 0-.54-.562H5.6a.55.55 0 0 0-.538.562V9.87H2.7V4.592a.555.555 0 0 0-.02-.1L7 1.251l4.323 3.236a.555.555 0 0 0-.018.105z"></path></svg><svg width="15" height="19" viewBox="0 0 15 19" id="icon-condiciones" y="55"><defs><style>.blue-condiciones{fill:#00399f;fill-rule:evenodd}</style></defs><path class="blue-condiciones" d="M14.174 19.013H.81a.831.831 0 0 1-.818-.844V.837A.831.831 0 0 1 .81-.007h8.455a.805.805 0 0 1 .578.247l4.91 5.066a.858.858 0 0 1 .24.6v12.263a.831.831 0 0 1-.819.844zm-4.5-16.56v3.028h2.934zm3.682 3.872H9.265a.415.415 0 0 1-.41-.425V1.681H1.628v15.643h11.728v-11zM3.57 8.422h3.342a.422.422 0 0 1 0 .844H3.57a.422.422 0 0 1 0-.844zm0 2.041h7.978a.422.422 0 0 1 0 .844H3.57a.422.422 0 0 1 0-.844zm0 2.041h7.978a.422.422 0 0 1 0 .844H3.57a.422.422 0 0 1 0-.848zm0 2.041h4.808a.422.422 0 0 1 0 .844H3.57a.422.422 0 0 1 0-.845z"></path></svg><svg width="9.937" height="19.406" viewBox="0 0 9.937 19.406" id="icon-fbMobile" y="74"><defs><style>.blue{fill:#00399f;fill-rule:evenodd}</style></defs><path class="blue" d="M6.5 7.115c.587.011 1.132 0 1.677 0s1.062-.012 1.583.013a.421.421 0 0 1 .039.36q-.129 1.059-.267 2.113c-.039.3-.083.594-.121.868a.61.61 0 0 1-.407.075c-.7.006-1.4.006-2.107.011a.7.7 0 0 0-.386.057.84.84 0 0 0-.046.422v8.325a1.09 1.09 0 0 1-.236.059q-1.542.006-3.083 0a.524.524 0 0 1-.112-.024.587.587 0 0 1-.065-.419q-.005-2.029 0-4.058v-3.821c0-.156-.008-.311-.011-.449a.546.546 0 0 0-.432-.094c-.676-.007-1.353-.006-2.029-.01-.141 0-.282-.009-.419-.015a.39.39 0 0 1-.056-.121V7.296a.531.531 0 0 1 .049-.15 6.045 6.045 0 0 1 .94-.027h.937c.313 0 .622-.006.9-.009a.369.369 0 0 0 .115-.353c0-.67 0-1.34.009-2.009.006-.367.022-.735.062-1.1a4.377 4.377 0 0 1 .5-1.607A3.716 3.716 0 0 1 5.881.187 5.1 5.1 0 0 1 7.274.003a21.753 21.753 0 0 1 2.416.1c.064.007.127.021.205.035a1.025 1.025 0 0 1 .053.224q.006 1.28 0 2.561a1.376 1.376 0 0 1-.049.247c-.139 0-.267.01-.4.01-.442 0-.885 0-1.327.007a3.792 3.792 0 0 0-.619.063 1.237 1.237 0 0 0-1.05 1.068 2.141 2.141 0 0 0-.038.391q-.006 1.044 0 2.088c0 .09.016.177.035.318z"></path></svg><svg width="6" height="15.969" viewBox="0 0 6 15.969" id="icon-flecha-menu" y="94"><defs><style>.blue-flecha{fill:#0033a0;fill-rule:evenodd}</style></defs><path class="blue-flecha" d="M0 15.984L4.753 8 0 .008h1.257L6.01 8l-4.753 7.984H0z"></path></svg><svg viewBox="0 0 47.24 60.65" width="47.24" height="60.65" id="icon-flotant-pronto" y="110"><defs><style>.cls-1{fill:#00aec7}.cls-2{fill:#e3e829}.cls-3{fill:#fff}.cls-4{fill:#e9f7f9}.cls-5{fill:#1aa4be}</style></defs><title>Asset 17</title><g id="Layer_2" data-name="Layer 2"><g id="Layer_1-2" data-name="Layer 1"><path id="_Path_" data-name="&lt;Path&gt;" class="cls-1" d="M27.08 56.18l5.1-1.1a7.13 7.13 0 0 0 5.54-6l.52-3.65-12.84 3L12.49 51l2 3.1A7.1 7.1 0 0 0 22 57.28z"></path><path id="_Path_2" data-name="&lt;Path&gt;" class="cls-2" d="M15.76 3.89l1-.21A17.52 17.52 0 0 1 37.3 16.74c.72 3 1.46 6.17 2.17 9.44 1.16 5.33 1.91 9.43 2.4 12.42a7.27 7.27 0 0 1-5.25 8.21c-3 .82-6.84 1.81-11 2.71s-8 1.58-11.12 2.07a7.27 7.27 0 0 1-8.17-5.3c-.79-2.92-1.8-7-2.95-12.3C2.69 30.72 2 27.5 1.47 24.5A17.51 17.51 0 0 1 14.8 4.1z"></path><path id="_Path_3" data-name="&lt;Path&gt;" class="cls-2" d="M5.69 46.85c-.59-2.23-2.19-8.92-2.92-12.3-.16-.71-1.22-.87-1.69.45a18.39 18.39 0 0 0-.21 11.83 3.13 3.13 0 0 0 3.72 2.23c1.33-.18 1.41-.97 1.1-2.21z"></path><path id="_Path_4" data-name="&lt;Path&gt;" class="cls-2" d="M42.84 38.81c-.38-2.27-1.7-9-2.43-12.41-.15-.71.75-1.3 1.72-.29a18.36 18.36 0 0 1 5.09 10.69 3.14 3.14 0 0 1-2.47 3.57c-1.28.38-1.7-.3-1.91-1.56z"></path><path id="_Path_5" data-name="&lt;Path&gt;" class="cls-3" d="M21.8 31.92C26 31 30 29.84 32.26 29.11a3.14 3.14 0 0 0 2.2-3 29.52 29.52 0 0 0-.6-6.29 18.79 18.79 0 0 0-1.5-4.1 7.43 7.43 0 0 0-7.87-4c-2 .33-4.43.76-6.79 1.27a143.7 143.7 0 0 0-6.7 1.65 7.41 7.41 0 0 0-5.49 6.93 18.2 18.2 0 0 0 .32 4.35 29.64 29.64 0 0 0 2.06 6 3.13 3.13 0 0 0 3.23 1.79c2.41-.29 6.51-.86 10.68-1.76z"></path><path id="_Path_6" data-name="&lt;Path&gt;" class="cls-4" d="M26.88 55.17A1.43 1.43 0 0 0 28 53.6l-.25-2.17A1.45 1.45 0 0 0 26 50.19l-.39.09a1.43 1.43 0 0 0-1.07 1.83l.64 2.08a1.44 1.44 0 0 0 1.7.98z"></path><path id="_Path_7" data-name="&lt;Path&gt;" class="cls-4" d="M20.07 56.36a1.56 1.56 0 0 1-1.64-.77l-1.15-2.06a1.1 1.1 0 0 1 .72-1.6l.44-.09a1.46 1.46 0 0 1 1.65.84l.88 2a1.23 1.23 0 0 1-.9 1.68z"></path><path id="_Path_8" data-name="&lt;Path&gt;" class="cls-4" d="M33.13 53.53a1.54 1.54 0 0 0 1.17-1.38l.2-2.35a1.1 1.1 0 0 0-1.32-1.16l-.44.1a1.46 1.46 0 0 0-1.15 1.45v2.17a1.23 1.23 0 0 0 1.54 1.17z"></path><rect id="_Rectangle_" data-name="&lt;Rectangle&gt;" class="cls-1" x="23.89" y="57.35" width="8.12" height="1.17" rx=".58" ry=".58" transform="rotate(-12.22 27.956 57.938)"></rect><rect id="_Rectangle_2" data-name="&lt;Rectangle&gt;" class="cls-1" x="26.59" y="59.51" width="3.58" height=".85" rx=".43" ry=".43" transform="rotate(-12.22 28.358 59.918)"></rect><rect id="_Rectangle_3" data-name="&lt;Rectangle&gt;" class="cls-5" x="11.45" y="36.33" width="2.19" height="1.52" rx=".76" ry=".76" transform="rotate(-12.22 12.521 37.057)"></rect><circle id="_Path_9" data-name="&lt;Path&gt;" class="cls-5" cx="15.3" cy="36.49" r=".76"></circle><path id="_Path_10" data-name="&lt;Path&gt;" class="cls-1" d="M15.09 1.35L15.37 4l.78-.16-.88-2.5a.09.09 0 0 0-.18.01z"></path><g id="_Group_" data-name="&lt;Group&gt;"><circle id="_Path_11" data-name="&lt;Path&gt;" class="cls-1" cx="12.06" cy="23.97" r="1.6"></circle><circle id="_Path_12" data-name="&lt;Path&gt;" class="cls-1" cx="27.58" cy="20.61" r="1.6"></circle></g><g id="_Group_2" data-name="&lt;Group&gt;"><path id="_Path_13" data-name="&lt;Path&gt;" class="cls-1" d="M20.93 27.42a4.33 4.33 0 0 1-3.74-.93.46.46 0 0 1-.06-.66.48.48 0 0 1 .67-.06 3.42 3.42 0 0 0 5.3-1.15.47.47 0 1 1 .9.38 4.34 4.34 0 0 1-3.07 2.42z"></path></g><circle id="_Path_14" data-name="&lt;Path&gt;" class="cls-1" cx="15.02" cy=".48" r=".48"></circle></g></g></svg><svg width="17" height="17.687" viewBox="0 0 17 17.687" id="icon-googleMobile" y="171"><defs><style>.blue-redes{fill:#00399f;fill-rule:evenodd}</style></defs><path class="blue-redes" d="M6.109 10.473c-.038-.088-.056-.147-.086-.2-.1-.17-.205-.335-.3-.508a1.639 1.639 0 0 1-.137-1.367c.038-.109.065-.222.1-.342a.558.558 0 0 0-.392-.05 6.263 6.263 0 0 1-1.207-.073 3.638 3.638 0 0 1-2.8-4.592A4.3 4.3 0 0 1 3.463.675 4.761 4.761 0 0 1 4.935.166 12.381 12.381 0 0 1 7.116.01l3.6.01c.077 0 .153.008.226.011.033.1-.042.123-.092.153-.279.169-.562.333-.839.5a.791.791 0 0 1-.446.119c-.274-.005-.548 0-.821 0-.074 0-.148.014-.212.02a.163.163 0 0 0 .093.209 3.967 3.967 0 0 1 1.084 1.569 3.1 3.1 0 0 1 .169.6 4.527 4.527 0 0 1-.072 1.838 3.517 3.517 0 0 1-1.052 1.688c-.158.154-.337.291-.489.454a5.238 5.238 0 0 0-.5.6 1.045 1.045 0 0 0 .076 1.31 7.176 7.176 0 0 0 .529.523 15.122 15.122 0 0 1 1.555 1.431 3.124 3.124 0 0 1 .785 1.766 3.74 3.74 0 0 1-1.033 3.1 5.214 5.214 0 0 1-2.724 1.531 8.8 8.8 0 0 1-3.917.064 4.31 4.31 0 0 1-2.1-1.072 2.76 2.76 0 0 1-.948-2 2.528 2.528 0 0 1 .08-.622A3.339 3.339 0 0 1 1.7 11.603a6.969 6.969 0 0 1 2.758-.936c.492-.055.985-.1 1.477-.157.041-.003.079-.015.174-.037zm-.265.641a7.247 7.247 0 0 0-1.819.331 3.389 3.389 0 0 0-1.185.584 2.366 2.366 0 0 0-.12 3.646 3.768 3.768 0 0 0 1.484.842 6.108 6.108 0 0 0 2.319.207 3.967 3.967 0 0 0 1.247-.306 2.336 2.336 0 0 0 1.433-1.56 2.245 2.245 0 0 0-.68-2.362 16.45 16.45 0 0 0-1.21-.993 1.542 1.542 0 0 0-1.469-.389zm2.172-5.988a5.981 5.981 0 0 0-.129-1.266 6.254 6.254 0 0 0-.706-1.827A2.514 2.514 0 0 0 5.897.881 2.011 2.011 0 0 0 3.34 1.934a3.152 3.152 0 0 0-.269 1.22 5.549 5.549 0 0 0 .905 3.009 3.019 3.019 0 0 0 .747.8 2.043 2.043 0 0 0 2.279.208 1.718 1.718 0 0 0 .961-1.39c.036-.249.041-.5.053-.655zm5.642 5.7c-.011-.207-.025-.362-.026-.518V8.929c0-.116-.014-.231-.023-.37-.117-.014-.217-.034-.316-.035-.547-.006-1.095-.007-1.642-.011-.077 0-.153-.009-.248-.015a1.21 1.21 0 0 1-.047-.228 3.335 3.335 0 0 1 .027-.79 3.156 3.156 0 0 1 .714-.036c.248-.007.5 0 .743 0h.665a.349.349 0 0 0 .12-.349c.005-.486 0-.972.006-1.458 0-.143.011-.285.018-.445a3.6 3.6 0 0 1 1-.02 1.969 1.969 0 0 1 .04.27c0 .512 0 1.025.006 1.537 0 .13.006.259.009.357a.32.32 0 0 0 .314.107c.508 0 1.017 0 1.525.005.127 0 .254.014.393.022a4.313 4.313 0 0 1 .035 1.011c-.145.01-.259.025-.373.026-.5.006-.991.006-1.486.012-.115 0-.23.015-.314.02a.38.38 0 0 0-.1.324v1.458c0 .143 0 .287-.008.441a4.024 4.024 0 0 1-1.032.066z"></path></svg><svg width="17.219" height="17.188" viewBox="0 0 17.219 17.188" id="icon-instagramMobile" y="189"><defs><style>.blue-redes{fill:#00399f;fill-rule:evenodd}</style></defs><path class="blue-redes" d="M8.566-.002h2.82a10.941 10.941 0 0 1 1.91.156 4.492 4.492 0 0 1 2.936 1.788 4.56 4.56 0 0 1 .758 1.709 7.2 7.2 0 0 1 .162 1.124c.04.613.062 1.228.06 1.843q-.006 2.668-.042 5.337a8.26 8.26 0 0 1-.113 1.209 4.546 4.546 0 0 1-1.43 2.723 4.636 4.636 0 0 1-2.072 1.055 6.969 6.969 0 0 1-1.357.175c-1.983.087-3.968.058-5.952.043-.457 0-.913-.03-1.369-.054a5.991 5.991 0 0 1-1.8-.352A4.324 4.324 0 0 1 .403 14.07a6.508 6.508 0 0 1-.347-1.845C-.063 10.24-.009 8.251 0 6.264a15.15 15.15 0 0 1 .14-2.152 4.787 4.787 0 0 1 .883-2.238A4.5 4.5 0 0 1 3.912.152a9.86 9.86 0 0 1 1.717-.15c.979-.009 1.958 0 2.937 0zm.065 1.49c-.718 0-1.436-.01-2.153 0-.587.013-1.174.037-1.759.082a4.9 4.9 0 0 0-.883.162 2.922 2.922 0 0 0-1.139.593 3.093 3.093 0 0 0-1.048 1.958 7.894 7.894 0 0 0-.092.975 87.803 87.803 0 0 0-.045 2.118c-.018 1.556-.023 3.112.047 4.667a5.174 5.174 0 0 0 .236 1.427 2.874 2.874 0 0 0 1.889 1.9 5.085 5.085 0 0 0 1.5.239c2.283.068 4.567.074 6.85 0a5.971 5.971 0 0 0 1.162-.151 2.875 2.875 0 0 0 2.237-2.033 4.626 4.626 0 0 0 .151-.648 15.626 15.626 0 0 0 .125-2.113 83.13 83.13 0 0 0 .01-2.825 81.086 81.086 0 0 0-.06-2.745 6.087 6.087 0 0 0-.161-1.162 2.844 2.844 0 0 0-2.036-2.179 4.445 4.445 0 0 0-.958-.182 31.306 31.306 0 0 0-1.837-.081c-.679-.012-1.355-.003-2.036-.003zM4.212 8.536a4.366 4.366 0 0 1 4.44-4.363 4.4 4.4 0 1 1-4.44 4.363zm7.3.073a2.9 2.9 0 1 0-2.973 2.853 2.889 2.889 0 0 0 2.967-2.853zm2.731-4.613a1.016 1.016 0 1 1-2.031-.057 1 1 0 0 1 1.014-.97 1.031 1.031 0 0 1 1.01 1.027z"></path></svg><svg width="20.656" height="20.812" viewBox="0 0 20.656 20.812" id="icon-printMobile" y="207"><defs><style>.blue-redes{fill:#00399f;fill-rule:evenodd}</style></defs><path class="blue-redes" d="M6.126 19.83a7.638 7.638 0 0 1-2.617-1.617A10.219 10.219 0 0 1 .535 13.67 10.34 10.34 0 0 1 .35 7.814a10.326 10.326 0 1 1 19.644 6.254 10.2 10.2 0 0 1-12.51 6.291 2.578 2.578 0 0 1 .1-.246c.121-.232.251-.459.373-.691a8.8 8.8 0 0 0 .706-2.037q.189-.763.385-1.525c.035-.134.081-.265.132-.43a1.745 1.745 0 0 1 .14.122 3.09 3.09 0 0 0 2.473 1.054 4.99 4.99 0 0 0 3.979-2.088 6.9 6.9 0 0 0 1.2-2.5 9.082 9.082 0 0 0 .315-2.92 5.721 5.721 0 0 0-1.923-3.92 6.234 6.234 0 0 0-3.417-1.6 8.138 8.138 0 0 0-4.837.7 6.517 6.517 0 0 0-3.49 3.987 5.631 5.631 0 0 0 .114 3.928 3.169 3.169 0 0 0 1.391 1.644 2.2 2.2 0 0 0 .318.149.378.378 0 0 0 .536-.235 1.292 1.292 0 0 0 .06-.187c.063-.241.122-.483.185-.724a.5.5 0 0 0-.088-.446 3.214 3.214 0 0 0-.121-.161 2.839 2.839 0 0 1-.614-1.627A4.851 4.851 0 0 1 9.092 5.45a5.464 5.464 0 0 1 3.193.139 3.511 3.511 0 0 1 2.071 1.855 3.914 3.914 0 0 1 .381 1.635 9.031 9.031 0 0 1-.469 3.1 5.7 5.7 0 0 1-.555 1.169 3.42 3.42 0 0 1-.86.957 2.161 2.161 0 0 1-1.692.439 1.549 1.549 0 0 1-1.225-.929 1.6 1.6 0 0 1-.074-1c.071-.333.167-.66.259-.988.167-.593.352-1.18.506-1.776a5.175 5.175 0 0 0 .138-.891 1.72 1.72 0 0 0-.181-.915 1.309 1.309 0 0 0-1.328-.71 1.75 1.75 0 0 0-1.2.642 2.565 2.565 0 0 0-.446.735 3.746 3.746 0 0 0-.063 2.581 1.562 1.562 0 0 1 .026.881c-.417 1.732-.827 3.468-1.235 5.203a7.318 7.318 0 0 0-.182 1.795 1.422 1.422 0 0 1-.03.458z"></path></svg><svg width="11" height="12" viewBox="0 0 11 12" id="icon-salida-segura" y="228"><defs><style>.blue-exit{fill:#0033a0;fill-rule:evenodd}</style></defs><path class="blue-exit" d="M10.927 6.274a.8.8 0 0 0 0-.556.788.788 0 0 0-.042-.085.78.78 0 0 0-.05-.1L7.178.32A.744.744 0 0 0 6.113.146a.807.807 0 0 0-.168 1.1l2.777 3.96H.764a.79.79 0 0 0 0 1.579h7.958l-2.777 3.956a.807.807 0 0 0 .168 1.1.735.735 0 0 0 .447.159.752.752 0 0 0 .618-.325l3.657-5.209a.768.768 0 0 0 .05-.1.787.787 0 0 0 .042-.092z"></path></svg><svg width="11" height="12" viewBox="0 0 11 12" id="icon-salida-segura-white" y="240"><defs><style>.arow-white{fill:#fff;fill-rule:evenodd}</style></defs><path class="arow-white" d="M10.927 6.274a.8.8 0 0 0 0-.556.788.788 0 0 0-.042-.085.78.78 0 0 0-.05-.1L7.178.32A.744.744 0 0 0 6.113.146a.807.807 0 0 0-.168 1.1l2.777 3.96H.764a.79.79 0 0 0 0 1.579h7.958l-2.777 3.956a.807.807 0 0 0 .168 1.1.735.735 0 0 0 .447.159.752.752 0 0 0 .618-.325l3.657-5.209a.768.768 0 0 0 .05-.1.787.787 0 0 0 .042-.092z"></path></svg><svg width="17.625" height="14.719" viewBox="0 0 17.625 14.719" id="icon-twitterMobile" y="252"><defs><style>.blue-redes{fill:#0033a0;fill-rule:evenodd}</style></defs><path class="blue-redes" d="M17.198.358a2.29 2.29 0 0 1-.54 1.079c-.245.283-.522.539-.787.809.014.069.072.06.121.052a7.539 7.539 0 0 0 1.323-.336c.1-.034.195-.063.293-.095a.123.123 0 0 1-.034.173 6.511 6.511 0 0 1-1.326 1.381.663.663 0 0 0-.3.59 10.758 10.758 0 0 1-2.341 6.823 9.794 9.794 0 0 1-5.166 3.477 11.042 11.042 0 0 1-3.749.384 10.166 10.166 0 0 1-4.62-1.43.517.517 0 0 1-.091-.113 5.027 5.027 0 0 1 .561-.008c.182-.007.364 0 .546-.016s.363-.031.543-.056.36-.057.538-.1.355-.084.529-.136.347-.112.517-.177.338-.137.5-.214.328-.16.487-.249.317-.182.468-.284a1.273 1.273 0 0 0 .42-.336.4.4 0 0 0-.331-.108 3.749 3.749 0 0 1-2.071-1.019 3.474 3.474 0 0 1-.8-1.151 1.049 1.049 0 0 1-.05-.149.3.3 0 0 1 0-.081.15.15 0 0 1 .168-.051c.247 0 .495.008.741-.006a3.708 3.708 0 0 0 .458-.074c.016-.136-.077-.139-.146-.163a3.844 3.844 0 0 1-1.322-.737A3.624 3.624 0 0 1 .456 5.389a.354.354 0 0 1 .035-.1 1.039 1.039 0 0 1 .168.048 3.813 3.813 0 0 0 .932.281.7.7 0 0 0 .405-.011 3.491 3.491 0 0 0-.4-.4c-.115-.127-.237-.246-.34-.38a4.143 4.143 0 0 1-.305-.456 3.27 3.27 0 0 1-.219-.461 4.038 4.038 0 0 1-.161-.525 3.92 3.92 0 0 1-.09-.548 3.4 3.4 0 0 1 0-.511 4.351 4.351 0 0 1 .067-.541 3.251 3.251 0 0 1 .133-.493C.743 1.122.827.96.915.763c.09.081.161.133.218.2a10.944 10.944 0 0 0 2.819 2.279 10.22 10.22 0 0 0 3.562 1.227c.283.04.567.068.853.089a1.05 1.05 0 0 0 .237-.038c-.006-.108 0-.2-.017-.285A3.681 3.681 0 0 1 11.481.088a3.6 3.6 0 0 1 3.054.721 1.029 1.029 0 0 1 .177.154.5.5 0 0 0 .595.144 8.549 8.549 0 0 0 1.464-.539z"></path></svg><svg width="15" height="22" viewBox="0 0 15 22" id="icon_app" y="267"><defs><style>.yellow-tel{fill:#e3e829;fill-rule:evenodd}</style></defs><path id="icon_app" class="yellow-tel" d="M922.833 1127h-10.666a2.151 2.151 0 0 0-2.167 2.21v17.58a2.194 2.194 0 0 0 2.167 2.21h10.666a2.194 2.194 0 0 0 2.167-2.21v-17.58a2.151 2.151 0 0 0-2.167-2.21zm-5.333 21.26a1.47 1.47 0 1 1 1.444-1.47 1.461 1.461 0 0 1-1.444 1.47zm5.056-3.67h-10.112v-13.91h10.112v13.91z" transform="translate(-910 -1127)"></path></svg><svg width="15" height="22" viewBox="0 0 15 22" id="icon_app_blue" y="289"><defs><style>.blue-icons{fill:#0033a0;fill-rule:evenodd}</style></defs><path id="icon_app_blue" class="blue-icons" d="M922.833 1164h-10.666a2.151 2.151 0 0 0-2.167 2.21v17.58a2.194 2.194 0 0 0 2.167 2.21h10.666a2.194 2.194 0 0 0 2.167-2.21v-17.58a2.151 2.151 0 0 0-2.167-2.21zm-5.333 21.26a1.47 1.47 0 1 1 1.444-1.47 1.461 1.461 0 0 1-1.444 1.47zm5.056-3.67h-10.112v-13.91h10.112v13.91z" transform="translate(-910 -1164)"></path></svg><svg width="9.937" height="19.41" viewBox="0 0 9.937 19.41" id="icon_fb" y="311"><defs><style>.grey-redes{fill:#737373;fill-rule:evenodd}</style></defs><path id="icon_fb" class="grey-redes" d="M202.719 1137.43c.587.01 1.132 0 1.678 0s1.062-.01 1.582.01a.419.419 0 0 1 .039.36c-.086.71-.176 1.41-.267 2.11-.038.3-.083.6-.121.87a.57.57 0 0 1-.408.08c-.7 0-1.405 0-2.107.01a.656.656 0 0 0-.386.06.822.822 0 0 0-.046.42v8.32a.825.825 0 0 1-.236.06h-3.083a.432.432 0 0 1-.112-.02.586.586 0 0 1-.065-.42v-4.06-3.82c0-.16-.007-.31-.011-.45a.538.538 0 0 0-.432-.09c-.677-.01-1.353-.01-2.03-.01a5.71 5.71 0 0 1-.418-.02.317.317 0 0 1-.056-.12v-3.11a.485.485 0 0 1 .048-.15 7.429 7.429 0 0 1 .94-.03c.312 0 .625.01.937 0h.9a.382.382 0 0 0 .115-.36c0-.67 0-1.34.008-2.01.006-.36.022-.73.062-1.1a4.362 4.362 0 0 1 .5-1.6 3.687 3.687 0 0 1 2.363-1.86 5.017 5.017 0 0 1 1.389-.18 19.493 19.493 0 0 1 2.416.1c.064.01.127.02.206.03a1.059 1.059 0 0 1 .052.23v2.56a1.279 1.279 0 0 1-.049.24c-.139.01-.267.01-.4.02-.443 0-.885-.01-1.327 0-.207.01-.417.03-.62.06a1.254 1.254 0 0 0-1.056 1.07 2.238 2.238 0 0 0-.037.39v2.09c-.003.09.013.18.032.32z" transform="translate(-196.219 -1130.31)"></path></svg><svg width="17" height="17.69" viewBox="0 0 17 17.69" id="icon_google" y="331"><defs><style>.grey-redes{fill:#737373;fill-rule:evenodd}</style></defs><path id="icon_google" class="grey-redes" d="M390.984 1141.69c-.037-.09-.056-.14-.086-.2-.1-.17-.205-.33-.3-.51a1.617 1.617 0 0 1-.136-1.36c.038-.11.064-.22.1-.34a.5.5 0 0 0-.392-.05 6.11 6.11 0 0 1-1.207-.08 3.633 3.633 0 0 1-2.8-4.59 4.314 4.314 0 0 1 2.17-2.67 4.749 4.749 0 0 1 1.472-.5 12.265 12.265 0 0 1 2.181-.16c1.2 0 2.4 0 3.6.01.077 0 .153.01.226.01.034.1-.041.12-.091.15-.279.17-.562.34-.84.51a.864.864 0 0 1-.445.12q-.411-.015-.821 0a1.388 1.388 0 0 0-.212.02.166.166 0 0 0 .093.21 3.954 3.954 0 0 1 1.083 1.57 3.079 3.079 0 0 1 .169.6 4.529 4.529 0 0 1-.072 1.84 3.536 3.536 0 0 1-1.049 1.68c-.158.15-.337.29-.489.45a5.688 5.688 0 0 0-.5.6 1.047 1.047 0 0 0 .077 1.31 7.011 7.011 0 0 0 .529.52 15.635 15.635 0 0 1 1.559 1.43 3.149 3.149 0 0 1 .785 1.77 3.733 3.733 0 0 1-1.034 3.1 5.152 5.152 0 0 1-2.723 1.53 8.781 8.781 0 0 1-3.917.07 4.344 4.344 0 0 1-2.1-1.07 2.778 2.778 0 0 1-.948-2.01 2.535 2.535 0 0 1 .08-.62 3.345 3.345 0 0 1 1.632-2.21 6.956 6.956 0 0 1 2.759-.93c.492-.06.985-.11 1.477-.16a1.481 1.481 0 0 0 .17-.04zm-.265.64a7.532 7.532 0 0 0-1.819.33 3.331 3.331 0 0 0-1.185.59 2.36 2.36 0 0 0-.12 3.64 3.753 3.753 0 0 0 1.484.85 6.264 6.264 0 0 0 2.32.2 4.128 4.128 0 0 0 1.247-.3 2.347 2.347 0 0 0 1.433-1.56 2.259 2.259 0 0 0-.68-2.37c-.383-.35-.794-.67-1.21-.99a1.551 1.551 0 0 0-1.47-.39zm2.172-5.98a5.989 5.989 0 0 0-.129-1.27 6.234 6.234 0 0 0-.706-1.83 2.506 2.506 0 0 0-1.284-1.15 2.009 2.009 0 0 0-2.557 1.05 3.211 3.211 0 0 0-.268 1.22 5.52 5.52 0 0 0 .9 3.01 3.01 3.01 0 0 0 .747.8 2.043 2.043 0 0 0 2.278.21 1.712 1.712 0 0 0 .961-1.39c.041-.25.046-.5.058-.65zm5.642 5.7c-.011-.21-.025-.37-.026-.52v-1.38c0-.12-.014-.23-.023-.37-.117-.01-.216-.03-.316-.04-.548 0-1.095 0-1.643-.01-.076 0-.152-.01-.247-.01a1.176 1.176 0 0 1-.047-.23 3.336 3.336 0 0 1 .026-.79 3.492 3.492 0 0 1 .714-.04h1.412a.343.343 0 0 0 .124-.35c0-.48 0-.97.006-1.45 0-.15.012-.29.018-.45a3.348 3.348 0 0 1 1-.02 2.006 2.006 0 0 1 .04.27c.005.51 0 1.03.006 1.54 0 .13.007.26.009.35a.324.324 0 0 0 .315.11c.508 0 1.017 0 1.525.01.127 0 .254.01.393.02a4.288 4.288 0 0 1 .032 1.01c-.145.01-.259.03-.373.03-.5.01-.991.01-1.486.01-.115 0-.23.02-.315.02a.383.383 0 0 0-.1.33v1.45c0 .15 0 .29-.007.45a4.33 4.33 0 0 1-1.037.06z" transform="translate(-384.875 -1131.22)"></path></svg><svg width="17.218" height="17.18" viewBox="0 0 17.218 17.18" id="icon_intagram" y="349"><defs><style>.grey-redes{fill:#737373;fill-rule:evenodd}</style></defs><path id="icon_intagram" class="grey-redes" d="M292.254 1131.37h2.819a11.116 11.116 0 0 1 1.91.16 4.467 4.467 0 0 1 3.694 3.5 7.094 7.094 0 0 1 .162 1.12c.039.61.061 1.23.06 1.84q-.006 2.67-.042 5.34a8.389 8.389 0 0 1-.112 1.21 4.539 4.539 0 0 1-1.431 2.72 4.674 4.674 0 0 1-2.071 1.06 7.736 7.736 0 0 1-1.358.17c-1.983.09-3.967.06-5.951.04-.457 0-.913-.03-1.369-.05a5.832 5.832 0 0 1-1.8-.35 4.325 4.325 0 0 1-2.674-2.68 6.613 6.613 0 0 1-.347-1.85c-.119-1.99-.065-3.97-.056-5.96a15.125 15.125 0 0 1 .14-2.15 4.755 4.755 0 0 1 .883-2.24 4.451 4.451 0 0 1 2.891-1.72 8.979 8.979 0 0 1 1.715-.15c.978-.01 1.958 0 2.937 0v-.01zm.065 1.49c-.718 0-1.436-.01-2.154.01-.586.01-1.173.03-1.758.08a4.46 4.46 0 0 0-.884.16 2.8 2.8 0 0 0-1.138.59 3.082 3.082 0 0 0-1.048 1.96 7.954 7.954 0 0 0-.092.97c-.025.71-.037 1.41-.045 2.12-.019 1.56-.023 3.11.047 4.67a5.257 5.257 0 0 0 .236 1.43 2.871 2.871 0 0 0 1.889 1.89 5.121 5.121 0 0 0 1.5.24q3.424.105 6.85 0a5.672 5.672 0 0 0 1.161-.15 2.879 2.879 0 0 0 2.236-2.03 4.577 4.577 0 0 0 .15-.65 15.559 15.559 0 0 0 .126-2.11c.024-.94.018-1.88.01-2.83-.008-.91-.022-1.83-.06-2.74a6.055 6.055 0 0 0-.16-1.16 2.833 2.833 0 0 0-2.037-2.18 3.915 3.915 0 0 0-.958-.18c-.611-.05-1.225-.07-1.837-.08-.677-.02-1.353-.01-2.034-.01zm-4.422 7.05a4.362 4.362 0 0 1 4.443-4.36 4.4 4.4 0 1 1-4.44 4.36zm7.3.07a2.9 2.9 0 1 0-2.973 2.86 2.887 2.887 0 0 0 2.97-2.86zm2.73-4.61a1.014 1.014 0 1 1-1.012-1.03 1.042 1.042 0 0 1 1.009 1.03z" transform="translate(-283.688 -1131.38)"></path></svg><svg width="14.969" height="20" viewBox="0 0 14.969 20" id="icon_oficinas" y="367"><defs><style>.yellow-local{fill:#e3e829;fill-rule:evenodd}</style></defs><path id="icon_oficinas" class="yellow-local" d="M669.463 1128.96a7.491 7.491 0 0 0-11.931 0 7.635 7.635 0 0 0 0 9.18l5.968 7.86 5.966-7.86a7.635 7.635 0 0 0-.003-9.18zm-5.966.46a3.955 3.955 0 1 1-3.921 3.95 3.949 3.949 0 0 1 3.924-3.95z" transform="translate(-656.031 -1126)"></path></svg><svg width="14.969" height="20" viewBox="0 0 14.969 20" id="icon_oficinas_blue" y="387"><defs><style>.blue{fill:#0033a0;fill-rule:evenodd}</style></defs><path id="icon_oficinas_blue" class="blue" d="M669.463 1165.96a7.491 7.491 0 0 0-11.931 0 7.635 7.635 0 0 0 0 9.18l5.968 7.86 5.966-7.86a7.635 7.635 0 0 0-.003-9.18zm-5.966.46a3.955 3.955 0 1 1-3.921 3.95 3.949 3.949 0 0 1 3.924-3.95z" transform="translate(-656.031 -1163)"></path></svg><svg width="20.656" height="20.82" viewBox="0 0 20.656 20.82" id="icon_pinterest" y="407"><defs><style>.grey-redes{fill:#737373;fill-rule:evenodd}</style></defs><path id="icon_pinterest" class="grey-redes" d="M336.97 1149.42a7.589 7.589 0 0 1-2.617-1.61 10.4 10.4 0 0 1 9.776-17.77 10.356 10.356 0 0 1 6.709 13.62 10.2 10.2 0 0 1-12.51 6.29 2.186 2.186 0 0 1 .1-.24c.122-.24.251-.46.374-.7a8.708 8.708 0 0 0 .7-2.03q.189-.765.385-1.53c.035-.13.081-.26.132-.43a1.3 1.3 0 0 1 .14.13 3.123 3.123 0 0 0 2.473 1.05 5.017 5.017 0 0 0 3.979-2.09 6.925 6.925 0 0 0 1.2-2.5 9.09 9.09 0 0 0 .315-2.92 5.728 5.728 0 0 0-1.923-3.92 6.227 6.227 0 0 0-3.418-1.6 8.068 8.068 0 0 0-4.836.7 6.494 6.494 0 0 0-3.49 3.98 5.633 5.633 0 0 0 .114 3.93 3.2 3.2 0 0 0 1.39 1.65 3.363 3.363 0 0 0 .318.14.37.37 0 0 0 .536-.23 1.056 1.056 0 0 0 .06-.19c.063-.24.122-.48.185-.72a.51.51 0 0 0-.088-.45 7.8 7.8 0 0 0-.119-.15 2.866 2.866 0 0 1-.614-1.63 4.86 4.86 0 0 1 3.691-5.16 5.515 5.515 0 0 1 3.192.14 3.543 3.543 0 0 1 2.077 1.86 3.867 3.867 0 0 1 .381 1.63 9.023 9.023 0 0 1-.469 3.1 5.744 5.744 0 0 1-.554 1.17 3.4 3.4 0 0 1-.861.95 2.115 2.115 0 0 1-1.692.44 1.525 1.525 0 0 1-1.224-.93 1.579 1.579 0 0 1-.075-1c.071-.33.167-.66.259-.99.168-.59.352-1.18.506-1.77a5.333 5.333 0 0 0 .139-.9 1.723 1.723 0 0 0-.181-.91 1.306 1.306 0 0 0-1.328-.71 1.749 1.749 0 0 0-1.208.65 2.5 2.5 0 0 0-.446.74 3.746 3.746 0 0 0-.063 2.58 1.559 1.559 0 0 1 .027.88c-.419 1.73-.826 3.47-1.234 5.2a7.389 7.389 0 0 0-.186 1.8 1.366 1.366 0 0 1-.022.45z" transform="translate(-330.844 -1129.59)"></path></svg><svg width="19" height="18" viewBox="0 0 19 18" id="icon_pronto" y="428"><defs><style>.yellow-message{fill:#e3e829;fill-rule:evenodd}</style></defs><path id="icon_pronto" class="yellow-message" d="M497.351 1128h-15.7a1.7 1.7 0 0 0-1.649 1.74v10.17a1.7 1.7 0 0 0 1.649 1.74h12.075L499 1146v-16.26a1.7 1.7 0 0 0-1.649-1.74zm-11.074 8.2a1.147 1.147 0 1 1 1.082-1.15 1.121 1.121 0 0 1-1.082 1.15zm3.328 0a1.147 1.147 0 1 1 1.082-1.15 1.121 1.121 0 0 1-1.082 1.15zm3.328 0a1.147 1.147 0 1 1 1.082-1.15 1.121 1.121 0 0 1-1.082 1.15z" transform="translate(-480 -1128)"></path></svg><svg width="19" height="18" viewBox="0 0 19 18" id="icon_pronto_blue" y="446"><defs><style>.blue-message{fill:#0033a0;fill-rule:evenodd}</style></defs><path id="icon_pronto_blue" class="blue-message" d="M497.351 1165h-15.7a1.7 1.7 0 0 0-1.649 1.74v10.17a1.7 1.7 0 0 0 1.649 1.74h12.075L499 1183v-16.26a1.7 1.7 0 0 0-1.649-1.74zm-11.074 8.2a1.147 1.147 0 1 1 1.082-1.15 1.121 1.121 0 0 1-1.082 1.15zm3.328 0a1.147 1.147 0 1 1 1.082-1.15 1.121 1.121 0 0 1-1.082 1.15zm3.328 0a1.147 1.147 0 1 1 1.082-1.15 1.121 1.121 0 0 1-1.082 1.15z" transform="translate(-480 -1165)"></path></svg><svg width="17.625" height="14.72" viewBox="0 0 17.625 14.72" id="icon_twitter" y="464"><defs><style>.grey-redes{fill:#737373;fill-rule:evenodd}</style></defs><path id="icon_twitter" class="grey-redes" d="M259.417 1133.92a2.3 2.3 0 0 1-.54 1.08c-.245.28-.521.53-.787.8.014.07.072.06.121.06a8.56 8.56 0 0 0 1.323-.34l.293-.09c.06.08 0 .12-.035.17a6.574 6.574 0 0 1-1.326 1.38.666.666 0 0 0-.3.59 10.753 10.753 0 0 1-2.341 6.82 9.722 9.722 0 0 1-5.169 3.48 11.053 11.053 0 0 1-3.749.39 10.229 10.229 0 0 1-4.62-1.43 1.236 1.236 0 0 1-.086-.11 3.563 3.563 0 0 1 .561-.01c.182-.01.364-.01.546-.02s.363-.03.543-.05.36-.06.538-.1.354-.09.529-.14a4.948 4.948 0 0 0 .517-.18 4.863 4.863 0 0 0 .5-.21 8.586 8.586 0 0 0 .955-.53 1.292 1.292 0 0 0 .42-.34.422.422 0 0 0-.331-.11 3.665 3.665 0 0 1-2.071-1.02 3.372 3.372 0 0 1-.8-1.15.741.741 0 0 1-.05-.14.387.387 0 0 1 0-.09.172.172 0 0 1 .168-.05c.247 0 .5.01.741 0a3.32 3.32 0 0 0 .451-.08c.017-.14-.076-.14-.146-.16a3.956 3.956 0 0 1-1.322-.74 3.631 3.631 0 0 1-1.281-2.65.288.288 0 0 1 .035-.09 1 1 0 0 1 .168.04 3.8 3.8 0 0 0 .932.28.7.7 0 0 0 .405-.01 4.2 4.2 0 0 0-.4-.4c-.111-.13-.234-.25-.337-.38a4.589 4.589 0 0 1-.306-.46 2.86 2.86 0 0 1-.218-.46 3.892 3.892 0 0 1-.249-1.07 3.331 3.331 0 0 1 0-.51 4.151 4.151 0 0 1 .068-.54 2.931 2.931 0 0 1 .134-.49c.062-.17.146-.34.234-.53.091.08.161.13.219.19a10.88 10.88 0 0 0 2.817 2.29 10.259 10.259 0 0 0 3.562 1.22c.283.04.568.07.853.09a.726.726 0 0 0 .237-.04c-.006-.11 0-.19-.017-.28a3.682 3.682 0 0 1 2.895-4.15 3.59 3.59 0 0 1 3.054.72 1.132 1.132 0 0 1 .177.16.5.5 0 0 0 .595.14 8.485 8.485 0 0 0 1.464-.54c.128-.06.256-.13.426-.21z" transform="translate(-242.219 -1133.56)"></path></svg><svg width="26" height="23" viewBox="0 0 26 23" id="pantalla" y="479"><defs><style>.blue-footer{fill:#00399f;fill-rule:evenodd}</style></defs><path id="pantalla" class="blue-footer" d="M637.931 1458.38H618V1439h26v13.37a6.042 6.042 0 0 1-6.069 6.01zm-18.6-1.32h18.6a4.716 4.716 0 0 0 4.736-4.69v-12.04l-23.335-.03v16.76zm11.494 3.62h-1.332v-1.85h1.332v1.85zm2.662 1.32h-6.656v-1.32h6.656v1.32z" transform="translate(-618 -1439)"></path></svg><svg width="14.9" height="14.844" viewBox="0 0 14.9 14.844" id="search_icon" y="502"><defs><style>.blue-search{fill:#0033a0;fill-rule:evenodd}</style></defs><path id="search_icon" class="blue-search" d="M1087.84 76.24l-3.08-3.066a6.405 6.405 0 0 0 1.25-3.8v-.03a6.408 6.408 0 1 0-2.57 5.155l3.09 3.064a.826.826 0 0 0 1.17 0l.15-.145a.831.831 0 0 0-.01-1.178zm-8.27-2.329a4.536 4.536 0 1 1 4.57-4.536v.03a4.538 4.538 0 0 1-4.57 4.506z" transform="translate(-1073.19 -62.969)"></path></svg><svg width="27" height="22" viewBox="0 0 27 22" id="select-responsive" y="517"><defs><style>.blue-two{fill:#00aec7;fill-rule:evenodd}</style></defs><path id="Forma_1" data-name="Forma 1" class="blue-two" d="M0 0h1v22H0V0zm15 7l6 6.187L27 7v1.82L21 15l-6-6.184V7z"></path></svg><svg id="select-responsive_azul_oscuro" viewBox="0 0 27 22" width="27" height="22" y="539"><style>.st0{fill:#0033a0}</style><path id="Forma_1" class="st0" d="M0 0h1v22H0V0zm15 7l6 6.2L27 7v1.8L21 15l-6-6.2V7z"></path></svg><svg width="27.031" height="29" viewBox="0 0 27.031 29" id="telefono" y="561"><defs><style>.blue-telefono{fill:#00399f;fill-rule:evenodd}</style></defs><path id="telefono" class="blue-telefono" d="M119.539 1464c-4.288 0-10.459-1.35-15.891-7.65-6.013-7.54-6.426-15.26-4.958-19.58l.119-.35.341-.16a17.478 17.478 0 0 1 8.652-1.12l.4.07.2.34a14 14 0 0 1 1.539 9.09l-.057.27-.209.19a19.288 19.288 0 0 1-3.2 2.1 13.651 13.651 0 0 0 2.645 4.22 13.885 13.885 0 0 0 3.666 3.39 19.623 19.623 0 0 1 2.7-2.7l.225-.17h.281a14.324 14.324 0 0 1 8.7 3.25l.3.27-.012.4a13.909 13.909 0 0 1-2.251 7.62l-.218.3-.371.05a19.766 19.766 0 0 1-2.601.17zm-19.324-26.33c-.513 1.83-1.957 9.17 4.765 17.59 5.914 6.86 12.77 7.33 16.559 6.92a12.3 12.3 0 0 0 1.7-5.97 12.826 12.826 0 0 0-6.941-2.56 19.912 19.912 0 0 0-2.533 2.7l-.372.53-.615-.21c-1.442-.49-3.074-1.85-4.991-4.16s-2.949-4.16-3.155-5.66l-.088-.64.6-.26a19.177 19.177 0 0 0 3.162-1.94 12.536 12.536 0 0 0-1.19-7.23 16.526 16.526 0 0 0-6.901.89z" transform="translate(-97.969 -1435)"></path></svg></svg>