<svg width="24" height="22" viewBox="0 0 24 22" fill="none" xmlns="http://www.w3.org/2000/svg">
<path d="M22.9999 7.99995C22.8999 7.59995 22.5999 7.39995 22.1999 7.29995L15.7999 6.39995L12.8999 0.599951C12.5999 -0.100049 11.3999 -0.100049 11.0999 0.599951L8.1999 6.29995L1.8999 7.29995C1.4999 7.29995 1.1999 7.59995 0.999902 7.99995C0.899902 8.39995 0.999902 8.79995 1.2999 8.99995L5.8999 13.5L4.7999 19.9C4.6999 20.2999 4.8999 20.6999 5.1999 20.9C5.4999 21.1 5.8999 21.2 6.2999 21L11.9999 18L17.6999 21C17.8999 21 17.9999 21 18.1999 21C18.3999 21 18.5999 20.9 18.7999 20.7999C19.0999 20.5999 19.2999 20.1999 19.1999 19.7999L18.0999 13.4L22.6999 8.89995C22.9999 8.69995 23.0999 8.29995 22.9999 7.99995ZM16.2999 12.4C16.0999 12.7 15.9999 13 15.9999 13.3L16.7999 18.2L12.3999 15.9C12.0999 15.7 11.7999 15.7 11.4999 15.9L7.0999 18.2L7.9999 13.3C7.9999 13 7.8999 12.7 7.6999 12.4L4.0999 8.99995L8.9999 8.29995C9.2999 8.29995 9.5999 7.99995 9.7999 7.79995L11.9999 3.29995L14.1999 7.69995C14.2999 7.99995 14.5999 8.19995 14.9999 8.19995L19.8999 8.89995L16.2999 12.4Z" fill="#0033A0"/>
</svg>
