<svg width="22" height="22" viewBox="0 0 22 22" fill="none" xmlns="http://www.w3.org/2000/svg">
<path d="M19.4001 12.9C18.5001 12.8 17.6001 12.6 16.8001 12.3C15.7001 11.9 14.5001 12.2 13.6001 13L12.9001 13.7C11.1001 12.5 9.5001 11 8.3001 9.1L9.0001 8.4C9.8001 7.6 10.1001 6.3 9.7001 5.2C9.4001 4.4 9.2001 3.5 9.1001 2.6C8.9001 1.1 7.6001 0 6.1001 0H3.1001C3.0001 0 2.9001 0 2.8001 0C2.0001 0.1 1.3001 0.5 0.800098 1.1C0.300098 1.7 0.100098 2.5 0.100098 3.3C0.400098 6.5 1.6001 9.7 3.3001 12.4C4.9001 14.9 7.1001 17.1 9.6001 18.7C12.3001 20.5 15.5001 21.6 18.7001 21.9C18.8001 21.9 18.9001 21.9 19.0001 21.9C19.8001 21.9 20.6001 21.6 21.1001 21C21.6001 20.4 22.0001 19.7 22.0001 18.9V15.9C22.0001 14.4 20.9001 13.1 19.4001 12.9ZM20.0001 15.9V18.9C20.0001 19.2 19.9001 19.4 19.7001 19.6C19.5001 19.8 19.3001 19.9 18.9001 19.9C16.0001 19.6 13.2001 18.6 10.7001 17C8.4001 15.6 6.5001 13.6 5.0001 11.3C3.4001 8.8 2.4001 6 2.1001 3.1C2.1001 2.8 2.2001 2.6 2.3001 2.4C2.5001 2.2 2.8001 2 3.1001 2H6.1001C6.6001 2 7.0001 2.4 7.1001 2.9C7.2001 3.9 7.5001 5 7.9001 5.9C8.0001 6.3 7.9001 6.7 7.7001 7L6.4001 8.2C6.1001 8.5 6.0001 9 6.2001 9.4C7.7001 12.1 9.9001 14.3 12.6001 15.8C13.0001 16 13.5001 16 13.8001 15.6L15.1001 14.3C15.4001 14 15.8001 13.9 16.2001 14.1C17.2001 14.5 18.2001 14.7 19.2001 14.9C19.6001 15 20.0001 15.4 20.0001 15.9Z" fill="#0033A0"/>
</svg>
