<svg width="22" height="25" viewBox="0 0 22 25" fill="none" xmlns="http://www.w3.org/2000/svg">
<path fill-rule="evenodd" clip-rule="evenodd" d="M16.8 6.5C16.8 9.86 14.16 12.5 10.8 12.5C7.44 12.5 4.8 9.86 4.8 6.5C4.8 3.14 7.44 0.5 10.8 0.5C14.16 0.5 16.8 3.14 16.8 6.5ZM14.4 6.5C14.4 4.46 12.84 2.9 10.8 2.9C8.76 2.9 7.2 4.46 7.2 6.5C7.2 8.54 8.76 10.1 10.8 10.1C12.84 10.1 14.4 8.54 14.4 6.5ZM0 20.9C0 17.54 2.64 14.9 6 14.9H15.6C18.96 14.9 21.6 17.54 21.6 20.9V23.3C21.6 24.02 21.12 24.5 20.4 24.5C19.68 24.5 19.2 24.02 19.2 23.3V20.9C19.2 18.86 17.64 17.3 15.6 17.3H6C3.96 17.3 2.4 18.86 2.4 20.9V23.3C2.4 24.02 1.92 24.5 1.2 24.5C0.48 24.5 0 24.02 0 23.3V20.9Z" fill="#0033A0"/>
</svg>
