<svg width="24" height="24" viewBox="0 0 24 24" fill="none" xmlns="http://www.w3.org/2000/svg">
<path fill-rule="evenodd" clip-rule="evenodd" d="M10.3627 0H23.4611C23.5855 0 23.7513 0.0414508 23.8342 0.165803C23.9171 0.248705 24 0.414508 24 0.53886V23.4611C24 23.5855 23.9585 23.7513 23.8342 23.8342C23.7513 23.9171 23.5855 24 23.4611 24H0.53886C0.414508 24 0.248705 23.9585 0.165803 23.8342C0.0414508 23.7513 0 23.6269 0 23.4611V9.11917C0 8.82901 0.0829015 8.53886 0.290155 8.29016C0.455959 8.04145 0.704663 7.87565 0.994819 7.79275L9.82383 5.3057V0.53886C9.82383 0.414508 9.86528 0.248705 9.98964 0.165803C10.0725 0.0414508 10.2383 0 10.3627 0ZM5.84456 17.658H1.07772V22.9223H9.78238V6.46632L1.28497 8.87047C1.24352 8.87047 1.20207 8.91192 1.16062 8.95337C1.11917 8.99482 1.11917 9.03627 1.11917 9.11917V11.5648H5.88601C5.92746 11.5648 5.96891 11.5648 6.01036 11.6062C6.05181 11.6062 6.09326 11.6477 6.13471 11.6891C6.17617 11.7306 6.17617 11.772 6.21762 11.8135C6.21762 11.8549 6.25907 11.8964 6.25907 11.9378V12.3523C6.25907 12.3938 6.25907 12.4352 6.21762 12.4767C6.21762 12.5181 6.17617 12.5596 6.13471 12.601C6.09326 12.6425 6.05181 12.6425 6.01036 12.6839C5.96891 12.6839 5.92746 12.7254 5.88601 12.7254H1.07772V14.0518H5.84456C5.88601 14.0518 5.92746 14.0518 5.96891 14.0933C6.01036 14.0933 6.05181 14.1347 6.09326 14.1762C6.13471 14.2176 6.13471 14.2591 6.17617 14.3005C6.17617 14.342 6.21762 14.3834 6.21762 14.4249V14.8394C6.21762 14.8808 6.21762 14.9223 6.17617 14.9637C6.17617 15.0052 6.13471 15.0466 6.09326 15.0881C6.05181 15.1295 6.01036 15.1295 5.96891 15.171C5.92746 15.171 5.88601 15.2124 5.84456 15.2124H1.07772V16.5389H5.84456C5.92746 16.5389 6.05181 16.5803 6.09326 16.6632C6.17617 16.7461 6.21762 16.829 6.21762 16.9119V17.3264C6.21762 17.4093 6.17617 17.5337 6.09326 17.5751C6.05181 17.6166 5.96891 17.658 5.84456 17.658ZM10.9016 22.9223H22.9223V1.07772H10.9016V22.9223ZM14.6736 3.97927H13.7617C13.513 3.97927 13.2642 4.18653 13.2642 4.47668V5.3886C13.2642 5.63731 13.4715 5.88601 13.7617 5.88601H14.6736C14.9223 5.88601 15.171 5.67876 15.171 5.3886V4.47668C15.171 4.18653 14.9223 3.97927 14.6736 3.97927ZM19.9793 3.97927H19.0674C18.8187 3.97927 18.5699 4.18653 18.5699 4.47668V5.3886C18.5699 5.63731 18.7772 5.88601 19.0674 5.88601H19.9793C20.228 5.88601 20.4767 5.67876 20.4767 5.3886V4.47668C20.4767 4.18653 20.2694 3.97927 19.9793 3.97927ZM13.7617 7.9171H14.6736C14.9223 7.9171 15.171 8.12435 15.171 8.41451V9.32642C15.171 9.57513 14.9637 9.82383 14.6736 9.82383H13.7617C13.513 9.82383 13.2642 9.61658 13.2642 9.32642V8.41451C13.2642 8.12435 13.513 7.9171 13.7617 7.9171ZM19.9793 7.9171H19.0674C18.8187 7.9171 18.5699 8.12435 18.5699 8.41451V9.32642C18.5699 9.57513 18.7772 9.82383 19.0674 9.82383H19.9793C20.228 9.82383 20.4767 9.61658 20.4767 9.32642V8.41451C20.4767 8.12435 20.2694 7.9171 19.9793 7.9171ZM13.7617 11.8549H14.6736C14.9223 11.8549 15.171 12.0622 15.171 12.3523V13.2642C15.171 13.513 14.9637 13.7617 14.6736 13.7617H13.7617C13.513 13.7617 13.2642 13.5544 13.2642 13.2642V12.3523C13.2642 12.1036 13.513 11.8549 13.7617 11.8549ZM19.9793 11.8549H19.0674C18.8187 11.8549 18.5699 12.0622 18.5699 12.3523V13.2642C18.5699 13.513 18.7772 13.7617 19.0674 13.7617H19.9793C20.228 13.7617 20.4767 13.5544 20.4767 13.2642V12.3523C20.4767 12.1036 20.2694 11.8549 19.9793 11.8549ZM13.7617 15.8342H14.6736C14.9223 15.8342 15.171 16.0415 15.171 16.3316V17.2435C15.171 17.4922 14.9637 17.7409 14.6736 17.7409H13.7617C13.513 17.7409 13.2642 17.5337 13.2642 17.2435V16.3316C13.2642 16.0415 13.513 15.8342 13.7617 15.8342ZM19.9793 15.8342H19.0674C18.8187 15.8342 18.5699 16.0415 18.5699 16.3316V17.2435C18.5699 17.4922 18.7772 17.7409 19.0674 17.7409H19.9793C20.228 17.7409 20.4767 17.5337 20.4767 17.2435V16.3316C20.4767 16.0415 20.2694 15.8342 19.9793 15.8342Z" fill="#0033A0"/>
</svg>
