<svg width="64" height="64" viewBox="0 0 64 64" fill="none" xmlns="http://www.w3.org/2000/svg">
<path d="M51.2711 45.1175H50.6851V43.3348H53.0293C53.2357 43.3348 53.4401 43.2941 53.6307 43.2153C53.8214 43.1364 53.9947 43.0207 54.1406 42.875C54.2866 42.7292 54.4023 42.5561 54.4813 42.3657C54.5603 42.1752 54.601 41.9711 54.601 41.7649C54.601 41.5587 54.5603 41.3546 54.4813 41.1641C54.4023 40.9737 54.2866 40.8006 54.1406 40.6548C53.9947 40.5091 53.8214 40.3934 53.6307 40.3145C53.4401 40.2356 53.2357 40.195 53.0293 40.195H50.6851V38.9445C50.6851 38.5281 50.5195 38.1288 50.2247 37.8344C49.93 37.54 49.5302 37.3746 49.1134 37.3746C48.6966 37.3746 48.2968 37.54 48.002 37.8344C47.7073 38.1288 47.5417 38.5281 47.5417 38.9445V40.195H46.9557C46.3763 40.1002 45.7832 40.1324 45.2174 40.2893C44.6517 40.4462 44.127 40.7242 43.6795 41.1039C43.232 41.4835 42.8726 41.9559 42.6261 42.4881C42.3796 43.0203 42.2519 43.5998 42.2519 44.1862C42.2519 44.7726 42.3796 45.3521 42.6261 45.8843C42.8726 46.4165 43.232 46.8889 43.6795 47.2686C44.127 47.6482 44.6517 47.9262 45.2174 48.0831C45.7832 48.24 46.3763 48.2722 46.9557 48.1774H47.5417V49.9601H44.4783C44.0614 49.9601 43.6617 50.1255 43.3669 50.4199C43.0722 50.7143 42.9066 51.1136 42.9066 51.53C42.9066 51.9463 43.0722 52.3456 43.3669 52.64C43.6617 52.9344 44.0614 53.0998 44.4783 53.0998H47.5417V54.3504C47.5417 54.7667 47.7073 55.166 48.002 55.4604C48.2968 55.7548 48.6966 55.9202 49.1134 55.9202C49.5302 55.9202 49.93 55.7548 50.2247 55.4604C50.5195 55.166 50.6851 54.7667 50.6851 54.3504V53.0998H51.2711C51.2711 53.0998 52.4436 53.1625 53.0093 53.0055C53.575 52.8486 54.0998 52.5707 54.5473 52.191C54.9947 51.8113 55.3542 51.339 55.6007 50.8068C55.8472 50.2745 55.9749 49.6951 55.9749 49.1086C55.9749 48.5222 55.8472 47.9428 55.6007 47.4105C55.3542 46.8783 54.9947 46.406 54.5473 46.0263C54.0998 45.6466 53.575 45.3687 53.0093 45.2118C52.4436 45.0548 51.8505 45.0227 51.2711 45.1175ZM47.5417 45.1175H46.9557C46.8256 45.14 46.6921 45.1339 46.5646 45.0995C46.4372 45.0651 46.3188 45.0032 46.2177 44.9183C46.1167 44.8334 46.0355 44.7274 45.9798 44.6079C45.9241 44.4883 45.8952 44.358 45.8952 44.2261C45.8952 44.0942 45.9241 43.9639 45.9798 43.8444C46.0355 43.7248 46.1167 43.6188 46.2177 43.5339C46.3188 43.449 46.4372 43.3872 46.5646 43.3528C46.6921 43.3184 46.8256 43.3122 46.9557 43.3348H47.5417V45.1175ZM51.2711 50.0399H50.6851V48.2572H51.2711C51.4012 48.2347 51.5347 48.2408 51.6622 48.2752C51.7896 48.3096 51.908 48.3714 52.009 48.4564C52.1101 48.5413 52.1913 48.6472 52.247 48.7668C52.3027 48.8864 52.3316 49.0167 52.3316 49.1486C52.3316 49.2804 52.3027 49.4107 52.247 49.5303C52.1913 49.6499 52.1101 49.7558 52.009 49.8407C51.908 49.9257 51.7896 49.9875 51.6622 50.0219C51.5347 50.0563 51.4012 50.0625 51.2711 50.0399ZM55.2823 32.0531C55.553 31.7638 55.7556 31.4178 55.8754 31.0403C55.9953 30.6629 56.0292 30.2635 55.9749 29.8712C55.4516 24.2933 53.0017 19.071 49.0454 15.0998C45.089 11.1286 39.8727 8.65605 34.291 8.10605C31.1349 7.80931 27.9513 8.13717 24.9223 9.07088C21.8933 10.0046 19.0784 11.5258 16.6388 13.5475C14.1991 15.5691 12.1825 18.0515 10.7045 20.8525C9.22645 23.6536 8.31599 26.7183 8.0252 29.8712C7.97083 30.2635 8.0048 30.6629 8.12462 31.0403C8.24444 31.4178 8.4471 31.7638 8.71781 32.0531C8.98057 32.2999 9.29079 32.4908 9.62964 32.6143C9.96849 32.7378 10.3289 32.7913 10.6891 32.7715H29.3362V47.5388C29.3362 48.3715 29.005 49.1701 28.4155 49.7589C27.826 50.3477 27.0265 50.6785 26.1928 50.6785C25.3591 50.6785 24.5596 50.3477 23.9701 49.7589C23.3806 49.1701 23.0494 48.3715 23.0494 47.5388C23.0494 46.8331 22.7688 46.1563 22.2692 45.6573C21.7696 45.1583 21.0921 44.878 20.3856 44.878C19.6791 44.878 19.0015 45.1583 18.5019 45.6573C18.0023 46.1563 17.7217 46.8331 17.7217 47.5388C17.7217 49.7829 18.6142 51.935 20.2028 53.5218C21.7915 55.1086 23.9461 56.0001 26.1928 56.0001C28.4395 56.0001 30.5941 55.1086 32.1828 53.5218C33.7714 51.935 34.6639 49.7829 34.6639 47.5388V32.7715H53.311C53.6711 32.7913 54.0316 32.7378 54.3704 32.6143C54.7093 32.4908 55.0195 32.2999 55.2823 32.0531ZM32 27.4499H13.8591C14.8329 23.6246 17.0081 20.2116 20.0659 17.7115C22.4873 15.6816 25.3855 14.3 28.4884 13.6963C31.5912 13.0927 34.7967 13.2868 37.8038 14.2605C40.8109 15.2342 43.5208 16.9555 45.6789 19.2627C47.837 21.5699 49.3724 24.3872 50.141 27.4499H32Z" fill="#0033A0"/>
</svg>
