<svg width="32" height="32" viewBox="0 0 32 32" fill="none" xmlns="http://www.w3.org/2000/svg">
<path fill-rule="evenodd" clip-rule="evenodd" d="M27.9511 15.4925C27.8911 15.6816 27.7897 15.855 27.6542 15.9999C27.5227 16.1236 27.3674 16.2193 27.1978 16.2812C27.0282 16.3431 26.8478 16.3699 26.6675 16.3599H17.3342V23.7599C17.3342 24.8845 16.8875 25.9629 16.0923 26.7581C15.2972 27.5532 14.2187 27.9999 13.0942 27.9999C11.9697 27.9999 10.8912 27.5532 10.0961 26.7581C9.30093 25.9629 8.85421 24.8845 8.85421 23.7599C8.85421 23.4063 8.99469 23.0672 9.24474 22.8171C9.49479 22.5671 9.83392 22.4266 10.1875 22.4266C10.5412 22.4266 10.8803 22.5671 11.1304 22.8171C11.3804 23.0672 11.5209 23.4063 11.5209 23.7599C11.5209 24.1772 11.6866 24.5774 11.9817 24.8725C12.2768 25.1675 12.6769 25.3333 13.0942 25.3333C13.5115 25.3333 13.9117 25.1675 14.2067 24.8725C14.5018 24.5774 14.6675 24.1772 14.6675 23.7599V16.3599H5.33421C5.15395 16.3699 4.97354 16.3431 4.80394 16.2812C4.63434 16.2193 4.47907 16.1236 4.34755 15.9999C4.21205 15.855 4.11061 15.6816 4.05064 15.4925C3.99067 15.3033 3.97367 15.1032 4.00088 14.9066C4.14642 13.3267 4.60213 11.7909 5.34192 10.3873C6.08171 8.98368 7.09106 7.73974 8.31218 6.72667C9.5333 5.71361 10.9422 4.95132 12.4583 4.48343C13.9744 4.01555 15.5679 3.85125 17.1475 3.99995C19.9414 4.27556 22.5523 5.51459 24.5325 7.50457C26.5127 9.49454 27.739 12.1115 28.0009 14.9066C28.0281 15.1032 28.0111 15.3033 27.9511 15.4925ZM6.92088 13.6933H16.0009H25.0809C24.6962 12.1585 23.9277 10.7468 22.8475 9.59062C21.7673 8.43448 20.4109 7.57192 18.9058 7.08399C17.4007 6.59606 15.7962 6.49878 14.2432 6.80127C12.6902 7.10377 11.2395 7.79613 10.0275 8.81328C8.49706 10.0661 7.40828 11.7764 6.92088 13.6933ZM25.0409 23.5866L25.7609 22.9066L25.7075 22.9866C25.9675 22.7461 26.3122 22.6188 26.6661 22.6325C27.0199 22.6463 27.3538 22.8 27.5942 23.0599C27.8347 23.3198 27.962 23.6646 27.9483 24.0184C27.9345 24.3723 27.7808 24.7061 27.5209 24.9466L24.5875 27.6133C24.5306 27.6609 24.4678 27.7012 24.4009 27.7333C24.3349 27.7854 24.2633 27.8301 24.1875 27.8666C24.0354 27.9296 23.8722 27.9613 23.7075 27.9599C23.5342 27.962 23.3621 27.9303 23.2009 27.8666C23.1402 27.8359 23.0822 27.8003 23.0275 27.7599C22.9472 27.7188 22.8713 27.6697 22.8009 27.6133L19.8009 24.8799C19.5392 24.6412 19.3831 24.3084 19.3668 23.9545C19.3506 23.6007 19.4755 23.2549 19.7142 22.9933C19.9529 22.7316 20.2858 22.5754 20.6396 22.5592C20.8148 22.5511 20.9899 22.5777 21.1548 22.6373C21.3197 22.6969 21.4713 22.7884 21.6009 22.9066L22.3742 23.6133V19.7733C22.3742 19.4196 22.5147 19.0805 22.7647 18.8304C23.0148 18.5804 23.3539 18.4399 23.7075 18.4399C24.0612 18.4399 24.4003 18.5804 24.6504 18.8304C24.9004 19.0805 25.0409 19.4196 25.0409 19.7733V23.5866Z" fill="#626277"/>
</svg>
