<svg width="64" height="54" viewBox="0 0 64 54" fill="none" xmlns="http://www.w3.org/2000/svg">
<path fill-rule="evenodd" clip-rule="evenodd" d="M37.3333 13.6666C37.3333 21.1333 31.4667 27 24 27C16.5333 27 10.6667 21.1333 10.6667 13.6666C10.6667 6.19998 16.5333 0.333313 24 0.333313C31.4667 0.333313 37.3333 6.19998 37.3333 13.6666ZM32 13.6666C32 9.13331 28.5333 5.66665 24 5.66665C19.4667 5.66665 16 9.13331 16 13.6666C16 18.2 19.4667 21.6666 24 21.6666C28.5333 21.6666 32 18.2 32 13.6666ZM0 45.6666C0 38.2 5.86667 32.3333 13.3333 32.3333H34.6667C42.1333 32.3333 48 38.2 48 45.6666V51C48 52.6 46.9333 53.6666 45.3333 53.6666C43.7333 53.6666 42.6667 52.6 42.6667 51V45.6666C42.6667 41.1333 39.2 37.6666 34.6667 37.6666H13.3333C8.8 37.6666 5.33333 41.1333 5.33333 45.6666V51C5.33333 52.6 4.26667 53.6666 2.66667 53.6666C1.06667 53.6666 0 52.6 0 51V45.6666ZM53.8667 32.8668C52.5333 32.6002 50.9333 33.4002 50.6667 34.7335C50.4 36.0668 51.2 37.6668 52.5333 37.9335C56 38.7335 58.4 41.9335 58.4 45.6668V51.0002C58.4 52.6002 59.4667 53.6668 61.0667 53.6668C62.6667 53.6668 63.7333 52.6002 63.7333 51.0002V45.6668C64 39.5335 60 34.2002 53.8667 32.8668ZM40 2.73301C40.5334 1.13301 41.8667 0.333014 43.2 0.866348C50.4 2.46635 54.6667 9.93301 52.8 17.3997C51.7334 22.1997 48 25.6663 43.2 26.9997H42.6667C41.3334 26.9997 40.2667 26.1997 40 24.8663C39.4667 23.533 40.5334 21.933 41.8667 21.6663C44.8 20.8663 46.9334 18.733 47.7334 15.7997C48.8 11.2663 46.1334 6.99968 41.8667 5.93301C40.5334 5.66635 39.7334 4.06635 40 2.73301Z" fill="#0033A0"/>
</svg>
