<svg width="32" height="32" viewBox="0 0 32 32" fill="none" xmlns="http://www.w3.org/2000/svg">
<path fill-rule="evenodd" clip-rule="evenodd" d="M10.6667 12H24C26.2667 12 28 13.7333 28 16V26.6666C28 28.9333 26.2667 30.6666 24 30.6666H8C5.73333 30.6666 4 28.9333 4 26.6666V16C4 13.7333 5.73333 12 8 12V9.33331C8 7.19998 8.8 5.19998 10.4 3.73331C11.8667 2.13331 13.8667 1.33331 16 1.33331C19.7333 1.33331 23.0667 3.99998 23.8667 7.73331C24 8.53331 23.4667 9.19998 22.8 9.33331C22.1333 9.46665 21.3333 8.93331 21.2 8.26665C20.6667 5.73331 18.5333 3.99998 16 3.99998C14.5333 3.99998 13.2 4.53331 12.2667 5.59998C11.2 6.53331 10.6667 7.86665 10.6667 9.33331V12ZM24 28C24.8 28 25.3333 27.4666 25.3333 26.6666V16C25.3333 15.2 24.8 14.6666 24 14.6666H8C7.2 14.6666 6.66667 15.2 6.66667 16V26.6666C6.66667 27.4666 7.2 28 8 28H24ZM14 20C14 18.9333 14.9333 18 16 18C17.0667 18 18 18.9333 18 20C18 20.5333 17.7333 21.0666 17.3333 21.4666V23.3333C17.3333 24.1333 16.8 24.6666 16 24.6666C15.2 24.6666 14.6667 24.1333 14.6667 23.3333V21.4666C14.2667 21.0666 14 20.5333 14 20Z" fill="#626277"/>
</svg>
