<svg width="16" height="21" viewBox="0 0 16 21" fill="none" xmlns="http://www.w3.org/2000/svg">
<path d="M8 0C5.87827 0 3.84344 0.842855 2.34315 2.34315C0.842855 3.84344 0 5.87827 0 8L0 13.18C0.00264541 13.8572 0.273526 14.5058 0.753333 14.9837C1.23314 15.4617 1.88277 15.73 2.56 15.73H3.33C4.00723 15.73 4.65686 15.4617 5.13667 14.9837C5.61647 14.5058 5.88735 13.8572 5.89 13.18V10.84C5.88735 10.1628 5.61647 9.5142 5.13667 9.03627C4.65686 8.55833 4.00723 8.29 3.33 8.29H2V8C2 6.4087 2.63214 4.88258 3.75736 3.75736C4.88258 2.63214 6.4087 2 8 2C9.5913 2 11.1174 2.63214 12.2426 3.75736C13.3679 4.88258 14 6.4087 14 8V8.29H12.67C11.9928 8.29 11.3431 8.55833 10.8633 9.03627C10.3835 9.5142 10.1126 10.1628 10.11 10.84V13.18C10.1126 13.8572 10.3835 14.5058 10.8633 14.9837C11.3431 15.4617 11.9928 15.73 12.67 15.73H13.44C13.598 15.7292 13.7554 15.7125 13.91 15.68C13.7569 16.3378 13.3863 16.9247 12.8582 17.3458C12.3301 17.7668 11.6754 17.9973 11 18H9.92C9.81378 17.7082 9.62076 17.456 9.36689 17.2772C9.11302 17.0984 8.8105 17.0017 8.5 17H7.5C7.10218 17 6.72064 17.158 6.43934 17.4393C6.15804 17.7206 6 18.1022 6 18.5C6 18.8978 6.15804 19.2794 6.43934 19.5607C6.72064 19.842 7.10218 20 7.5 20H7.88C7.91987 20.0045 7.96013 20.0045 8 20H11C12.3261 20 13.5979 19.4732 14.5355 18.5355C15.4732 17.5979 16 16.3261 16 15L16 8C16 5.87827 15.1571 3.84344 13.6569 2.34315C12.1566 0.842855 10.1217 0 8 0V0ZM3.33 10.29C3.4768 10.29 3.61775 10.3476 3.72249 10.4505C3.82722 10.5533 3.88738 10.6932 3.89 10.84L3.89 13.18C3.88738 13.3268 3.82722 13.4667 3.72249 13.5695C3.61775 13.6724 3.4768 13.73 3.33 13.73H2.56C2.4132 13.73 2.27225 13.6724 2.16751 13.5695C2.06278 13.4667 2.00262 13.3268 2 13.18L2 10.29H3.33ZM13.44 13.73H12.67C12.5232 13.73 12.3823 13.6724 12.2775 13.5695C12.1728 13.4667 12.1126 13.3268 12.11 13.18V10.84C12.1126 10.6932 12.1728 10.5533 12.2775 10.4505C12.3823 10.3476 12.5232 10.29 12.67 10.29H14V13.18C13.9974 13.3268 13.9372 13.4667 13.8325 13.5695C13.7277 13.6724 13.5868 13.73 13.44 13.73Z" fill="#0033A0"/>
</svg>
