<svg width="32" height="40" viewBox="0 0 32 40" fill="none" xmlns="http://www.w3.org/2000/svg">
<path d="M16 25.3984C11 25.3984 7 21.3984 7 16.3984V12.3984C7 7.39844 11 3.39844 16 3.39844C21 3.39844 25 7.39844 25 12.3984V16.3984C25 21.3984 21 25.3984 16 25.3984Z" fill="#FED2A4"/>
<path d="M18.2008 23.8008H13.8008V30.2008H18.2008V23.8008Z" fill="#FED2A4"/>
<path d="M16.6 28.3984L16 28.9984L15.4 28.3984H9.4C4.2 28.3984 0 32.7984 0 37.9984C0 39.1984 0.8 39.9984 2 39.9984H30C31.2 39.9984 32 39.1984 32 37.9984C32 32.7984 27.8 28.3984 22.4 28.3984H16.6Z" fill="#1F369B"/>
<path d="M16 29L14.2 26.4C14 26.2 13.6 26 13.2 26.2L10.4 28.2C10.2 28.4 10 28.6 10.2 28.8L11 32.4L16 29Z" fill="#E3E644"/>
<path d="M16 29L17.8 26.4C18 26.2 18.4 26 18.8 26.2L21.6 28.2C21.8 28.4 22 28.6 21.8 28.8L21 32.4L16 29Z" fill="#E3E644"/>
<path d="M15.9992 32.9984C16.441 32.9984 16.7992 32.6403 16.7992 32.1984C16.7992 31.7566 16.441 31.3984 15.9992 31.3984C15.5574 31.3984 15.1992 31.7566 15.1992 32.1984C15.1992 32.6403 15.5574 32.9984 15.9992 32.9984Z" fill="#E3E644"/>
<path d="M15.9992 35.9984C16.441 35.9984 16.7992 35.6403 16.7992 35.1984C16.7992 34.7566 16.441 34.3984 15.9992 34.3984C15.5574 34.3984 15.1992 34.7566 15.1992 35.1984C15.1992 35.6403 15.5574 35.9984 15.9992 35.9984Z" fill="#E3E644"/>
<path d="M15.9992 38.9984C16.441 38.9984 16.7992 38.6403 16.7992 38.1984C16.7992 37.7566 16.441 37.3984 15.9992 37.3984C15.5574 37.3984 15.1992 37.7566 15.1992 38.1984C15.1992 38.6403 15.5574 38.9984 15.9992 38.9984Z" fill="#E3E644"/>
<path d="M25 8.19846V12.3985C19.4 12.9985 16 9.39846 16 9.39846C16.2 10.7985 16.8 12.1985 16.8 12.1985C10.6 12.9985 9.6 9.59846 9.6 9.59846C9 11.5985 7 12.1985 7 12.1985C7 12.1985 7 9.19846 7 8.59846C7 6.39846 7.4 4.79846 9.2 3.79846C11.2 2.79846 12.6 3.59846 12.6 3.59846C12.6 3.59846 15 0.998459 19.6 1.99846C25 3.59846 25 8.19846 25 8.19846Z" fill="#2D2B33"/>
<path d="M5.8 15.2H5V11.2C5 5 9.8 0 16 0C22.2 0 27 5 27 11V14H26V11C26 5.4 21.4 0.8 15.8 0.8C10.2 0.8 5.6 5.4 5.6 11V15.2H5.8Z" fill="#474654"/>
<path d="M26.6 16.7992H25V11.1992H26.6C27.4 11.1992 28.2 11.9992 28.2 12.7992V15.3992C28.2 16.1992 27.4 16.7992 26.6 16.7992Z" fill="#474654"/>
<path d="M5.40078 11.1992H7.00078V16.9992H5.40078C4.60078 16.9992 3.80078 16.1992 3.80078 15.3992V12.7992C3.80078 11.7992 4.60078 11.1992 5.40078 11.1992Z" fill="#474654"/>
<path d="M23.2008 22.1992H20.8008V21.1992H23.2008C24.8008 21.1992 26.2008 19.7992 26.2008 18.1992V11.1992H27.2008V18.3992C27.0008 20.3992 25.4008 22.1992 23.2008 22.1992Z" fill="#474654"/>
<path d="M21.4 22.6016H21C20.4 22.6016 20 22.2016 20 21.6016C20 21.0016 20.4 20.6016 21 20.6016H21.4C22 20.6016 22.4 21.0016 22.4 21.6016C22.4 22.2016 22 22.6016 21.4 22.6016Z" fill="#2D2B33"/>
<path d="M21 16.8008C21.5523 16.8008 22 16.3531 22 15.8008C22 15.2485 21.5523 14.8008 21 14.8008C20.4477 14.8008 20 15.2485 20 15.8008C20 16.3531 20.4477 16.8008 21 16.8008Z" fill="#2D2B33"/>
<path d="M11.1992 17C11.7515 17 12.1992 16.5523 12.1992 16C12.1992 15.4477 11.7515 15 11.1992 15C10.6469 15 10.1992 15.4477 10.1992 16C10.1992 16.5523 10.6469 17 11.1992 17Z" fill="#2D2B33"/>
<path fill-rule="evenodd" clip-rule="evenodd" d="M13.8008 20.6C14.4008 21.2 15.2008 21.6 16.0008 21.6C16.8008 21.6 17.6008 21.2 18.2008 20.6C18.2008 20.6 18.2008 20.4 18.2008 20.2L18.0008 20C17.8008 20 17.8008 20 17.8008 20.2C17.4008 20.8 16.8008 21 16.2008 21C15.6008 21 15.0008 20.8 14.6008 20.2C14.4008 20 14.4008 20 14.2008 20.2L14.0008 20.4C13.8008 20.4 13.8008 20.6 13.8008 20.6Z" fill="#B58257"/>
</svg>
