<svg width="24" height="24" viewBox="0 0 24 24" fill="none" xmlns="http://www.w3.org/2000/svg">
<path fill-rule="evenodd" clip-rule="evenodd" d="M19.8 4.19844C19.4 3.79844 18.8 3.79844 18.4 4.19844C18 4.59844 18 5.19844 18.4 5.59844C21.9 9.09844 21.9 14.7984 18.4 18.2984C18 18.6984 18 19.2984 18.4 19.6984C18.6 19.8984 18.9 19.9984 19.1 19.9984C19.3 19.9984 19.6 19.8984 19.8 19.6984C24.1 15.4984 24.1 8.49844 19.8 4.19844ZM11.4 4.09852C11.1 3.89852 10.6 3.99852 10.3 4.19852L5.6 7.99852H2C1.4 7.99852 1 8.39852 1 8.99852V14.9985C1 15.5985 1.4 15.9985 2 15.9985H5.6L10.3 19.7985L10.3 19.7985L10.3 19.7985C10.5 19.8985 10.7 19.9985 10.9 19.9985C11 19.9985 11.2 19.9985 11.3 19.8985C11.6 19.6985 11.9 19.3985 11.9 18.9985V4.99852C12 4.59852 11.8 4.29852 11.4 4.09852ZM10 16.8985L6.6 14.1985C6.4 14.0985 6.2 13.9985 6 13.9985H3V9.99852H6C6.2 9.99852 6.4 9.89852 6.6 9.79852L10 7.09852V16.8985ZM14.8 9.19853C14.4 8.79853 14.4 8.19853 14.8 7.79854C15.2 7.39854 15.9 7.39854 16.2 7.79854C18.5 10.1985 18.5 13.9985 16.2 16.2985C16 16.4985 15.7 16.5985 15.5 16.5985C15.3 16.5985 15 16.4985 14.8 16.2985C14.4 15.8985 14.4 15.2985 14.8 14.8985C16.4 13.2985 16.4 10.7985 14.8 9.19853Z" fill="#292730"/>
</svg>
