<svg width="24" height="24" viewBox="0 0 24 24" fill="none" xmlns="http://www.w3.org/2000/svg">
<path fill-rule="evenodd" clip-rule="evenodd" d="M12 0C15.1906 0 18.2402 1.29516 20.4847 3.53686C22.7353 5.78467 24 8.83371 24 12.0133C24 15.1929 22.7353 18.242 20.4847 20.4898C18.2342 22.7375 15.1821 24 12 24C10.0783 23.999 8.18763 23.5318 6.49089 22.6422L1.67751 23.9282C1.21696 24.0512 0.725748 23.919 0.389161 23.5814C0.052575 23.2439 -0.0781726 22.7523 0.0462343 22.2921L1.34649 17.4823C0.472357 15.7899 0.0132055 13.911 0.0109066 12.001C0.00837965 9.90138 0.557996 7.83804 1.60464 6.01743C2.65127 4.19684 4.15816 2.6829 5.97436 1.62695C7.79055 0.571005 9.89877 0.0100082 12 0ZM12 2.66667C10.3662 2.67498 8.72655 3.11143 7.3147 3.93229C5.90198 4.75365 4.73022 5.93105 3.9165 7.34649C3.10279 8.76192 2.67561 10.3658 2.67757 11.9978C2.67954 13.6297 3.11058 15.2326 3.92769 16.6461C4.10532 16.9533 4.15311 17.3187 4.06049 17.6613L3.22422 20.7548L6.32255 19.927C6.66716 19.8349 7.0343 19.8848 7.34189 20.0654C8.75402 20.8947 10.3624 21.3325 12.0007 21.3333C14.4764 21.3331 16.8502 20.3508 18.6003 18.603C20.3504 16.855 21.3334 14.4846 21.3334 12.0133C21.3334 9.54203 20.3504 7.17163 18.6003 5.42366C16.844 3.66958 14.4674 2.66667 12 2.66667Z" fill="#626277"/>
<path fill-rule="evenodd" clip-rule="evenodd" d="M8.72455 7.17335H9.20312L9.22491 7.17533C9.22491 7.17533 9.22943 7.17556 9.24591 7.17584L9.2506 7.17592C9.2676 7.1762 9.29822 7.17669 9.33024 7.17881C9.40686 7.18386 9.51776 7.19906 9.63875 7.25613C9.88966 7.37449 10.0483 7.60485 10.1628 7.88297L10.1636 7.88506L10.8225 9.50599C10.8846 9.6327 10.9169 9.77202 10.9169 9.91335C10.9169 10.053 10.8853 10.1908 10.8247 10.3163C10.7529 10.4978 10.6525 10.6668 10.5273 10.8168C10.4322 10.9355 10.3064 11.0878 10.1909 11.2089C10.5112 11.7147 10.905 12.1703 11.3595 12.5607L11.3705 12.5701C11.8617 13.0174 12.4321 13.3689 13.0525 13.6064L13.0979 13.6238C13.2806 13.4158 13.5822 13.0606 13.6807 12.9084C13.8027 12.7198 13.9869 12.5482 14.2611 12.5098C14.4781 12.4795 14.6786 12.5503 14.7821 12.5868L14.7868 12.5885C14.9336 12.6403 15.2988 12.8134 15.6186 12.9685C15.9475 13.128 16.2826 13.2953 16.4089 13.3619C16.4304 13.3726 16.4543 13.3842 16.4797 13.3966C16.5612 13.4362 16.6568 13.4827 16.7294 13.5263C16.8449 13.5956 16.9879 13.7035 17.081 13.8897L17.1241 14.0155C17.2187 14.4898 17.1587 14.9819 16.9529 15.4195L16.9414 15.4439L16.9273 15.467C16.7223 15.8033 16.4496 16.0934 16.1267 16.3189C15.8037 16.5444 15.4375 16.7004 15.0511 16.7771L15.0339 16.7805C14.4786 16.8706 13.9102 16.8335 13.3712 16.6726C12.8997 16.5328 12.4367 16.3661 11.9844 16.1733L11.9703 16.1673L11.9566 16.1604C10.3014 15.3316 8.88859 14.089 7.85521 12.5534C7.27051 11.8001 6.91429 10.8947 6.8291 9.94467L6.82752 9.92699L6.82719 9.90924C6.81934 9.48374 6.90033 9.06129 7.06498 8.66887C7.22542 8.28649 7.46186 7.94081 7.75984 7.65275C7.87338 7.51805 8.01221 7.40671 8.16861 7.32511C8.33614 7.23771 8.52012 7.18635 8.7087 7.17435L8.72455 7.17335Z" fill="#626277"/>
</svg>
