<svg width="80" height="81" viewBox="0 0 80 81" fill="none" xmlns="http://www.w3.org/2000/svg">
<path d="M77.282 0.485596C77.1008 0.485596 77.0102 0.485596 76.9196 0.485596H2.80861C2.80861 0.485596 2.80861 0.485596 2.71801 0.485596C1.1778 0.485596 0 1.66607 0 3.20977V35.8999C0 35.8999 0 35.8999 0 35.9907C0 37.5344 1.1778 38.7149 2.71801 38.7149H15.9456V77.7614C15.9456 79.3051 17.1234 80.4856 18.6636 80.4856C18.7542 80.4856 18.7542 80.4856 18.8448 80.4856C18.9354 80.4856 18.9354 80.4856 19.026 80.4856H60.974C61.0646 80.4856 61.0645 80.4856 61.1552 80.4856H61.2458C62.786 80.4856 63.9638 79.3051 63.9638 77.7614V38.7149H77.282C78.4598 38.7149 79.4564 37.9884 79.8188 36.9896C80 36.6263 80 36.2631 80 35.8999V3.20977C80 1.75688 78.7316 0.485596 77.282 0.485596ZM58.5277 75.0372H21.3817V38.7149V33.2665V21.4618H58.5277V33.2665V38.7149V75.0372ZM74.564 33.2665H63.8732V18.7376C63.8732 17.1939 62.6954 16.0134 61.1552 16.0134C61.0645 16.0134 60.9739 16.0134 60.8833 16.0134C60.7927 16.0134 60.7022 16.0134 60.6115 16.0134H18.6636H18.573C17.0328 16.0134 15.855 17.1939 15.855 18.7376V33.2665H5.34541V5.93395H74.564V33.2665Z" fill="#0033A0"/>
</svg>
