<svg xmlns="http://www.w3.org/2000/svg" width="20" height="16" viewBox="0 0 20 16" fill="none">
<path d="M12.5568 0.589631C12.5172 0.427338 12.4253 0.282597 12.2953 0.177812C12.1652 0.0730275 12.0042 0.0140445 11.8372 0.00999373H10.7779C10.6086 0.0110556 10.4447 0.0701839 10.3138 0.1775C10.1828 0.284817 10.0926 0.433823 10.0583 0.599625L7.0602 15.1205C7.03675 15.2268 7.03807 15.3371 7.06406 15.4428C7.09006 15.5485 7.14003 15.6468 7.2101 15.7301C7.27884 15.8149 7.3657 15.8831 7.46428 15.9298C7.56287 15.9765 7.67067 16.0005 7.77975 16H8.71916C8.88847 15.9989 9.05229 15.9398 9.18326 15.8325C9.31422 15.7252 9.40439 15.5762 9.43871 15.4103L10.0383 12.5222H12.5268L13.1264 15.4103C13.1607 15.5762 13.2509 15.7252 13.3819 15.8325C13.5128 15.9398 13.6766 15.9989 13.8459 16H14.7954C14.9043 15.9997 15.0119 15.9754 15.1104 15.9288C15.2088 15.8821 15.2958 15.8143 15.365 15.7301C15.4303 15.6442 15.4774 15.5457 15.5031 15.4409C15.5289 15.336 15.5329 15.227 15.5149 15.1205L12.5568 0.589631ZM12.0071 10.0737H10.558L11.3075 6.42598L12.0071 10.0737ZM20.0021 2.60837V3.40787C20.0021 3.54039 19.9494 3.66749 19.8557 3.7612C19.762 3.85491 19.6349 3.90755 19.5024 3.90755H17.9034V5.49656C17.9034 5.62908 17.8508 5.75618 17.7571 5.84989C17.6633 5.9436 17.5362 5.99624 17.4037 5.99624H16.6042C16.4717 5.99624 16.3446 5.9436 16.2509 5.84989C16.1572 5.75618 16.1045 5.62908 16.1045 5.49656V3.90755H14.5055C14.373 3.90755 14.2459 3.85491 14.1522 3.7612C14.0585 3.66749 14.0058 3.54039 14.0058 3.40787V2.60837C14.0058 2.47584 14.0585 2.34874 14.1522 2.25503C14.2459 2.16132 14.373 2.10868 14.5055 2.10868H16.1045V0.499687C16.1045 0.367162 16.1572 0.240064 16.2509 0.146355C16.3446 0.0526453 16.4717 0 16.6042 0H17.4037C17.5362 0 17.6633 0.0526453 17.7571 0.146355C17.8508 0.240064 17.9034 0.367162 17.9034 0.499687V2.10868H19.5024C19.6349 2.10868 19.762 2.16132 19.8557 2.25503C19.9494 2.34874 20.0021 2.47584 20.0021 2.60837ZM4.86158 16H5.86095C5.93716 16.0007 6.01253 15.9839 6.08128 15.951C6.15003 15.9181 6.21034 15.8699 6.2576 15.8101C6.30486 15.7503 6.33781 15.6805 6.35394 15.606C6.37007 15.5316 6.36894 15.4544 6.35064 15.3804L4.192 6.78575C4.16703 6.67739 4.10594 6.58075 4.01875 6.51173C3.93157 6.44271 3.82349 6.40542 3.7123 6.40599H2.71292C2.60091 6.40668 2.49225 6.44425 2.40373 6.5129C2.31522 6.58154 2.25178 6.67744 2.22323 6.78575L0.0146116 15.3704C-0.00348274 15.4435 -0.00478922 15.5199 0.01079 15.5936C0.0263691 15.6674 0.0584301 15.7366 0.104573 15.7962C0.150715 15.8558 0.209743 15.9042 0.277237 15.9378C0.34473 15.9713 0.418941 15.9892 0.494311 15.99H1.49369C1.60839 15.9882 1.71913 15.9477 1.80799 15.8752C1.89686 15.8027 1.95865 15.7023 1.98338 15.5902L2.21323 14.4709H4.21198L4.44184 15.5902C4.45968 15.6941 4.50988 15.7896 4.58526 15.8632C4.66064 15.9368 4.75735 15.9846 4.86158 16ZM2.56302 12.6021L3.16264 9.70392L3.75227 12.6021H2.56302Z" fill="#0033A0"/>
</svg>