<?xml version="1.0" encoding="utf-8"?>
<!-- Generator: Adobe Illustrator 23.0.1, SVG Export Plug-In . SVG Version: 6.00 Build 0)  -->
<svg version="1.1" id="Layer_1" xmlns="http://www.w3.org/2000/svg" xmlns:xlink="http://www.w3.org/1999/xlink" x="0px" y="0px"
	 viewBox="0 0 24 24" style="enable-background:new 0 0 24 24;" xml:space="preserve">
<style type="text/css">
	.st0{fill:#B50000;}
</style>
<g>
	<path class="st0" d="M12,1C5.9,1,1,5.9,1,12s4.9,11,11,11s11-4.9,11-11S18.1,1,12,1z M12,21c-5,0-9-4-9-9s4-9,9-9s9,4,9,9
		S17,21,12,21z"/>
	<path class="st0" d="M12,7c-0.6,0-1,0.4-1,1v4c0,0.6,0.4,1,1,1s1-0.4,1-1V8C13,7.4,12.6,7,12,7z"/>
	<path class="st0" d="M12.7,15.3c-0.1-0.1-0.2-0.2-0.3-0.2c-0.3-0.1-0.6-0.1-0.8,0c-0.1,0-0.2,0.1-0.3,0.2c-0.1,0.1-0.1,0.2-0.2,0.3
		C11,15.7,11,15.9,11,16c0,0.3,0.1,0.5,0.3,0.7c0.1,0.1,0.2,0.2,0.3,0.2C11.7,17,11.9,17,12,17c0.3,0,0.5-0.1,0.7-0.3S13,16.3,13,16
		c0-0.2-0.1-0.3-0.1-0.4C12.9,15.5,12.8,15.4,12.7,15.3z"/>
</g>
</svg>
