<svg width="16" height="16" viewBox="0 0 16 16" fill="none" xmlns="http://www.w3.org/2000/svg">
<path d="M9.46705 13.4C9.13372 13.2 8.73372 13.3333 8.53372 13.6667C8.33372 14 7.93372 14.0667 7.60039 13.9333C7.46705 13.8667 7.40039 13.8 7.33372 13.6667C7.13372 13.3333 6.73372 13.2667 6.40039 13.4C6.06705 13.6 6.00039 14 6.13372 14.3333C6.33372 14.6667 6.53372 14.8667 6.86705 15.0667C7.20039 15.2667 7.53372 15.3333 7.86705 15.3333C8.53372 15.3333 9.20039 15 9.60039 14.3333C9.93372 14 9.80039 13.6 9.46705 13.4Z" fill="#292730"/>
<path d="M14.667 10.6666C13.9337 10.6666 13.3337 10.0666 13.3337 9.33329V5.99996C13.3337 3.06663 10.9337 0.666626 8.00033 0.666626C5.06699 0.666626 2.66699 3.06663 2.66699 5.99996V9.33329C2.66699 10.0666 2.06699 10.6666 1.33366 10.6666C0.933659 10.6666 0.666992 10.9333 0.666992 11.3333C0.666992 11.7333 0.933659 12 1.33366 12H14.667C15.067 12 15.3337 11.7333 15.3337 11.3333C15.3337 10.9333 15.067 10.6666 14.667 10.6666ZM3.66699 10.6666C3.86699 10.2666 4.00033 9.79996 4.00033 9.33329V5.99996C4.00033 3.79996 5.80033 1.99996 8.00033 1.99996C10.2003 1.99996 12.0003 3.79996 12.0003 5.99996V9.33329C12.0003 9.79996 12.1337 10.2666 12.3337 10.6666H3.66699Z" fill="#464454"/>
</svg>
