<svg width="48" height="48" viewBox="0 0 48 48" fill="none" xmlns="http://www.w3.org/2000/svg">
<path d="M41.7111 34.7453C41.1245 35.052 40.5196 35.3224 39.8997 35.5547C37.9267 36.293 35.8367 36.669 33.7301 36.6649C25.5979 36.6649 18.514 31.071 18.514 23.8926C18.5244 22.9298 18.7916 21.9872 19.288 21.1622C19.7843 20.3371 20.4919 19.6595 21.3376 19.1992C13.9822 19.5086 12.0918 27.1733 12.0918 31.6639C12.0918 44.3606 23.7934 45.6478 26.3146 45.6478C27.6739 45.6478 29.7242 45.2525 30.9547 44.8641L31.1798 44.7885C35.9148 43.1516 39.9515 39.9513 42.6254 35.7145C42.7073 35.5855 42.7438 35.4329 42.7293 35.2807C42.7147 35.1286 42.6499 34.9857 42.545 34.8745C42.4402 34.7633 42.3013 34.6902 42.1502 34.6668C41.9992 34.6434 41.8447 34.671 41.7111 34.7453Z" fill="url(#paint0_linear)"/>
<path opacity="0.35" d="M41.7111 34.7453C41.1245 35.052 40.5196 35.3224 39.8997 35.5547C37.9267 36.293 35.8367 36.669 33.7301 36.6649C25.5979 36.6649 18.514 31.071 18.514 23.8926C18.5244 22.9298 18.7916 21.9872 19.288 21.1622C19.7843 20.3371 20.4919 19.6595 21.3376 19.1992C13.9822 19.5086 12.0918 27.1733 12.0918 31.6639C12.0918 44.3606 23.7934 45.6478 26.3146 45.6478C27.6739 45.6478 29.7242 45.2525 30.9547 44.8641L31.1798 44.7885C35.9148 43.1516 39.9515 39.9513 42.6254 35.7145C42.7073 35.5855 42.7438 35.4329 42.7293 35.2807C42.7147 35.1286 42.6499 34.9857 42.545 34.8745C42.4402 34.7633 42.3013 34.6902 42.1502 34.6668C41.9992 34.6434 41.8447 34.671 41.7111 34.7453Z" fill="url(#paint1_radial)"/>
<path d="M20.1699 43.4894C18.637 42.538 17.3086 41.2914 16.2619 39.822C15.0688 38.1875 14.2478 36.3117 13.8565 34.3263C13.4652 32.3408 13.513 30.2938 13.9965 28.3288C14.4801 26.3638 15.3877 24.5284 16.6557 22.9513C17.9237 21.3742 19.5214 20.0936 21.3368 19.1994C21.8729 18.9467 22.7889 18.4896 24.0074 18.5119C24.8658 18.5182 25.7112 18.7232 26.4771 19.1108C27.2431 19.4984 27.9089 20.0581 28.4224 20.7461C29.1164 21.6727 29.499 22.7953 29.5154 23.9529C29.5154 23.9168 33.719 10.2732 15.7669 10.2732C8.22246 10.2732 2.01848 17.4327 2.01848 23.714C1.98872 27.0368 2.69966 30.3244 4.09965 33.3379C6.38761 38.2196 10.3886 42.0911 15.3429 44.2172C20.2973 46.3434 25.8598 46.5761 30.9744 44.8712C29.1836 45.4358 27.2916 45.6053 25.429 45.3679C23.5663 45.1306 21.7773 44.492 20.1853 43.4963L20.1699 43.4894Z" fill="url(#paint2_linear)"/>
<path opacity="0.41" d="M20.1699 43.4894C18.637 42.538 17.3086 41.2914 16.2619 39.822C15.0688 38.1875 14.2478 36.3117 13.8565 34.3263C13.4652 32.3408 13.513 30.2938 13.9965 28.3288C14.4801 26.3638 15.3877 24.5284 16.6557 22.9513C17.9237 21.3742 19.5214 20.0936 21.3368 19.1994C21.8729 18.9467 22.7889 18.4896 24.0074 18.5119C24.8658 18.5182 25.7112 18.7232 26.4771 19.1108C27.2431 19.4984 27.9089 20.0581 28.4224 20.7461C29.1164 21.6727 29.499 22.7953 29.5154 23.9529C29.5154 23.9168 33.719 10.2732 15.7669 10.2732C8.22246 10.2732 2.01848 17.4327 2.01848 23.714C1.98872 27.0368 2.69966 30.3244 4.09965 33.3379C6.38761 38.2196 10.3886 42.0911 15.3429 44.2172C20.2973 46.3434 25.8598 46.5761 30.9744 44.8712C29.1836 45.4358 27.2916 45.6053 25.429 45.3679C23.5663 45.1306 21.7773 44.492 20.1853 43.4963L20.1699 43.4894Z" fill="url(#paint3_radial)"/>
<path d="M28.1788 27.5824C28.0396 27.7629 27.6116 28.0121 27.6116 28.5551C27.6116 29.0037 27.9038 29.435 28.4228 29.7976C30.8941 31.5162 35.5531 31.2893 35.5651 31.2893C37.3963 31.2849 39.1927 30.7894 40.7672 29.8544C42.3555 28.927 43.6737 27.6004 44.591 26.0063C45.5084 24.4121 45.993 22.6059 45.9967 20.7666C46.0414 16.9153 44.6219 14.3547 44.0479 13.2205C40.4063 6.09704 32.5456 2 23.9975 2C18.2166 1.99943 12.6678 4.27451 8.55128 8.33317C4.43472 12.3918 2.08129 17.9078 2 23.6882C2.08249 17.4086 8.32428 12.3371 15.7484 12.3371C16.3499 12.3371 19.7802 12.3955 22.9664 14.0677C25.7745 15.5422 27.2456 17.3226 28.2681 19.0876C29.3302 20.9213 29.5192 23.2379 29.5192 24.1608C29.5192 25.0836 29.0483 26.4516 28.1788 27.5824Z" fill="url(#paint4_radial)"/>
<path d="M28.1788 27.5824C28.0396 27.7629 27.6116 28.0121 27.6116 28.5551C27.6116 29.0037 27.9038 29.435 28.4228 29.7976C30.8941 31.5162 35.5531 31.2893 35.5651 31.2893C37.3963 31.2849 39.1927 30.7894 40.7672 29.8544C42.3555 28.927 43.6737 27.6004 44.591 26.0063C45.5084 24.4121 45.993 22.6059 45.9967 20.7666C46.0414 16.9153 44.6219 14.3547 44.0479 13.2205C40.4063 6.09704 32.5456 2 23.9975 2C18.2166 1.99943 12.6678 4.27451 8.55128 8.33317C4.43472 12.3918 2.08129 17.9078 2 23.6882C2.08249 17.4086 8.32428 12.3371 15.7484 12.3371C16.3499 12.3371 19.7802 12.3955 22.9664 14.0677C25.7745 15.5422 27.2456 17.3226 28.2681 19.0876C29.3302 20.9213 29.5192 23.2379 29.5192 24.1608C29.5192 25.0836 29.0483 26.4516 28.1788 27.5824Z" fill="url(#paint5_radial)"/>
<defs>
<linearGradient id="paint0_linear" x1="12.0918" y1="32.4269" x2="42.7405" y2="32.4269" gradientUnits="userSpaceOnUse">
<stop stop-color="#0C59A4"/>
<stop offset="1" stop-color="#114A8B"/>
</linearGradient>
<radialGradient id="paint1_radial" cx="0" cy="0" r="1" gradientUnits="userSpaceOnUse" gradientTransform="translate(29.0196 32.6685) scale(16.3916 15.572)">
<stop offset="0.72" stop-opacity="0"/>
<stop offset="0.95" stop-opacity="0.53"/>
<stop offset="1"/>
</radialGradient>
<linearGradient id="paint2_linear" x1="28.2488" y1="19.1323" x2="9.1058" y2="39.9836" gradientUnits="userSpaceOnUse">
<stop stop-color="#1B9DE2"/>
<stop offset="0.16" stop-color="#1595DF"/>
<stop offset="0.67" stop-color="#0680D7"/>
<stop offset="1" stop-color="#0078D4"/>
</linearGradient>
<radialGradient id="paint3_radial" cx="0" cy="0" r="1" gradientUnits="userSpaceOnUse" gradientTransform="translate(14.1316 36.2008) rotate(-81.3844) scale(24.6486 19.9136)">
<stop offset="0.76" stop-opacity="0"/>
<stop offset="0.95" stop-opacity="0.5"/>
<stop offset="1"/>
</radialGradient>
<radialGradient id="paint4_radial" cx="0" cy="0" r="1" gradientUnits="userSpaceOnUse" gradientTransform="translate(6.44461 10.142) rotate(92.2906) scale(34.8165 74.152)">
<stop stop-color="#35C1F1"/>
<stop offset="0.11" stop-color="#34C1ED"/>
<stop offset="0.23" stop-color="#2FC2DF"/>
<stop offset="0.31" stop-color="#2BC3D2"/>
<stop offset="0.67" stop-color="#36C752"/>
</radialGradient>
<radialGradient id="paint5_radial" cx="0" cy="0" r="1" gradientUnits="userSpaceOnUse" gradientTransform="translate(43.2577 15.3027) rotate(73.7398) scale(16.7284 13.6036)">
<stop stop-color="#66EB6E"/>
<stop offset="1" stop-color="#66EB6E" stop-opacity="0"/>
</radialGradient>
</defs>
</svg>
