<svg width="16" height="16" viewBox="0 0 16 16" fill="none" xmlns="http://www.w3.org/2000/svg">
<path d="M12 4.66663C12.4 4.66663 12.6667 4.39996 12.6667 3.99996V1.33329C12.6667 0.933293 12.4 0.666626 12 0.666626H10C7.8 0.666626 6 2.46663 6 4.66663V5.99996H4.66667C4.26667 5.99996 4 6.26663 4 6.66663V9.33329C4 9.73329 4.26667 9.99996 4.66667 9.99996H6V14.6666C6 15.0666 6.26667 15.3333 6.66667 15.3333H9.33333C9.73333 15.3333 10 15.0666 10 14.6666V9.99996H11.3333C11.6667 9.99996 11.9333 9.79996 12 9.46663L12.6667 6.79996C12.7333 6.59996 12.6667 6.39996 12.5333 6.19996C12.4 5.99996 12.2 5.99996 12 5.99996H10V4.66663H12ZM9.33333 7.33329H11.1333L10.8 8.66663H9.33333C8.93333 8.66663 8.66667 8.93329 8.66667 9.33329V14H7.33333V9.33329C7.33333 8.93329 7.06667 8.66663 6.66667 8.66663H5.33333V7.33329H6.66667C7.06667 7.33329 7.33333 7.06663 7.33333 6.66663V4.66663C7.33333 3.19996 8.53333 1.99996 10 1.99996H11.3333V3.33329H10C9.26667 3.33329 8.66667 3.93329 8.66667 4.66663V6.66663C8.66667 7.06663 8.93333 7.33329 9.33333 7.33329Z" fill="#626277"/>
</svg>
