<svg width="16" height="16" viewBox="0 0 16 16" fill="none" xmlns="http://www.w3.org/2000/svg">
<path d="M13.9333 5.06663C13.8667 4.99996 13.8667 4.93329 13.8 4.86663L9.8 0.866626C9.73333 0.799959 9.66667 0.733293 9.6 0.733293C9.53333 0.666626 9.4 0.666626 9.33333 0.666626H4C2.86667 0.666626 2 1.53329 2 2.66663V13.3333C2 14.4666 2.86667 15.3333 4 15.3333H12C13.1333 15.3333 14 14.4666 14 13.3333V5.33329C14 5.26663 14 5.13329 13.9333 5.06663ZM10 2.93329L11.7333 4.66663H10V2.93329ZM12 14H4C3.6 14 3.33333 13.7333 3.33333 13.3333V2.66663C3.33333 2.26663 3.6 1.99996 4 1.99996H8.66667V5.33329C8.66667 5.73329 8.93333 5.99996 9.33333 5.99996H12.6667V13.3333C12.6667 13.7333 12.4 14 12 14Z" fill="#292730"/>
<path d="M10.667 8H5.33366C4.93366 8 4.66699 8.26667 4.66699 8.66667C4.66699 9.06667 4.93366 9.33333 5.33366 9.33333H10.667C11.067 9.33333 11.3337 9.06667 11.3337 8.66667C11.3337 8.26667 11.067 8 10.667 8Z" fill="#464454"/>
<path d="M10.667 10.6666H5.33366C4.93366 10.6666 4.66699 10.9333 4.66699 11.3333C4.66699 11.7333 4.93366 12 5.33366 12H10.667C11.067 12 11.3337 11.7333 11.3337 11.3333C11.3337 10.9333 11.067 10.6666 10.667 10.6666Z" fill="#464454"/>
<path d="M5.33366 6.66658H6.66699C7.06699 6.66658 7.33366 6.39992 7.33366 5.99992C7.33366 5.59992 7.06699 5.33325 6.66699 5.33325H5.33366C4.93366 5.33325 4.66699 5.59992 4.66699 5.99992C4.66699 6.39992 4.93366 6.66658 5.33366 6.66658Z" fill="#464454"/>
</svg>
