<svg width="48" height="48" viewBox="0 0 48 48" fill="none" xmlns="http://www.w3.org/2000/svg">
<path d="M38.9484 4.46631C37.7684 5.82631 37.2191 8.88777 38.4153 11.9912C39.6115 15.0946 41.4452 14.4205 42.5882 17.5848C44.0967 21.7605 43.3946 27.3697 43.3946 27.3697C43.3946 27.3697 45.2081 32.5702 46.4723 27.0463C49.2701 16.6702 38.9484 7.02143 38.9484 4.46631Z" fill="url(#paint0_radial)"/>
<path d="M24.5527 47.5434C36.6348 47.5434 46.422 37.8 46.422 25.7873C46.422 13.7747 36.6348 4.03125 24.5645 4.03125C12.4943 4.03125 2.70707 13.7717 2.70707 25.7859C2.68392 37.8117 12.4825 47.5434 24.5527 47.5434Z" fill="url(#paint1_radial)"/>
<path d="M40.9385 39.2019C40.4658 39.5321 39.9699 39.8285 39.4546 40.0888C40.1374 39.0977 40.7672 38.0719 41.3415 37.0156C41.8076 36.5049 42.2347 36.0083 42.5825 35.4717C42.752 35.2078 42.9427 34.8824 43.1451 34.5049C44.3729 32.3146 45.7267 28.7702 45.7651 25.1293V25.1219C45.7651 25.0322 45.7651 24.9429 45.7651 24.8532C45.7715 23.9392 45.6772 23.0273 45.4838 22.1336C45.4937 22.2034 45.5025 22.2732 45.5114 22.3429C45.5006 22.2893 45.4912 22.2351 45.4799 22.1814C45.4981 22.279 45.5124 22.3766 45.5291 22.4741C45.7799 24.5824 45.6016 26.6385 44.7074 28.1546C44.6931 28.1766 44.6788 28.1975 44.6645 28.219C45.1281 25.9151 45.2833 23.3707 44.7675 20.8239C44.7675 20.8239 44.5611 19.5858 43.0244 15.8268C42.1376 13.6634 40.5695 11.8893 39.1817 10.5971C37.9653 9.10681 36.8607 8.10925 36.2518 7.47218C34.9797 6.14584 34.4467 5.15169 34.2275 4.50291C34.0378 4.40877 31.6094 2.07316 31.4168 1.98438C30.3571 3.6112 27.0242 8.69998 28.6086 13.4551C29.3269 15.6097 31.1444 17.8454 33.0461 19.101C33.1293 19.1956 34.1792 20.3205 34.6763 22.8649C35.1911 25.4917 34.9226 27.541 33.8614 30.5722C32.6155 33.2312 29.424 35.8595 26.436 36.1283C20.0476 36.7029 17.7085 32.9522 17.7085 32.9522C19.9915 33.8556 22.5154 33.6668 24.05 32.7297C25.597 31.7819 26.5326 31.0795 27.2922 31.3566C28.0401 31.6307 28.6382 30.8293 28.1012 30C27.2567 28.7122 25.7169 28.0484 24.1895 28.3136C22.641 28.5629 21.2222 29.7771 19.1934 28.601C19.062 28.5255 18.9349 28.4431 18.8125 28.3541C18.679 28.2668 19.2476 28.4868 19.1145 28.3878C18.7204 28.1756 18.0208 27.7127 17.8395 27.5478C17.8095 27.5205 18.146 27.6541 18.1159 27.6268C16.2187 26.08 16.4556 25.0351 16.5153 24.3795C16.5645 23.8551 16.9094 23.1834 17.4883 22.9107C17.7686 23.0624 17.9435 23.178 17.9435 23.178C17.9435 23.178 17.8238 22.9341 17.7592 22.8083C17.7819 22.7985 17.8036 22.801 17.8262 22.7917C18.0558 22.9014 18.5652 23.1868 18.8318 23.361C19.1801 23.6049 19.2914 23.8214 19.2914 23.8214C19.2914 23.8214 19.383 23.7727 19.3151 23.5595C19.2904 23.4727 19.1845 23.1961 18.8396 22.9171H18.8613C19.0679 23.0336 19.2636 23.1681 19.4461 23.319C19.5446 22.9688 19.7185 22.6029 19.6801 21.9488C19.6565 21.4888 19.6673 21.3697 19.5855 21.1922C19.5121 21.0395 19.6264 20.98 19.754 21.1385C19.7322 21.0144 19.6957 20.8932 19.6451 20.7775V20.7658C19.8043 20.2175 23.0076 18.7922 23.2416 18.6254C23.6247 18.3569 23.9459 18.0111 24.184 17.6107C24.3624 17.3297 24.4964 16.9351 24.5289 16.3371C24.5466 15.9058 24.3437 15.6185 21.1044 15.2824C20.2176 15.1961 19.6988 14.5605 19.4032 13.9741C19.3495 13.8478 19.2944 13.7332 19.2392 13.619C19.1867 13.4853 19.1445 13.3478 19.1131 13.2078C19.6427 11.7019 20.5324 10.4273 21.8409 9.46633C21.9124 9.40194 21.5562 9.48291 21.6271 9.41755C21.7104 9.34242 22.2533 9.12486 22.3558 9.07608C22.4809 9.01755 21.8198 8.7395 21.2359 8.8073C20.6413 8.87364 20.5152 8.94389 20.1979 9.07706C20.3294 8.9473 20.7482 8.77706 20.6502 8.77803C20.0097 8.87559 19.2126 9.24437 18.5317 9.66194C18.5303 9.58916 18.5442 9.51689 18.5726 9.44974C18.2553 9.58291 17.4759 10.1224 17.2488 10.5785C17.2587 10.4911 17.2631 10.4031 17.2621 10.3151C17.0205 10.5148 16.8025 10.7409 16.6123 10.9893L16.6005 11C14.7599 10.2683 13.1405 10.2195 11.7699 10.5473C11.4699 10.2493 11.3236 10.4673 10.6412 8.98291C10.5949 8.89364 10.6767 9.0712 10.6412 8.98291C10.5289 8.69511 10.7097 9.36681 10.6412 8.98291C9.49432 9.87901 7.9848 10.8946 7.2601 11.6117C7.25123 11.6405 8.10551 11.3727 7.2601 11.6117C6.9645 11.6956 6.98421 11.8693 6.93937 13.441C6.92854 13.56 6.93937 13.6936 6.92854 13.801C6.34966 14.5327 5.95553 15.1493 5.80625 15.4697C5.0579 16.7468 4.23318 18.738 3.43408 21.8868C3.78685 21.0345 4.21189 20.2134 4.70466 19.4322C4.04006 21.1039 3.39762 23.7288 3.26953 27.7707C3.43023 26.9366 3.6363 26.1116 3.88684 25.2995C3.72968 28.6532 4.3136 32.0006 5.59785 35.1078C6.05751 36.221 6.81769 37.9107 8.11043 39.7614C12.1783 44 17.9134 46.6341 24.2638 46.6341C30.8941 46.6341 36.8479 43.7624 40.9385 39.2019Z" fill="url(#paint2_linear)"/>
<path d="M36.0333 42.2786C44.0573 41.3586 47.6109 33.1713 43.0479 33.0104C38.9277 32.8782 32.2349 42.7128 36.0333 42.2786Z" fill="url(#paint3_radial)"/>
<path d="M43.6259 31.3376C49.1462 28.1566 47.7046 21.2849 47.7046 21.2849C47.7046 21.2849 45.5739 23.7356 44.1269 27.642C42.6992 31.5122 40.3068 33.2591 43.6259 31.3376Z" fill="url(#paint4_radial)"/>
<path d="M26.1 46.3443C33.7968 48.776 40.4133 42.7726 36.3345 40.7677C32.6292 38.9599 22.4469 45.1946 26.1 46.3443Z" fill="url(#paint5_radial)"/>
<path d="M44.1991 34.2551C44.3863 33.9936 44.6395 33.156 44.8632 32.7814C46.222 30.6097 46.2318 28.879 46.2318 28.838C47.0526 24.7785 46.9782 23.1209 46.4732 20.0575C46.0668 17.5892 44.2898 14.0531 42.7502 12.3502C41.1638 10.5941 42.2817 11.1673 40.7455 9.88579C39.3991 8.40823 38.094 6.94481 37.3831 6.35603C32.2456 2.10189 32.3614 1.19896 32.4604 1.04481C32.4437 1.06286 32.4191 1.08969 32.388 1.12481C32.3269 0.884813 32.2841 0.682861 32.2841 0.682861C32.2841 0.682861 29.4759 3.46335 28.8847 8.0975C28.4989 11.1219 29.6424 14.277 31.2987 16.2926C32.1612 17.3373 33.1358 18.286 34.2055 19.1219C35.4568 20.9014 36.1456 23.097 36.1456 25.459C36.1456 31.3731 31.3007 36.1677 25.3242 36.1677C24.5098 36.1681 23.6978 36.0778 22.9038 35.8985C20.0838 35.3658 18.455 33.957 17.6431 33.0004C17.1776 32.4526 16.98 32.0531 16.98 32.0531C19.5064 32.9492 22.3008 32.7619 23.999 31.8326C25.711 30.8931 26.7465 30.196 27.5875 30.4707C28.4162 30.7443 29.0758 29.9502 28.4842 29.1273C27.9043 28.3053 26.3953 27.1273 24.1546 27.4546C22.4407 27.7019 20.8706 28.9063 18.625 27.7394C18.4805 27.6654 18.3399 27.5839 18.2038 27.4955C18.056 27.4092 18.6851 27.6268 18.5383 27.5287C18.1013 27.318 17.3278 26.859 17.1273 26.696C17.0938 26.6687 17.4663 26.8014 17.4328 26.7741C15.333 25.2399 15.5951 24.2038 15.6592 23.5546C15.7119 23.0346 16.0932 22.3682 16.7361 22.098C17.0465 22.2482 17.2401 22.3629 17.2401 22.3629C17.2401 22.3629 17.1076 22.1229 17.0362 21.9965C17.0613 21.9873 17.0854 21.9892 17.1101 21.9799C17.3643 22.0887 17.9269 22.3702 18.223 22.5443C18.6087 22.7858 18.7314 23.0009 18.7314 23.0009C18.7314 23.0009 18.8329 22.9521 18.758 22.7409C18.7304 22.6546 18.6137 22.3804 18.2319 22.1033H18.2555C18.4822 22.2178 18.6986 22.3511 18.9024 22.5019C19.0103 22.1546 19.2039 21.7916 19.161 21.1429C19.1349 20.6868 19.1472 20.5682 19.0566 20.3921C18.9753 20.2409 19.1019 20.1819 19.2428 20.339C19.2185 20.215 19.1781 20.0946 19.1226 19.9809V19.9692C19.2985 19.4258 22.8437 18.0121 23.1018 17.8468C23.5176 17.5883 23.8731 17.2453 24.1448 16.8404C24.3419 16.5614 24.4897 16.1707 24.5266 15.5775C24.5389 15.3102 24.4557 15.0985 23.5166 14.8946C22.953 14.7731 22.081 14.6551 20.7366 14.5302C19.7562 14.4443 19.1807 13.8141 18.8541 13.2326C18.7945 13.1073 18.7334 12.9936 18.6728 12.8804C18.615 12.7486 18.5683 12.6121 18.5334 12.4726C19.1201 10.952 20.1766 9.65354 21.5524 8.76237C21.6312 8.69847 21.2371 8.77847 21.3159 8.71359C21.4081 8.63945 22.0086 8.42432 22.1224 8.37603C22.2608 8.31798 21.5312 8.04237 20.8829 8.1092C20.2247 8.17506 20.0853 8.24481 19.734 8.37701C19.8818 8.24823 20.3434 8.07945 20.2345 8.08042C19.5251 8.17798 18.6432 8.54286 17.8895 8.95847C17.888 8.88587 17.9035 8.81393 17.9348 8.74823C17.5835 8.88042 16.7209 9.41506 16.4701 9.87018C16.4808 9.78361 16.4856 9.69641 16.4844 9.6092C16.2199 9.80437 15.9786 10.0286 15.7651 10.2775L15.7518 10.2882C13.7176 9.56091 11.9248 9.51213 10.4099 9.83993C10.0778 9.54432 9.54425 9.09701 8.78949 7.6253C8.74022 7.53652 8.71066 7.80823 8.67125 7.72286C8.37565 7.0492 8.20076 5.9453 8.22785 5.18628C8.22785 5.18628 7.62089 5.45993 7.11887 6.60384C7.02575 6.8092 6.96565 6.92286 6.90604 7.03652C6.87845 7.06969 6.96861 6.66091 6.9553 6.68335C6.8681 6.82969 6.64197 7.03408 6.54295 7.29896C6.47496 7.49408 6.37938 7.60481 6.31829 7.84969L6.304 7.87213C6.29908 7.79993 6.32223 7.57554 6.304 7.6214C6.06854 8.09106 5.86575 8.57609 5.69704 9.0731C5.42657 9.95115 5.11176 11.1516 5.062 12.7107C5.05018 12.8287 5.062 12.9614 5.04969 13.0677C4.40922 13.7912 3.97273 14.4038 3.80818 14.7219C2.98001 15.9902 2.0676 17.9629 1.18278 21.0858C1.57629 20.2325 2.04689 19.4162 2.58884 18.6468C1.85329 20.3048 1.14238 22.9082 1 26.917C1.1785 26.0874 1.40668 25.2691 1.68332 24.4663C1.55622 27.1394 1.87103 30.4536 3.57761 34.1951C4.59102 36.3902 6.92377 40.8585 12.6239 44.3438C12.6239 44.3438 14.563 45.7731 17.8954 46.8443C18.1417 46.9326 18.391 47.0199 18.6457 47.1043C18.5659 47.0721 18.4885 47.039 18.4136 47.0043C20.6324 47.6627 22.9361 47.9981 25.2523 47.9999C33.8828 48.0073 36.4283 44.5755 36.4283 44.5755L36.4032 44.5941C36.5251 44.4806 36.6423 44.3625 36.755 44.2399C35.3933 45.5121 32.2841 45.598 31.1238 45.5058C33.1053 44.9297 34.4094 44.4419 36.9456 43.4804C37.2412 43.3712 37.5447 43.2469 37.8561 43.1077L37.9571 43.0619C38.0187 43.0336 38.0797 43.0068 38.1418 42.977C39.3776 42.4002 40.5396 41.6797 41.6033 40.8307C44.1503 38.816 44.7046 36.8521 44.9943 35.5575C44.9539 35.6814 44.8282 35.9707 44.7396 36.1585C44.0838 37.5477 42.629 38.4024 41.049 39.1316C41.8007 38.1549 42.4977 37.1381 43.1369 36.0858C43.6532 35.5799 43.8124 34.7877 44.1991 34.2551Z" fill="url(#paint6_radial)"/>
<path d="M41.0987 39.0732C42.1372 37.9395 43.0694 36.6429 43.7763 35.1707C45.5943 31.3863 48.4074 25.0937 46.1904 18.5215C44.4414 13.3278 42.0387 10.4878 38.9896 7.71317C34.0359 3.2078 32.6525 1.1961 32.6525 0C32.6525 0 26.9332 6.31268 29.4137 12.8966C31.8943 19.4805 36.9741 19.238 40.3351 26.1098C44.2897 34.1946 37.1352 43.0176 31.2208 45.4873C31.5829 45.4078 44.3749 42.542 45.0454 35.298C45.0282 35.4312 44.74 37.4346 41.0987 39.0732Z" fill="url(#paint7_radial)"/>
<path d="M24.5293 15.579C24.5485 15.1512 24.3244 14.8639 20.7516 14.5322C19.2815 14.3975 18.7188 13.0527 18.5469 12.4863C18.0242 13.8307 17.8079 15.2419 17.9242 16.9488C18.0035 18.0668 18.7617 19.2668 19.1248 19.9732C19.1248 19.9732 19.2056 19.8693 19.2425 19.8312C19.9254 19.1273 22.7868 18.0546 23.0553 17.9024C23.3518 17.7151 24.4796 16.8995 24.5293 15.579Z" fill="url(#paint8_linear)"/>
<path d="M8.79954 7.63263C8.75027 7.54385 8.72071 7.81555 8.6813 7.73019C8.3857 7.05653 8.20933 5.96434 8.2517 5.1936C8.2517 5.1936 7.64474 5.46726 7.14271 6.61116C7.0496 6.81653 6.9895 6.93019 6.92988 7.04336C6.9023 7.07653 6.99245 6.66775 6.97915 6.69019C6.89195 6.83653 6.66582 7.04092 6.56778 7.29409C6.48649 7.50092 6.40274 7.61214 6.34066 7.86824C6.32145 7.93799 6.35987 7.55995 6.34312 7.6058C5.17404 9.83799 4.95086 13.2195 5.07403 13.0731C7.56099 10.4458 10.4101 9.82238 10.4101 9.82238C10.1071 9.60141 9.44788 8.96238 8.79905 7.63263H8.79954Z" fill="url(#paint9_linear)"/>
<path d="M18.235 35.127C14.8002 33.6748 10.8944 31.627 11.0422 26.9738C11.2432 20.8465 16.8142 22.0577 16.8142 22.0577C16.6038 22.1065 16.0417 22.5045 15.8427 22.927C15.6323 23.4552 15.248 24.6479 16.4117 25.8977C18.239 27.8582 12.6576 30.5494 21.2723 35.6328C21.4896 35.7499 19.2524 35.5631 18.2355 35.1274L18.235 35.127Z" fill="url(#paint10_linear)"/>
<path d="M17.0154 32.0732C19.4511 32.9127 22.2869 32.7654 23.9876 31.8361C25.1251 31.2093 26.5839 30.2054 27.4815 30.4532C26.7041 30.1488 26.1154 30.0068 25.4074 29.9722C25.2867 29.9722 25.1424 29.9698 25.0133 29.9566C24.7539 29.9557 24.4946 29.9697 24.2368 29.9985C23.7984 30.0385 23.3121 30.3122 22.8702 30.2683C22.8465 30.2683 23.2988 30.0844 23.2643 30.0922C23.0303 30.141 22.7756 30.1512 22.5071 30.1839C22.3361 30.2029 22.1893 30.2239 22.0199 30.2327C16.9454 30.6585 12.6593 27.5103 12.6593 27.5103C12.2942 28.7298 14.2934 31.1346 17.0203 32.0746L17.0154 32.0732Z" fill="url(#paint11_linear)"/>
<path d="M41.0898 39.1048C46.2213 34.116 48.8177 28.0521 47.72 21.2511C47.72 21.2511 48.1585 24.7389 46.4957 28.3062C47.2943 24.8238 47.3875 20.496 45.2641 16.0135C42.4328 10.0311 37.7746 6.8833 35.9961 5.57013C33.3018 3.58038 32.1854 1.55452 32.1642 1.13647C31.3592 2.76965 28.924 8.36574 31.9026 13.1853C34.693 17.7004 39.0886 19.0389 42.1662 23.1828C47.8358 30.8131 41.0898 39.1048 41.0898 39.1048Z" fill="url(#paint12_linear)"/>
<path d="M40.3545 26.1245C38.5612 22.4562 36.324 20.8562 34.2055 19.1221C34.4519 19.4635 34.5125 19.584 34.6489 19.805C36.5127 21.7718 39.2607 26.5689 37.2655 32.5909C33.5099 43.926 18.4896 38.5884 16.9131 37.0889C17.5501 43.6494 28.6385 46.7884 35.8609 42.5343C39.9697 38.683 43.2937 32.1362 40.3545 26.1245Z" fill="url(#paint13_linear)"/>
<defs>
<radialGradient id="paint0_radial" cx="0" cy="0" r="1" gradientUnits="userSpaceOnUse" gradientTransform="translate(47.1322 14.8628) rotate(2.23824) scale(16.8949 46.0369)">
<stop offset="0.1" stop-color="#FFEA00"/>
<stop offset="0.17" stop-color="#FFDE00"/>
<stop offset="0.28" stop-color="#FFBF00"/>
<stop offset="0.43" stop-color="#FF8E00"/>
<stop offset="0.77" stop-color="#FF272D"/>
<stop offset="0.87" stop-color="#E0255A"/>
<stop offset="0.95" stop-color="#CC2477"/>
<stop offset="1" stop-color="#C42482"/>
</radialGradient>
<radialGradient id="paint1_radial" cx="0" cy="0" r="1" gradientUnits="userSpaceOnUse" gradientTransform="translate(31.8022 7.48159) scale(47.9465 47.7241)">
<stop stop-color="#00CCDA"/>
<stop offset="0.22" stop-color="#0083FF"/>
<stop offset="0.26" stop-color="#007AF9"/>
<stop offset="0.33" stop-color="#0060E8"/>
<stop offset="0.33" stop-color="#005FE7"/>
<stop offset="0.44" stop-color="#2639AD"/>
<stop offset="0.52" stop-color="#401E84"/>
<stop offset="0.57" stop-color="#4A1475"/>
</radialGradient>
<linearGradient id="paint2_linear" x1="42.1737" y1="30.6154" x2="31.8639" y2="0.366986" gradientUnits="userSpaceOnUse">
<stop stop-color="#000F43" stop-opacity="0.4"/>
<stop offset="0.48" stop-color="#001962" stop-opacity="0.17"/>
<stop offset="1" stop-color="#002079" stop-opacity="0.01"/>
</linearGradient>
<radialGradient id="paint3_radial" cx="0" cy="0" r="1" gradientUnits="userSpaceOnUse" gradientTransform="translate(48.5536 31.8928) rotate(5.56254) scale(16.1173 14.7623)">
<stop stop-color="#FFEA00"/>
<stop offset="0.5" stop-color="#FF272D"/>
<stop offset="1" stop-color="#C42482"/>
</radialGradient>
<radialGradient id="paint4_radial" cx="0" cy="0" r="1" gradientUnits="userSpaceOnUse" gradientTransform="translate(48.612 16.5219) rotate(5.56254) scale(26.9143 48.906)">
<stop stop-color="#FFE900"/>
<stop offset="0.16" stop-color="#FFAF0E"/>
<stop offset="0.32" stop-color="#FF7A1B"/>
<stop offset="0.47" stop-color="#FF4E26"/>
<stop offset="0.62" stop-color="#FF2C2E"/>
<stop offset="0.76" stop-color="#FF1434"/>
<stop offset="0.89" stop-color="#FF0538"/>
<stop offset="1" stop-color="#FF0039"/>
</radialGradient>
<radialGradient id="paint5_radial" cx="0" cy="0" r="1" gradientUnits="userSpaceOnUse" gradientTransform="translate(49.9619 41.4816) rotate(5.56254) scale(24.6968 13.361)">
<stop stop-color="#FF272D"/>
<stop offset="0.5" stop-color="#C42482"/>
<stop offset="0.99" stop-color="#620700"/>
</radialGradient>
<radialGradient id="paint6_radial" cx="0" cy="0" r="1" gradientUnits="userSpaceOnUse" gradientTransform="translate(36.2347 19.2214) scale(38.5351 39.7666)">
<stop offset="0.16" stop-color="#FFEA00"/>
<stop offset="0.23" stop-color="#FFDE00"/>
<stop offset="0.37" stop-color="#FFBF00"/>
<stop offset="0.54" stop-color="#FF8E00"/>
<stop offset="0.76" stop-color="#FF272D"/>
<stop offset="0.8" stop-color="#F92433"/>
<stop offset="0.84" stop-color="#E91C45"/>
<stop offset="0.89" stop-color="#CF0E62"/>
<stop offset="0.94" stop-color="#B5007F"/>
</radialGradient>
<radialGradient id="paint7_radial" cx="0" cy="0" r="1" gradientUnits="userSpaceOnUse" gradientTransform="translate(34.0251 1.52634) scale(43.9184 109.673)">
<stop offset="0.28" stop-color="#FFEA00"/>
<stop offset="0.4" stop-color="#FFDD00"/>
<stop offset="0.63" stop-color="#FFBA00"/>
<stop offset="0.86" stop-color="#FF9100"/>
<stop offset="0.93" stop-color="#FF6711"/>
<stop offset="0.99" stop-color="#FF4A1D"/>
</radialGradient>
<linearGradient id="paint8_linear" x1="9.68129" y1="28.972" x2="28.6683" y2="26.7139" gradientUnits="userSpaceOnUse">
<stop stop-color="#C42482" stop-opacity="0.5"/>
<stop offset="0.47" stop-color="#FF272D" stop-opacity="0.5"/>
<stop offset="0.49" stop-color="#FF2C2C" stop-opacity="0.51"/>
<stop offset="0.68" stop-color="#FF7A1A" stop-opacity="0.72"/>
<stop offset="0.83" stop-color="#FFB20D" stop-opacity="0.87"/>
<stop offset="0.94" stop-color="#FFD605" stop-opacity="0.96"/>
<stop offset="1" stop-color="#FFE302"/>
</linearGradient>
<linearGradient id="paint9_linear" x1="10.4142" y1="11.4913" x2="6.77083" y2="5.48207" gradientUnits="userSpaceOnUse">
<stop stop-color="#891551" stop-opacity="0.6"/>
<stop offset="1" stop-color="#C42482" stop-opacity="0.01"/>
</linearGradient>
<linearGradient id="paint10_linear" x1="9.76385" y1="25.4191" x2="15.0266" y2="29.489" gradientUnits="userSpaceOnUse">
<stop offset="0.01" stop-color="#891551" stop-opacity="0.5"/>
<stop offset="0.48" stop-color="#FF272D" stop-opacity="0.5"/>
<stop offset="1" stop-color="#FF272D" stop-opacity="0.01"/>
</linearGradient>
<linearGradient id="paint11_linear" x1="24.8819" y1="32.6066" x2="24.926" y2="28.9916" gradientUnits="userSpaceOnUse">
<stop stop-color="#C42482"/>
<stop offset="0.08" stop-color="#C42482" stop-opacity="0.81"/>
<stop offset="0.21" stop-color="#C42482" stop-opacity="0.57"/>
<stop offset="0.33" stop-color="#C42482" stop-opacity="0.36"/>
<stop offset="0.45" stop-color="#C42482" stop-opacity="0.2"/>
<stop offset="0.56" stop-color="#C42482" stop-opacity="0.09"/>
<stop offset="0.67" stop-color="#C42482" stop-opacity="0.02"/>
<stop offset="0.77" stop-color="#C42482" stop-opacity="0.01"/>
</linearGradient>
<linearGradient id="paint12_linear" x1="23.8845" y1="18.0915" x2="49.0592" y2="29.9415" gradientUnits="userSpaceOnUse">
<stop stop-color="#FFF14F"/>
<stop offset="0.27" stop-color="#FFEE4C"/>
<stop offset="0.45" stop-color="#FFE643"/>
<stop offset="0.61" stop-color="#FFD834"/>
<stop offset="0.76" stop-color="#FFC41E"/>
<stop offset="0.89" stop-color="#FFAB02"/>
<stop offset="0.9" stop-color="#FFA900"/>
<stop offset="0.95" stop-color="#FFA000"/>
<stop offset="1" stop-color="#FF9100"/>
</linearGradient>
<linearGradient id="paint13_linear" x1="25.3602" y1="17.2553" x2="17.823" y2="36.0566" gradientUnits="userSpaceOnUse">
<stop stop-color="#FF8E00"/>
<stop offset="0.04" stop-color="#FF8E00" stop-opacity="0.86"/>
<stop offset="0.08" stop-color="#FF8E00" stop-opacity="0.73"/>
<stop offset="0.13" stop-color="#FF8E00" stop-opacity="0.63"/>
<stop offset="0.18" stop-color="#FF8E00" stop-opacity="0.56"/>
<stop offset="0.23" stop-color="#FF8E00" stop-opacity="0.51"/>
<stop offset="0.28" stop-color="#FF8E00" stop-opacity="0.5"/>
<stop offset="0.39" stop-color="#FF8E00" stop-opacity="0.48"/>
<stop offset="0.52" stop-color="#FF8E00" stop-opacity="0.42"/>
<stop offset="0.68" stop-color="#FF8E00" stop-opacity="0.31"/>
<stop offset="0.84" stop-color="#FF8E00" stop-opacity="0.17"/>
<stop offset="1" stop-color="#FF8E00" stop-opacity="0.01"/>
</linearGradient>
</defs>
</svg>
