<svg width="25" height="24" viewBox="0 0 25 24" fill="none" xmlns="http://www.w3.org/2000/svg">
<path fill-rule="evenodd" clip-rule="evenodd" d="M15.721 11.8638L23.4464 19.5891C24.4322 20.575 24.4322 22.1881 23.4464 23.1739C22.4606 24.1597 20.8474 24.1597 19.8616 23.1739L12.1362 15.4485L4.3241 23.2606C3.3383 24.2465 1.72516 24.2465 0.739354 23.2606C-0.246451 22.2748 -0.246451 20.6617 0.739354 19.6759L8.55149 11.8638L1.01182 4.3241C0.0260181 3.3383 0.0260181 1.72516 1.01182 0.739354C1.99763 -0.246451 3.61076 -0.246451 4.59657 0.739354L12.1362 8.27902L19.5891 0.82611C20.575 -0.159696 22.1881 -0.159696 23.1739 0.82611C24.1597 1.81192 24.1597 3.42505 23.1739 4.41086L15.721 11.8638Z" fill="#0033A0"/>
</svg>
