<svg width="35" height="34" viewBox="0 0 35 34" fill="none" xmlns="http://www.w3.org/2000/svg">
<path d="M27.9524 4.29574C35.5699 10.0809 36.4242 19.2526 30.4441 27.5776C24.5352 35.9026 14.8532 35.4793 6.9509 30.0469C-1.80566 24.05 -0.951362 14.6667 4.45919 6.76503C10.2257 -1.56 19.6942 -1.9833 27.9524 4.29574Z" fill="#E3E829"/>
<path d="M17.2951 11.8406C17.5789 11.8406 17.9337 11.9825 18.1465 12.1954L25.4543 19.5032C25.951 19.9998 25.951 20.7093 25.4543 21.206C24.9577 21.7026 24.2482 21.7026 23.7515 21.206L17.2951 14.7496L10.8387 21.206C10.3421 21.7026 9.63256 21.7026 9.13591 21.206C8.63927 20.7093 8.63927 19.9998 9.13591 19.5032L16.4437 12.1954C16.6566 11.9116 16.9404 11.8406 17.2951 11.8406Z" fill="#1F3696"/>
</svg>
