<svg width="35" height="34" viewBox="0 0 35 34" fill="none" xmlns="http://www.w3.org/2000/svg">
<path d="M27.9524 4.29574C35.5699 10.0809 36.4242 19.2526 30.4441 27.5776C24.5352 35.9026 14.8532 35.4793 6.9509 30.0469C-1.80566 24.05 -0.951362 14.6667 4.45919 6.76503C10.2257 -1.56 19.6942 -1.9833 27.9524 4.29574Z" fill="#E3E829"/>
<path d="M17.2951 21.5786C17.5789 21.5786 17.9337 21.4367 18.1465 21.2239L25.4543 13.9161C25.951 13.4194 25.951 12.7099 25.4543 12.2133C24.9577 11.7166 24.2482 11.7166 23.7515 12.2133L17.2951 18.6697L10.8387 12.2133C10.3421 11.7166 9.63256 11.7166 9.13591 12.2133C8.63927 12.7099 8.63927 13.4194 9.13591 13.9161L16.4437 21.2239C16.6566 21.5077 16.9404 21.5786 17.2951 21.5786Z" fill="#1F3696"/>
</svg>
