<svg width="26" height="24" viewBox="0 0 26 24" fill="none" xmlns="http://www.w3.org/2000/svg">
<path d="M24.5981 2.20006C24.2981 2.00006 23.7981 2.00006 23.4981 2.20006C22.7981 2.70006 21.9981 3.10006 21.1981 3.40006C19.1981 1.60006 16.0981 1.50006 13.9981 3.30006C12.6981 4.40006 11.9981 5.90006 11.9981 7.50006C9.09814 7.30006 6.49814 5.80006 4.79814 3.40006C4.59814 3.10006 4.29814 3.00006 3.89814 3.00006C3.49814 3.00006 3.19814 3.30006 3.09814 3.60006C2.99814 3.70006 1.99814 6.10006 2.09814 9.00006C2.19814 11.5001 3.19814 14.7001 6.89814 17.0001C5.39814 17.7001 3.69814 18.0001 1.99814 18.0001C1.59814 18.0001 1.09814 18.3001 0.99814 18.7001C0.89814 19.1001 1.09814 19.6001 1.49814 19.8001C3.99814 21.2001 6.69814 21.9001 9.19814 21.9001C11.6981 21.9001 14.0981 21.3001 16.2981 20.0001C20.5981 17.6001 22.9981 13.0001 22.9981 7.50006C22.9981 7.30006 22.9981 7.20006 22.9981 7.00006C23.9981 5.90006 24.6981 4.60006 24.9981 3.20006C25.0981 2.80006 24.8981 2.40006 24.5981 2.20006ZM21.1981 6.00006C20.9981 6.20006 20.8981 6.60006 20.8981 6.90006C20.9981 7.10006 20.9981 7.30006 20.9981 7.50006C20.9981 12.3001 18.8981 16.2001 15.2981 18.3001C12.4981 19.9001 9.19814 20.3001 5.89814 19.5001C7.19814 19.1001 8.39814 18.6001 9.49814 17.8001C9.89814 17.6001 9.99814 17.3001 9.99814 16.9001C9.99814 16.5001 9.69814 16.2001 9.39814 16.1001C3.59814 13.5001 3.79814 8.60006 4.39814 6.10006C6.59814 8.30006 9.69814 9.60006 12.9981 9.50006C13.4981 9.50006 13.9981 9.00006 13.9981 8.50006V7.50006C13.9981 6.50006 14.3981 5.50006 15.1981 4.80006C16.5981 3.50006 18.8981 3.70006 20.0981 5.10006C20.3981 5.40006 20.7981 5.50006 21.0981 5.40006C21.2981 5.30006 21.5981 5.30006 21.7981 5.20006C21.5981 5.50006 21.3981 5.70006 21.1981 6.00006Z" fill="#464454"/>
</svg>
