<svg width="10" height="10" viewBox="0 0 10 10" fill="none" xmlns="http://www.w3.org/2000/svg">
<path d="M5.93203 4.99992L9.46537 1.46659C9.73203 1.19992 9.73203 0.799919 9.46537 0.533252C9.1987 0.266585 8.7987 0.266585 8.53203 0.533252L4.9987 4.06659L1.46536 0.533252C1.1987 0.266585 0.798698 0.266585 0.532031 0.533252C0.265365 0.799919 0.265365 1.19992 0.532031 1.46659L4.06537 4.99992L0.532031 8.53325C0.265365 8.79992 0.265365 9.19992 0.532031 9.46659C0.665365 9.59992 0.798698 9.66659 0.998698 9.66659C1.1987 9.66659 1.33203 9.59992 1.46536 9.46659L4.9987 5.93325L8.53203 9.46659C8.66537 9.59992 8.86537 9.66659 8.9987 9.66659C9.13203 9.66659 9.33203 9.59992 9.46537 9.46659C9.73203 9.19992 9.73203 8.79992 9.46537 8.53325L5.93203 4.99992Z" fill="#626277"/>
</svg>
