<svg width="16" height="16" viewBox="0 0 16 16" fill="none" xmlns="http://www.w3.org/2000/svg">
<path d="M11.3333 0.666626H4.66663C2.46663 0.666626 0.666626 2.46663 0.666626 4.66663V11.3333C0.666626 13.5333 2.46663 15.3333 4.66663 15.3333H11.3333C13.5333 15.3333 15.3333 13.5333 15.3333 11.3333V4.66663C15.3333 2.46663 13.5333 0.666626 11.3333 0.666626ZM14 11.3333C14 12.8 12.8 14 11.3333 14H4.66663C3.19996 14 1.99996 12.8 1.99996 11.3333V4.66663C1.99996 3.19996 3.19996 1.99996 4.66663 1.99996H11.3333C12.8 1.99996 14 3.19996 14 4.66663V11.3333Z" fill="#626277"/>
<path d="M8.53335 4.6667C8.20001 4.60003 7.86668 4.60003 7.53335 4.6667C5.73335 4.93337 4.46668 6.6667 4.73335 8.4667C4.86668 9.33336 5.33335 10.1334 6.06668 10.6667C6.66668 11.0667 7.33335 11.3334 8.06668 11.3334C8.20001 11.3334 8.40001 11.3334 8.53335 11.2667C9.40001 11.1334 10.2 10.6667 10.7333 9.93336C11.2667 9.20003 11.4667 8.33336 11.3333 7.4667C11.1333 6.00003 10 4.8667 8.53335 4.6667ZM9.66668 9.13336C9.33335 9.53336 8.86668 9.8667 8.33335 9.93336C7.26668 10.0667 6.20001 9.33336 6.06668 8.2667C5.86668 7.20003 6.66668 6.13337 7.73335 6.00003C7.80001 6.00003 7.93335 6.00003 8.00001 6.00003C8.06668 6.00003 8.20001 6.00003 8.26668 6.00003C9.13335 6.13337 9.80001 6.80003 9.93335 7.6667C10.0667 8.20003 9.93335 8.73336 9.66668 9.13336Z" fill="#626277"/>
<path d="M11.2 3.86663C11.0667 3.99996 11 4.13329 11 4.33329C11 4.39996 11 4.53329 11.0667 4.59996C11.0667 4.66663 11.1333 4.73329 11.2 4.79996C11.3333 4.93329 11.5333 4.99996 11.6667 4.99996C11.8 4.99996 12 4.93329 12.1333 4.79996C12.2 4.73329 12.2667 4.66663 12.2667 4.59996C12.2667 4.53329 12.3333 4.46663 12.3333 4.33329C12.3333 4.13329 12.2667 3.99996 12.1333 3.86663C11.8667 3.59996 11.4667 3.59996 11.2 3.86663Z" fill="#626277"/>
</svg>
