<svg width="24" height="24" viewBox="0 0 24 24" fill="none" xmlns="http://www.w3.org/2000/svg">
<path d="M9.96878 5C9.96878 4.447 10.4168 4 10.9688 4H21.0008C21.5528 4 22.0008 4.447 22.0008 5C22.0008 5.553 21.5528 6 21.0008 6H10.9688C10.4168 6 9.96878 5.553 9.96878 5ZM6.29278 16.424L6.00078 16.692V12.275V7.308L6.29278 7.576C6.48578 7.753 6.72778 7.84 6.96978 7.84C7.24078 7.84 7.50978 7.732 7.70678 7.517C8.08078 7.11 8.05378 6.477 7.64678 6.104L5.74178 4.354C5.55578 4.141 5.28978 4 4.98578 4C4.68078 4 4.41678 4.14 4.22978 4.352L2.32378 6.104C1.91678 6.478 1.89078 7.11 2.26378 7.517C2.63778 7.923 3.26878 7.951 3.67678 7.577L3.96878 7.309V12.726V16.693L3.67678 16.425C3.48478 16.247 3.24278 16.16 3.00078 16.16C2.72978 16.16 2.46078 16.268 2.26378 16.483C1.88978 16.89 1.91678 17.523 2.32378 17.896L4.22878 19.646C4.41578 19.859 4.68078 20 4.98578 20C5.28978 20 5.55478 19.86 5.74078 19.648L7.64678 17.897C8.05378 17.523 8.07978 16.891 7.70678 16.484C7.33278 16.077 6.70078 16.05 6.29278 16.424ZM21.0008 13.333H10.9688C10.4168 13.333 9.96878 13.78 9.96878 14.333C9.96878 14.886 10.4168 15.333 10.9688 15.333H21.0008C21.5528 15.333 22.0008 14.886 22.0008 14.333C22.0008 13.78 21.5528 13.333 21.0008 13.333ZM21.0008 18H10.9688C10.4168 18 9.96878 18.447 9.96878 19C9.96878 19.553 10.4168 20 10.9688 20H21.0008C21.5528 20 22.0008 19.553 22.0008 19C22.0008 18.447 21.5528 18 21.0008 18ZM21.0008 8.667H10.9688C10.4168 8.667 9.96878 9.114 9.96878 9.667C9.96878 10.22 10.4168 10.667 10.9688 10.667H21.0008C21.5528 10.667 22.0008 10.22 22.0008 9.667C22.0008 9.114 21.5528 8.667 21.0008 8.667Z" fill="#626277"/>
</svg>
