<svg width="16" height="16" viewBox="0 0 16 16" fill="none" xmlns="http://www.w3.org/2000/svg">
<path d="M10.6667 4.66663C8.06667 4.66663 6 6.73329 6 9.33329V14C6 14.4 6.26667 14.6666 6.66667 14.6666H9.33333C9.73333 14.6666 10 14.4 10 14V9.33329C10 8.93329 10.2667 8.66663 10.6667 8.66663C11.0667 8.66663 11.3333 8.93329 11.3333 9.33329V14C11.3333 14.4 11.6 14.6666 12 14.6666H14.6667C15.0667 14.6666 15.3333 14.4 15.3333 14V9.33329C15.3333 6.73329 13.2667 4.66663 10.6667 4.66663ZM14 13.3333H12.6667V9.33329C12.6667 8.19996 11.8 7.33329 10.6667 7.33329C9.53333 7.33329 8.66667 8.19996 8.66667 9.33329V13.3333H7.33333V9.33329C7.33333 7.46663 8.8 5.99996 10.6667 5.99996C12.5333 5.99996 14 7.46663 14 9.33329V13.3333Z" fill="#626277"/>
<path d="M3.99996 5.33337H1.33329C0.933293 5.33337 0.666626 5.60004 0.666626 6.00004V14C0.666626 14.4 0.933293 14.6667 1.33329 14.6667H3.99996C4.39996 14.6667 4.66663 14.4 4.66663 14V6.00004C4.66663 5.60004 4.39996 5.33337 3.99996 5.33337ZM3.33329 13.3334H1.99996V6.66671H3.33329V13.3334Z" fill="#626277"/>
<path d="M2.66663 0.666626C1.53329 0.666626 0.666626 1.53329 0.666626 2.66663C0.666626 3.79996 1.53329 4.66663 2.66663 4.66663C3.79996 4.66663 4.66663 3.79996 4.66663 2.66663C4.66663 1.53329 3.79996 0.666626 2.66663 0.666626ZM2.66663 3.33329C2.26663 3.33329 1.99996 3.06663 1.99996 2.66663C1.99996 2.26663 2.26663 1.99996 2.66663 1.99996C3.06663 1.99996 3.33329 2.26663 3.33329 2.66663C3.33329 3.06663 3.06663 3.33329 2.66663 3.33329Z" fill="#626277"/>
</svg>
