<svg width="184" height="18" viewBox="0 0 184 18" fill="none" xmlns="http://www.w3.org/2000/svg">
<path fill-rule="evenodd" clip-rule="evenodd" d="M68.3103 6.65503L69.2857 6.55749C69.3425 6.89887 69.4563 7.13457 69.6433 7.28088C69.8302 7.45156 70.0578 7.51658 70.3748 7.51658C70.6999 7.52471 70.9437 7.45156 71.1144 7.32151C71.277 7.18334 71.3501 7.02891 71.3501 6.83384C71.3501 6.72818 71.3176 6.62252 71.2607 6.54124C71.1876 6.45183 71.0738 6.38681 70.895 6.32179C70.7812 6.27302 70.4967 6.21612 70.0903 6.09421C69.5457 5.95603 69.1719 5.79347 68.9443 5.59028C68.6354 5.33019 68.481 4.98882 68.481 4.59868C68.481 4.33859 68.5623 4.10288 68.7086 3.8753C68.8386 3.64772 69.0581 3.48516 69.3344 3.37137C69.6026 3.25758 69.9277 3.20068 70.3179 3.20068C70.9519 3.20068 71.4233 3.33886 71.7403 3.62333C72.0491 3.89968 72.2198 4.27356 72.2361 4.7206L71.2282 4.76936C71.1794 4.50927 71.09 4.32233 70.9519 4.20854C70.7974 4.10288 70.5861 4.03785 70.3098 4.03785C70.0253 4.03785 69.7896 4.10288 69.6189 4.20854C69.5132 4.29795 69.4645 4.39548 69.4645 4.53365C69.4645 4.64744 69.5051 4.74498 69.6026 4.84251C69.7246 4.94818 70.0415 5.06197 70.5373 5.16763C71.0331 5.28955 71.3908 5.40334 71.6265 5.53338C71.8459 5.67156 72.041 5.83411 72.1792 6.04544C72.3092 6.25676 72.3661 6.52498 72.3661 6.8501C72.3661 7.13457 72.2848 7.40279 72.1304 7.65476C71.9597 7.89859 71.7484 8.08553 71.4477 8.21558C71.1551 8.32124 70.7974 8.38627 70.3748 8.38627C69.7164 8.37814 69.245 8.23184 68.9036 7.94736C68.5623 7.64663 68.3672 7.21585 68.3103 6.65503Z" fill="#626277"/>
<path fill-rule="evenodd" clip-rule="evenodd" d="M73.1492 3.28259H74.1408L74.1327 6.01356C74.1327 6.44433 74.149 6.72068 74.1815 6.85073C74.2302 7.06205 74.3197 7.22461 74.4741 7.34653C74.6448 7.47657 74.8642 7.53347 75.1406 7.53347C75.4332 7.53347 75.6526 7.4847 75.7989 7.36278C75.9452 7.24087 76.0265 7.11082 76.0753 6.93201C76.0915 6.76132 76.0997 6.46872 76.0997 6.07858L76.1078 3.29072H77.1238L77.1156 5.93228C77.1156 6.54187 77.0913 6.96452 77.0425 7.21648C76.9856 7.46032 76.8799 7.67164 76.7255 7.85046C76.5873 8.02114 76.376 8.15932 76.1403 8.24872C75.8883 8.35439 75.5795 8.39502 75.1812 8.39502C74.7017 8.39502 74.344 8.34626 74.0921 8.22434C73.8564 8.11055 73.6532 7.9805 73.5069 7.79356C73.3687 7.62288 73.2712 7.42781 73.2224 7.24899C73.1655 6.94826 73.1411 6.52561 73.1411 5.96479L73.1492 3.28259Z" fill="#626277"/>
<path fill-rule="evenodd" clip-rule="evenodd" d="M78.0756 8.31482L78.0918 3.29993H79.7093C80.327 3.29993 80.7415 3.32431 80.9203 3.37308C81.2129 3.45436 81.4567 3.61691 81.6437 3.86888C81.8306 4.12897 81.9282 4.44596 81.9282 4.85235C81.9282 5.16121 81.8794 5.41317 81.7575 5.61637C81.6518 5.8277 81.4974 5.99025 81.3348 6.11217C81.156 6.24222 80.9853 6.31537 80.8065 6.34788C80.5627 6.40477 80.2132 6.42916 79.7499 6.42103H79.0834V8.31482H78.0756ZM79.0915 4.14523V5.5676H79.6442C80.0588 5.5676 80.3188 5.55135 80.4408 5.50258C80.5789 5.43756 80.6765 5.36441 80.7659 5.25062C80.839 5.13683 80.8878 5.01491 80.8878 4.86048C80.8878 4.68166 80.8309 4.52724 80.7415 4.40532C80.6115 4.29153 80.4895 4.21838 80.327 4.18586C80.1969 4.16148 79.9531 4.14523 79.5873 4.14523H79.0915Z" fill="#626277"/>
<path fill-rule="evenodd" clip-rule="evenodd" d="M82.6443 8.32959L82.6605 3.3147L86.3668 3.32283L86.3587 4.16812L83.6521 4.16V5.26539L86.1799 5.27351V6.12694L83.6521 6.11881L83.644 7.4843L86.4481 7.49242V8.33772L82.6443 8.32959Z" fill="#626277"/>
<path fill-rule="evenodd" clip-rule="evenodd" d="M87.2114 8.33961L87.2277 3.32471L89.3491 3.33284C89.8855 3.33284 90.2756 3.37347 90.5195 3.47101C90.7633 3.55229 90.9502 3.71484 91.0884 3.95055C91.2428 4.18626 91.316 4.43823 91.316 4.74709C91.316 5.12097 91.2022 5.43795 90.9827 5.67366C90.7552 5.9175 90.4219 6.08006 89.9912 6.13695C90.1944 6.27513 90.3894 6.40517 90.5195 6.56773C90.682 6.71403 90.8608 6.98225 91.0965 7.37239L91.7143 8.35586H90.4951L89.7798 7.2586C89.5116 6.86846 89.3328 6.6165 89.2353 6.52709C89.1459 6.42955 89.0402 6.34828 88.9427 6.30764C88.8289 6.27513 88.6582 6.25074 88.4387 6.24261H88.2274L88.2193 8.34773L87.2114 8.33961ZM88.2274 5.45421H88.9752C89.4628 5.45421 89.7717 5.43795 89.8774 5.38919C89.9993 5.35668 90.0968 5.28352 90.17 5.18599C90.2269 5.08033 90.2756 4.95841 90.2756 4.80398C90.2756 4.62517 90.2269 4.49512 90.1456 4.39759C90.0318 4.30005 89.9261 4.2269 89.7636 4.19236C89.6823 4.17813 89.4303 4.17813 89.0158 4.17813L88.2274 4.17001V5.45421Z" fill="#626277"/>
<path fill-rule="evenodd" clip-rule="evenodd" d="M92.1408 3.34143L92.1245 8.35836H93.1324L93.1486 3.34143H92.1408Z" fill="#626277"/>
<path fill-rule="evenodd" clip-rule="evenodd" d="M94.0071 8.36243L94.0233 3.34753H94.9906L97.0469 6.71247L97.055 3.35566H98.006L97.9979 8.37056H96.9656L94.9337 5.06251L94.9255 8.36243H94.0071Z" fill="#626277"/>
<path fill-rule="evenodd" clip-rule="evenodd" d="M100.086 8.3813L100.102 4.2117L98.6066 4.20357V3.35828L102.605 3.3664L102.597 4.2117H101.11L101.102 8.3813H100.086Z" fill="#626277"/>
<path fill-rule="evenodd" clip-rule="evenodd" d="M103.129 8.39026L103.145 3.37537L106.843 3.38349L106.835 4.22879L104.153 4.22067L104.145 5.32606L106.665 5.33418V6.18761L104.145 6.17948L104.137 7.54496L106.925 7.55309V8.39839L103.129 8.39026Z" fill="#626277"/>
<path fill-rule="evenodd" clip-rule="evenodd" d="M107.684 8.40308L107.7 3.38818H108.692L110.748 6.75312L110.756 3.39631H111.691L111.675 8.41121H110.675L108.635 5.10316L108.627 8.40308H107.684Z" fill="#626277"/>
<path fill-rule="evenodd" clip-rule="evenodd" d="M112.66 3.40454L114.497 3.41267C114.911 3.41267 115.236 3.42892 115.448 3.50208C115.748 3.59148 116 3.73778 116.203 3.95724C116.415 4.18482 116.561 4.46116 116.683 4.77815C116.789 5.10327 116.837 5.4934 116.837 5.96482C116.837 6.37934 116.789 6.73697 116.683 7.02957C116.553 7.39533 116.366 7.69606 116.138 7.92364C115.976 8.09432 115.74 8.21624 115.431 8.3219C115.212 8.3788 114.911 8.42757 114.553 8.41944H112.643L112.66 3.40454ZM113.668 4.24984L113.659 7.57414H114.407C114.684 7.57414 114.887 7.54976 115.025 7.52537C115.196 7.4766 115.309 7.41971 115.423 7.31405C115.545 7.22464 115.618 7.05395 115.683 6.8345C115.765 6.59879 115.797 6.30619 115.797 5.91605C115.797 5.53404 115.773 5.22518 115.691 5.02199C115.626 4.81879 115.537 4.65623 115.407 4.52619C115.285 4.42052 115.131 4.33112 114.952 4.29861C114.805 4.2661 114.529 4.24984 114.115 4.24984H113.668Z" fill="#626277"/>
<path fill-rule="evenodd" clip-rule="evenodd" d="M117.589 8.43299L117.605 3.41809L121.312 3.43435V4.27152L118.613 4.26339L118.605 5.36878L121.117 5.37691V6.23033L118.605 6.22221L118.597 7.58769L121.409 7.59582V8.44112L117.589 8.43299Z" fill="#626277"/>
<path fill-rule="evenodd" clip-rule="evenodd" d="M122.153 8.44581L122.169 3.43091L123.161 3.43904L125.209 6.79585L125.225 3.43904L126.16 3.44716L126.144 8.45393H125.136L123.104 5.14589L123.088 8.44581H122.153Z" fill="#626277"/>
<path fill-rule="evenodd" clip-rule="evenodd" d="M130.329 6.62599L131.304 6.92672C131.158 7.47941 130.898 7.89393 130.557 8.15403C130.191 8.41412 129.76 8.55229 129.216 8.55229C128.549 8.55229 128.005 8.32471 127.582 7.86142C127.143 7.41439 126.932 6.78854 126.932 6.00827C126.932 5.16297 127.151 4.52087 127.59 4.05758C128.029 3.60242 128.582 3.36671 129.297 3.37484C129.906 3.37484 130.402 3.56178 130.784 3.9194C131.012 4.13886 131.183 4.43959 131.296 4.83785L130.297 5.07356C130.24 4.8216 130.118 4.61027 129.923 4.46397C129.736 4.30954 129.508 4.23639 129.24 4.23639C128.866 4.23639 128.557 4.35831 128.346 4.63466C128.094 4.88662 127.98 5.32553 127.98 5.91886C127.972 6.55284 128.086 7.008 128.313 7.29247C128.541 7.54444 128.834 7.69074 129.216 7.69074C129.459 7.69074 129.695 7.60946 129.898 7.43065C130.093 7.25996 130.232 6.98361 130.329 6.62599Z" fill="#626277"/>
<path fill-rule="evenodd" clip-rule="evenodd" d="M132.021 8.47486H133.045L133.053 3.46809L132.035 3.45996L132.021 8.47486Z" fill="#626277"/>
<path fill-rule="evenodd" clip-rule="evenodd" d="M138.422 8.49532L137.324 8.48719L136.91 7.34116H134.886L134.463 8.47906H133.39L135.349 3.47229H136.414L138.422 8.49532ZM136.585 6.49586L135.878 4.63458L135.195 6.49586H136.585Z" fill="#626277"/>
<path fill-rule="evenodd" clip-rule="evenodd" d="M140.433 8.49939L140.449 3.4845L143.888 3.50075L143.879 4.33792L141.449 4.3298V5.50834L143.554 5.51646L143.546 6.36176H141.441L141.433 8.49939H140.433Z" fill="#626277"/>
<path fill-rule="evenodd" clip-rule="evenodd" d="M144.562 8.51319H145.586L145.603 3.50642L144.579 3.49829L144.562 8.51319Z" fill="#626277"/>
<path fill-rule="evenodd" clip-rule="evenodd" d="M146.443 8.51819L146.459 3.5033L147.443 3.51142L149.507 6.86823L149.515 3.51142L150.45 3.51955L150.434 8.52632H149.41L147.394 5.21828L147.386 8.51819H146.443Z" fill="#626277"/>
<path fill-rule="evenodd" clip-rule="evenodd" d="M155.91 8.54585L154.829 8.53772L154.398 7.39169H152.382L151.968 8.5296H150.903L152.837 3.52283H153.927L155.91 8.54585ZM154.081 6.5464L153.366 4.67699L152.691 6.5464H154.081Z" fill="#626277"/>
<path fill-rule="evenodd" clip-rule="evenodd" d="M156.348 8.54688L156.364 3.53198L157.348 3.54011L159.412 6.89692L159.42 3.54011L160.347 3.54824L160.339 8.55501H159.314L157.291 5.24696L157.282 8.54688H156.348Z" fill="#626277"/>
<path fill-rule="evenodd" clip-rule="evenodd" d="M164.517 6.7262L165.5 7.02694C165.346 7.57963 165.085 7.99415 164.744 8.25424C164.403 8.51434 163.956 8.65251 163.395 8.65251C162.737 8.65251 162.192 8.42493 161.769 7.96164C161.33 7.51461 161.127 6.88876 161.127 6.10849C161.127 5.26319 161.355 4.62109 161.777 4.1578C162.208 3.70264 162.777 3.46693 163.492 3.47506C164.094 3.47506 164.598 3.662 164.972 4.01962C165.224 4.23908 165.378 4.53981 165.5 4.93807L164.492 5.17378C164.443 4.92182 164.313 4.71049 164.126 4.56419C163.931 4.40976 163.704 4.33661 163.436 4.33661C163.062 4.33661 162.753 4.46666 162.525 4.73488C162.281 4.98684 162.168 5.43387 162.168 6.01908C162.168 6.65305 162.273 7.10821 162.509 7.39269C162.737 7.64465 163.037 7.79096 163.403 7.79096C163.663 7.79096 163.899 7.70968 164.094 7.53086C164.289 7.36018 164.435 7.09196 164.517 6.7262Z" fill="#626277"/>
<path fill-rule="evenodd" clip-rule="evenodd" d="M166.215 8.57532H167.223L167.239 3.56855L166.231 3.56042L166.215 8.57532Z" fill="#626277"/>
<path fill-rule="evenodd" clip-rule="evenodd" d="M168.088 8.58167L168.105 3.56677L171.811 3.58303V4.4202L169.104 4.41207V5.51746L171.632 5.52559L171.624 6.37902L169.096 6.37089V7.73637L171.908 7.7445V8.5898L168.088 8.58167Z" fill="#626277"/>
<path fill-rule="evenodd" clip-rule="evenodd" d="M172.652 8.59961L172.66 3.58472L174.798 3.59284C175.334 3.59284 175.716 3.62536 175.968 3.72289C176.204 3.80417 176.407 3.96673 176.545 4.20244C176.692 4.43814 176.765 4.69011 176.765 4.99897C176.765 5.37285 176.643 5.68984 176.432 5.92554C176.196 6.16938 175.879 6.33194 175.44 6.38883C175.651 6.52701 175.838 6.65705 175.977 6.81961C176.115 6.96591 176.302 7.23413 176.554 7.62427L177.147 8.60774H175.944L175.221 7.51048C174.969 7.12034 174.782 6.8765 174.692 6.77897C174.595 6.68144 174.489 6.60016 174.375 6.55952C174.278 6.52701 174.115 6.50262 173.88 6.50262L173.66 6.49449L173.652 8.59961H172.652ZM173.66 5.70609H174.416C174.896 5.70609 175.213 5.68984 175.334 5.64107C175.448 5.60856 175.538 5.53541 175.611 5.43787C175.684 5.33221 175.716 5.21029 175.716 5.05586C175.716 4.8933 175.684 4.747 175.578 4.64947C175.497 4.55193 175.367 4.47878 175.213 4.44627C175.131 4.43002 174.871 4.43002 174.473 4.43002H173.66V5.70609Z" fill="#626277"/>
<path fill-rule="evenodd" clip-rule="evenodd" d="M182.132 8.62447L181.035 8.61634L180.604 7.47031H178.597L178.182 8.60821H177.101L179.052 3.60144H180.125L182.132 8.62447ZM180.287 6.62501L179.58 4.76373L178.897 6.62501H180.287Z" fill="#626277"/>
<path fill-rule="evenodd" clip-rule="evenodd" d="M101.365 11.1454L103.226 11.1535C103.633 11.1535 103.95 11.1779 104.169 11.2429C104.462 11.3323 104.697 11.4949 104.909 11.7062C105.12 11.9338 105.283 12.202 105.396 12.5353C105.502 12.8522 105.551 13.2424 105.551 13.7057C105.551 14.1283 105.502 14.4859 105.388 14.7785C105.258 15.1443 105.087 15.445 104.852 15.6726C104.681 15.8352 104.445 15.9652 104.161 16.0627C103.925 16.1359 103.616 16.1684 103.251 16.1684L101.349 16.1603L101.365 11.1454ZM102.373 11.9988L102.365 15.315H103.121C103.397 15.315 103.6 15.3069 103.722 15.2662C103.885 15.2337 104.015 15.1606 104.136 15.0549C104.258 14.9655 104.34 14.8029 104.405 14.5835C104.462 14.3478 104.51 14.047 104.51 13.665C104.51 13.2749 104.47 12.9742 104.405 12.771C104.348 12.5678 104.242 12.3971 104.128 12.2914C104.006 12.1614 103.836 12.0882 103.641 12.0476C103.519 12.0069 103.234 11.9988 102.82 11.9988H102.373Z" fill="#626277"/>
<path fill-rule="evenodd" clip-rule="evenodd" d="M106.296 16.1758L106.312 11.1609L110.019 11.169V12.0224L107.32 12.0143V13.1116L109.848 13.1197L109.84 13.9731L107.32 13.965L107.312 15.3305L110.1 15.3386V16.1839L106.296 16.1758Z" fill="#626277"/>
<path fill-rule="evenodd" clip-rule="evenodd" d="M115.926 14.3512L116.909 14.6682C116.763 15.2128 116.503 15.6192 116.137 15.8874C115.796 16.1556 115.365 16.2857 114.804 16.2857C114.146 16.2857 113.609 16.0662 113.171 15.6029C112.74 15.1478 112.528 14.5219 112.528 13.7335C112.528 12.9045 112.748 12.2543 113.187 11.7991C113.626 11.3439 114.187 11.1001 114.894 11.1001C115.503 11.1082 116.007 11.2952 116.389 11.6609C116.617 11.8722 116.787 12.1811 116.893 12.5794L115.902 12.8151C115.845 12.555 115.723 12.3518 115.536 12.1974C115.333 12.0429 115.113 11.9698 114.845 11.9698C114.463 11.9617 114.154 12.0998 113.943 12.3762C113.699 12.6281 113.577 13.067 113.569 13.6604C113.569 14.3025 113.691 14.7495 113.918 15.0177C114.146 15.286 114.43 15.416 114.812 15.416C115.081 15.416 115.308 15.3428 115.511 15.1722C115.69 15.0015 115.836 14.7251 115.926 14.3512Z" fill="#626277"/>
<path fill-rule="evenodd" clip-rule="evenodd" d="M117.468 13.7441C117.468 13.232 117.533 12.8094 117.695 12.4517C117.817 12.2079 117.964 11.9722 118.167 11.7771C118.362 11.5739 118.573 11.4195 118.809 11.322C119.126 11.1838 119.475 11.1188 119.898 11.1188C120.63 11.1188 121.223 11.3626 121.654 11.8259C122.109 12.2729 122.328 12.9232 122.328 13.7278C122.32 14.5487 122.109 15.1827 121.654 15.6297C121.223 16.093 120.638 16.3206 119.882 16.3125C119.134 16.3125 118.549 16.0849 118.118 15.6216C117.679 15.1746 117.468 14.5406 117.468 13.7441ZM118.508 13.7116C118.508 14.2805 118.622 14.7113 118.898 15.0039C119.158 15.2965 119.483 15.4428 119.882 15.4428C120.296 15.4428 120.621 15.3046 120.898 15.0202C121.142 14.7194 121.272 14.2886 121.272 13.7116C121.28 13.1264 121.142 12.7118 120.906 12.4111C120.654 12.1266 120.321 11.9803 119.898 11.9803C119.475 11.9803 119.15 12.1185 118.89 12.4111C118.63 12.7118 118.508 13.1345 118.508 13.7116Z" fill="#626277"/>
<path fill-rule="evenodd" clip-rule="evenodd" d="M123.017 16.2254L123.034 11.2511L124.058 11.2592L124.05 15.3801L126.561 15.3882V16.2335L123.017 16.2254Z" fill="#626277"/>
<path fill-rule="evenodd" clip-rule="evenodd" d="M126.967 13.7718C126.967 13.2597 127.048 12.8371 127.202 12.4795C127.316 12.2356 127.479 11.9999 127.674 11.8048C127.869 11.6016 128.088 11.4472 128.324 11.3497C128.641 11.2115 128.999 11.1465 129.405 11.1465C130.145 11.1465 130.738 11.3903 131.161 11.8536C131.616 12.3006 131.835 12.9509 131.835 13.7555C131.835 14.5764 131.608 15.2104 131.169 15.6575C130.73 16.1207 130.137 16.3483 129.405 16.3402C128.649 16.3402 128.064 16.1126 127.633 15.6493C127.194 15.2023 126.967 14.5683 126.967 13.7718ZM128.015 13.7393C128.015 14.3082 128.137 14.739 128.405 15.0316C128.665 15.3242 128.999 15.4705 129.413 15.4705C129.795 15.4705 130.137 15.3323 130.405 15.0479C130.665 14.7471 130.787 14.3164 130.787 13.7393C130.787 13.1541 130.665 12.7395 130.413 12.4388C130.161 12.1543 129.828 12.008 129.421 12.008C128.991 12.008 128.665 12.1462 128.405 12.4388C128.145 12.7395 128.015 13.1622 128.015 13.7393Z" fill="#626277"/>
<path fill-rule="evenodd" clip-rule="evenodd" d="M132.501 16.2521L132.517 11.2372H134.037L134.923 14.659L135.825 11.2453L137.353 11.2534L137.345 16.2683L136.402 16.2602L136.41 12.3182L135.419 16.2602H134.443L133.452 12.3101L133.436 16.2521H132.501Z" fill="#626277"/>
<path fill-rule="evenodd" clip-rule="evenodd" d="M138.258 11.2565H140.266C140.656 11.2646 140.956 11.2727 141.168 11.3052C141.338 11.3459 141.533 11.419 141.688 11.5166C141.826 11.6222 141.948 11.7604 142.07 11.9473C142.167 12.1262 142.216 12.3212 142.216 12.5325C142.216 12.7845 142.151 12.9877 142.021 13.1909C141.899 13.386 141.72 13.5404 141.509 13.6298C141.818 13.7192 142.046 13.8655 142.216 14.085C142.387 14.2963 142.452 14.5483 142.452 14.8327C142.452 15.0603 142.403 15.2798 142.289 15.4911C142.184 15.7024 142.037 15.8894 141.859 16.0113C141.672 16.1413 141.444 16.2226 141.176 16.247C141.005 16.2632 140.599 16.2795 139.957 16.2795L138.242 16.2714L138.258 11.2565ZM139.266 12.1099L139.258 13.2559H139.924C140.331 13.2559 140.566 13.2559 140.672 13.2478C140.834 13.2234 140.981 13.1665 141.078 13.069C141.184 12.9796 141.216 12.8495 141.216 12.6788C141.216 12.5244 141.192 12.4025 141.103 12.305C141.013 12.1993 140.891 12.1505 140.721 12.1343C140.615 12.118 140.331 12.1099 139.851 12.1099H139.266ZM139.258 14.1094V15.4261H140.201C140.558 15.4261 140.794 15.4179 140.891 15.4098C141.03 15.3692 141.168 15.3041 141.257 15.2066C141.355 15.101 141.395 14.9628 141.395 14.7758C141.395 14.6295 141.355 14.5157 141.29 14.4182C141.216 14.3125 141.111 14.2313 140.981 14.1825C140.843 14.1337 140.534 14.1094 140.07 14.1094H139.258Z" fill="#626277"/>
<path fill-rule="evenodd" clip-rule="evenodd" d="M143.165 11.271L143.149 16.2859H144.171L144.189 11.271H143.165Z" fill="#626277"/>
<path fill-rule="evenodd" clip-rule="evenodd" d="M149.552 16.301H148.471L148.04 15.1549H146.016L145.602 16.2929L144.521 16.2847L146.463 11.278H147.552L149.552 16.301ZM147.723 14.3015L147.008 12.4484L146.333 14.3015H147.723Z" fill="#626277"/>
<path fill-rule="evenodd" clip-rule="evenodd" d="M5.31038 13.5416L2.37622 5.17798L4.19686 5.18611L6.29386 11.3633L8.33395 5.19423L10.1383 5.20236L7.13103 13.5497L5.31038 13.5416Z" fill="#626277"/>
<path fill-rule="evenodd" clip-rule="evenodd" d="M11.51 13.5605L13.2087 13.5687L13.2331 5.21117L11.5344 5.20508L11.51 13.5605Z" fill="#626277"/>
<path fill-rule="evenodd" clip-rule="evenodd" d="M19.2816 10.5214L19.2897 9.10711L22.9229 9.11524L22.9148 12.4558C22.5653 12.7972 22.0451 13.0979 21.3705 13.3661C20.704 13.61 20.0212 13.74 19.3304 13.74C18.4607 13.7319 17.7048 13.5531 17.0383 13.1792C16.4043 12.8134 15.9167 12.2932 15.5916 11.6024C15.2664 10.9196 15.1039 10.1637 15.1039 9.37533C15.1039 8.50565 15.2989 7.71724 15.6647 7.04263C16.0142 6.35989 16.5669 5.84783 17.2578 5.4902C17.8023 5.20573 18.4607 5.07568 19.2654 5.07568C20.3138 5.07568 21.1266 5.29514 21.7037 5.73404C22.2889 6.17295 22.6547 6.77441 22.8091 7.53843L21.1348 7.85542C21.0291 7.44089 20.8015 7.11578 20.4764 6.88007C20.1594 6.64436 19.7368 6.52244 19.2654 6.52244C18.5338 6.52244 17.9405 6.75003 17.4935 7.21331C17.0627 7.68473 16.8432 8.38373 16.8432 9.31031C16.8351 10.2938 17.0464 11.0497 17.5016 11.5455C17.9486 12.0331 18.5176 12.3014 19.241 12.3014C19.5742 12.3014 19.9318 12.2201 20.3057 12.0982C20.6471 11.9519 20.9559 11.7893 21.216 11.5861L21.2242 10.5295L19.2816 10.5214Z" fill="#626277"/>
<path fill-rule="evenodd" clip-rule="evenodd" d="M25.0024 13.5989L26.6768 13.6091L26.6991 5.25158L25.0268 5.24548L25.0024 13.5989Z" fill="#626277"/>
<path fill-rule="evenodd" clip-rule="evenodd" d="M28.9076 13.611L28.932 5.32056L30.6388 5.32868L30.6144 12.2049L34.7922 12.2211L34.784 13.6272L28.9076 13.611Z" fill="#626277"/>
<path fill-rule="evenodd" clip-rule="evenodd" d="M44.1224 13.6556L42.3017 13.6475L41.5784 11.7537L38.2216 11.7375L37.5226 13.6394L35.7426 13.6313L38.9937 5.28394L40.7656 5.29206L44.1224 13.6556ZM41.0338 10.3476L39.8715 7.23463L38.7336 10.3395L41.0338 10.3476Z" fill="#626277"/>
<path fill-rule="evenodd" clip-rule="evenodd" d="M45.6229 5.30859L48.6871 5.31672C49.3942 5.31672 49.9225 5.36549 50.2883 5.47928C50.7678 5.62558 51.1824 5.88567 51.54 6.25143C51.8814 6.61718 52.1496 7.08047 52.3284 7.61691C52.5072 8.14522 52.5966 8.81171 52.5885 9.58386C52.5885 10.2747 52.5072 10.8681 52.3365 11.3557C52.1252 11.9653 51.8326 12.453 51.4425 12.8431C51.1498 13.1195 50.7597 13.3389 50.2477 13.5015C49.8819 13.6153 49.3861 13.6722 48.7684 13.6722L45.5985 13.6559L45.6229 5.30859ZM47.2972 6.72284L47.281 12.2579H48.5408C49.0122 12.2579 49.3455 12.2254 49.5649 12.1929C49.8413 12.1116 50.0607 12.006 50.2314 11.8353C50.4265 11.6808 50.5728 11.4045 50.6866 11.0306C50.8003 10.6567 50.8572 10.1528 50.8572 9.5107C50.8654 8.86047 50.8085 8.35655 50.6947 8.0233C50.5809 7.66568 50.4265 7.40558 50.2233 7.21052C50.0119 7.01545 49.76 6.87727 49.443 6.81225C49.1992 6.75536 48.744 6.73097 48.0531 6.72284H47.2972Z" fill="#626277"/>
<path fill-rule="evenodd" clip-rule="evenodd" d="M54.2843 9.56115C54.2843 8.69959 54.4062 7.9945 54.6582 7.41539C54.8614 6.98461 55.1296 6.61073 55.4547 6.26936C55.7798 5.92799 56.1456 5.67603 56.5357 5.51347C57.0559 5.29402 57.6493 5.18835 58.3239 5.18835C59.5593 5.19851 60.559 5.57036 61.2905 6.35064C62.0302 7.11466 62.3959 8.17941 62.3878 9.54489C62.3878 10.9022 62.0139 11.9507 61.2824 12.7229C60.5428 13.4788 59.5593 13.8527 58.3401 13.8527C57.0803 13.8527 56.0968 13.4707 55.3735 12.7148C54.6338 11.9426 54.2762 10.8941 54.2843 9.56115ZM56.0237 9.51238C56.0237 10.4552 56.235 11.1786 56.6658 11.6764C57.1047 12.1539 57.6574 12.414 58.3401 12.414C59.0147 12.4222 59.5593 12.1621 59.9901 11.6907C60.429 11.203 60.6484 10.4715 60.6484 9.50425C60.6566 8.54517 60.4452 7.82382 60.0145 7.34224C59.6081 6.87082 59.0472 6.64324 58.3564 6.63715C57.6493 6.63715 57.0884 6.87082 56.6577 7.35037C56.2269 7.82382 56.0237 8.55329 56.0237 9.51238Z" fill="#626277"/>
<path fill-rule="evenodd" clip-rule="evenodd" d="M0.19751 2.64649L65.0396 2.84969L65.0498 1.07781L0.205638 0.890869L0.19751 2.64649Z" fill="#626277"/>
<path fill-rule="evenodd" clip-rule="evenodd" d="M0.151489 17.7906L64.9957 17.9938L65.0058 16.2402L0.161649 16.0452L0.151489 17.7906Z" fill="#626277"/>
</svg>
