<svg width="24" height="25" viewBox="0 0 24 25" fill="none" xmlns="http://www.w3.org/2000/svg">
<g clip-path="url(#clip0)">
<path d="M14 4.5C9.6 4.5 6 8.1 6 12.5C6 13.4 6.1 14.2 6.4 15H3C2.4 15 2 15.4 2 16C2 16.6 2.4 17 3 17H7.4C7.8 17.6 8.2 18.1 8.7 18.5H3C2.4 18.5 2 18.9 2 19.5C2 20.1 2.4 20.5 3 20.5H14C18.4 20.5 22 16.9 22 12.5C22 8.1 18.4 4.5 14 4.5ZM14 18.5C10.7 18.5 8 15.8 8 12.5C8 9.2 10.7 6.5 14 6.5C17.3 6.5 20 9.2 20 12.5C20 15.8 17.3 18.5 14 18.5ZM14.9 11.8H14.6V11H15.6C16 11 16.3 10.7 16.3 10.3C16.3 9.9 16 9.6 15.6 9.6H14.6V9.1C14.6 8.7 14.3 8.4 13.9 8.4C13.5 8.4 13.2 8.7 13.2 9.1V9.6H12.9C11.9 9.6 11.1 10.4 11.1 11.4C11.1 12.4 11.9 13.2 12.9 13.2H13.2V14H12C11.6 14 11.3 14.3 11.3 14.7C11.3 15.1 11.6 15.4 12 15.4H13.3V15.9C13.3 16.3 13.6 16.6 14 16.6C14.4 16.6 14.7 16.3 14.7 15.9V15.4H15C16 15.4 16.8 14.6 16.8 13.6C16.8 12.6 15.9 11.8 14.9 11.8ZM13.3 11.8H13C12.8 11.8 12.6 11.6 12.6 11.4C12.6 11.2 12.8 11 13 11H13.3V11.8ZM14.9 14H14.6V13.2H14.9C15.1 13.2 15.3 13.4 15.3 13.6C15.3 13.8 15.2 14 14.9 14Z" fill="#0033A0"/>
</g>
<defs>
<clipPath id="clip0">
<rect width="20" height="16" fill="white" transform="translate(2 4.5)"/>
</clipPath>
</defs>
</svg>
