<svg width="32" height="32" viewBox="0 0 32 32" fill="none" xmlns="http://www.w3.org/2000/svg">
<path d="M26.6667 2.6665H5.33337C3.06671 2.6665 1.33337 4.39984 1.33337 6.6665V19.9998C1.33337 22.2665 3.06671 23.9998 5.33337 23.9998H14.6667V26.6665H10.6667C9.86671 26.6665 9.33337 27.1998 9.33337 27.9998C9.33337 28.7998 9.86671 29.3332 10.6667 29.3332H21.3334C22.1334 29.3332 22.6667 28.7998 22.6667 27.9998C22.6667 27.1998 22.1334 26.6665 21.3334 26.6665H17.3334V23.9998H26.6667C28.9334 23.9998 30.6667 22.2665 30.6667 19.9998V6.6665C30.6667 4.39984 28.9334 2.6665 26.6667 2.6665ZM28 19.9998C28 20.7998 27.4667 21.3332 26.6667 21.3332H5.33337C4.53337 21.3332 4.00004 20.7998 4.00004 19.9998V6.6665C4.00004 5.8665 4.53337 5.33317 5.33337 5.33317H26.6667C27.4667 5.33317 28 5.8665 28 6.6665V19.9998Z" fill="#5CD9E3"/>
</svg>
