<svg width="48" height="48" viewBox="0 0 48 48" fill="none" xmlns="http://www.w3.org/2000/svg">
<path d="M41.9354 38.9335C33.7681 49.6876 20.8199 50.8937 9.06693 42.4512C-2.68604 34.1092 -2.08843 20.4404 5.58088 9.28431C14.047 -3.07789 27.294 -1.87182 38.4494 5.76661C50.2023 13.9076 50.8 27.2748 41.9354 38.9335Z" fill="white"/>
<path d="M28.9327 23.068L20.9327 15.068C20.3993 14.5346 19.5993 14.5346 19.066 15.068C18.5327 15.6013 18.5327 16.4013 19.066 16.9346L26.1327 24.0013L19.066 31.068C18.5327 31.6013 18.5327 32.4013 19.066 32.9346C19.3327 33.2013 19.5993 33.3346 19.9993 33.3346C20.3993 33.3346 20.666 33.2013 20.9327 32.9346L28.9327 24.9346C29.466 24.4013 29.466 23.6013 28.9327 23.068Z" fill="#292730"/>
</svg>
