<svg width="48" height="48" viewBox="0 0 48 48" fill="none" xmlns="http://www.w3.org/2000/svg">
<path d="M41.9354 38.9335C33.7681 49.6876 20.8199 50.8937 9.06693 42.4512C-2.68604 34.1092 -2.08843 20.4404 5.58088 9.28431C14.047 -3.07789 27.294 -1.87182 38.4494 5.76661C50.2023 13.9076 50.8 27.2748 41.9354 38.9335Z" fill="#3F66B3"/>
<path d="M28.9327 23.066L20.9327 15.066C20.3993 14.5327 19.5993 14.5327 19.066 15.066C18.5327 15.5993 18.5327 16.3993 19.066 16.9327L26.1327 23.9993L19.066 31.066C18.5327 31.5993 18.5327 32.3994 19.066 32.9327C19.3327 33.1994 19.5993 33.3327 19.9993 33.3327C20.3993 33.3327 20.666 33.1994 20.9327 32.9327L28.9327 24.9327C29.466 24.3993 29.466 23.5993 28.9327 23.066Z" fill="white"/>
</svg>
