<svg width="16" height="16" viewBox="0 0 16 16" fill="none" xmlns="http://www.w3.org/2000/svg">
<path d="M8.00033 0.666016C3.93366 0.666016 0.666992 3.93268 0.666992 7.99935C0.666992 12.066 3.93366 15.3327 8.00033 15.3327C12.067 15.3327 15.3337 12.066 15.3337 7.99935C15.3337 3.93268 12.067 0.666016 8.00033 0.666016ZM8.00033 13.9993C4.66699 13.9993 2.00033 11.3327 2.00033 7.99935C2.00033 4.66602 4.66699 1.99935 8.00033 1.99935C11.3337 1.99935 14.0003 4.66602 14.0003 7.99935C14.0003 11.3327 11.3337 13.9993 8.00033 13.9993Z" fill="#626277"/>
<path d="M8.80016 4.13307C7.40016 3.6664 5.86683 4.39973 5.40016 5.73307C5.33349 6.13307 5.46683 6.53307 5.86683 6.59973C6.20016 6.73307 6.60016 6.53307 6.73349 6.19973C7.00016 5.53307 7.73349 5.13307 8.46683 5.39973C9.00016 5.59973 9.33349 6.0664 9.33349 6.6664C9.33349 7.33307 8.20016 7.8664 7.80016 8.0664C7.46683 8.19973 7.26683 8.53307 7.40016 8.93307C7.46683 9.19973 7.73349 9.39973 8.00016 9.39973C8.06683 9.39973 8.13349 9.39973 8.20016 9.33307C8.46683 9.2664 10.6668 8.4664 10.6668 6.73307C10.6002 5.53307 9.86683 4.53307 8.80016 4.13307Z" fill="#626277"/>
<path d="M8.46732 10.866C8.20065 10.5993 7.73398 10.5993 7.53398 10.866C7.46732 10.9327 7.40065 10.9993 7.40065 11.066C7.40065 11.1327 7.33398 11.1993 7.33398 11.3327C7.33398 11.5327 7.40065 11.666 7.53398 11.7994C7.66732 11.9327 7.80065 11.9993 8.00065 11.9993C8.20065 11.9993 8.33398 11.9327 8.46732 11.7994C8.53398 11.7327 8.60065 11.666 8.60065 11.5993C8.60065 11.5327 8.66732 11.466 8.66732 11.3327C8.66732 11.1993 8.66732 11.1327 8.60065 11.066C8.60065 10.9993 8.53398 10.9327 8.46732 10.866Z" fill="#626277"/>
</svg>
