<svg width="64" height="64" viewBox="0 0 64 64" fill="none" xmlns="http://www.w3.org/2000/svg">
<path d="M23.4663 32.8C29.5997 32.8 34.3997 27.7334 34.3997 21.8667C34.3997 16 29.5997 10.6667 23.4663 10.6667C17.333 10.6667 12.2663 15.7334 12.2663 21.6C12.2663 27.4667 17.333 32.8 23.4663 32.8ZM23.4663 16C26.6663 16 29.0663 18.6667 29.0663 21.6C29.0663 24.5334 26.6663 27.4667 23.4663 27.4667C20.2663 27.4667 17.8663 24.8 17.8663 21.8667C17.8663 18.9334 20.2663 16 23.4663 16ZM58.6663 48V50.6667C58.6663 52.2667 57.5997 53.3334 55.9997 53.3334C54.3997 53.3334 53.333 52.2667 53.333 50.6667V48C53.333 46.4 51.9997 45.3334 50.6663 45.3334H39.9997C38.3997 45.3334 37.333 46.6667 37.333 48V50.6667C37.333 52.2667 36.2663 53.3334 34.6663 53.3334C33.0663 53.3334 31.9997 52.2667 31.9997 50.6667V48C31.9997 45.6 33.0663 43.7334 34.3997 42.1334C33.333 41.3334 31.9997 40.8 30.6663 40.8H16.2663C13.0663 40.8 10.6663 43.4667 10.6663 46.4V50.6667C10.6663 52.2667 9.59967 53.3334 7.99967 53.3334C6.39967 53.3334 5.33301 52.2667 5.33301 50.6667V46.4C5.33301 40.2667 10.3997 35.4667 16.2663 35.4667H30.3997C33.8663 35.4667 37.333 37.0667 39.1997 40H39.4663H50.133C54.933 39.7334 58.6663 43.4667 58.6663 48ZM45.333 37.6C49.8663 37.6 53.333 33.8667 53.333 29.6C53.333 25.3334 49.5997 21.6 45.333 21.6C41.0663 21.6 37.333 25.3334 37.333 29.6C37.333 33.8667 40.7997 37.6 45.333 37.6ZM45.333 26.6667C46.933 26.6667 47.9997 28 47.9997 29.3334C47.9997 30.6667 46.6663 32 45.333 32C43.9997 32 42.6663 30.6667 42.6663 29.3334C42.6663 28 43.733 26.6667 45.333 26.6667Z" fill="#0033A0"/>
</svg>
