<svg width="64" height="64" viewBox="0 0 64 64" fill="none" xmlns="http://www.w3.org/2000/svg">
<path d="M49.3597 29.3028C51.1958 29.2923 52.9877 28.7381 54.51 27.7102C56.0323 26.6823 57.2169 25.2265 57.9146 23.526C58.6124 21.8255 58.7922 19.9564 58.4314 18.1539C58.0706 16.3513 57.1853 14.6959 55.887 13.396C54.5887 12.096 52.9353 11.2096 51.1349 10.8484C49.3346 10.4872 47.4678 10.6672 45.7694 11.3658C44.071 12.0645 42.617 13.2505 41.5903 14.7746C40.5637 16.2988 40.0102 18.0929 39.9997 19.9313C39.989 21.165 40.2238 22.3884 40.6904 23.5302C41.157 24.6721 41.8461 25.7094 42.7174 26.5818C43.5887 27.4541 44.6248 28.144 45.7652 28.6112C46.9056 29.0784 48.1275 29.3135 49.3597 29.3028ZM49.3597 15.9531C49.885 15.9531 50.4051 16.0567 50.8904 16.2579C51.3757 16.4592 51.8167 16.7542 52.1881 17.1261C52.5595 17.498 52.8542 17.9395 53.0552 18.4254C53.2562 18.9113 53.3597 19.4321 53.3597 19.958C53.3597 20.4839 53.2562 21.0047 53.0552 21.4906C52.8542 21.9765 52.5595 22.418 52.1881 22.7899C51.8167 23.1618 51.3757 23.4568 50.8904 23.6581C50.4051 23.8593 49.885 23.9629 49.3597 23.9629C48.2988 23.9629 47.2814 23.541 46.5312 22.7899C45.7811 22.0388 45.3597 21.0202 45.3597 19.958C45.3597 18.8958 45.7811 17.8772 46.5312 17.1261C47.2814 16.375 48.2988 15.9531 49.3597 15.9531ZM40.8797 42.6526C42.304 42.6555 43.7033 42.2776 44.933 41.5579L47.1197 40.303C47.5251 40.0687 47.9849 39.9453 48.453 39.9453C48.9211 39.9453 49.381 40.0687 49.7863 40.303L51.9197 41.5579C53.153 42.2922 54.5649 42.671 55.9997 42.6526C56.7069 42.6526 57.3852 42.3713 57.8853 41.8706C58.3854 41.3699 58.6663 40.6907 58.6663 39.9826C58.6663 39.2745 58.3854 38.5954 57.8853 38.0947C57.3852 37.594 56.7069 37.3127 55.9997 37.3127C55.5235 37.3206 55.0539 37.2008 54.6397 36.9656L52.5063 35.7107C51.2902 35.0077 49.9106 34.6376 48.5063 34.6376C47.1021 34.6376 45.7225 35.0077 44.5063 35.7107L42.3197 36.9923C41.9054 37.2275 41.4358 37.3473 40.9597 37.3394C40.4835 37.3473 40.0139 37.2275 39.5997 36.9923L37.333 35.6039C36.2865 34.9984 35.1166 34.7279 33.9112 34.64H29.333C29.333 34.64 27.9151 34.6532 26.6663 34.6427H21.6797L20.4797 27.7009L26.9863 26.6329C27.6786 26.4931 28.2955 26.1035 28.7197 25.5382C28.9189 25.2489 29.0591 24.9232 29.1323 24.5795C29.2056 24.2359 29.2103 23.8812 29.1463 23.5357C28.6053 20.4094 26.846 17.6263 24.2555 15.7987C21.665 13.9711 18.4555 13.2487 15.333 13.7904C12.2105 14.3321 9.43086 16.0936 7.60551 18.6873C5.78015 21.281 5.05863 24.4944 5.59967 27.6208C5.71326 28.2427 6.04364 28.8042 6.53197 29.2051C7.02031 29.606 7.63491 29.8204 8.26634 29.8101H8.71967L15.253 28.6353L16.2663 34.6427H10.6663C9.25185 34.6427 7.8953 35.2053 6.89511 36.2068C5.89491 37.2082 5.33301 38.5664 5.33301 39.9826V47.9925C5.33301 49.4087 5.89491 50.7669 6.89511 51.7684C7.8953 52.7698 9.25185 53.3324 10.6663 53.3324C12.0829 53.3397 13.4747 52.9613 14.693 52.2377L16.8797 50.9828C17.2851 50.7485 17.7449 50.6251 18.213 50.6251C18.6811 50.6251 19.141 50.7485 19.5463 50.9828L21.6797 52.2377C22.9172 52.962 24.3263 53.34 25.7597 53.3324C27.1851 53.3432 28.5864 52.9647 29.813 52.2377L31.9997 50.9828C32.4051 50.7485 32.8649 50.6251 33.333 50.6251C33.8011 50.6251 34.261 50.7485 34.6663 50.9828L36.7997 52.2377C38.0263 52.9647 39.4276 53.3432 40.853 53.3324C42.2774 53.3353 43.6767 52.9574 44.9063 52.2377L47.093 50.9828C47.4984 50.7485 47.9582 50.6251 48.4263 50.6251C48.8944 50.6251 49.3543 50.7485 49.7597 50.9828L51.893 52.2377C53.134 52.9768 54.5559 53.3558 55.9997 53.3324C56.7069 53.3324 57.3852 53.0511 57.8853 52.5504C58.3854 52.0497 58.6663 51.3705 58.6663 50.6624C58.6663 49.9543 58.3854 49.2752 57.8853 48.7745C57.3852 48.2738 56.7069 47.9925 55.9997 47.9925C55.5235 48.0004 55.0539 47.8806 54.6397 47.6454L52.5063 46.3905C51.2902 45.6875 49.9106 45.3174 48.5063 45.3174C47.1021 45.3174 45.7225 45.6875 44.5063 46.3905L42.3197 47.6721C41.9762 45.879 41.317 44.1613 40.373 42.5992C40.373 42.5992 40.6247 42.6521 40.8797 42.6526ZM11.9463 21.7202C12.97 20.2983 14.513 19.3388 16.2397 19.0502C16.6214 19.0239 17.0046 19.0239 17.3863 19.0502C18.4609 19.0333 19.5233 19.28 20.4809 19.7686C21.4384 20.2573 22.2619 20.9731 22.8797 21.8537L10.9597 23.9629C11.1433 23.1594 11.4781 22.3982 11.9463 21.7202ZM29.333 46.257L27.1463 47.5386C26.7321 47.7738 26.2625 47.8936 25.7863 47.8857C25.3102 47.8936 24.8406 47.7738 24.4263 47.5386L22.3197 46.2837C21.1035 45.5807 19.724 45.2106 18.3197 45.2106C16.9154 45.2106 15.5358 45.5807 14.3197 46.2837L12.1597 47.5653C11.7153 47.8529 11.1954 48.0016 10.6663 47.9925V39.9826H26.6663C28.5896 40 30.4724 40.5377 32.1155 41.5388C33.7585 42.5399 35.1006 43.9672 35.9997 45.6696C34.912 45.2798 33.7529 45.1304 32.602 45.2318C31.4512 45.3332 30.336 45.6829 29.333 46.257Z" fill="#0033A0"/>
</svg>
