<svg width="48" height="48" viewBox="0 0 48 48" fill="none" xmlns="http://www.w3.org/2000/svg">
<path d="M41.9354 38.9335C33.7681 49.6876 20.8199 50.8937 9.06693 42.4512C-2.68604 34.1092 -2.08843 20.4404 5.58088 9.28431C14.047 -3.07789 27.294 -1.87182 38.4494 5.76661C50.2023 13.9076 50.8 27.2748 41.9354 38.9335Z" fill="white"/>
<path d="M21.866 24.0013L28.9327 16.9346C29.466 16.4013 29.466 15.6013 28.9327 15.068C28.3993 14.5346 27.5993 14.5346 27.066 15.068L19.066 23.068C18.5327 23.6013 18.5327 24.4013 19.066 24.9346L27.066 32.9346C27.3327 33.2013 27.7327 33.3346 27.9993 33.3346C28.266 33.3346 28.666 33.2013 28.9327 32.9346C29.466 32.4013 29.466 31.6013 28.9327 31.068L21.866 24.0013Z" fill="#292730"/>
</svg>
