<svg width="48" height="48" viewBox="0 0 48 48" fill="none" xmlns="http://www.w3.org/2000/svg">
<path d="M6.06458 9.06652C14.2319 -1.68759 27.1801 -2.89365 38.9331 5.54882C50.686 13.8908 50.0884 27.5596 42.4191 38.7157C33.953 51.0779 20.706 49.8718 9.55063 42.2334C-2.20235 34.0924 -2.79996 20.7252 6.06458 9.06652Z" fill="#3F66B3"/>
<path d="M19.0673 24.934L27.0673 32.934C27.6007 33.4673 28.4007 33.4673 28.934 32.934C29.4673 32.4007 29.4673 31.6007 28.934 31.0673L21.8673 24.0006L28.934 16.934C29.4673 16.4007 29.4673 15.6006 28.934 15.0673C28.6673 14.8006 28.4007 14.6673 28.0007 14.6673C27.6007 14.6673 27.334 14.8006 27.0673 15.0673L19.0673 23.0673C18.534 23.6006 18.534 24.4007 19.0673 24.934Z" fill="white"/>
</svg>
