<svg width="16" height="21" viewBox="0 0 16 21" fill="none" xmlns="http://www.w3.org/2000/svg">
<path d="M15.4 4L12.5 1.1C12.1 0.7 11.6 0.5 11.1 0.5H2C0.9 0.5 0 1.4 0 2.5V18.5C0 19.6 0.9 20.5 2 20.5H14C15.1 20.5 16 19.7 16 18.6V5.4C16 4.9 15.8 4.4 15.4 4ZM14 18.5H2V2.5H9.1V5.3C9.1 6.5 10 7.4 11.2 7.4H14V18.5ZM14 5.4H11.2C11.1 5.4 11.1 5.4 11.1 5.3V2.5L14 5.4ZM5.5 14.5V15.5C5.5 16.1 5.1 16.5 4.5 16.5C3.9 16.5 3.5 16.1 3.5 15.5V14.5C3.5 13.9 3.9 13.5 4.5 13.5C5.1 13.5 5.5 13.9 5.5 14.5ZM11.5 11.5C12.1 11.5 12.5 11.9 12.5 12.5V15.5C12.5 16.1 12.1 16.5 11.5 16.5C10.9 16.5 10.5 16.1 10.5 15.5V12.5C10.5 11.9 10.9 11.5 11.5 11.5ZM9 10.5V15.5C9 16.1 8.6 16.5 8 16.5C7.4 16.5 7 16.1 7 15.5V10.5C7 9.9 7.4 9.5 8 9.5C8.6 9.5 9 9.9 9 10.5Z" fill="#626277"/>
</svg>
