<svg width="48" height="48" viewBox="0 0 48 48" fill="none" xmlns="http://www.w3.org/2000/svg">
<path fill-rule="evenodd" clip-rule="evenodd" d="M5.13579 9.13579C5.91135 8.36023 6.9455 8 8 8H32C33.0545 8 34.0887 8.36023 34.8642 9.13579C35.6398 9.91135 36 10.9455 36 12V17.0693C36.3221 17.024 36.6556 17 37 17C40.9046 17 44 20.0954 44 24C44 27.9046 40.9046 31 37 31C36.6556 31 36.3221 30.976 36 30.9307V36C36 37.0545 35.6398 38.0887 34.8642 38.8642C34.0887 39.6398 33.0545 40 32 40H24C23.2425 40 22.5499 39.572 22.2111 38.8944C21.8724 38.2169 21.9455 37.406 22.4 36.8C22.7661 36.3119 23 35.7262 23 35C23 33.3046 21.6954 32 20 32C18.3046 32 17 33.3046 17 35C17 35.7262 17.2339 36.3119 17.6 36.8C18.0545 37.406 18.1276 38.2169 17.7889 38.8944C17.4501 39.572 16.7575 40 16 40H8C6.9455 40 5.91135 39.6398 5.13579 38.8642C4.36023 38.0887 4 37.0545 4 36V12C4 10.9455 4.36023 9.91135 5.13579 9.13579ZM32 12H8V36H13.0693C13.024 35.6779 13 35.3444 13 35C13 31.0954 16.0954 28 20 28C23.9046 28 27 31.0954 27 35C27 35.3444 26.976 35.6779 26.9307 36H32V28C32 27.2425 32.428 26.5499 33.1056 26.2111C33.7831 25.8724 34.594 25.9455 35.2 26.4C35.6881 26.7661 36.2738 27 37 27C38.6954 27 40 25.6954 40 24C40 22.3046 38.6954 21 37 21C36.2738 21 35.6881 21.2339 35.2 21.6C34.594 22.0545 33.7831 22.1276 33.1056 21.7889C32.428 21.4501 32 20.7575 32 20V12Z" fill="#0033A0"/>
</svg>
