<svg width="17" height="17" viewBox="0 0 17 17" fill="none" xmlns="http://www.w3.org/2000/svg">
<path d="M13.6 10.2666C13 10.2 12.4 10.0666 11.8667 9.86663C11.1333 9.59996 10.3333 9.79996 9.73334 10.3333L9.26667 10.8C8.06667 9.99996 7 8.99996 6.2 7.73329L6.66667 7.26663C7.2 6.73329 7.4 5.86663 7.13334 5.13329C6.93334 4.59996 6.8 3.99996 6.73334 3.39996C6.6 2.39996 5.73334 1.66663 4.73334 1.66663H2.73334C2.66667 1.66663 2.6 1.66663 2.53334 1.66663C2 1.73329 1.53334 1.99996 1.2 2.39996C0.866671 2.79996 0.733337 3.33329 0.733337 3.86663C0.933337 5.99996 1.73334 8.13329 2.86667 9.93329C3.93334 11.6 5.4 13.0666 7.06667 14.1333C8.86667 15.3333 11 16.0666 13.1333 16.2666C13.2 16.2666 13.2667 16.2666 13.3333 16.2666C13.8667 16.2666 14.4 16.0666 14.7333 15.6666C15.0667 15.2666 15.3333 14.8 15.3333 14.2666V12.2666C15.3333 11.2666 14.6 10.4 13.6 10.2666ZM14 12.2666V14.2666C14 14.4666 13.9333 14.6 13.8 14.7333C13.6667 14.8666 13.5333 14.9333 13.2667 14.9333C11.3333 14.7333 9.46667 14.0666 7.8 13C6.26667 12.0666 5 10.7333 4 9.19996C2.93334 7.53329 2.26667 5.66663 2.06667 3.73329C2.06667 3.53329 2.13334 3.39996 2.2 3.26663C2.33334 3.13329 2.53334 2.99996 2.73334 2.99996H4.73334C5.06667 2.99996 5.33334 3.26663 5.4 3.59996C5.46667 4.26663 5.66667 4.99996 5.93334 5.59996C6 5.86663 5.93334 6.13329 5.8 6.33329L4.93334 7.13329C4.73334 7.33329 4.66667 7.66663 4.8 7.93329C5.8 9.73329 7.26667 11.2 9.06667 12.2C9.33334 12.3333 9.66667 12.3333 9.86667 12.0666L10.7333 11.2C10.9333 11 11.2 10.9333 11.4667 11.0666C12.1333 11.3333 12.8 11.4666 13.4667 11.6C13.7333 11.6666 14 11.9333 14 12.2666Z" fill="#0033A0"/>
<path d="M10.1333 0.999956C9.80001 0.933289 9.46668 1.19996 9.40001 1.59996C9.33334 1.93329 9.60001 2.26662 10 2.33329C12.4667 2.59996 14.4 4.53329 14.7333 7.06662C14.8 7.39996 15.0667 7.66662 15.4 7.66662H15.4667C15.8 7.59996 16.0667 7.26662 16.0667 6.93329C15.6667 3.79996 13.2 1.33329 10.1333 0.999956Z" fill="#0033A0"/>
<path d="M12 7.06656C12.0667 7.3999 12.3333 7.5999 12.6667 7.5999C12.7333 7.5999 12.7333 7.5999 12.8 7.5999C13.1333 7.53323 13.4 7.1999 13.3333 6.7999C13 5.1999 11.8 3.93323 10.2 3.66656C9.86667 3.5999 9.46667 3.7999 9.40001 4.1999C9.33334 4.5999 9.53334 4.93323 9.93334 4.9999C11 5.1999 11.8 5.9999 12 7.06656Z" fill="#0033A0"/>
</svg>
