<svg width="24" height="25" viewBox="0 0 24 25" fill="none" xmlns="http://www.w3.org/2000/svg">
<path d="M14 7.5H4C3.4 7.5 3 7.9 3 8.5C3 9.1 3.4 9.5 4 9.5H9.1C8.5 10.1 8 10.8 7.7 11.5H4C3.4 11.5 3 11.9 3 12.5C3 13.1 3.4 13.5 4 13.5H7.1C7 13.8 7 14.2 7 14.5C7 14.8 7 15.2 7.1 15.5H4C3.4 15.5 3 15.9 3 16.5C3 17.1 3.4 17.5 4 17.5H7.7C8.1 18.2 8.5 18.9 9.1 19.5H4C3.4 19.5 3 19.9 3 20.5C3 21.1 3.4 21.5 4 21.5H14C17.9 21.5 21 18.4 21 14.5C21 10.6 17.9 7.5 14 7.5ZM14 19.5C11.2 19.5 9 17.3 9 14.5C9 11.7 11.2 9.5 14 9.5C16.8 9.5 19 11.7 19 14.5C19 17.3 16.8 19.5 14 19.5ZM14.8 13.9H14.6V13.2H15.5C15.8 13.2 16.1 12.9 16.1 12.6C16.1 12.3 15.8 12 15.5 12H14.6V11.6C14.6 11.3 14.3 11 14 11C13.7 11 13.4 11.3 13.4 11.6V12.1H13.2C12.4 12.1 11.7 12.8 11.7 13.6C11.7 14.4 12.4 15.1 13.2 15.1H13.4V15.8H12.3C12 15.8 11.7 16.1 11.7 16.4C11.7 16.7 12 17 12.3 17H13.4V17.5C13.4 17.8 13.7 18.1 14 18.1C14.3 18.1 14.6 17.8 14.6 17.5V17H14.8C15.6 17 16.3 16.3 16.3 15.5C16.3 14.7 15.7 13.9 14.8 13.9ZM13.4 13.9H13.2C13 13.9 12.9 13.8 12.9 13.6C12.9 13.4 13 13.3 13.2 13.3H13.4V13.9ZM14.8 15.8H14.6V15.1H14.8C15 15.1 15.1 15.2 15.1 15.4C15.1 15.6 15 15.8 14.8 15.8ZM3 4.5C3 3.9 3.4 3.5 4 3.5H14C14.6 3.5 15 3.9 15 4.5C15 5.1 14.6 5.5 14 5.5H4C3.4 5.5 3 5.1 3 4.5Z" fill="#0033A0"/>
</svg>
