<svg width="18" height="16" viewBox="0 0 18 16" fill="none" xmlns="http://www.w3.org/2000/svg">
<path d="M16.7334 1.46667C16.5334 1.33334 16.2 1.33334 16 1.46667C15.5334 1.8 15 2.06667 14.4667 2.26667C13.1334 1.06667 11.0667 1 9.66669 2.2C8.80002 2.93334 8.33335 3.93334 8.33335 5C6.40002 4.86667 4.66669 3.86667 3.53335 2.26667C3.40002 2.06667 3.20002 2 2.93335 2C2.66669 2 2.46669 2.2 2.40002 2.4C2.33335 2.46667 1.66669 4.06667 1.73335 6C1.80002 7.66667 2.46669 9.8 4.93335 11.3333C3.93335 11.8 2.80002 12 1.66669 12C1.40002 12 1.06669 12.2 1.00002 12.4667C0.933354 12.7333 1.06669 13.0667 1.33335 13.2C3.00002 14.1333 4.80002 14.6 6.46669 14.6C8.13335 14.6 9.73335 14.2 11.2 13.3333C14.0667 11.7333 15.6667 8.66667 15.6667 5C15.6667 4.86667 15.6667 4.8 15.6667 4.66667C16.3334 3.93334 16.8 3.06667 17 2.13334C17.0667 1.86667 16.9334 1.6 16.7334 1.46667ZM14.4667 4C14.3334 4.13334 14.2667 4.4 14.2667 4.6C14.3334 4.73334 14.3334 4.86667 14.3334 5C14.3334 8.2 12.9334 10.8 10.5334 12.2C8.66669 13.2667 6.46669 13.5333 4.26669 13C5.13335 12.7333 5.93335 12.4 6.66669 11.8667C6.93335 11.7333 7.00002 11.5333 7.00002 11.2667C7.00002 11 6.80002 10.8 6.60002 10.7333C2.73335 9 2.86669 5.73334 3.26669 4.06667C4.73335 5.53334 6.80002 6.4 9.00002 6.33334C9.33335 6.33334 9.66669 6 9.66669 5.66667V5C9.66669 4.33334 9.93335 3.66667 10.4667 3.2C11.4 2.33334 12.9334 2.46667 13.7334 3.4C13.9334 3.6 14.2 3.66667 14.4 3.6C14.5334 3.53334 14.7334 3.53334 14.8667 3.46667C14.7334 3.66667 14.6 3.8 14.4667 4Z" fill="#626277"/>
</svg>
