<svg width="25" height="24" viewBox="0 0 25 24" fill="none" xmlns="http://www.w3.org/2000/svg">
<path d="M14.5568 4.58963C14.5172 4.42734 14.4253 4.2826 14.2953 4.17781C14.1652 4.07303 14.0042 4.01404 13.8372 4.00999H12.7779C12.6086 4.01106 12.4447 4.07018 12.3138 4.1775C12.1828 4.28482 12.0926 4.43382 12.0583 4.59962L9.0602 19.1205C9.03675 19.2268 9.03807 19.3371 9.06406 19.4428C9.09006 19.5485 9.14003 19.6468 9.2101 19.7301C9.27884 19.8149 9.3657 19.8831 9.46428 19.9298C9.56287 19.9765 9.67067 20.0005 9.77975 20H10.7192C10.8885 19.9989 11.0523 19.9398 11.1833 19.8325C11.3142 19.7252 11.4044 19.5762 11.4387 19.4103L12.0383 16.5222H14.5268L15.1264 19.4103C15.1607 19.5762 15.2509 19.7252 15.3819 19.8325C15.5128 19.9398 15.6766 19.9989 15.8459 20H16.7954C16.9043 19.9997 17.0119 19.9754 17.1104 19.9288C17.2088 19.8821 17.2958 19.8143 17.365 19.7301C17.4303 19.6442 17.4774 19.5457 17.5031 19.4409C17.5289 19.336 17.5329 19.227 17.5149 19.1205L14.5568 4.58963ZM14.0071 14.0737H12.558L13.3075 10.426L14.0071 14.0737ZM22.0021 6.60837V7.40787C22.0021 7.54039 21.9494 7.66749 21.8557 7.7612C21.762 7.85491 21.6349 7.90755 21.5024 7.90755H19.9034V9.49656C19.9034 9.62908 19.8508 9.75618 19.7571 9.84989C19.6633 9.9436 19.5362 9.99624 19.4037 9.99624H18.6042C18.4717 9.99624 18.3446 9.9436 18.2509 9.84989C18.1572 9.75618 18.1045 9.62908 18.1045 9.49656V7.90755H16.5055C16.373 7.90755 16.2459 7.85491 16.1522 7.7612C16.0585 7.66749 16.0058 7.54039 16.0058 7.40787V6.60837C16.0058 6.47584 16.0585 6.34874 16.1522 6.25503C16.2459 6.16132 16.373 6.10868 16.5055 6.10868H18.1045V4.49969C18.1045 4.36716 18.1572 4.24006 18.2509 4.14635C18.3446 4.05265 18.4717 4 18.6042 4H19.4037C19.5362 4 19.6633 4.05265 19.7571 4.14635C19.8508 4.24006 19.9034 4.36716 19.9034 4.49969V6.10868H21.5024C21.6349 6.10868 21.762 6.16132 21.8557 6.25503C21.9494 6.34874 22.0021 6.47584 22.0021 6.60837ZM6.86158 20H7.86095C7.93716 20.0007 8.01253 19.9839 8.08128 19.951C8.15003 19.9181 8.21034 19.8699 8.2576 19.8101C8.30486 19.7503 8.33781 19.6805 8.35394 19.606C8.37007 19.5316 8.36894 19.4544 8.35064 19.3804L6.192 10.7857C6.16703 10.6774 6.10594 10.5808 6.01875 10.5117C5.93157 10.4427 5.82349 10.4054 5.7123 10.406H4.71292C4.60091 10.4067 4.49225 10.4443 4.40373 10.5129C4.31522 10.5815 4.25178 10.6774 4.22323 10.7857L2.01461 19.3704C1.99652 19.4435 1.99521 19.5199 2.01079 19.5936C2.02637 19.6674 2.05843 19.7366 2.10457 19.7962C2.15071 19.8558 2.20974 19.9042 2.27724 19.9378C2.34473 19.9713 2.41894 19.9892 2.49431 19.99H3.49369C3.60839 19.9882 3.71913 19.9477 3.80799 19.8752C3.89686 19.8027 3.95865 19.7023 3.98338 19.5902L4.21323 18.4709H6.21198L6.44184 19.5902C6.45968 19.6941 6.50988 19.7896 6.58526 19.8632C6.66064 19.9368 6.75735 19.9846 6.86158 20ZM4.56302 16.6021L5.16264 13.7039L5.75227 16.6021H4.56302Z" fill="white"/>
</svg>
